G04 (created by PCBNEW-RS274X (2012-01-19 BZR 3256)-stable) date 15/04/2012 14:51:01*
G01*
G70*
G90*
%MOIN*%
G04 Gerber Fmt 3.4, Leading zero omitted, Abs format*
%FSLAX34Y34*%
G04 APERTURE LIST*
%ADD10C,0.006000*%
%ADD11C,0.015000*%
%ADD12C,0.012000*%
%ADD13C,0.008000*%
%ADD14C,0.005000*%
%ADD15C,0.010700*%
%ADD16C,0.010000*%
%ADD17C,0.011300*%
%ADD18C,0.004500*%
%ADD19C,0.010600*%
G04 APERTURE END LIST*
G54D10*
G54D11*
X84100Y-25450D02*
X86050Y-25450D01*
X84250Y-28700D02*
X86050Y-28700D01*
X86050Y-25450D02*
X86050Y-28700D01*
X84400Y-25450D02*
X84400Y-28650D01*
X81200Y-28700D02*
X81200Y-25450D01*
X82000Y-25450D02*
X80800Y-25450D01*
X80800Y-25450D02*
X80800Y-28650D01*
X80800Y-28650D02*
X80800Y-28700D01*
X80800Y-28700D02*
X81500Y-28700D01*
X84300Y-28700D02*
X81300Y-28700D01*
X84300Y-25450D02*
X81300Y-25450D01*
G54D12*
X81300Y-25450D02*
X84300Y-25450D01*
G54D11*
X84000Y-32440D02*
X84250Y-32440D01*
X81750Y-32960D02*
X84250Y-32960D01*
X84250Y-29450D02*
X84000Y-29450D01*
X84000Y-29450D02*
X84000Y-32450D01*
X81750Y-32950D02*
X81750Y-28950D01*
X81750Y-28950D02*
X84250Y-28950D01*
X84250Y-28950D02*
X84250Y-32950D01*
X82700Y-23100D02*
X82682Y-23274D01*
X82632Y-23442D01*
X82549Y-23598D01*
X82438Y-23734D01*
X82303Y-23846D01*
X82148Y-23929D01*
X81980Y-23981D01*
X81806Y-23999D01*
X81632Y-23984D01*
X81463Y-23934D01*
X81308Y-23853D01*
X81171Y-23743D01*
X81058Y-23608D01*
X80973Y-23454D01*
X80920Y-23287D01*
X80901Y-23112D01*
X80915Y-22938D01*
X80964Y-22769D01*
X81044Y-22613D01*
X81153Y-22475D01*
X81287Y-22361D01*
X81440Y-22276D01*
X81607Y-22221D01*
X81782Y-22201D01*
X81956Y-22214D01*
X82125Y-22261D01*
X82282Y-22341D01*
X82420Y-22449D01*
X82535Y-22582D01*
X82622Y-22734D01*
X82677Y-22901D01*
X82699Y-23075D01*
X82700Y-23100D01*
X82750Y-60200D02*
X82732Y-60374D01*
X82682Y-60542D01*
X82599Y-60698D01*
X82488Y-60834D01*
X82353Y-60946D01*
X82198Y-61029D01*
X82030Y-61081D01*
X81856Y-61099D01*
X81682Y-61084D01*
X81513Y-61034D01*
X81358Y-60953D01*
X81221Y-60843D01*
X81108Y-60708D01*
X81023Y-60554D01*
X80970Y-60387D01*
X80951Y-60212D01*
X80965Y-60038D01*
X81014Y-59869D01*
X81094Y-59713D01*
X81203Y-59575D01*
X81337Y-59461D01*
X81490Y-59376D01*
X81657Y-59321D01*
X81832Y-59301D01*
X82006Y-59314D01*
X82175Y-59361D01*
X82332Y-59441D01*
X82470Y-59549D01*
X82585Y-59682D01*
X82672Y-59834D01*
X82727Y-60001D01*
X82749Y-60175D01*
X82750Y-60200D01*
G54D13*
X84659Y-57026D02*
X84632Y-57297D01*
X84553Y-57559D01*
X84425Y-57800D01*
X84252Y-58012D01*
X84041Y-58186D01*
X83801Y-58316D01*
X83540Y-58397D01*
X83268Y-58425D01*
X82997Y-58401D01*
X82735Y-58324D01*
X82493Y-58197D01*
X82280Y-58026D01*
X82104Y-57816D01*
X81973Y-57577D01*
X81890Y-57317D01*
X81860Y-57045D01*
X81882Y-56774D01*
X81958Y-56511D01*
X82083Y-56268D01*
X82252Y-56054D01*
X82461Y-55877D01*
X82699Y-55744D01*
X82959Y-55659D01*
X83230Y-55627D01*
X83502Y-55648D01*
X83765Y-55721D01*
X84009Y-55844D01*
X84224Y-56013D01*
X84403Y-56219D01*
X84537Y-56457D01*
X84624Y-56716D01*
X84658Y-56987D01*
X84659Y-57026D01*
G54D11*
X95800Y-30850D02*
X95800Y-30850D01*
X95800Y-30850D02*
X95800Y-30350D01*
X95800Y-30350D02*
X94800Y-30350D01*
X94800Y-30350D02*
X94800Y-30850D01*
X96300Y-30850D02*
X96300Y-21850D01*
X96300Y-21850D02*
X94300Y-21850D01*
X94300Y-21850D02*
X94300Y-30850D01*
X94300Y-30850D02*
X96300Y-30850D01*
X95800Y-40050D02*
X95800Y-40050D01*
X95800Y-40050D02*
X95800Y-39550D01*
X95800Y-39550D02*
X94800Y-39550D01*
X94800Y-39550D02*
X94800Y-40050D01*
X96300Y-40050D02*
X96300Y-31050D01*
X96300Y-31050D02*
X94300Y-31050D01*
X94300Y-31050D02*
X94300Y-40050D01*
X94300Y-40050D02*
X96300Y-40050D01*
X102500Y-30850D02*
X102500Y-30850D01*
X102500Y-30850D02*
X102500Y-30350D01*
X102500Y-30350D02*
X101500Y-30350D01*
X101500Y-30350D02*
X101500Y-30850D01*
X103000Y-30850D02*
X103000Y-21850D01*
X103000Y-21850D02*
X101000Y-21850D01*
X101000Y-21850D02*
X101000Y-30850D01*
X101000Y-30850D02*
X103000Y-30850D01*
X89600Y-53300D02*
X89600Y-52800D01*
X89600Y-52800D02*
X88600Y-52800D01*
X88600Y-52800D02*
X88600Y-53300D01*
X91600Y-53300D02*
X91600Y-32300D01*
X91600Y-32300D02*
X86600Y-32300D01*
X86600Y-32300D02*
X86600Y-53300D01*
X86600Y-53300D02*
X91600Y-53300D01*
X102500Y-40050D02*
X102500Y-40050D01*
X102500Y-40050D02*
X102500Y-39550D01*
X102500Y-39550D02*
X101500Y-39550D01*
X101500Y-39550D02*
X101500Y-40050D01*
X103000Y-40050D02*
X103000Y-31050D01*
X103000Y-31050D02*
X101000Y-31050D01*
X101000Y-31050D02*
X101000Y-40050D01*
X101000Y-40050D02*
X103000Y-40050D01*
G54D12*
X104000Y-53850D02*
X106500Y-53850D01*
X106500Y-53850D02*
X106500Y-52850D01*
X106500Y-52850D02*
X104000Y-52850D01*
X101000Y-54850D02*
X101000Y-51850D01*
X101000Y-51850D02*
X104000Y-51850D01*
X104000Y-51850D02*
X104000Y-54850D01*
X104000Y-54850D02*
X101000Y-54850D01*
G54D14*
X87300Y-27875D02*
X87300Y-26975D01*
X87300Y-26975D02*
X86800Y-26975D01*
X86800Y-26975D02*
X86800Y-27875D01*
X86800Y-27875D02*
X87300Y-27875D01*
X89375Y-27850D02*
X89375Y-26950D01*
X89375Y-26950D02*
X88875Y-26950D01*
X88875Y-26950D02*
X88875Y-27850D01*
X88875Y-27850D02*
X89375Y-27850D01*
G54D11*
X84250Y-38300D02*
X84000Y-38300D01*
X84000Y-38300D02*
X84000Y-41300D01*
X84000Y-41300D02*
X84250Y-41300D01*
X81750Y-41800D02*
X81750Y-37800D01*
X81750Y-37800D02*
X84250Y-37800D01*
X84250Y-37800D02*
X84250Y-41800D01*
X84250Y-41800D02*
X81750Y-41800D01*
X84250Y-33800D02*
X84000Y-33800D01*
X84000Y-33800D02*
X84000Y-36800D01*
X84000Y-36800D02*
X84250Y-36800D01*
X81750Y-37300D02*
X81750Y-33300D01*
X81750Y-33300D02*
X84250Y-33300D01*
X84250Y-33300D02*
X84250Y-37300D01*
X84250Y-37300D02*
X81750Y-37300D01*
X103825Y-42550D02*
X104025Y-42550D01*
X104075Y-42950D02*
X104075Y-40950D01*
X104075Y-42950D02*
X101575Y-42950D01*
X101575Y-42950D02*
X101575Y-41200D01*
X101575Y-41200D02*
X101575Y-40950D01*
X103825Y-41450D02*
X103825Y-42550D01*
X103825Y-41450D02*
X104075Y-41450D01*
X104075Y-40950D02*
X101575Y-40950D01*
X99750Y-55500D02*
X99750Y-55300D01*
X100150Y-55250D02*
X98150Y-55250D01*
X100150Y-55250D02*
X100150Y-57750D01*
X100150Y-57750D02*
X98400Y-57750D01*
X98400Y-57750D02*
X98150Y-57750D01*
X98650Y-55500D02*
X99750Y-55500D01*
X98650Y-55500D02*
X98650Y-55250D01*
X98150Y-55250D02*
X98150Y-57750D01*
G54D12*
X99150Y-54800D02*
X100150Y-54800D01*
X100150Y-54800D02*
X100150Y-51800D01*
X100150Y-51800D02*
X99150Y-51800D01*
X99150Y-51800D02*
X99150Y-54800D01*
X100150Y-53800D02*
X99150Y-53800D01*
X85600Y-30875D02*
X90600Y-30875D01*
X90600Y-30875D02*
X90600Y-28875D01*
X90600Y-28875D02*
X85600Y-28875D01*
X85600Y-28875D02*
X85600Y-30875D01*
G54D11*
X90950Y-26250D02*
X91950Y-26250D01*
X91950Y-26250D02*
X91950Y-24250D01*
X91950Y-24250D02*
X90950Y-24250D01*
X90950Y-24250D02*
X90950Y-26250D01*
X89700Y-26250D02*
X90700Y-26250D01*
X90700Y-26250D02*
X90700Y-24250D01*
X90700Y-24250D02*
X89700Y-24250D01*
X89700Y-24250D02*
X89700Y-26250D01*
X95900Y-58750D02*
X96900Y-58750D01*
X96900Y-58750D02*
X96900Y-56750D01*
X96900Y-56750D02*
X95900Y-56750D01*
X95900Y-56750D02*
X95900Y-58750D01*
G54D12*
X81300Y-43850D02*
X81300Y-54750D01*
X84650Y-54750D02*
X84650Y-43900D01*
X81300Y-50300D02*
X81600Y-50300D01*
X81600Y-50300D02*
X81600Y-54300D01*
X81600Y-54300D02*
X84400Y-54300D01*
X84400Y-54300D02*
X84400Y-44300D01*
X84400Y-44300D02*
X81600Y-44300D01*
X81600Y-44300D02*
X81600Y-48300D01*
X81600Y-48300D02*
X81300Y-48300D01*
X81300Y-54750D02*
X84700Y-54750D01*
X84700Y-43850D02*
X81300Y-43850D01*
X82500Y-53400D02*
X82800Y-53900D01*
X82800Y-53900D02*
X82200Y-53900D01*
X82200Y-53900D02*
X82500Y-53400D01*
G54D11*
X98000Y-49750D02*
X104250Y-49750D01*
X104250Y-49750D02*
X104250Y-44250D01*
X104250Y-44250D02*
X98000Y-44250D01*
X98000Y-44250D02*
X98000Y-49750D01*
G54D12*
X86050Y-58750D02*
X87050Y-58750D01*
X87050Y-58750D02*
X87050Y-55750D01*
X87050Y-55750D02*
X86050Y-55750D01*
X86050Y-55750D02*
X86050Y-58750D01*
X87050Y-57750D02*
X86050Y-57750D01*
X87550Y-58750D02*
X88550Y-58750D01*
X88550Y-58750D02*
X88550Y-55750D01*
X88550Y-55750D02*
X87550Y-55750D01*
X87550Y-55750D02*
X87550Y-58750D01*
X88550Y-57750D02*
X87550Y-57750D01*
X89050Y-58750D02*
X90050Y-58750D01*
X90050Y-58750D02*
X90050Y-55750D01*
X90050Y-55750D02*
X89050Y-55750D01*
X89050Y-55750D02*
X89050Y-58750D01*
X90050Y-57750D02*
X89050Y-57750D01*
X90550Y-58750D02*
X91550Y-58750D01*
X91550Y-58750D02*
X91550Y-55750D01*
X91550Y-55750D02*
X90550Y-55750D01*
X90550Y-55750D02*
X90550Y-58750D01*
X91550Y-57750D02*
X90550Y-57750D01*
X92050Y-58750D02*
X93050Y-58750D01*
X93050Y-58750D02*
X93050Y-55750D01*
X93050Y-55750D02*
X92050Y-55750D01*
X92050Y-55750D02*
X92050Y-58750D01*
X93050Y-57750D02*
X92050Y-57750D01*
X93550Y-58750D02*
X94550Y-58750D01*
X94550Y-58750D02*
X94550Y-55750D01*
X94550Y-55750D02*
X93550Y-55750D01*
X93550Y-55750D02*
X93550Y-58750D01*
X94550Y-57750D02*
X93550Y-57750D01*
G54D14*
X52125Y-27075D02*
X52125Y-27975D01*
X52125Y-27975D02*
X52625Y-27975D01*
X52625Y-27975D02*
X52625Y-27075D01*
X52625Y-27075D02*
X52125Y-27075D01*
X50925Y-27075D02*
X50925Y-27975D01*
X50925Y-27975D02*
X51425Y-27975D01*
X51425Y-27975D02*
X51425Y-27075D01*
X51425Y-27075D02*
X50925Y-27075D01*
X44175Y-52725D02*
X44175Y-53625D01*
X44175Y-53625D02*
X44675Y-53625D01*
X44675Y-53625D02*
X44675Y-52725D01*
X44675Y-52725D02*
X44175Y-52725D01*
X42750Y-42550D02*
X42750Y-41650D01*
X42750Y-41650D02*
X42250Y-41650D01*
X42250Y-41650D02*
X42250Y-42550D01*
X42250Y-42550D02*
X42750Y-42550D01*
X44175Y-51525D02*
X44175Y-52425D01*
X44175Y-52425D02*
X44675Y-52425D01*
X44675Y-52425D02*
X44675Y-51525D01*
X44675Y-51525D02*
X44175Y-51525D01*
X43025Y-39575D02*
X43925Y-39575D01*
X43925Y-39575D02*
X43925Y-39075D01*
X43925Y-39075D02*
X43025Y-39075D01*
X43025Y-39075D02*
X43025Y-39575D01*
X43025Y-38475D02*
X43925Y-38475D01*
X43925Y-38475D02*
X43925Y-37975D01*
X43925Y-37975D02*
X43025Y-37975D01*
X43025Y-37975D02*
X43025Y-38475D01*
X43025Y-37475D02*
X43925Y-37475D01*
X43925Y-37475D02*
X43925Y-36975D01*
X43925Y-36975D02*
X43025Y-36975D01*
X43025Y-36975D02*
X43025Y-37475D01*
X43025Y-36475D02*
X43925Y-36475D01*
X43925Y-36475D02*
X43925Y-35975D01*
X43925Y-35975D02*
X43025Y-35975D01*
X43025Y-35975D02*
X43025Y-36475D01*
X43025Y-32475D02*
X43925Y-32475D01*
X43925Y-32475D02*
X43925Y-31975D01*
X43925Y-31975D02*
X43025Y-31975D01*
X43025Y-31975D02*
X43025Y-32475D01*
X43025Y-33475D02*
X43925Y-33475D01*
X43925Y-33475D02*
X43925Y-32975D01*
X43925Y-32975D02*
X43025Y-32975D01*
X43025Y-32975D02*
X43025Y-33475D01*
X43025Y-34475D02*
X43925Y-34475D01*
X43925Y-34475D02*
X43925Y-33975D01*
X43925Y-33975D02*
X43025Y-33975D01*
X43025Y-33975D02*
X43025Y-34475D01*
X43025Y-35475D02*
X43925Y-35475D01*
X43925Y-35475D02*
X43925Y-34975D01*
X43925Y-34975D02*
X43025Y-34975D01*
X43025Y-34975D02*
X43025Y-35475D01*
X56325Y-23275D02*
X55425Y-23275D01*
X55425Y-23275D02*
X55425Y-23775D01*
X55425Y-23775D02*
X56325Y-23775D01*
X56325Y-23775D02*
X56325Y-23275D01*
X56325Y-24225D02*
X55425Y-24225D01*
X55425Y-24225D02*
X55425Y-24725D01*
X55425Y-24725D02*
X56325Y-24725D01*
X56325Y-24725D02*
X56325Y-24225D01*
X43025Y-30275D02*
X43925Y-30275D01*
X43925Y-30275D02*
X43925Y-29775D01*
X43925Y-29775D02*
X43025Y-29775D01*
X43025Y-29775D02*
X43025Y-30275D01*
X43025Y-29275D02*
X43925Y-29275D01*
X43925Y-29275D02*
X43925Y-28775D01*
X43925Y-28775D02*
X43025Y-28775D01*
X43025Y-28775D02*
X43025Y-29275D01*
X43025Y-28275D02*
X43925Y-28275D01*
X43925Y-28275D02*
X43925Y-27775D01*
X43925Y-27775D02*
X43025Y-27775D01*
X43025Y-27775D02*
X43025Y-28275D01*
X43025Y-27275D02*
X43925Y-27275D01*
X43925Y-27275D02*
X43925Y-26775D01*
X43925Y-26775D02*
X43025Y-26775D01*
X43025Y-26775D02*
X43025Y-27275D01*
X43025Y-23275D02*
X43925Y-23275D01*
X43925Y-23275D02*
X43925Y-22775D01*
X43925Y-22775D02*
X43025Y-22775D01*
X43025Y-22775D02*
X43025Y-23275D01*
X43025Y-24275D02*
X43925Y-24275D01*
X43925Y-24275D02*
X43925Y-23775D01*
X43925Y-23775D02*
X43025Y-23775D01*
X43025Y-23775D02*
X43025Y-24275D01*
X43025Y-25275D02*
X43925Y-25275D01*
X43925Y-25275D02*
X43925Y-24775D01*
X43925Y-24775D02*
X43025Y-24775D01*
X43025Y-24775D02*
X43025Y-25275D01*
X43025Y-26275D02*
X43925Y-26275D01*
X43925Y-26275D02*
X43925Y-25775D01*
X43925Y-25775D02*
X43025Y-25775D01*
X43025Y-25775D02*
X43025Y-26275D01*
X57575Y-23275D02*
X56675Y-23275D01*
X56675Y-23275D02*
X56675Y-23775D01*
X56675Y-23775D02*
X57575Y-23775D01*
X57575Y-23775D02*
X57575Y-23275D01*
X57575Y-24225D02*
X56675Y-24225D01*
X56675Y-24225D02*
X56675Y-24725D01*
X56675Y-24725D02*
X57575Y-24725D01*
X57575Y-24725D02*
X57575Y-24225D01*
X51275Y-23225D02*
X50375Y-23225D01*
X50375Y-23225D02*
X50375Y-23725D01*
X50375Y-23725D02*
X51275Y-23725D01*
X51275Y-23725D02*
X51275Y-23225D01*
X49525Y-39150D02*
X49525Y-38250D01*
X49525Y-38250D02*
X49025Y-38250D01*
X49025Y-38250D02*
X49025Y-39150D01*
X49025Y-39150D02*
X49525Y-39150D01*
X50075Y-44375D02*
X50075Y-43475D01*
X50075Y-43475D02*
X49575Y-43475D01*
X49575Y-43475D02*
X49575Y-44375D01*
X49575Y-44375D02*
X50075Y-44375D01*
X57175Y-42375D02*
X57175Y-41475D01*
X57175Y-41475D02*
X56675Y-41475D01*
X56675Y-41475D02*
X56675Y-42375D01*
X56675Y-42375D02*
X57175Y-42375D01*
X53025Y-33725D02*
X53925Y-33725D01*
X53925Y-33725D02*
X53925Y-33225D01*
X53925Y-33225D02*
X53025Y-33225D01*
X53025Y-33225D02*
X53025Y-33725D01*
X48075Y-52750D02*
X48975Y-52750D01*
X48975Y-52750D02*
X48975Y-52250D01*
X48975Y-52250D02*
X48075Y-52250D01*
X48075Y-52250D02*
X48075Y-52750D01*
X42350Y-43325D02*
X43250Y-43325D01*
X43250Y-43325D02*
X43250Y-42825D01*
X43250Y-42825D02*
X42350Y-42825D01*
X42350Y-42825D02*
X42350Y-43325D01*
X50075Y-52475D02*
X50075Y-51575D01*
X50075Y-51575D02*
X49575Y-51575D01*
X49575Y-51575D02*
X49575Y-52475D01*
X49575Y-52475D02*
X50075Y-52475D01*
G54D12*
X100036Y-57736D02*
X100064Y-57707D01*
X100093Y-57621D01*
X100093Y-57564D01*
X100064Y-57479D01*
X100007Y-57421D01*
X99950Y-57393D01*
X99836Y-57364D01*
X99750Y-57364D01*
X99636Y-57393D01*
X99579Y-57421D01*
X99521Y-57479D01*
X99493Y-57564D01*
X99493Y-57621D01*
X99521Y-57707D01*
X99550Y-57736D01*
X99493Y-58107D02*
X99493Y-58221D01*
X99521Y-58279D01*
X99579Y-58336D01*
X99693Y-58364D01*
X99893Y-58364D01*
X100007Y-58336D01*
X100064Y-58279D01*
X100093Y-58221D01*
X100093Y-58107D01*
X100064Y-58050D01*
X100007Y-57993D01*
X99893Y-57964D01*
X99693Y-57964D01*
X99579Y-57993D01*
X99521Y-58050D01*
X99493Y-58107D01*
X100093Y-58908D02*
X100093Y-58622D01*
X99493Y-58622D01*
X99493Y-59222D02*
X99493Y-59336D01*
X99521Y-59394D01*
X99579Y-59451D01*
X99693Y-59479D01*
X99893Y-59479D01*
X100007Y-59451D01*
X100064Y-59394D01*
X100093Y-59336D01*
X100093Y-59222D01*
X100064Y-59165D01*
X100007Y-59108D01*
X99893Y-59079D01*
X99693Y-59079D01*
X99579Y-59108D01*
X99521Y-59165D01*
X99493Y-59222D01*
X100093Y-59737D02*
X99493Y-59737D01*
X100093Y-60080D01*
X99493Y-60080D01*
X99779Y-60366D02*
X99779Y-60566D01*
X100093Y-60652D02*
X100093Y-60366D01*
X99493Y-60366D01*
X99493Y-60652D01*
X99493Y-60823D02*
X99493Y-61166D01*
X100093Y-60995D02*
X99493Y-60995D01*
X99493Y-61280D02*
X99493Y-61623D01*
X100093Y-61452D02*
X99493Y-61452D01*
X99779Y-61823D02*
X99779Y-62023D01*
X100093Y-62109D02*
X100093Y-61823D01*
X99493Y-61823D01*
X99493Y-62109D01*
X100093Y-62851D02*
X100093Y-62966D01*
X100064Y-63023D01*
X100036Y-63051D01*
X99950Y-63109D01*
X99836Y-63137D01*
X99607Y-63137D01*
X99550Y-63109D01*
X99521Y-63080D01*
X99493Y-63023D01*
X99493Y-62909D01*
X99521Y-62851D01*
X99550Y-62823D01*
X99607Y-62794D01*
X99750Y-62794D01*
X99807Y-62823D01*
X99836Y-62851D01*
X99864Y-62909D01*
X99864Y-63023D01*
X99836Y-63080D01*
X99807Y-63109D01*
X99750Y-63137D01*
X102243Y-59093D02*
X102843Y-59293D01*
X102243Y-59493D01*
X102671Y-59664D02*
X102671Y-59950D01*
X102843Y-59607D02*
X102243Y-59807D01*
X102843Y-60007D01*
X102843Y-60493D02*
X102843Y-60207D01*
X102243Y-60207D01*
X102243Y-60779D02*
X102386Y-60779D01*
X102329Y-60636D02*
X102386Y-60779D01*
X102329Y-60921D01*
X102500Y-60693D02*
X102386Y-60779D01*
X102500Y-60864D01*
X102243Y-61236D02*
X102386Y-61236D01*
X102329Y-61093D02*
X102386Y-61236D01*
X102329Y-61378D01*
X102500Y-61150D02*
X102386Y-61236D01*
X102500Y-61321D01*
X79543Y-26408D02*
X78943Y-26408D01*
X79543Y-26751D02*
X79200Y-26494D01*
X78943Y-26751D02*
X79286Y-26408D01*
X79543Y-27322D02*
X79543Y-26979D01*
X79543Y-27151D02*
X78943Y-27151D01*
X79029Y-27094D01*
X79086Y-27036D01*
X79114Y-26979D01*
X80386Y-26229D02*
X80414Y-26200D01*
X80443Y-26114D01*
X80443Y-26057D01*
X80414Y-25972D01*
X80357Y-25914D01*
X80300Y-25886D01*
X80186Y-25857D01*
X80100Y-25857D01*
X79986Y-25886D01*
X79929Y-25914D01*
X79871Y-25972D01*
X79843Y-26057D01*
X79843Y-26114D01*
X79871Y-26200D01*
X79900Y-26229D01*
X79843Y-26600D02*
X79843Y-26714D01*
X79871Y-26772D01*
X79929Y-26829D01*
X80043Y-26857D01*
X80243Y-26857D01*
X80357Y-26829D01*
X80414Y-26772D01*
X80443Y-26714D01*
X80443Y-26600D01*
X80414Y-26543D01*
X80357Y-26486D01*
X80243Y-26457D01*
X80043Y-26457D01*
X79929Y-26486D01*
X79871Y-26543D01*
X79843Y-26600D01*
X80443Y-27115D02*
X79843Y-27115D01*
X80443Y-27458D01*
X79843Y-27458D01*
X80443Y-27744D02*
X79843Y-27744D01*
X80443Y-28087D01*
X79843Y-28087D01*
X80500Y-28230D02*
X80500Y-28687D01*
X79900Y-28801D02*
X79871Y-28830D01*
X79843Y-28887D01*
X79843Y-29030D01*
X79871Y-29087D01*
X79900Y-29116D01*
X79957Y-29144D01*
X80014Y-29144D01*
X80100Y-29116D01*
X80443Y-28773D01*
X80443Y-29144D01*
G54D15*
X86276Y-32634D02*
X85593Y-32634D01*
X85593Y-32797D01*
X85625Y-32838D01*
X85658Y-32858D01*
X85723Y-32878D01*
X85821Y-32878D01*
X85886Y-32858D01*
X85918Y-32838D01*
X85951Y-32797D01*
X85951Y-32634D01*
X86276Y-33082D02*
X86276Y-33164D01*
X86243Y-33205D01*
X86211Y-33225D01*
X86113Y-33266D01*
X85983Y-33286D01*
X85723Y-33286D01*
X85658Y-33266D01*
X85625Y-33245D01*
X85593Y-33205D01*
X85593Y-33123D01*
X85625Y-33082D01*
X85658Y-33062D01*
X85723Y-33042D01*
X85886Y-33042D01*
X85951Y-33062D01*
X85983Y-33082D01*
X86016Y-33123D01*
X86016Y-33205D01*
X85983Y-33245D01*
X85951Y-33266D01*
X85886Y-33286D01*
G54D12*
X82011Y-57711D02*
X82039Y-57682D01*
X82068Y-57596D01*
X82068Y-57539D01*
X82039Y-57454D01*
X81982Y-57396D01*
X81925Y-57368D01*
X81811Y-57339D01*
X81725Y-57339D01*
X81611Y-57368D01*
X81554Y-57396D01*
X81496Y-57454D01*
X81468Y-57539D01*
X81468Y-57596D01*
X81496Y-57682D01*
X81525Y-57711D01*
X81468Y-58082D02*
X81468Y-58196D01*
X81496Y-58254D01*
X81554Y-58311D01*
X81668Y-58339D01*
X81868Y-58339D01*
X81982Y-58311D01*
X82039Y-58254D01*
X82068Y-58196D01*
X82068Y-58082D01*
X82039Y-58025D01*
X81982Y-57968D01*
X81868Y-57939D01*
X81668Y-57939D01*
X81554Y-57968D01*
X81496Y-58025D01*
X81468Y-58082D01*
X82068Y-58883D02*
X82068Y-58597D01*
X81468Y-58597D01*
X81468Y-59197D02*
X81468Y-59311D01*
X81496Y-59369D01*
X81554Y-59426D01*
X81668Y-59454D01*
X81868Y-59454D01*
X81982Y-59426D01*
X82039Y-59369D01*
X82068Y-59311D01*
X82068Y-59197D01*
X82039Y-59140D01*
X81982Y-59083D01*
X81868Y-59054D01*
X81668Y-59054D01*
X81554Y-59083D01*
X81496Y-59140D01*
X81468Y-59197D01*
X82068Y-59712D02*
X81468Y-59712D01*
X82068Y-60055D01*
X81468Y-60055D01*
X81754Y-60341D02*
X81754Y-60541D01*
X82068Y-60627D02*
X82068Y-60341D01*
X81468Y-60341D01*
X81468Y-60627D01*
X81468Y-60798D02*
X81468Y-61141D01*
X82068Y-60970D02*
X81468Y-60970D01*
X81468Y-61255D02*
X81468Y-61598D01*
X82068Y-61427D02*
X81468Y-61427D01*
X81754Y-61798D02*
X81754Y-61998D01*
X82068Y-62084D02*
X82068Y-61798D01*
X81468Y-61798D01*
X81468Y-62084D01*
X82068Y-62826D02*
X82068Y-62941D01*
X82039Y-62998D01*
X82011Y-63026D01*
X81925Y-63084D01*
X81811Y-63112D01*
X81582Y-63112D01*
X81525Y-63084D01*
X81496Y-63055D01*
X81468Y-62998D01*
X81468Y-62884D01*
X81496Y-62826D01*
X81525Y-62798D01*
X81582Y-62769D01*
X81725Y-62769D01*
X81782Y-62798D01*
X81811Y-62826D01*
X81839Y-62884D01*
X81839Y-62998D01*
X81811Y-63055D01*
X81782Y-63084D01*
X81725Y-63112D01*
X84218Y-59068D02*
X84818Y-59268D01*
X84218Y-59468D01*
X84646Y-59639D02*
X84646Y-59925D01*
X84818Y-59582D02*
X84218Y-59782D01*
X84818Y-59982D01*
X84818Y-60468D02*
X84818Y-60182D01*
X84218Y-60182D01*
X84218Y-60754D02*
X84361Y-60754D01*
X84304Y-60611D02*
X84361Y-60754D01*
X84304Y-60896D01*
X84475Y-60668D02*
X84361Y-60754D01*
X84475Y-60839D01*
X84218Y-61211D02*
X84361Y-61211D01*
X84304Y-61068D02*
X84361Y-61211D01*
X84304Y-61353D01*
X84475Y-61125D02*
X84361Y-61211D01*
X84475Y-61296D01*
X81961Y-20611D02*
X81989Y-20582D01*
X82018Y-20496D01*
X82018Y-20439D01*
X81989Y-20354D01*
X81932Y-20296D01*
X81875Y-20268D01*
X81761Y-20239D01*
X81675Y-20239D01*
X81561Y-20268D01*
X81504Y-20296D01*
X81446Y-20354D01*
X81418Y-20439D01*
X81418Y-20496D01*
X81446Y-20582D01*
X81475Y-20611D01*
X81418Y-20982D02*
X81418Y-21096D01*
X81446Y-21154D01*
X81504Y-21211D01*
X81618Y-21239D01*
X81818Y-21239D01*
X81932Y-21211D01*
X81989Y-21154D01*
X82018Y-21096D01*
X82018Y-20982D01*
X81989Y-20925D01*
X81932Y-20868D01*
X81818Y-20839D01*
X81618Y-20839D01*
X81504Y-20868D01*
X81446Y-20925D01*
X81418Y-20982D01*
X82018Y-21783D02*
X82018Y-21497D01*
X81418Y-21497D01*
X81418Y-22097D02*
X81418Y-22211D01*
X81446Y-22269D01*
X81504Y-22326D01*
X81618Y-22354D01*
X81818Y-22354D01*
X81932Y-22326D01*
X81989Y-22269D01*
X82018Y-22211D01*
X82018Y-22097D01*
X81989Y-22040D01*
X81932Y-21983D01*
X81818Y-21954D01*
X81618Y-21954D01*
X81504Y-21983D01*
X81446Y-22040D01*
X81418Y-22097D01*
X82018Y-22612D02*
X81418Y-22612D01*
X82018Y-22955D01*
X81418Y-22955D01*
X81704Y-23241D02*
X81704Y-23441D01*
X82018Y-23527D02*
X82018Y-23241D01*
X81418Y-23241D01*
X81418Y-23527D01*
X81418Y-23698D02*
X81418Y-24041D01*
X82018Y-23870D02*
X81418Y-23870D01*
X81418Y-24155D02*
X81418Y-24498D01*
X82018Y-24327D02*
X81418Y-24327D01*
X81704Y-24698D02*
X81704Y-24898D01*
X82018Y-24984D02*
X82018Y-24698D01*
X81418Y-24698D01*
X81418Y-24984D01*
X82018Y-25726D02*
X82018Y-25841D01*
X81989Y-25898D01*
X81961Y-25926D01*
X81875Y-25984D01*
X81761Y-26012D01*
X81532Y-26012D01*
X81475Y-25984D01*
X81446Y-25955D01*
X81418Y-25898D01*
X81418Y-25784D01*
X81446Y-25726D01*
X81475Y-25698D01*
X81532Y-25669D01*
X81675Y-25669D01*
X81732Y-25698D01*
X81761Y-25726D01*
X81789Y-25784D01*
X81789Y-25898D01*
X81761Y-25955D01*
X81732Y-25984D01*
X81675Y-26012D01*
X84168Y-21968D02*
X84768Y-22168D01*
X84168Y-22368D01*
X84596Y-22539D02*
X84596Y-22825D01*
X84768Y-22482D02*
X84168Y-22682D01*
X84768Y-22882D01*
X84768Y-23368D02*
X84768Y-23082D01*
X84168Y-23082D01*
X84168Y-23654D02*
X84311Y-23654D01*
X84254Y-23511D02*
X84311Y-23654D01*
X84254Y-23796D01*
X84425Y-23568D02*
X84311Y-23654D01*
X84425Y-23739D01*
X84168Y-24111D02*
X84311Y-24111D01*
X84254Y-23968D02*
X84311Y-24111D01*
X84254Y-24253D01*
X84425Y-24025D02*
X84311Y-24111D01*
X84425Y-24196D01*
G54D16*
X83162Y-22710D02*
X83162Y-22481D01*
X83162Y-22595D02*
X82762Y-22595D01*
X82819Y-22557D01*
X82857Y-22519D01*
X82876Y-22481D01*
X83162Y-22881D02*
X82762Y-22881D01*
X82762Y-23034D01*
X82781Y-23072D01*
X82800Y-23091D01*
X82838Y-23110D01*
X82895Y-23110D01*
X82933Y-23091D01*
X82952Y-23072D01*
X82971Y-23034D01*
X82971Y-22881D01*
X83162Y-23281D02*
X82762Y-23281D01*
X83162Y-23471D02*
X82762Y-23471D01*
X83162Y-23700D01*
X82762Y-23700D01*
X83212Y-59810D02*
X83212Y-59581D01*
X83212Y-59695D02*
X82812Y-59695D01*
X82869Y-59657D01*
X82907Y-59619D01*
X82926Y-59581D01*
X83212Y-59981D02*
X82812Y-59981D01*
X82812Y-60134D01*
X82831Y-60172D01*
X82850Y-60191D01*
X82888Y-60210D01*
X82945Y-60210D01*
X82983Y-60191D01*
X83002Y-60172D01*
X83021Y-60134D01*
X83021Y-59981D01*
X83212Y-60381D02*
X82812Y-60381D01*
X83212Y-60571D02*
X82812Y-60571D01*
X83212Y-60800D01*
X82812Y-60800D01*
G54D13*
X83971Y-57299D02*
X84138Y-57037D01*
X84257Y-57299D02*
X84257Y-56749D01*
X84066Y-56749D01*
X84019Y-56775D01*
X83995Y-56801D01*
X83971Y-56853D01*
X83971Y-56932D01*
X83995Y-56984D01*
X84019Y-57011D01*
X84066Y-57037D01*
X84257Y-57037D01*
X83828Y-56749D02*
X83662Y-57299D01*
X83495Y-56749D01*
X83352Y-57141D02*
X83114Y-57141D01*
X83399Y-57299D02*
X83233Y-56749D01*
X83066Y-57299D01*
X82613Y-57299D02*
X82780Y-57037D01*
X82899Y-57299D02*
X82899Y-56749D01*
X82708Y-56749D01*
X82661Y-56775D01*
X82637Y-56801D01*
X82613Y-56853D01*
X82613Y-56932D01*
X82637Y-56984D01*
X82661Y-57011D01*
X82708Y-57037D01*
X82899Y-57037D01*
X82137Y-57299D02*
X82423Y-57299D01*
X82280Y-57299D02*
X82280Y-56749D01*
X82328Y-56827D01*
X82375Y-56880D01*
X82423Y-56906D01*
X83656Y-59149D02*
X83942Y-59149D01*
X83799Y-59149D02*
X83799Y-58599D01*
X83847Y-58677D01*
X83894Y-58730D01*
X83942Y-58756D01*
X83347Y-58599D02*
X83299Y-58599D01*
X83251Y-58625D01*
X83228Y-58651D01*
X83204Y-58703D01*
X83180Y-58808D01*
X83180Y-58939D01*
X83204Y-59044D01*
X83228Y-59096D01*
X83251Y-59122D01*
X83299Y-59149D01*
X83347Y-59149D01*
X83394Y-59122D01*
X83418Y-59096D01*
X83442Y-59044D01*
X83466Y-58939D01*
X83466Y-58808D01*
X83442Y-58703D01*
X83418Y-58651D01*
X83394Y-58625D01*
X83347Y-58599D01*
X82966Y-59149D02*
X82966Y-58599D01*
X82918Y-58939D02*
X82775Y-59149D01*
X82775Y-58782D02*
X82966Y-58991D01*
G54D17*
X94943Y-26157D02*
X95429Y-26157D01*
X95486Y-26179D01*
X95514Y-26200D01*
X95543Y-26243D01*
X95543Y-26329D01*
X95514Y-26371D01*
X95486Y-26393D01*
X95429Y-26414D01*
X94943Y-26414D01*
X95543Y-26864D02*
X95543Y-26607D01*
X95543Y-26735D02*
X94943Y-26735D01*
X95029Y-26692D01*
X95086Y-26650D01*
X95114Y-26607D01*
X95043Y-24285D02*
X94443Y-24285D01*
X94443Y-24457D01*
X94471Y-24499D01*
X94500Y-24521D01*
X94557Y-24542D01*
X94643Y-24542D01*
X94700Y-24521D01*
X94729Y-24499D01*
X94757Y-24457D01*
X94757Y-24285D01*
X94986Y-24992D02*
X95014Y-24971D01*
X95043Y-24907D01*
X95043Y-24864D01*
X95014Y-24799D01*
X94957Y-24757D01*
X94900Y-24735D01*
X94786Y-24714D01*
X94700Y-24714D01*
X94586Y-24735D01*
X94529Y-24757D01*
X94471Y-24799D01*
X94443Y-24864D01*
X94443Y-24907D01*
X94471Y-24971D01*
X94500Y-24992D01*
X94729Y-25335D02*
X94729Y-25185D01*
X95043Y-25185D02*
X94443Y-25185D01*
X94443Y-25399D01*
X94700Y-25635D02*
X94671Y-25593D01*
X94643Y-25571D01*
X94586Y-25550D01*
X94557Y-25550D01*
X94500Y-25571D01*
X94471Y-25593D01*
X94443Y-25635D01*
X94443Y-25721D01*
X94471Y-25764D01*
X94500Y-25785D01*
X94557Y-25807D01*
X94586Y-25807D01*
X94643Y-25785D01*
X94671Y-25764D01*
X94700Y-25721D01*
X94700Y-25635D01*
X94729Y-25593D01*
X94757Y-25571D01*
X94814Y-25550D01*
X94929Y-25550D01*
X94986Y-25571D01*
X95014Y-25593D01*
X95043Y-25635D01*
X95043Y-25721D01*
X95014Y-25764D01*
X94986Y-25785D01*
X94929Y-25807D01*
X94814Y-25807D01*
X94757Y-25785D01*
X94729Y-25764D01*
X94700Y-25721D01*
X94443Y-26214D02*
X94443Y-26000D01*
X94729Y-25979D01*
X94700Y-26000D01*
X94671Y-26043D01*
X94671Y-26150D01*
X94700Y-26193D01*
X94729Y-26214D01*
X94786Y-26236D01*
X94929Y-26236D01*
X94986Y-26214D01*
X95014Y-26193D01*
X95043Y-26150D01*
X95043Y-26043D01*
X95014Y-26000D01*
X94986Y-25979D01*
X94443Y-26386D02*
X94443Y-26686D01*
X95043Y-26493D01*
X94643Y-27051D02*
X95043Y-27051D01*
X94414Y-26944D02*
X94843Y-26837D01*
X94843Y-27115D01*
X94443Y-27223D02*
X94443Y-27480D01*
X95043Y-27351D02*
X94443Y-27351D01*
X94943Y-35157D02*
X95429Y-35157D01*
X95486Y-35179D01*
X95514Y-35200D01*
X95543Y-35243D01*
X95543Y-35329D01*
X95514Y-35371D01*
X95486Y-35393D01*
X95429Y-35414D01*
X94943Y-35414D01*
X95000Y-35607D02*
X94971Y-35628D01*
X94943Y-35671D01*
X94943Y-35778D01*
X94971Y-35821D01*
X95000Y-35842D01*
X95057Y-35864D01*
X95114Y-35864D01*
X95200Y-35842D01*
X95543Y-35585D01*
X95543Y-35864D01*
X95043Y-33485D02*
X94443Y-33485D01*
X94443Y-33657D01*
X94471Y-33699D01*
X94500Y-33721D01*
X94557Y-33742D01*
X94643Y-33742D01*
X94700Y-33721D01*
X94729Y-33699D01*
X94757Y-33657D01*
X94757Y-33485D01*
X94986Y-34192D02*
X95014Y-34171D01*
X95043Y-34107D01*
X95043Y-34064D01*
X95014Y-33999D01*
X94957Y-33957D01*
X94900Y-33935D01*
X94786Y-33914D01*
X94700Y-33914D01*
X94586Y-33935D01*
X94529Y-33957D01*
X94471Y-33999D01*
X94443Y-34064D01*
X94443Y-34107D01*
X94471Y-34171D01*
X94500Y-34192D01*
X94729Y-34535D02*
X94729Y-34385D01*
X95043Y-34385D02*
X94443Y-34385D01*
X94443Y-34599D01*
X94700Y-34835D02*
X94671Y-34793D01*
X94643Y-34771D01*
X94586Y-34750D01*
X94557Y-34750D01*
X94500Y-34771D01*
X94471Y-34793D01*
X94443Y-34835D01*
X94443Y-34921D01*
X94471Y-34964D01*
X94500Y-34985D01*
X94557Y-35007D01*
X94586Y-35007D01*
X94643Y-34985D01*
X94671Y-34964D01*
X94700Y-34921D01*
X94700Y-34835D01*
X94729Y-34793D01*
X94757Y-34771D01*
X94814Y-34750D01*
X94929Y-34750D01*
X94986Y-34771D01*
X95014Y-34793D01*
X95043Y-34835D01*
X95043Y-34921D01*
X95014Y-34964D01*
X94986Y-34985D01*
X94929Y-35007D01*
X94814Y-35007D01*
X94757Y-34985D01*
X94729Y-34964D01*
X94700Y-34921D01*
X94443Y-35414D02*
X94443Y-35200D01*
X94729Y-35179D01*
X94700Y-35200D01*
X94671Y-35243D01*
X94671Y-35350D01*
X94700Y-35393D01*
X94729Y-35414D01*
X94786Y-35436D01*
X94929Y-35436D01*
X94986Y-35414D01*
X95014Y-35393D01*
X95043Y-35350D01*
X95043Y-35243D01*
X95014Y-35200D01*
X94986Y-35179D01*
X94443Y-35586D02*
X94443Y-35886D01*
X95043Y-35693D01*
X94643Y-36251D02*
X95043Y-36251D01*
X94414Y-36144D02*
X94843Y-36037D01*
X94843Y-36315D01*
X94443Y-36423D02*
X94443Y-36680D01*
X95043Y-36551D02*
X94443Y-36551D01*
X102264Y-26150D02*
X102293Y-26214D01*
X102293Y-26321D01*
X102264Y-26364D01*
X102236Y-26385D01*
X102179Y-26407D01*
X102121Y-26407D01*
X102064Y-26385D01*
X102036Y-26364D01*
X102007Y-26321D01*
X101979Y-26235D01*
X101950Y-26193D01*
X101921Y-26171D01*
X101864Y-26150D01*
X101807Y-26150D01*
X101750Y-26171D01*
X101721Y-26193D01*
X101693Y-26235D01*
X101693Y-26343D01*
X101721Y-26407D01*
X101693Y-26557D02*
X102293Y-26664D01*
X101864Y-26750D01*
X102293Y-26836D01*
X101693Y-26943D01*
X102293Y-27350D02*
X102293Y-27093D01*
X102293Y-27221D02*
X101693Y-27221D01*
X101779Y-27178D01*
X101836Y-27136D01*
X101864Y-27093D01*
X101714Y-23954D02*
X101743Y-24018D01*
X101743Y-24125D01*
X101714Y-24168D01*
X101686Y-24189D01*
X101629Y-24211D01*
X101571Y-24211D01*
X101514Y-24189D01*
X101486Y-24168D01*
X101457Y-24125D01*
X101429Y-24039D01*
X101400Y-23997D01*
X101371Y-23975D01*
X101314Y-23954D01*
X101257Y-23954D01*
X101200Y-23975D01*
X101171Y-23997D01*
X101143Y-24039D01*
X101143Y-24147D01*
X101171Y-24211D01*
X101143Y-24361D02*
X101743Y-24468D01*
X101314Y-24554D01*
X101743Y-24640D01*
X101143Y-24747D01*
X101743Y-24918D02*
X101143Y-24918D01*
X101143Y-25068D02*
X101143Y-25325D01*
X101743Y-25196D02*
X101143Y-25196D01*
X101686Y-25732D02*
X101714Y-25711D01*
X101743Y-25647D01*
X101743Y-25604D01*
X101714Y-25539D01*
X101657Y-25497D01*
X101600Y-25475D01*
X101486Y-25454D01*
X101400Y-25454D01*
X101286Y-25475D01*
X101229Y-25497D01*
X101171Y-25539D01*
X101143Y-25604D01*
X101143Y-25647D01*
X101171Y-25711D01*
X101200Y-25732D01*
X101743Y-25925D02*
X101143Y-25925D01*
X101429Y-25925D02*
X101429Y-26182D01*
X101743Y-26182D02*
X101143Y-26182D01*
X101800Y-26289D02*
X101800Y-26632D01*
X101143Y-26696D02*
X101743Y-26996D01*
X101143Y-26996D02*
X101743Y-26696D01*
X101800Y-27061D02*
X101800Y-27404D01*
X101400Y-27575D02*
X101371Y-27533D01*
X101343Y-27511D01*
X101286Y-27490D01*
X101257Y-27490D01*
X101200Y-27511D01*
X101171Y-27533D01*
X101143Y-27575D01*
X101143Y-27661D01*
X101171Y-27704D01*
X101200Y-27725D01*
X101257Y-27747D01*
X101286Y-27747D01*
X101343Y-27725D01*
X101371Y-27704D01*
X101400Y-27661D01*
X101400Y-27575D01*
X101429Y-27533D01*
X101457Y-27511D01*
X101514Y-27490D01*
X101629Y-27490D01*
X101686Y-27511D01*
X101714Y-27533D01*
X101743Y-27575D01*
X101743Y-27661D01*
X101714Y-27704D01*
X101686Y-27725D01*
X101629Y-27747D01*
X101514Y-27747D01*
X101457Y-27725D01*
X101429Y-27704D01*
X101400Y-27661D01*
X88883Y-41907D02*
X89450Y-41907D01*
X89517Y-41929D01*
X89550Y-41950D01*
X89583Y-41993D01*
X89583Y-42079D01*
X89550Y-42121D01*
X89517Y-42143D01*
X89450Y-42164D01*
X88883Y-42164D01*
X88883Y-42335D02*
X88883Y-42614D01*
X89150Y-42464D01*
X89150Y-42528D01*
X89183Y-42571D01*
X89217Y-42592D01*
X89283Y-42614D01*
X89450Y-42614D01*
X89517Y-42592D01*
X89550Y-42571D01*
X89583Y-42528D01*
X89583Y-42400D01*
X89550Y-42357D01*
X89517Y-42335D01*
G54D12*
X88383Y-39116D02*
X87683Y-39116D01*
X87683Y-39282D01*
X87717Y-39382D01*
X87783Y-39449D01*
X87850Y-39482D01*
X87983Y-39516D01*
X88083Y-39516D01*
X88217Y-39482D01*
X88283Y-39449D01*
X88350Y-39382D01*
X88383Y-39282D01*
X88383Y-39116D01*
X88350Y-39782D02*
X88383Y-39882D01*
X88383Y-40049D01*
X88350Y-40116D01*
X88317Y-40149D01*
X88250Y-40182D01*
X88183Y-40182D01*
X88117Y-40149D01*
X88083Y-40116D01*
X88050Y-40049D01*
X88017Y-39916D01*
X87983Y-39849D01*
X87950Y-39816D01*
X87883Y-39782D01*
X87817Y-39782D01*
X87750Y-39816D01*
X87717Y-39849D01*
X87683Y-39916D01*
X87683Y-40082D01*
X87717Y-40182D01*
X88383Y-40483D02*
X87683Y-40483D01*
X87683Y-40749D01*
X87717Y-40816D01*
X87750Y-40849D01*
X87817Y-40883D01*
X87917Y-40883D01*
X87983Y-40849D01*
X88017Y-40816D01*
X88050Y-40749D01*
X88050Y-40483D01*
X88383Y-41183D02*
X87683Y-41183D01*
X88317Y-41916D02*
X88350Y-41882D01*
X88383Y-41782D01*
X88383Y-41716D01*
X88350Y-41616D01*
X88283Y-41549D01*
X88217Y-41516D01*
X88083Y-41482D01*
X87983Y-41482D01*
X87850Y-41516D01*
X87783Y-41549D01*
X87717Y-41616D01*
X87683Y-41716D01*
X87683Y-41782D01*
X87717Y-41882D01*
X87750Y-41916D01*
X87683Y-42149D02*
X87683Y-42582D01*
X87950Y-42349D01*
X87950Y-42449D01*
X87983Y-42516D01*
X88017Y-42549D01*
X88083Y-42582D01*
X88250Y-42582D01*
X88317Y-42549D01*
X88350Y-42516D01*
X88383Y-42449D01*
X88383Y-42249D01*
X88350Y-42182D01*
X88317Y-42149D01*
X87683Y-43016D02*
X87683Y-43083D01*
X87717Y-43149D01*
X87750Y-43183D01*
X87817Y-43216D01*
X87950Y-43249D01*
X88117Y-43249D01*
X88250Y-43216D01*
X88317Y-43183D01*
X88350Y-43149D01*
X88383Y-43083D01*
X88383Y-43016D01*
X88350Y-42949D01*
X88317Y-42916D01*
X88250Y-42883D01*
X88117Y-42849D01*
X87950Y-42849D01*
X87817Y-42883D01*
X87750Y-42916D01*
X87717Y-42949D01*
X87683Y-43016D01*
X88017Y-43783D02*
X88017Y-43550D01*
X88383Y-43550D02*
X87683Y-43550D01*
X87683Y-43883D01*
X87917Y-44450D02*
X88383Y-44450D01*
X87650Y-44283D02*
X88150Y-44116D01*
X88150Y-44550D01*
X87683Y-44950D02*
X87683Y-45017D01*
X87717Y-45083D01*
X87750Y-45117D01*
X87817Y-45150D01*
X87950Y-45183D01*
X88117Y-45183D01*
X88250Y-45150D01*
X88317Y-45117D01*
X88350Y-45083D01*
X88383Y-45017D01*
X88383Y-44950D01*
X88350Y-44883D01*
X88317Y-44850D01*
X88250Y-44817D01*
X88117Y-44783D01*
X87950Y-44783D01*
X87817Y-44817D01*
X87750Y-44850D01*
X87717Y-44883D01*
X87683Y-44950D01*
X88383Y-45850D02*
X88383Y-45450D01*
X88383Y-45650D02*
X87683Y-45650D01*
X87783Y-45584D01*
X87850Y-45517D01*
X87883Y-45450D01*
X87683Y-46084D02*
X87683Y-46517D01*
X87950Y-46284D01*
X87950Y-46384D01*
X87983Y-46451D01*
X88017Y-46484D01*
X88083Y-46517D01*
X88250Y-46517D01*
X88317Y-46484D01*
X88350Y-46451D01*
X88383Y-46384D01*
X88383Y-46184D01*
X88350Y-46117D01*
X88317Y-46084D01*
G54D17*
X102264Y-35150D02*
X102293Y-35214D01*
X102293Y-35321D01*
X102264Y-35364D01*
X102236Y-35385D01*
X102179Y-35407D01*
X102121Y-35407D01*
X102064Y-35385D01*
X102036Y-35364D01*
X102007Y-35321D01*
X101979Y-35235D01*
X101950Y-35193D01*
X101921Y-35171D01*
X101864Y-35150D01*
X101807Y-35150D01*
X101750Y-35171D01*
X101721Y-35193D01*
X101693Y-35235D01*
X101693Y-35343D01*
X101721Y-35407D01*
X101693Y-35557D02*
X102293Y-35664D01*
X101864Y-35750D01*
X102293Y-35836D01*
X101693Y-35943D01*
X101693Y-36071D02*
X101693Y-36350D01*
X101921Y-36200D01*
X101921Y-36264D01*
X101950Y-36307D01*
X101979Y-36328D01*
X102036Y-36350D01*
X102179Y-36350D01*
X102236Y-36328D01*
X102264Y-36307D01*
X102293Y-36264D01*
X102293Y-36136D01*
X102264Y-36093D01*
X102236Y-36071D01*
X101714Y-33154D02*
X101743Y-33218D01*
X101743Y-33325D01*
X101714Y-33368D01*
X101686Y-33389D01*
X101629Y-33411D01*
X101571Y-33411D01*
X101514Y-33389D01*
X101486Y-33368D01*
X101457Y-33325D01*
X101429Y-33239D01*
X101400Y-33197D01*
X101371Y-33175D01*
X101314Y-33154D01*
X101257Y-33154D01*
X101200Y-33175D01*
X101171Y-33197D01*
X101143Y-33239D01*
X101143Y-33347D01*
X101171Y-33411D01*
X101143Y-33561D02*
X101743Y-33668D01*
X101314Y-33754D01*
X101743Y-33840D01*
X101143Y-33947D01*
X101743Y-34118D02*
X101143Y-34118D01*
X101143Y-34268D02*
X101143Y-34525D01*
X101743Y-34396D02*
X101143Y-34396D01*
X101686Y-34932D02*
X101714Y-34911D01*
X101743Y-34847D01*
X101743Y-34804D01*
X101714Y-34739D01*
X101657Y-34697D01*
X101600Y-34675D01*
X101486Y-34654D01*
X101400Y-34654D01*
X101286Y-34675D01*
X101229Y-34697D01*
X101171Y-34739D01*
X101143Y-34804D01*
X101143Y-34847D01*
X101171Y-34911D01*
X101200Y-34932D01*
X101743Y-35125D02*
X101143Y-35125D01*
X101429Y-35125D02*
X101429Y-35382D01*
X101743Y-35382D02*
X101143Y-35382D01*
X101800Y-35489D02*
X101800Y-35832D01*
X101143Y-35896D02*
X101743Y-36196D01*
X101143Y-36196D02*
X101743Y-35896D01*
X101800Y-36261D02*
X101800Y-36604D01*
X101400Y-36775D02*
X101371Y-36733D01*
X101343Y-36711D01*
X101286Y-36690D01*
X101257Y-36690D01*
X101200Y-36711D01*
X101171Y-36733D01*
X101143Y-36775D01*
X101143Y-36861D01*
X101171Y-36904D01*
X101200Y-36925D01*
X101257Y-36947D01*
X101286Y-36947D01*
X101343Y-36925D01*
X101371Y-36904D01*
X101400Y-36861D01*
X101400Y-36775D01*
X101429Y-36733D01*
X101457Y-36711D01*
X101514Y-36690D01*
X101629Y-36690D01*
X101686Y-36711D01*
X101714Y-36733D01*
X101743Y-36775D01*
X101743Y-36861D01*
X101714Y-36904D01*
X101686Y-36925D01*
X101629Y-36947D01*
X101514Y-36947D01*
X101457Y-36925D01*
X101429Y-36904D01*
X101400Y-36861D01*
G54D13*
X102629Y-52534D02*
X102652Y-52606D01*
X102652Y-52725D01*
X102629Y-52772D01*
X102605Y-52796D01*
X102557Y-52820D01*
X102510Y-52820D01*
X102462Y-52796D01*
X102438Y-52772D01*
X102414Y-52725D01*
X102390Y-52629D01*
X102367Y-52582D01*
X102343Y-52558D01*
X102295Y-52534D01*
X102248Y-52534D01*
X102200Y-52558D01*
X102176Y-52582D01*
X102152Y-52629D01*
X102152Y-52749D01*
X102176Y-52820D01*
X102152Y-52986D02*
X102652Y-53105D01*
X102295Y-53201D01*
X102652Y-53296D01*
X102152Y-53415D01*
X102200Y-53581D02*
X102176Y-53605D01*
X102152Y-53653D01*
X102152Y-53772D01*
X102176Y-53819D01*
X102200Y-53843D01*
X102248Y-53867D01*
X102295Y-53867D01*
X102367Y-53843D01*
X102652Y-53557D01*
X102652Y-53867D01*
X105429Y-52386D02*
X105452Y-52458D01*
X105452Y-52577D01*
X105429Y-52624D01*
X105405Y-52648D01*
X105357Y-52672D01*
X105310Y-52672D01*
X105262Y-52648D01*
X105238Y-52624D01*
X105214Y-52577D01*
X105190Y-52481D01*
X105167Y-52434D01*
X105143Y-52410D01*
X105095Y-52386D01*
X105048Y-52386D01*
X105000Y-52410D01*
X104976Y-52434D01*
X104952Y-52481D01*
X104952Y-52601D01*
X104976Y-52672D01*
X104952Y-52838D02*
X105452Y-52957D01*
X105095Y-53053D01*
X105452Y-53148D01*
X104952Y-53267D01*
X105500Y-53338D02*
X105500Y-53719D01*
X105452Y-53838D02*
X104952Y-53838D01*
X104952Y-54029D01*
X104976Y-54076D01*
X105000Y-54100D01*
X105048Y-54124D01*
X105119Y-54124D01*
X105167Y-54100D01*
X105190Y-54076D01*
X105214Y-54029D01*
X105214Y-53838D01*
X104952Y-54338D02*
X105357Y-54338D01*
X105405Y-54362D01*
X105429Y-54386D01*
X105452Y-54433D01*
X105452Y-54529D01*
X105429Y-54576D01*
X105405Y-54600D01*
X105357Y-54624D01*
X104952Y-54624D01*
X105429Y-54838D02*
X105452Y-54910D01*
X105452Y-55029D01*
X105429Y-55076D01*
X105405Y-55100D01*
X105357Y-55124D01*
X105310Y-55124D01*
X105262Y-55100D01*
X105238Y-55076D01*
X105214Y-55029D01*
X105190Y-54933D01*
X105167Y-54886D01*
X105143Y-54862D01*
X105095Y-54838D01*
X105048Y-54838D01*
X105000Y-54862D01*
X104976Y-54886D01*
X104952Y-54933D01*
X104952Y-55053D01*
X104976Y-55124D01*
X105452Y-55338D02*
X104952Y-55338D01*
X105190Y-55338D02*
X105190Y-55624D01*
X105452Y-55624D02*
X104952Y-55624D01*
X105500Y-55743D02*
X105500Y-56124D01*
X105429Y-56219D02*
X105452Y-56291D01*
X105452Y-56410D01*
X105429Y-56457D01*
X105405Y-56481D01*
X105357Y-56505D01*
X105310Y-56505D01*
X105262Y-56481D01*
X105238Y-56457D01*
X105214Y-56410D01*
X105190Y-56314D01*
X105167Y-56267D01*
X105143Y-56243D01*
X105095Y-56219D01*
X105048Y-56219D01*
X105000Y-56243D01*
X104976Y-56267D01*
X104952Y-56314D01*
X104952Y-56434D01*
X104976Y-56505D01*
X105452Y-56719D02*
X104952Y-56719D01*
X105310Y-56886D01*
X104952Y-57052D01*
X105452Y-57052D01*
X105310Y-57266D02*
X105310Y-57504D01*
X105452Y-57219D02*
X104952Y-57385D01*
X105452Y-57552D01*
X105452Y-57957D02*
X105452Y-57719D01*
X104952Y-57719D01*
X105452Y-58362D02*
X105452Y-58124D01*
X104952Y-58124D01*
G54D18*
X87137Y-27396D02*
X87150Y-27387D01*
X87163Y-27361D01*
X87163Y-27344D01*
X87150Y-27319D01*
X87123Y-27301D01*
X87097Y-27293D01*
X87043Y-27284D01*
X87003Y-27284D01*
X86950Y-27293D01*
X86923Y-27301D01*
X86897Y-27319D01*
X86883Y-27344D01*
X86883Y-27361D01*
X86897Y-27387D01*
X86910Y-27396D01*
X87163Y-27567D02*
X87163Y-27464D01*
X87163Y-27516D02*
X86883Y-27516D01*
X86923Y-27499D01*
X86950Y-27481D01*
X86963Y-27464D01*
X89212Y-27371D02*
X89225Y-27362D01*
X89238Y-27336D01*
X89238Y-27319D01*
X89225Y-27294D01*
X89198Y-27276D01*
X89172Y-27268D01*
X89118Y-27259D01*
X89078Y-27259D01*
X89025Y-27268D01*
X88998Y-27276D01*
X88972Y-27294D01*
X88958Y-27319D01*
X88958Y-27336D01*
X88972Y-27362D01*
X88985Y-27371D01*
X88985Y-27439D02*
X88972Y-27448D01*
X88958Y-27465D01*
X88958Y-27508D01*
X88972Y-27525D01*
X88985Y-27534D01*
X89012Y-27542D01*
X89038Y-27542D01*
X89078Y-27534D01*
X89238Y-27431D01*
X89238Y-27542D01*
G54D15*
X83176Y-39634D02*
X82493Y-39634D01*
X82493Y-39797D01*
X82525Y-39838D01*
X82558Y-39858D01*
X82623Y-39878D01*
X82721Y-39878D01*
X82786Y-39858D01*
X82818Y-39838D01*
X82851Y-39797D01*
X82851Y-39634D01*
X82493Y-40021D02*
X82493Y-40286D01*
X82753Y-40143D01*
X82753Y-40205D01*
X82786Y-40245D01*
X82818Y-40266D01*
X82883Y-40286D01*
X83046Y-40286D01*
X83111Y-40266D01*
X83143Y-40245D01*
X83176Y-40205D01*
X83176Y-40082D01*
X83143Y-40042D01*
X83111Y-40021D01*
X83176Y-34884D02*
X82493Y-34884D01*
X82493Y-35047D01*
X82525Y-35088D01*
X82558Y-35108D01*
X82623Y-35128D01*
X82721Y-35128D01*
X82786Y-35108D01*
X82818Y-35088D01*
X82851Y-35047D01*
X82851Y-34884D01*
X82493Y-35516D02*
X82493Y-35312D01*
X82818Y-35292D01*
X82786Y-35312D01*
X82753Y-35353D01*
X82753Y-35455D01*
X82786Y-35495D01*
X82818Y-35516D01*
X82883Y-35536D01*
X83046Y-35536D01*
X83111Y-35516D01*
X83143Y-35495D01*
X83176Y-35455D01*
X83176Y-35353D01*
X83143Y-35312D01*
X83111Y-35292D01*
X102951Y-41534D02*
X102268Y-41534D01*
X102951Y-41778D02*
X102561Y-41595D01*
X102268Y-41778D02*
X102658Y-41534D01*
X102333Y-41942D02*
X102300Y-41962D01*
X102268Y-42003D01*
X102268Y-42105D01*
X102300Y-42145D01*
X102333Y-42166D01*
X102398Y-42186D01*
X102463Y-42186D01*
X102561Y-42166D01*
X102951Y-41921D01*
X102951Y-42186D01*
X99366Y-56676D02*
X99366Y-55993D01*
X99122Y-56676D02*
X99305Y-56286D01*
X99122Y-55993D02*
X99366Y-56383D01*
X98979Y-55993D02*
X98714Y-55993D01*
X98857Y-56253D01*
X98795Y-56253D01*
X98755Y-56286D01*
X98734Y-56318D01*
X98714Y-56383D01*
X98714Y-56546D01*
X98734Y-56611D01*
X98755Y-56643D01*
X98795Y-56676D01*
X98918Y-56676D01*
X98958Y-56643D01*
X98979Y-56611D01*
G54D19*
X99885Y-52837D02*
X99180Y-52837D01*
X99180Y-52998D01*
X99213Y-53039D01*
X99247Y-53059D01*
X99314Y-53079D01*
X99415Y-53079D01*
X99482Y-53059D01*
X99516Y-53039D01*
X99549Y-52998D01*
X99549Y-52837D01*
X99247Y-53241D02*
X99213Y-53261D01*
X99180Y-53301D01*
X99180Y-53402D01*
X99213Y-53443D01*
X99247Y-53463D01*
X99314Y-53483D01*
X99381Y-53483D01*
X99482Y-53463D01*
X99885Y-53221D01*
X99885Y-53483D01*
G54D13*
X88405Y-29477D02*
X88071Y-29977D01*
X88071Y-29477D02*
X88405Y-29977D01*
X87619Y-29977D02*
X87905Y-29977D01*
X87762Y-29977D02*
X87762Y-29477D01*
X87810Y-29549D01*
X87857Y-29596D01*
X87905Y-29620D01*
X89138Y-30177D02*
X88804Y-30177D01*
X89019Y-30677D01*
X88614Y-30630D02*
X88590Y-30654D01*
X88614Y-30677D01*
X88638Y-30654D01*
X88614Y-30630D01*
X88614Y-30677D01*
X88424Y-30177D02*
X88114Y-30177D01*
X88281Y-30368D01*
X88209Y-30368D01*
X88162Y-30392D01*
X88138Y-30415D01*
X88114Y-30463D01*
X88114Y-30582D01*
X88138Y-30630D01*
X88162Y-30654D01*
X88209Y-30677D01*
X88352Y-30677D01*
X88400Y-30654D01*
X88424Y-30630D01*
X87948Y-30177D02*
X87614Y-30177D01*
X87829Y-30677D01*
X87448Y-30225D02*
X87424Y-30201D01*
X87376Y-30177D01*
X87257Y-30177D01*
X87210Y-30201D01*
X87186Y-30225D01*
X87162Y-30273D01*
X87162Y-30320D01*
X87186Y-30392D01*
X87472Y-30677D01*
X87162Y-30677D01*
X86877Y-30392D02*
X86924Y-30368D01*
X86948Y-30344D01*
X86972Y-30296D01*
X86972Y-30273D01*
X86948Y-30225D01*
X86924Y-30201D01*
X86877Y-30177D01*
X86781Y-30177D01*
X86734Y-30201D01*
X86710Y-30225D01*
X86686Y-30273D01*
X86686Y-30296D01*
X86710Y-30344D01*
X86734Y-30368D01*
X86781Y-30392D01*
X86877Y-30392D01*
X86924Y-30415D01*
X86948Y-30439D01*
X86972Y-30487D01*
X86972Y-30582D01*
X86948Y-30630D01*
X86924Y-30654D01*
X86877Y-30677D01*
X86781Y-30677D01*
X86734Y-30654D01*
X86710Y-30630D01*
X86686Y-30582D01*
X86686Y-30487D01*
X86710Y-30439D01*
X86734Y-30415D01*
X86781Y-30392D01*
G54D12*
X91793Y-24708D02*
X91193Y-24708D01*
X91193Y-24936D01*
X91221Y-24994D01*
X91250Y-25022D01*
X91307Y-25051D01*
X91393Y-25051D01*
X91450Y-25022D01*
X91479Y-24994D01*
X91507Y-24936D01*
X91507Y-24708D01*
X91393Y-25565D02*
X91793Y-25565D01*
X91164Y-25422D02*
X91593Y-25279D01*
X91593Y-25651D01*
X90543Y-24708D02*
X89943Y-24708D01*
X89943Y-24936D01*
X89971Y-24994D01*
X90000Y-25022D01*
X90057Y-25051D01*
X90143Y-25051D01*
X90200Y-25022D01*
X90229Y-24994D01*
X90257Y-24936D01*
X90257Y-24708D01*
X89943Y-25565D02*
X89943Y-25451D01*
X89971Y-25394D01*
X90000Y-25365D01*
X90086Y-25308D01*
X90200Y-25279D01*
X90429Y-25279D01*
X90486Y-25308D01*
X90514Y-25336D01*
X90543Y-25394D01*
X90543Y-25508D01*
X90514Y-25565D01*
X90486Y-25594D01*
X90429Y-25622D01*
X90286Y-25622D01*
X90229Y-25594D01*
X90200Y-25565D01*
X90171Y-25508D01*
X90171Y-25394D01*
X90200Y-25336D01*
X90229Y-25308D01*
X90286Y-25279D01*
X97643Y-57308D02*
X97043Y-57308D01*
X97043Y-57536D01*
X97071Y-57594D01*
X97100Y-57622D01*
X97157Y-57651D01*
X97243Y-57651D01*
X97300Y-57622D01*
X97329Y-57594D01*
X97357Y-57536D01*
X97357Y-57308D01*
X97300Y-57994D02*
X97271Y-57936D01*
X97243Y-57908D01*
X97186Y-57879D01*
X97157Y-57879D01*
X97100Y-57908D01*
X97071Y-57936D01*
X97043Y-57994D01*
X97043Y-58108D01*
X97071Y-58165D01*
X97100Y-58194D01*
X97157Y-58222D01*
X97186Y-58222D01*
X97243Y-58194D01*
X97271Y-58165D01*
X97300Y-58108D01*
X97300Y-57994D01*
X97329Y-57936D01*
X97357Y-57908D01*
X97414Y-57879D01*
X97529Y-57879D01*
X97586Y-57908D01*
X97614Y-57936D01*
X97643Y-57994D01*
X97643Y-58108D01*
X97614Y-58165D01*
X97586Y-58194D01*
X97529Y-58222D01*
X97414Y-58222D01*
X97357Y-58194D01*
X97329Y-58165D01*
X97300Y-58108D01*
X95586Y-56208D02*
X95614Y-56179D01*
X95643Y-56093D01*
X95643Y-56036D01*
X95614Y-55951D01*
X95557Y-55893D01*
X95500Y-55865D01*
X95386Y-55836D01*
X95300Y-55836D01*
X95186Y-55865D01*
X95129Y-55893D01*
X95071Y-55951D01*
X95043Y-56036D01*
X95043Y-56093D01*
X95071Y-56179D01*
X95100Y-56208D01*
X95471Y-56436D02*
X95471Y-56722D01*
X95643Y-56379D02*
X95043Y-56579D01*
X95643Y-56779D01*
X95043Y-56893D02*
X95643Y-57093D01*
X95043Y-57293D01*
X95471Y-57464D02*
X95471Y-57750D01*
X95643Y-57407D02*
X95043Y-57607D01*
X95643Y-57807D01*
X95643Y-58293D02*
X95643Y-58007D01*
X95043Y-58007D01*
X95643Y-58493D02*
X95043Y-58493D01*
X95329Y-58779D02*
X95329Y-58979D01*
X95643Y-59065D02*
X95643Y-58779D01*
X95043Y-58779D01*
X95043Y-59065D01*
X95643Y-59665D02*
X95357Y-59465D01*
X95643Y-59322D02*
X95043Y-59322D01*
X95043Y-59550D01*
X95071Y-59608D01*
X95100Y-59636D01*
X95157Y-59665D01*
X95243Y-59665D01*
X95300Y-59636D01*
X95329Y-59608D01*
X95357Y-59550D01*
X95357Y-59322D01*
X85683Y-50984D02*
X84983Y-50984D01*
X84983Y-51250D01*
X85017Y-51317D01*
X85050Y-51350D01*
X85117Y-51384D01*
X85217Y-51384D01*
X85283Y-51350D01*
X85317Y-51317D01*
X85350Y-51250D01*
X85350Y-50984D01*
X84983Y-51617D02*
X84983Y-52084D01*
X85683Y-51784D01*
X80883Y-42017D02*
X80183Y-42017D01*
X80517Y-42017D02*
X80517Y-42417D01*
X80883Y-42417D02*
X80183Y-42417D01*
X80517Y-42750D02*
X80517Y-42983D01*
X80883Y-43083D02*
X80883Y-42750D01*
X80183Y-42750D01*
X80183Y-43083D01*
X80883Y-43749D02*
X80883Y-43349D01*
X80883Y-43549D02*
X80183Y-43549D01*
X80283Y-43483D01*
X80350Y-43416D01*
X80383Y-43349D01*
X80183Y-44183D02*
X80183Y-44250D01*
X80217Y-44316D01*
X80250Y-44350D01*
X80317Y-44383D01*
X80450Y-44416D01*
X80617Y-44416D01*
X80750Y-44383D01*
X80817Y-44350D01*
X80850Y-44316D01*
X80883Y-44250D01*
X80883Y-44183D01*
X80850Y-44116D01*
X80817Y-44083D01*
X80750Y-44050D01*
X80617Y-44016D01*
X80450Y-44016D01*
X80317Y-44050D01*
X80250Y-44083D01*
X80217Y-44116D01*
X80183Y-44183D01*
X80617Y-44717D02*
X80617Y-45250D01*
X80883Y-45950D02*
X80883Y-45550D01*
X80883Y-45750D02*
X80183Y-45750D01*
X80283Y-45684D01*
X80350Y-45617D01*
X80383Y-45550D01*
X80183Y-46551D02*
X80183Y-46417D01*
X80217Y-46351D01*
X80250Y-46317D01*
X80350Y-46251D01*
X80483Y-46217D01*
X80750Y-46217D01*
X80817Y-46251D01*
X80850Y-46284D01*
X80883Y-46351D01*
X80883Y-46484D01*
X80850Y-46551D01*
X80817Y-46584D01*
X80750Y-46617D01*
X80583Y-46617D01*
X80517Y-46584D01*
X80483Y-46551D01*
X80450Y-46484D01*
X80450Y-46351D01*
X80483Y-46284D01*
X80517Y-46251D01*
X80583Y-46217D01*
X97893Y-46800D02*
X98321Y-46800D01*
X98407Y-46772D01*
X98464Y-46715D01*
X98493Y-46629D01*
X98493Y-46572D01*
X98493Y-47400D02*
X98493Y-47057D01*
X98493Y-47229D02*
X97893Y-47229D01*
X97979Y-47172D01*
X98036Y-47114D01*
X98064Y-47057D01*
X97493Y-46387D02*
X97207Y-46187D01*
X97493Y-46044D02*
X96893Y-46044D01*
X96893Y-46272D01*
X96921Y-46330D01*
X96950Y-46358D01*
X97007Y-46387D01*
X97093Y-46387D01*
X97150Y-46358D01*
X97179Y-46330D01*
X97207Y-46272D01*
X97207Y-46044D01*
X96893Y-46815D02*
X97321Y-46815D01*
X97407Y-46787D01*
X97464Y-46730D01*
X97493Y-46644D01*
X97493Y-46587D01*
X97493Y-47415D02*
X97493Y-47072D01*
X97493Y-47244D02*
X96893Y-47244D01*
X96979Y-47187D01*
X97036Y-47129D01*
X97064Y-47072D01*
X96950Y-47643D02*
X96921Y-47672D01*
X96893Y-47729D01*
X96893Y-47872D01*
X96921Y-47929D01*
X96950Y-47958D01*
X97007Y-47986D01*
X97064Y-47986D01*
X97150Y-47958D01*
X97493Y-47615D01*
X97493Y-47986D01*
G54D19*
X87835Y-56937D02*
X87130Y-56937D01*
X87835Y-57179D02*
X87432Y-56998D01*
X87130Y-57179D02*
X87533Y-56937D01*
X87365Y-57543D02*
X87835Y-57543D01*
X87096Y-57442D02*
X87600Y-57341D01*
X87600Y-57603D01*
X89335Y-56937D02*
X88630Y-56937D01*
X89335Y-57179D02*
X88932Y-56998D01*
X88630Y-57179D02*
X89033Y-56937D01*
X88630Y-57563D02*
X88630Y-57361D01*
X88966Y-57341D01*
X88932Y-57361D01*
X88898Y-57401D01*
X88898Y-57502D01*
X88932Y-57543D01*
X88966Y-57563D01*
X89033Y-57583D01*
X89201Y-57583D01*
X89268Y-57563D01*
X89301Y-57543D01*
X89335Y-57502D01*
X89335Y-57401D01*
X89301Y-57361D01*
X89268Y-57341D01*
X90835Y-56937D02*
X90130Y-56937D01*
X90835Y-57179D02*
X90432Y-56998D01*
X90130Y-57179D02*
X90533Y-56937D01*
X90130Y-57543D02*
X90130Y-57462D01*
X90163Y-57422D01*
X90197Y-57401D01*
X90298Y-57361D01*
X90432Y-57341D01*
X90701Y-57341D01*
X90768Y-57361D01*
X90801Y-57381D01*
X90835Y-57422D01*
X90835Y-57502D01*
X90801Y-57543D01*
X90768Y-57563D01*
X90701Y-57583D01*
X90533Y-57583D01*
X90466Y-57563D01*
X90432Y-57543D01*
X90398Y-57502D01*
X90398Y-57422D01*
X90432Y-57381D01*
X90466Y-57361D01*
X90533Y-57341D01*
X92335Y-56937D02*
X91630Y-56937D01*
X92335Y-57179D02*
X91932Y-56998D01*
X91630Y-57179D02*
X92033Y-56937D01*
X91630Y-57321D02*
X91630Y-57603D01*
X92335Y-57422D01*
X93835Y-56937D02*
X93130Y-56937D01*
X93835Y-57179D02*
X93432Y-56998D01*
X93130Y-57179D02*
X93533Y-56937D01*
X93432Y-57422D02*
X93398Y-57381D01*
X93365Y-57361D01*
X93298Y-57341D01*
X93264Y-57341D01*
X93197Y-57361D01*
X93163Y-57381D01*
X93130Y-57422D01*
X93130Y-57502D01*
X93163Y-57543D01*
X93197Y-57563D01*
X93264Y-57583D01*
X93298Y-57583D01*
X93365Y-57563D01*
X93398Y-57543D01*
X93432Y-57502D01*
X93432Y-57422D01*
X93466Y-57381D01*
X93499Y-57361D01*
X93566Y-57341D01*
X93701Y-57341D01*
X93768Y-57361D01*
X93801Y-57381D01*
X93835Y-57422D01*
X93835Y-57502D01*
X93801Y-57543D01*
X93768Y-57563D01*
X93701Y-57583D01*
X93566Y-57583D01*
X93499Y-57563D01*
X93466Y-57543D01*
X93432Y-57502D01*
X95335Y-56937D02*
X94630Y-56937D01*
X95335Y-57179D02*
X94932Y-56998D01*
X94630Y-57179D02*
X95033Y-56937D01*
X95335Y-57381D02*
X95335Y-57462D01*
X95301Y-57502D01*
X95268Y-57522D01*
X95167Y-57563D01*
X95033Y-57583D01*
X94764Y-57583D01*
X94697Y-57563D01*
X94663Y-57543D01*
X94630Y-57502D01*
X94630Y-57422D01*
X94663Y-57381D01*
X94697Y-57361D01*
X94764Y-57341D01*
X94932Y-57341D01*
X94999Y-57361D01*
X95033Y-57381D01*
X95066Y-57422D01*
X95066Y-57502D01*
X95033Y-57543D01*
X94999Y-57563D01*
X94932Y-57583D01*
G54D18*
X52488Y-27410D02*
X52355Y-27350D01*
X52488Y-27307D02*
X52208Y-27307D01*
X52208Y-27375D01*
X52222Y-27393D01*
X52235Y-27401D01*
X52262Y-27410D01*
X52302Y-27410D01*
X52328Y-27401D01*
X52342Y-27393D01*
X52355Y-27375D01*
X52355Y-27307D01*
X52235Y-27478D02*
X52222Y-27487D01*
X52208Y-27504D01*
X52208Y-27547D01*
X52222Y-27564D01*
X52235Y-27573D01*
X52262Y-27581D01*
X52288Y-27581D01*
X52328Y-27573D01*
X52488Y-27470D01*
X52488Y-27581D01*
X52208Y-27641D02*
X52208Y-27752D01*
X52315Y-27692D01*
X52315Y-27718D01*
X52328Y-27735D01*
X52342Y-27744D01*
X52368Y-27752D01*
X52435Y-27752D01*
X52462Y-27744D01*
X52475Y-27735D01*
X52488Y-27718D01*
X52488Y-27666D01*
X52475Y-27649D01*
X52462Y-27641D01*
X51288Y-27410D02*
X51155Y-27350D01*
X51288Y-27307D02*
X51008Y-27307D01*
X51008Y-27375D01*
X51022Y-27393D01*
X51035Y-27401D01*
X51062Y-27410D01*
X51102Y-27410D01*
X51128Y-27401D01*
X51142Y-27393D01*
X51155Y-27375D01*
X51155Y-27307D01*
X51035Y-27478D02*
X51022Y-27487D01*
X51008Y-27504D01*
X51008Y-27547D01*
X51022Y-27564D01*
X51035Y-27573D01*
X51062Y-27581D01*
X51088Y-27581D01*
X51128Y-27573D01*
X51288Y-27470D01*
X51288Y-27581D01*
X51035Y-27649D02*
X51022Y-27658D01*
X51008Y-27675D01*
X51008Y-27718D01*
X51022Y-27735D01*
X51035Y-27744D01*
X51062Y-27752D01*
X51088Y-27752D01*
X51128Y-27744D01*
X51288Y-27641D01*
X51288Y-27752D01*
X44538Y-53060D02*
X44405Y-53000D01*
X44538Y-52957D02*
X44258Y-52957D01*
X44258Y-53025D01*
X44272Y-53043D01*
X44285Y-53051D01*
X44312Y-53060D01*
X44352Y-53060D01*
X44378Y-53051D01*
X44392Y-53043D01*
X44405Y-53025D01*
X44405Y-52957D01*
X44285Y-53128D02*
X44272Y-53137D01*
X44258Y-53154D01*
X44258Y-53197D01*
X44272Y-53214D01*
X44285Y-53223D01*
X44312Y-53231D01*
X44338Y-53231D01*
X44378Y-53223D01*
X44538Y-53120D01*
X44538Y-53231D01*
X44538Y-53402D02*
X44538Y-53299D01*
X44538Y-53351D02*
X44258Y-53351D01*
X44298Y-53334D01*
X44325Y-53316D01*
X44338Y-53299D01*
X42613Y-41985D02*
X42480Y-41925D01*
X42613Y-41882D02*
X42333Y-41882D01*
X42333Y-41950D01*
X42347Y-41968D01*
X42360Y-41976D01*
X42387Y-41985D01*
X42427Y-41985D01*
X42453Y-41976D01*
X42467Y-41968D01*
X42480Y-41950D01*
X42480Y-41882D01*
X42360Y-42053D02*
X42347Y-42062D01*
X42333Y-42079D01*
X42333Y-42122D01*
X42347Y-42139D01*
X42360Y-42148D01*
X42387Y-42156D01*
X42413Y-42156D01*
X42453Y-42148D01*
X42613Y-42045D01*
X42613Y-42156D01*
X42333Y-42267D02*
X42333Y-42284D01*
X42347Y-42301D01*
X42360Y-42310D01*
X42387Y-42319D01*
X42440Y-42327D01*
X42507Y-42327D01*
X42560Y-42319D01*
X42587Y-42310D01*
X42600Y-42301D01*
X42613Y-42284D01*
X42613Y-42267D01*
X42600Y-42250D01*
X42587Y-42241D01*
X42560Y-42233D01*
X42507Y-42224D01*
X42440Y-42224D01*
X42387Y-42233D01*
X42360Y-42241D01*
X42347Y-42250D01*
X42333Y-42267D01*
X44538Y-51860D02*
X44405Y-51800D01*
X44538Y-51757D02*
X44258Y-51757D01*
X44258Y-51825D01*
X44272Y-51843D01*
X44285Y-51851D01*
X44312Y-51860D01*
X44352Y-51860D01*
X44378Y-51851D01*
X44392Y-51843D01*
X44405Y-51825D01*
X44405Y-51757D01*
X44538Y-52031D02*
X44538Y-51928D01*
X44538Y-51980D02*
X44258Y-51980D01*
X44298Y-51963D01*
X44325Y-51945D01*
X44338Y-51928D01*
X44538Y-52116D02*
X44538Y-52151D01*
X44525Y-52168D01*
X44512Y-52176D01*
X44472Y-52194D01*
X44418Y-52202D01*
X44312Y-52202D01*
X44285Y-52194D01*
X44272Y-52185D01*
X44258Y-52168D01*
X44258Y-52134D01*
X44272Y-52116D01*
X44285Y-52108D01*
X44312Y-52099D01*
X44378Y-52099D01*
X44405Y-52108D01*
X44418Y-52116D01*
X44432Y-52134D01*
X44432Y-52168D01*
X44418Y-52185D01*
X44405Y-52194D01*
X44378Y-52202D01*
X43590Y-39438D02*
X43650Y-39305D01*
X43693Y-39438D02*
X43693Y-39158D01*
X43625Y-39158D01*
X43607Y-39172D01*
X43599Y-39185D01*
X43590Y-39212D01*
X43590Y-39252D01*
X43599Y-39278D01*
X43607Y-39292D01*
X43625Y-39305D01*
X43693Y-39305D01*
X43419Y-39438D02*
X43522Y-39438D01*
X43470Y-39438D02*
X43470Y-39158D01*
X43487Y-39198D01*
X43505Y-39225D01*
X43522Y-39238D01*
X43316Y-39278D02*
X43334Y-39265D01*
X43342Y-39252D01*
X43351Y-39225D01*
X43351Y-39212D01*
X43342Y-39185D01*
X43334Y-39172D01*
X43316Y-39158D01*
X43282Y-39158D01*
X43265Y-39172D01*
X43256Y-39185D01*
X43248Y-39212D01*
X43248Y-39225D01*
X43256Y-39252D01*
X43265Y-39265D01*
X43282Y-39278D01*
X43316Y-39278D01*
X43334Y-39292D01*
X43342Y-39305D01*
X43351Y-39332D01*
X43351Y-39385D01*
X43342Y-39412D01*
X43334Y-39425D01*
X43316Y-39438D01*
X43282Y-39438D01*
X43265Y-39425D01*
X43256Y-39412D01*
X43248Y-39385D01*
X43248Y-39332D01*
X43256Y-39305D01*
X43265Y-39292D01*
X43282Y-39278D01*
X43590Y-38338D02*
X43650Y-38205D01*
X43693Y-38338D02*
X43693Y-38058D01*
X43625Y-38058D01*
X43607Y-38072D01*
X43599Y-38085D01*
X43590Y-38112D01*
X43590Y-38152D01*
X43599Y-38178D01*
X43607Y-38192D01*
X43625Y-38205D01*
X43693Y-38205D01*
X43419Y-38338D02*
X43522Y-38338D01*
X43470Y-38338D02*
X43470Y-38058D01*
X43487Y-38098D01*
X43505Y-38125D01*
X43522Y-38138D01*
X43359Y-38058D02*
X43239Y-38058D01*
X43316Y-38338D01*
X43590Y-37338D02*
X43650Y-37205D01*
X43693Y-37338D02*
X43693Y-37058D01*
X43625Y-37058D01*
X43607Y-37072D01*
X43599Y-37085D01*
X43590Y-37112D01*
X43590Y-37152D01*
X43599Y-37178D01*
X43607Y-37192D01*
X43625Y-37205D01*
X43693Y-37205D01*
X43419Y-37338D02*
X43522Y-37338D01*
X43470Y-37338D02*
X43470Y-37058D01*
X43487Y-37098D01*
X43505Y-37125D01*
X43522Y-37138D01*
X43265Y-37058D02*
X43299Y-37058D01*
X43316Y-37072D01*
X43325Y-37085D01*
X43342Y-37125D01*
X43351Y-37178D01*
X43351Y-37285D01*
X43342Y-37312D01*
X43334Y-37325D01*
X43316Y-37338D01*
X43282Y-37338D01*
X43265Y-37325D01*
X43256Y-37312D01*
X43248Y-37285D01*
X43248Y-37218D01*
X43256Y-37192D01*
X43265Y-37178D01*
X43282Y-37165D01*
X43316Y-37165D01*
X43334Y-37178D01*
X43342Y-37192D01*
X43351Y-37218D01*
X43590Y-36338D02*
X43650Y-36205D01*
X43693Y-36338D02*
X43693Y-36058D01*
X43625Y-36058D01*
X43607Y-36072D01*
X43599Y-36085D01*
X43590Y-36112D01*
X43590Y-36152D01*
X43599Y-36178D01*
X43607Y-36192D01*
X43625Y-36205D01*
X43693Y-36205D01*
X43419Y-36338D02*
X43522Y-36338D01*
X43470Y-36338D02*
X43470Y-36058D01*
X43487Y-36098D01*
X43505Y-36125D01*
X43522Y-36138D01*
X43256Y-36058D02*
X43342Y-36058D01*
X43351Y-36192D01*
X43342Y-36178D01*
X43325Y-36165D01*
X43282Y-36165D01*
X43265Y-36178D01*
X43256Y-36192D01*
X43248Y-36218D01*
X43248Y-36285D01*
X43256Y-36312D01*
X43265Y-36325D01*
X43282Y-36338D01*
X43325Y-36338D01*
X43342Y-36325D01*
X43351Y-36312D01*
X43590Y-32338D02*
X43650Y-32205D01*
X43693Y-32338D02*
X43693Y-32058D01*
X43625Y-32058D01*
X43607Y-32072D01*
X43599Y-32085D01*
X43590Y-32112D01*
X43590Y-32152D01*
X43599Y-32178D01*
X43607Y-32192D01*
X43625Y-32205D01*
X43693Y-32205D01*
X43419Y-32338D02*
X43522Y-32338D01*
X43470Y-32338D02*
X43470Y-32058D01*
X43487Y-32098D01*
X43505Y-32125D01*
X43522Y-32138D01*
X43265Y-32152D02*
X43265Y-32338D01*
X43308Y-32045D02*
X43351Y-32245D01*
X43239Y-32245D01*
X43590Y-33338D02*
X43650Y-33205D01*
X43693Y-33338D02*
X43693Y-33058D01*
X43625Y-33058D01*
X43607Y-33072D01*
X43599Y-33085D01*
X43590Y-33112D01*
X43590Y-33152D01*
X43599Y-33178D01*
X43607Y-33192D01*
X43625Y-33205D01*
X43693Y-33205D01*
X43419Y-33338D02*
X43522Y-33338D01*
X43470Y-33338D02*
X43470Y-33058D01*
X43487Y-33098D01*
X43505Y-33125D01*
X43522Y-33138D01*
X43359Y-33058D02*
X43248Y-33058D01*
X43308Y-33165D01*
X43282Y-33165D01*
X43265Y-33178D01*
X43256Y-33192D01*
X43248Y-33218D01*
X43248Y-33285D01*
X43256Y-33312D01*
X43265Y-33325D01*
X43282Y-33338D01*
X43334Y-33338D01*
X43351Y-33325D01*
X43359Y-33312D01*
X43590Y-34338D02*
X43650Y-34205D01*
X43693Y-34338D02*
X43693Y-34058D01*
X43625Y-34058D01*
X43607Y-34072D01*
X43599Y-34085D01*
X43590Y-34112D01*
X43590Y-34152D01*
X43599Y-34178D01*
X43607Y-34192D01*
X43625Y-34205D01*
X43693Y-34205D01*
X43419Y-34338D02*
X43522Y-34338D01*
X43470Y-34338D02*
X43470Y-34058D01*
X43487Y-34098D01*
X43505Y-34125D01*
X43522Y-34138D01*
X43351Y-34085D02*
X43342Y-34072D01*
X43325Y-34058D01*
X43282Y-34058D01*
X43265Y-34072D01*
X43256Y-34085D01*
X43248Y-34112D01*
X43248Y-34138D01*
X43256Y-34178D01*
X43359Y-34338D01*
X43248Y-34338D01*
X43590Y-35338D02*
X43650Y-35205D01*
X43693Y-35338D02*
X43693Y-35058D01*
X43625Y-35058D01*
X43607Y-35072D01*
X43599Y-35085D01*
X43590Y-35112D01*
X43590Y-35152D01*
X43599Y-35178D01*
X43607Y-35192D01*
X43625Y-35205D01*
X43693Y-35205D01*
X43419Y-35338D02*
X43522Y-35338D01*
X43470Y-35338D02*
X43470Y-35058D01*
X43487Y-35098D01*
X43505Y-35125D01*
X43522Y-35138D01*
X43248Y-35338D02*
X43351Y-35338D01*
X43299Y-35338D02*
X43299Y-35058D01*
X43316Y-35098D01*
X43334Y-35125D01*
X43351Y-35138D01*
X55990Y-23638D02*
X56050Y-23505D01*
X56093Y-23638D02*
X56093Y-23358D01*
X56025Y-23358D01*
X56007Y-23372D01*
X55999Y-23385D01*
X55990Y-23412D01*
X55990Y-23452D01*
X55999Y-23478D01*
X56007Y-23492D01*
X56025Y-23505D01*
X56093Y-23505D01*
X55819Y-23638D02*
X55922Y-23638D01*
X55870Y-23638D02*
X55870Y-23358D01*
X55887Y-23398D01*
X55905Y-23425D01*
X55922Y-23438D01*
X55708Y-23358D02*
X55691Y-23358D01*
X55674Y-23372D01*
X55665Y-23385D01*
X55656Y-23412D01*
X55648Y-23465D01*
X55648Y-23532D01*
X55656Y-23585D01*
X55665Y-23612D01*
X55674Y-23625D01*
X55691Y-23638D01*
X55708Y-23638D01*
X55725Y-23625D01*
X55734Y-23612D01*
X55742Y-23585D01*
X55751Y-23532D01*
X55751Y-23465D01*
X55742Y-23412D01*
X55734Y-23385D01*
X55725Y-23372D01*
X55708Y-23358D01*
X55904Y-24588D02*
X55964Y-24455D01*
X56007Y-24588D02*
X56007Y-24308D01*
X55939Y-24308D01*
X55921Y-24322D01*
X55913Y-24335D01*
X55904Y-24362D01*
X55904Y-24402D01*
X55913Y-24428D01*
X55921Y-24442D01*
X55939Y-24455D01*
X56007Y-24455D01*
X55819Y-24588D02*
X55784Y-24588D01*
X55767Y-24575D01*
X55759Y-24562D01*
X55741Y-24522D01*
X55733Y-24468D01*
X55733Y-24362D01*
X55741Y-24335D01*
X55750Y-24322D01*
X55767Y-24308D01*
X55801Y-24308D01*
X55819Y-24322D01*
X55827Y-24335D01*
X55836Y-24362D01*
X55836Y-24428D01*
X55827Y-24455D01*
X55819Y-24468D01*
X55801Y-24482D01*
X55767Y-24482D01*
X55750Y-24468D01*
X55741Y-24455D01*
X55733Y-24428D01*
X43504Y-30138D02*
X43564Y-30005D01*
X43607Y-30138D02*
X43607Y-29858D01*
X43539Y-29858D01*
X43521Y-29872D01*
X43513Y-29885D01*
X43504Y-29912D01*
X43504Y-29952D01*
X43513Y-29978D01*
X43521Y-29992D01*
X43539Y-30005D01*
X43607Y-30005D01*
X43401Y-29978D02*
X43419Y-29965D01*
X43427Y-29952D01*
X43436Y-29925D01*
X43436Y-29912D01*
X43427Y-29885D01*
X43419Y-29872D01*
X43401Y-29858D01*
X43367Y-29858D01*
X43350Y-29872D01*
X43341Y-29885D01*
X43333Y-29912D01*
X43333Y-29925D01*
X43341Y-29952D01*
X43350Y-29965D01*
X43367Y-29978D01*
X43401Y-29978D01*
X43419Y-29992D01*
X43427Y-30005D01*
X43436Y-30032D01*
X43436Y-30085D01*
X43427Y-30112D01*
X43419Y-30125D01*
X43401Y-30138D01*
X43367Y-30138D01*
X43350Y-30125D01*
X43341Y-30112D01*
X43333Y-30085D01*
X43333Y-30032D01*
X43341Y-30005D01*
X43350Y-29992D01*
X43367Y-29978D01*
X43504Y-29138D02*
X43564Y-29005D01*
X43607Y-29138D02*
X43607Y-28858D01*
X43539Y-28858D01*
X43521Y-28872D01*
X43513Y-28885D01*
X43504Y-28912D01*
X43504Y-28952D01*
X43513Y-28978D01*
X43521Y-28992D01*
X43539Y-29005D01*
X43607Y-29005D01*
X43444Y-28858D02*
X43324Y-28858D01*
X43401Y-29138D01*
X43504Y-28138D02*
X43564Y-28005D01*
X43607Y-28138D02*
X43607Y-27858D01*
X43539Y-27858D01*
X43521Y-27872D01*
X43513Y-27885D01*
X43504Y-27912D01*
X43504Y-27952D01*
X43513Y-27978D01*
X43521Y-27992D01*
X43539Y-28005D01*
X43607Y-28005D01*
X43350Y-27858D02*
X43384Y-27858D01*
X43401Y-27872D01*
X43410Y-27885D01*
X43427Y-27925D01*
X43436Y-27978D01*
X43436Y-28085D01*
X43427Y-28112D01*
X43419Y-28125D01*
X43401Y-28138D01*
X43367Y-28138D01*
X43350Y-28125D01*
X43341Y-28112D01*
X43333Y-28085D01*
X43333Y-28018D01*
X43341Y-27992D01*
X43350Y-27978D01*
X43367Y-27965D01*
X43401Y-27965D01*
X43419Y-27978D01*
X43427Y-27992D01*
X43436Y-28018D01*
X43504Y-27138D02*
X43564Y-27005D01*
X43607Y-27138D02*
X43607Y-26858D01*
X43539Y-26858D01*
X43521Y-26872D01*
X43513Y-26885D01*
X43504Y-26912D01*
X43504Y-26952D01*
X43513Y-26978D01*
X43521Y-26992D01*
X43539Y-27005D01*
X43607Y-27005D01*
X43341Y-26858D02*
X43427Y-26858D01*
X43436Y-26992D01*
X43427Y-26978D01*
X43410Y-26965D01*
X43367Y-26965D01*
X43350Y-26978D01*
X43341Y-26992D01*
X43333Y-27018D01*
X43333Y-27085D01*
X43341Y-27112D01*
X43350Y-27125D01*
X43367Y-27138D01*
X43410Y-27138D01*
X43427Y-27125D01*
X43436Y-27112D01*
X43504Y-23138D02*
X43564Y-23005D01*
X43607Y-23138D02*
X43607Y-22858D01*
X43539Y-22858D01*
X43521Y-22872D01*
X43513Y-22885D01*
X43504Y-22912D01*
X43504Y-22952D01*
X43513Y-22978D01*
X43521Y-22992D01*
X43539Y-23005D01*
X43607Y-23005D01*
X43350Y-22952D02*
X43350Y-23138D01*
X43393Y-22845D02*
X43436Y-23045D01*
X43324Y-23045D01*
X43504Y-24138D02*
X43564Y-24005D01*
X43607Y-24138D02*
X43607Y-23858D01*
X43539Y-23858D01*
X43521Y-23872D01*
X43513Y-23885D01*
X43504Y-23912D01*
X43504Y-23952D01*
X43513Y-23978D01*
X43521Y-23992D01*
X43539Y-24005D01*
X43607Y-24005D01*
X43444Y-23858D02*
X43333Y-23858D01*
X43393Y-23965D01*
X43367Y-23965D01*
X43350Y-23978D01*
X43341Y-23992D01*
X43333Y-24018D01*
X43333Y-24085D01*
X43341Y-24112D01*
X43350Y-24125D01*
X43367Y-24138D01*
X43419Y-24138D01*
X43436Y-24125D01*
X43444Y-24112D01*
X43504Y-25138D02*
X43564Y-25005D01*
X43607Y-25138D02*
X43607Y-24858D01*
X43539Y-24858D01*
X43521Y-24872D01*
X43513Y-24885D01*
X43504Y-24912D01*
X43504Y-24952D01*
X43513Y-24978D01*
X43521Y-24992D01*
X43539Y-25005D01*
X43607Y-25005D01*
X43436Y-24885D02*
X43427Y-24872D01*
X43410Y-24858D01*
X43367Y-24858D01*
X43350Y-24872D01*
X43341Y-24885D01*
X43333Y-24912D01*
X43333Y-24938D01*
X43341Y-24978D01*
X43444Y-25138D01*
X43333Y-25138D01*
X43504Y-26138D02*
X43564Y-26005D01*
X43607Y-26138D02*
X43607Y-25858D01*
X43539Y-25858D01*
X43521Y-25872D01*
X43513Y-25885D01*
X43504Y-25912D01*
X43504Y-25952D01*
X43513Y-25978D01*
X43521Y-25992D01*
X43539Y-26005D01*
X43607Y-26005D01*
X43333Y-26138D02*
X43436Y-26138D01*
X43384Y-26138D02*
X43384Y-25858D01*
X43401Y-25898D01*
X43419Y-25925D01*
X43436Y-25938D01*
X57257Y-23638D02*
X57257Y-23358D01*
X57214Y-23358D01*
X57189Y-23372D01*
X57171Y-23398D01*
X57163Y-23425D01*
X57154Y-23478D01*
X57154Y-23518D01*
X57163Y-23572D01*
X57171Y-23598D01*
X57189Y-23625D01*
X57214Y-23638D01*
X57257Y-23638D01*
X57086Y-23385D02*
X57077Y-23372D01*
X57060Y-23358D01*
X57017Y-23358D01*
X57000Y-23372D01*
X56991Y-23385D01*
X56983Y-23412D01*
X56983Y-23438D01*
X56991Y-23478D01*
X57094Y-23638D01*
X56983Y-23638D01*
X57257Y-24588D02*
X57257Y-24308D01*
X57214Y-24308D01*
X57189Y-24322D01*
X57171Y-24348D01*
X57163Y-24375D01*
X57154Y-24428D01*
X57154Y-24468D01*
X57163Y-24522D01*
X57171Y-24548D01*
X57189Y-24575D01*
X57214Y-24588D01*
X57257Y-24588D01*
X56983Y-24588D02*
X57086Y-24588D01*
X57034Y-24588D02*
X57034Y-24308D01*
X57051Y-24348D01*
X57069Y-24375D01*
X57086Y-24388D01*
X50854Y-23562D02*
X50863Y-23575D01*
X50889Y-23588D01*
X50906Y-23588D01*
X50931Y-23575D01*
X50949Y-23548D01*
X50957Y-23522D01*
X50966Y-23468D01*
X50966Y-23428D01*
X50957Y-23375D01*
X50949Y-23348D01*
X50931Y-23322D01*
X50906Y-23308D01*
X50889Y-23308D01*
X50863Y-23322D01*
X50854Y-23335D01*
X50751Y-23428D02*
X50769Y-23415D01*
X50777Y-23402D01*
X50786Y-23375D01*
X50786Y-23362D01*
X50777Y-23335D01*
X50769Y-23322D01*
X50751Y-23308D01*
X50717Y-23308D01*
X50700Y-23322D01*
X50691Y-23335D01*
X50683Y-23362D01*
X50683Y-23375D01*
X50691Y-23402D01*
X50700Y-23415D01*
X50717Y-23428D01*
X50751Y-23428D01*
X50769Y-23442D01*
X50777Y-23455D01*
X50786Y-23482D01*
X50786Y-23535D01*
X50777Y-23562D01*
X50769Y-23575D01*
X50751Y-23588D01*
X50717Y-23588D01*
X50700Y-23575D01*
X50691Y-23562D01*
X50683Y-23535D01*
X50683Y-23482D01*
X50691Y-23455D01*
X50700Y-23442D01*
X50717Y-23428D01*
X49362Y-38671D02*
X49375Y-38662D01*
X49388Y-38636D01*
X49388Y-38619D01*
X49375Y-38594D01*
X49348Y-38576D01*
X49322Y-38568D01*
X49268Y-38559D01*
X49228Y-38559D01*
X49175Y-38568D01*
X49148Y-38576D01*
X49122Y-38594D01*
X49108Y-38619D01*
X49108Y-38636D01*
X49122Y-38662D01*
X49135Y-38671D01*
X49108Y-38731D02*
X49108Y-38851D01*
X49388Y-38774D01*
X49912Y-43896D02*
X49925Y-43887D01*
X49938Y-43861D01*
X49938Y-43844D01*
X49925Y-43819D01*
X49898Y-43801D01*
X49872Y-43793D01*
X49818Y-43784D01*
X49778Y-43784D01*
X49725Y-43793D01*
X49698Y-43801D01*
X49672Y-43819D01*
X49658Y-43844D01*
X49658Y-43861D01*
X49672Y-43887D01*
X49685Y-43896D01*
X49658Y-44050D02*
X49658Y-44016D01*
X49672Y-43999D01*
X49685Y-43990D01*
X49725Y-43973D01*
X49778Y-43964D01*
X49885Y-43964D01*
X49912Y-43973D01*
X49925Y-43981D01*
X49938Y-43999D01*
X49938Y-44033D01*
X49925Y-44050D01*
X49912Y-44059D01*
X49885Y-44067D01*
X49818Y-44067D01*
X49792Y-44059D01*
X49778Y-44050D01*
X49765Y-44033D01*
X49765Y-43999D01*
X49778Y-43981D01*
X49792Y-43973D01*
X49818Y-43964D01*
X57012Y-41896D02*
X57025Y-41887D01*
X57038Y-41861D01*
X57038Y-41844D01*
X57025Y-41819D01*
X56998Y-41801D01*
X56972Y-41793D01*
X56918Y-41784D01*
X56878Y-41784D01*
X56825Y-41793D01*
X56798Y-41801D01*
X56772Y-41819D01*
X56758Y-41844D01*
X56758Y-41861D01*
X56772Y-41887D01*
X56785Y-41896D01*
X56758Y-42059D02*
X56758Y-41973D01*
X56892Y-41964D01*
X56878Y-41973D01*
X56865Y-41990D01*
X56865Y-42033D01*
X56878Y-42050D01*
X56892Y-42059D01*
X56918Y-42067D01*
X56985Y-42067D01*
X57012Y-42059D01*
X57025Y-42050D01*
X57038Y-42033D01*
X57038Y-41990D01*
X57025Y-41973D01*
X57012Y-41964D01*
X53504Y-33562D02*
X53513Y-33575D01*
X53539Y-33588D01*
X53556Y-33588D01*
X53581Y-33575D01*
X53599Y-33548D01*
X53607Y-33522D01*
X53616Y-33468D01*
X53616Y-33428D01*
X53607Y-33375D01*
X53599Y-33348D01*
X53581Y-33322D01*
X53556Y-33308D01*
X53539Y-33308D01*
X53513Y-33322D01*
X53504Y-33335D01*
X53350Y-33402D02*
X53350Y-33588D01*
X53393Y-33295D02*
X53436Y-33495D01*
X53324Y-33495D01*
X48554Y-52613D02*
X48640Y-52613D01*
X48640Y-52333D01*
X48400Y-52613D02*
X48503Y-52613D01*
X48451Y-52613D02*
X48451Y-52333D01*
X48468Y-52373D01*
X48486Y-52400D01*
X48503Y-52413D01*
X42932Y-43188D02*
X42932Y-42908D01*
X42889Y-42908D01*
X42864Y-42922D01*
X42846Y-42948D01*
X42838Y-42975D01*
X42829Y-43028D01*
X42829Y-43068D01*
X42838Y-43122D01*
X42846Y-43148D01*
X42864Y-43175D01*
X42889Y-43188D01*
X42932Y-43188D01*
X42769Y-42908D02*
X42658Y-42908D01*
X42718Y-43015D01*
X42692Y-43015D01*
X42675Y-43028D01*
X42666Y-43042D01*
X42658Y-43068D01*
X42658Y-43135D01*
X42666Y-43162D01*
X42675Y-43175D01*
X42692Y-43188D01*
X42744Y-43188D01*
X42761Y-43175D01*
X42769Y-43162D01*
X49912Y-51996D02*
X49925Y-51987D01*
X49938Y-51961D01*
X49938Y-51944D01*
X49925Y-51919D01*
X49898Y-51901D01*
X49872Y-51893D01*
X49818Y-51884D01*
X49778Y-51884D01*
X49725Y-51893D01*
X49698Y-51901D01*
X49672Y-51919D01*
X49658Y-51944D01*
X49658Y-51961D01*
X49672Y-51987D01*
X49685Y-51996D01*
X49658Y-52056D02*
X49658Y-52167D01*
X49765Y-52107D01*
X49765Y-52133D01*
X49778Y-52150D01*
X49792Y-52159D01*
X49818Y-52167D01*
X49885Y-52167D01*
X49912Y-52159D01*
X49925Y-52150D01*
X49938Y-52133D01*
X49938Y-52081D01*
X49925Y-52064D01*
X49912Y-52056D01*
M02*
