G04 (created by PCBNEW-RS274X (2012-01-19 BZR 3256)-stable) date 15/04/2012 14:51:01*
G01*
G70*
G90*
%MOIN*%
G04 Gerber Fmt 3.4, Leading zero omitted, Abs format*
%FSLAX34Y34*%
G04 APERTURE LIST*
%ADD10C,0.006000*%
%ADD11C,0.005000*%
%ADD12C,0.012000*%
%ADD13C,0.015000*%
%ADD14C,0.008000*%
%ADD15C,0.004500*%
%ADD16C,0.010600*%
%ADD17C,0.010700*%
%ADD18C,0.011300*%
%ADD19C,0.010000*%
G04 APERTURE END LIST*
G54D10*
G54D11*
X92500Y-52300D02*
X92500Y-51400D01*
X92500Y-51400D02*
X93000Y-51400D01*
X93000Y-51400D02*
X93000Y-52300D01*
X93000Y-52300D02*
X92500Y-52300D01*
X100225Y-43150D02*
X99325Y-43150D01*
X99325Y-43150D02*
X99325Y-42650D01*
X99325Y-42650D02*
X100225Y-42650D01*
X100225Y-42650D02*
X100225Y-43150D01*
X94500Y-52575D02*
X93600Y-52575D01*
X93600Y-52575D02*
X93600Y-52075D01*
X93600Y-52075D02*
X94500Y-52075D01*
X94500Y-52075D02*
X94500Y-52575D01*
X89550Y-33550D02*
X88650Y-33550D01*
X88650Y-33550D02*
X88650Y-33050D01*
X88650Y-33050D02*
X89550Y-33050D01*
X89550Y-33050D02*
X89550Y-33550D01*
X85400Y-42200D02*
X85400Y-41300D01*
X85400Y-41300D02*
X85900Y-41300D01*
X85900Y-41300D02*
X85900Y-42200D01*
X85900Y-42200D02*
X85400Y-42200D01*
X92500Y-44200D02*
X92500Y-43300D01*
X92500Y-43300D02*
X93000Y-43300D01*
X93000Y-43300D02*
X93000Y-44200D01*
X93000Y-44200D02*
X92500Y-44200D01*
X93050Y-38975D02*
X93050Y-38075D01*
X93050Y-38075D02*
X93550Y-38075D01*
X93550Y-38075D02*
X93550Y-38975D01*
X93550Y-38975D02*
X93050Y-38975D01*
X91300Y-23050D02*
X92200Y-23050D01*
X92200Y-23050D02*
X92200Y-23550D01*
X92200Y-23550D02*
X91300Y-23550D01*
X91300Y-23550D02*
X91300Y-23050D01*
X85000Y-24050D02*
X85900Y-24050D01*
X85900Y-24050D02*
X85900Y-24550D01*
X85900Y-24550D02*
X85000Y-24550D01*
X85000Y-24550D02*
X85000Y-24050D01*
X85000Y-23100D02*
X85900Y-23100D01*
X85900Y-23100D02*
X85900Y-23600D01*
X85900Y-23600D02*
X85000Y-23600D01*
X85000Y-23600D02*
X85000Y-23100D01*
X99550Y-26100D02*
X98650Y-26100D01*
X98650Y-26100D02*
X98650Y-25600D01*
X98650Y-25600D02*
X99550Y-25600D01*
X99550Y-25600D02*
X99550Y-26100D01*
X99550Y-25100D02*
X98650Y-25100D01*
X98650Y-25100D02*
X98650Y-24600D01*
X98650Y-24600D02*
X99550Y-24600D01*
X99550Y-24600D02*
X99550Y-25100D01*
X99550Y-24100D02*
X98650Y-24100D01*
X98650Y-24100D02*
X98650Y-23600D01*
X98650Y-23600D02*
X99550Y-23600D01*
X99550Y-23600D02*
X99550Y-24100D01*
X99550Y-23100D02*
X98650Y-23100D01*
X98650Y-23100D02*
X98650Y-22600D01*
X98650Y-22600D02*
X99550Y-22600D01*
X99550Y-22600D02*
X99550Y-23100D01*
X99550Y-27100D02*
X98650Y-27100D01*
X98650Y-27100D02*
X98650Y-26600D01*
X98650Y-26600D02*
X99550Y-26600D01*
X99550Y-26600D02*
X99550Y-27100D01*
X99550Y-28100D02*
X98650Y-28100D01*
X98650Y-28100D02*
X98650Y-27600D01*
X98650Y-27600D02*
X99550Y-27600D01*
X99550Y-27600D02*
X99550Y-28100D01*
X99550Y-29100D02*
X98650Y-29100D01*
X98650Y-29100D02*
X98650Y-28600D01*
X98650Y-28600D02*
X99550Y-28600D01*
X99550Y-28600D02*
X99550Y-29100D01*
X99550Y-30100D02*
X98650Y-30100D01*
X98650Y-30100D02*
X98650Y-29600D01*
X98650Y-29600D02*
X99550Y-29600D01*
X99550Y-29600D02*
X99550Y-30100D01*
X86250Y-24050D02*
X87150Y-24050D01*
X87150Y-24050D02*
X87150Y-24550D01*
X87150Y-24550D02*
X86250Y-24550D01*
X86250Y-24550D02*
X86250Y-24050D01*
X86250Y-23100D02*
X87150Y-23100D01*
X87150Y-23100D02*
X87150Y-23600D01*
X87150Y-23600D02*
X86250Y-23600D01*
X86250Y-23600D02*
X86250Y-23100D01*
X99550Y-35300D02*
X98650Y-35300D01*
X98650Y-35300D02*
X98650Y-34800D01*
X98650Y-34800D02*
X99550Y-34800D01*
X99550Y-34800D02*
X99550Y-35300D01*
X99550Y-34300D02*
X98650Y-34300D01*
X98650Y-34300D02*
X98650Y-33800D01*
X98650Y-33800D02*
X99550Y-33800D01*
X99550Y-33800D02*
X99550Y-34300D01*
X99550Y-33300D02*
X98650Y-33300D01*
X98650Y-33300D02*
X98650Y-32800D01*
X98650Y-32800D02*
X99550Y-32800D01*
X99550Y-32800D02*
X99550Y-33300D01*
X99550Y-32300D02*
X98650Y-32300D01*
X98650Y-32300D02*
X98650Y-31800D01*
X98650Y-31800D02*
X99550Y-31800D01*
X99550Y-31800D02*
X99550Y-32300D01*
X99550Y-36300D02*
X98650Y-36300D01*
X98650Y-36300D02*
X98650Y-35800D01*
X98650Y-35800D02*
X99550Y-35800D01*
X99550Y-35800D02*
X99550Y-36300D01*
X99550Y-37300D02*
X98650Y-37300D01*
X98650Y-37300D02*
X98650Y-36800D01*
X98650Y-36800D02*
X99550Y-36800D01*
X99550Y-36800D02*
X99550Y-37300D01*
X99550Y-38300D02*
X98650Y-38300D01*
X98650Y-38300D02*
X98650Y-37800D01*
X98650Y-37800D02*
X99550Y-37800D01*
X99550Y-37800D02*
X99550Y-38300D01*
X99550Y-39400D02*
X98650Y-39400D01*
X98650Y-39400D02*
X98650Y-38900D01*
X98650Y-38900D02*
X99550Y-38900D01*
X99550Y-38900D02*
X99550Y-39400D01*
X98400Y-51350D02*
X98400Y-52250D01*
X98400Y-52250D02*
X97900Y-52250D01*
X97900Y-52250D02*
X97900Y-51350D01*
X97900Y-51350D02*
X98400Y-51350D01*
X99825Y-42375D02*
X99825Y-41475D01*
X99825Y-41475D02*
X100325Y-41475D01*
X100325Y-41475D02*
X100325Y-42375D01*
X100325Y-42375D02*
X99825Y-42375D01*
X98400Y-52550D02*
X98400Y-53450D01*
X98400Y-53450D02*
X97900Y-53450D01*
X97900Y-53450D02*
X97900Y-52550D01*
X97900Y-52550D02*
X98400Y-52550D01*
X91650Y-26900D02*
X91650Y-27800D01*
X91650Y-27800D02*
X91150Y-27800D01*
X91150Y-27800D02*
X91150Y-26900D01*
X91150Y-26900D02*
X91650Y-26900D01*
X90450Y-26900D02*
X90450Y-27800D01*
X90450Y-27800D02*
X89950Y-27800D01*
X89950Y-27800D02*
X89950Y-26900D01*
X89950Y-26900D02*
X90450Y-26900D01*
G54D12*
X49025Y-58925D02*
X48025Y-58925D01*
X48025Y-58925D02*
X48025Y-55925D01*
X48025Y-55925D02*
X49025Y-55925D01*
X49025Y-55925D02*
X49025Y-58925D01*
X48025Y-57925D02*
X49025Y-57925D01*
X50525Y-58925D02*
X49525Y-58925D01*
X49525Y-58925D02*
X49525Y-55925D01*
X49525Y-55925D02*
X50525Y-55925D01*
X50525Y-55925D02*
X50525Y-58925D01*
X49525Y-57925D02*
X50525Y-57925D01*
X52025Y-58925D02*
X51025Y-58925D01*
X51025Y-58925D02*
X51025Y-55925D01*
X51025Y-55925D02*
X52025Y-55925D01*
X52025Y-55925D02*
X52025Y-58925D01*
X51025Y-57925D02*
X52025Y-57925D01*
X53525Y-58925D02*
X52525Y-58925D01*
X52525Y-58925D02*
X52525Y-55925D01*
X52525Y-55925D02*
X53525Y-55925D01*
X53525Y-55925D02*
X53525Y-58925D01*
X52525Y-57925D02*
X53525Y-57925D01*
X55025Y-58925D02*
X54025Y-58925D01*
X54025Y-58925D02*
X54025Y-55925D01*
X54025Y-55925D02*
X55025Y-55925D01*
X55025Y-55925D02*
X55025Y-58925D01*
X54025Y-57925D02*
X55025Y-57925D01*
X56525Y-58925D02*
X55525Y-58925D01*
X55525Y-58925D02*
X55525Y-55925D01*
X55525Y-55925D02*
X56525Y-55925D01*
X56525Y-55925D02*
X56525Y-58925D01*
X55525Y-57925D02*
X56525Y-57925D01*
G54D13*
X44575Y-49925D02*
X38325Y-49925D01*
X38325Y-49925D02*
X38325Y-44425D01*
X38325Y-44425D02*
X44575Y-44425D01*
X44575Y-44425D02*
X44575Y-49925D01*
G54D12*
X61275Y-44025D02*
X61275Y-54925D01*
X57925Y-54925D02*
X57925Y-44075D01*
X61275Y-50475D02*
X60975Y-50475D01*
X60975Y-50475D02*
X60975Y-54475D01*
X60975Y-54475D02*
X58175Y-54475D01*
X58175Y-54475D02*
X58175Y-44475D01*
X58175Y-44475D02*
X60975Y-44475D01*
X60975Y-44475D02*
X60975Y-48475D01*
X60975Y-48475D02*
X61275Y-48475D01*
X61275Y-54925D02*
X57875Y-54925D01*
X57875Y-44025D02*
X61275Y-44025D01*
X60075Y-53575D02*
X59775Y-54075D01*
X59775Y-54075D02*
X60375Y-54075D01*
X60375Y-54075D02*
X60075Y-53575D01*
G54D13*
X46675Y-58925D02*
X45675Y-58925D01*
X45675Y-58925D02*
X45675Y-56925D01*
X45675Y-56925D02*
X46675Y-56925D01*
X46675Y-56925D02*
X46675Y-58925D01*
X52875Y-26425D02*
X51875Y-26425D01*
X51875Y-26425D02*
X51875Y-24425D01*
X51875Y-24425D02*
X52875Y-24425D01*
X52875Y-24425D02*
X52875Y-26425D01*
X51625Y-26425D02*
X50625Y-26425D01*
X50625Y-26425D02*
X50625Y-24425D01*
X50625Y-24425D02*
X51625Y-24425D01*
X51625Y-24425D02*
X51625Y-26425D01*
G54D12*
X56975Y-31050D02*
X51975Y-31050D01*
X51975Y-31050D02*
X51975Y-29050D01*
X51975Y-29050D02*
X56975Y-29050D01*
X56975Y-29050D02*
X56975Y-31050D01*
X43425Y-54975D02*
X42425Y-54975D01*
X42425Y-54975D02*
X42425Y-51975D01*
X42425Y-51975D02*
X43425Y-51975D01*
X43425Y-51975D02*
X43425Y-54975D01*
X42425Y-53975D02*
X43425Y-53975D01*
G54D13*
X42825Y-55675D02*
X42825Y-55475D01*
X42425Y-55425D02*
X44425Y-55425D01*
X42425Y-55425D02*
X42425Y-57925D01*
X42425Y-57925D02*
X44175Y-57925D01*
X44175Y-57925D02*
X44425Y-57925D01*
X43925Y-55675D02*
X42825Y-55675D01*
X43925Y-55675D02*
X43925Y-55425D01*
X44425Y-55425D02*
X44425Y-57925D01*
X38750Y-42725D02*
X38550Y-42725D01*
X38500Y-43125D02*
X38500Y-41125D01*
X38500Y-43125D02*
X41000Y-43125D01*
X41000Y-43125D02*
X41000Y-41375D01*
X41000Y-41375D02*
X41000Y-41125D01*
X38750Y-41625D02*
X38750Y-42725D01*
X38750Y-41625D02*
X38500Y-41625D01*
X38500Y-41125D02*
X41000Y-41125D01*
X58325Y-33975D02*
X58575Y-33975D01*
X58575Y-33975D02*
X58575Y-36975D01*
X58575Y-36975D02*
X58325Y-36975D01*
X60825Y-37475D02*
X60825Y-33475D01*
X60825Y-33475D02*
X58325Y-33475D01*
X58325Y-33475D02*
X58325Y-37475D01*
X58325Y-37475D02*
X60825Y-37475D01*
X58325Y-38475D02*
X58575Y-38475D01*
X58575Y-38475D02*
X58575Y-41475D01*
X58575Y-41475D02*
X58325Y-41475D01*
X60825Y-41975D02*
X60825Y-37975D01*
X60825Y-37975D02*
X58325Y-37975D01*
X58325Y-37975D02*
X58325Y-41975D01*
X58325Y-41975D02*
X60825Y-41975D01*
G54D11*
X53200Y-28025D02*
X53200Y-27125D01*
X53200Y-27125D02*
X53700Y-27125D01*
X53700Y-27125D02*
X53700Y-28025D01*
X53700Y-28025D02*
X53200Y-28025D01*
X55275Y-28050D02*
X55275Y-27150D01*
X55275Y-27150D02*
X55775Y-27150D01*
X55775Y-27150D02*
X55775Y-28050D01*
X55775Y-28050D02*
X55275Y-28050D01*
G54D12*
X38575Y-54025D02*
X36075Y-54025D01*
X36075Y-54025D02*
X36075Y-53025D01*
X36075Y-53025D02*
X38575Y-53025D01*
X41575Y-55025D02*
X41575Y-52025D01*
X41575Y-52025D02*
X38575Y-52025D01*
X38575Y-52025D02*
X38575Y-55025D01*
X38575Y-55025D02*
X41575Y-55025D01*
G54D13*
X40075Y-40225D02*
X40075Y-40225D01*
X40075Y-40225D02*
X40075Y-39725D01*
X40075Y-39725D02*
X41075Y-39725D01*
X41075Y-39725D02*
X41075Y-40225D01*
X39575Y-40225D02*
X39575Y-31225D01*
X39575Y-31225D02*
X41575Y-31225D01*
X41575Y-31225D02*
X41575Y-40225D01*
X41575Y-40225D02*
X39575Y-40225D01*
X52975Y-53475D02*
X52975Y-52975D01*
X52975Y-52975D02*
X53975Y-52975D01*
X53975Y-52975D02*
X53975Y-53475D01*
X50975Y-53475D02*
X50975Y-32475D01*
X50975Y-32475D02*
X55975Y-32475D01*
X55975Y-32475D02*
X55975Y-53475D01*
X55975Y-53475D02*
X50975Y-53475D01*
X40075Y-31025D02*
X40075Y-31025D01*
X40075Y-31025D02*
X40075Y-30525D01*
X40075Y-30525D02*
X41075Y-30525D01*
X41075Y-30525D02*
X41075Y-31025D01*
X39575Y-31025D02*
X39575Y-22025D01*
X39575Y-22025D02*
X41575Y-22025D01*
X41575Y-22025D02*
X41575Y-31025D01*
X41575Y-31025D02*
X39575Y-31025D01*
X46775Y-40225D02*
X46775Y-40225D01*
X46775Y-40225D02*
X46775Y-39725D01*
X46775Y-39725D02*
X47775Y-39725D01*
X47775Y-39725D02*
X47775Y-40225D01*
X46275Y-40225D02*
X46275Y-31225D01*
X46275Y-31225D02*
X48275Y-31225D01*
X48275Y-31225D02*
X48275Y-40225D01*
X48275Y-40225D02*
X46275Y-40225D01*
X46775Y-31025D02*
X46775Y-31025D01*
X46775Y-31025D02*
X46775Y-30525D01*
X46775Y-30525D02*
X47775Y-30525D01*
X47775Y-30525D02*
X47775Y-31025D01*
X46275Y-31025D02*
X46275Y-22025D01*
X46275Y-22025D02*
X48275Y-22025D01*
X48275Y-22025D02*
X48275Y-31025D01*
X48275Y-31025D02*
X46275Y-31025D01*
G54D14*
X60716Y-57201D02*
X60689Y-57472D01*
X60610Y-57734D01*
X60482Y-57975D01*
X60309Y-58187D01*
X60098Y-58361D01*
X59858Y-58491D01*
X59597Y-58572D01*
X59325Y-58600D01*
X59054Y-58576D01*
X58792Y-58499D01*
X58550Y-58372D01*
X58337Y-58201D01*
X58161Y-57991D01*
X58030Y-57752D01*
X57947Y-57492D01*
X57917Y-57220D01*
X57939Y-56949D01*
X58015Y-56686D01*
X58140Y-56443D01*
X58309Y-56229D01*
X58518Y-56052D01*
X58756Y-55919D01*
X59016Y-55834D01*
X59287Y-55802D01*
X59559Y-55823D01*
X59822Y-55896D01*
X60066Y-56019D01*
X60281Y-56188D01*
X60460Y-56394D01*
X60594Y-56632D01*
X60681Y-56891D01*
X60715Y-57162D01*
X60716Y-57201D01*
G54D13*
X61625Y-60375D02*
X61607Y-60549D01*
X61557Y-60717D01*
X61474Y-60873D01*
X61363Y-61009D01*
X61228Y-61121D01*
X61073Y-61204D01*
X60905Y-61256D01*
X60731Y-61274D01*
X60557Y-61259D01*
X60388Y-61209D01*
X60233Y-61128D01*
X60096Y-61018D01*
X59983Y-60883D01*
X59898Y-60729D01*
X59845Y-60562D01*
X59826Y-60387D01*
X59840Y-60213D01*
X59889Y-60044D01*
X59969Y-59888D01*
X60078Y-59750D01*
X60212Y-59636D01*
X60365Y-59551D01*
X60532Y-59496D01*
X60707Y-59476D01*
X60881Y-59489D01*
X61050Y-59536D01*
X61207Y-59616D01*
X61345Y-59724D01*
X61460Y-59857D01*
X61547Y-60009D01*
X61602Y-60176D01*
X61624Y-60350D01*
X61625Y-60375D01*
X61675Y-23275D02*
X61657Y-23449D01*
X61607Y-23617D01*
X61524Y-23773D01*
X61413Y-23909D01*
X61278Y-24021D01*
X61123Y-24104D01*
X60955Y-24156D01*
X60781Y-24174D01*
X60607Y-24159D01*
X60438Y-24109D01*
X60283Y-24028D01*
X60146Y-23918D01*
X60033Y-23783D01*
X59948Y-23629D01*
X59895Y-23462D01*
X59876Y-23287D01*
X59890Y-23113D01*
X59939Y-22944D01*
X60019Y-22788D01*
X60128Y-22650D01*
X60262Y-22536D01*
X60415Y-22451D01*
X60582Y-22396D01*
X60757Y-22376D01*
X60931Y-22389D01*
X61100Y-22436D01*
X61257Y-22516D01*
X61395Y-22624D01*
X61510Y-22757D01*
X61597Y-22909D01*
X61652Y-23076D01*
X61674Y-23250D01*
X61675Y-23275D01*
X58575Y-32615D02*
X58325Y-32615D01*
X60825Y-33135D02*
X58325Y-33135D01*
X58325Y-29625D02*
X58575Y-29625D01*
X58575Y-29625D02*
X58575Y-32625D01*
X60825Y-33125D02*
X60825Y-29125D01*
X60825Y-29125D02*
X58325Y-29125D01*
X58325Y-29125D02*
X58325Y-33125D01*
X58475Y-25625D02*
X56525Y-25625D01*
X58325Y-28875D02*
X56525Y-28875D01*
X56525Y-25625D02*
X56525Y-28875D01*
X58175Y-25625D02*
X58175Y-28825D01*
X61375Y-28875D02*
X61375Y-25625D01*
X60575Y-25625D02*
X61775Y-25625D01*
X61775Y-25625D02*
X61775Y-28825D01*
X61775Y-28825D02*
X61775Y-28875D01*
X61775Y-28875D02*
X61075Y-28875D01*
X58275Y-28875D02*
X61275Y-28875D01*
X58275Y-25625D02*
X61275Y-25625D01*
G54D12*
X61275Y-25625D02*
X58275Y-25625D01*
G54D15*
X92837Y-51879D02*
X92850Y-51888D01*
X92863Y-51914D01*
X92863Y-51931D01*
X92850Y-51956D01*
X92823Y-51974D01*
X92797Y-51982D01*
X92743Y-51991D01*
X92703Y-51991D01*
X92650Y-51982D01*
X92623Y-51974D01*
X92597Y-51956D01*
X92583Y-51931D01*
X92583Y-51914D01*
X92597Y-51888D01*
X92610Y-51879D01*
X92583Y-51819D02*
X92583Y-51708D01*
X92690Y-51768D01*
X92690Y-51742D01*
X92703Y-51725D01*
X92717Y-51716D01*
X92743Y-51708D01*
X92810Y-51708D01*
X92837Y-51716D01*
X92850Y-51725D01*
X92863Y-51742D01*
X92863Y-51794D01*
X92850Y-51811D01*
X92837Y-51819D01*
X99643Y-43013D02*
X99643Y-42733D01*
X99686Y-42733D01*
X99711Y-42747D01*
X99729Y-42773D01*
X99737Y-42800D01*
X99746Y-42853D01*
X99746Y-42893D01*
X99737Y-42947D01*
X99729Y-42973D01*
X99711Y-43000D01*
X99686Y-43013D01*
X99643Y-43013D01*
X99806Y-42733D02*
X99917Y-42733D01*
X99857Y-42840D01*
X99883Y-42840D01*
X99900Y-42853D01*
X99909Y-42867D01*
X99917Y-42893D01*
X99917Y-42960D01*
X99909Y-42987D01*
X99900Y-43000D01*
X99883Y-43013D01*
X99831Y-43013D01*
X99814Y-43000D01*
X99806Y-42987D01*
X94021Y-52438D02*
X93935Y-52438D01*
X93935Y-52158D01*
X94175Y-52438D02*
X94072Y-52438D01*
X94124Y-52438D02*
X94124Y-52158D01*
X94107Y-52198D01*
X94089Y-52225D01*
X94072Y-52238D01*
X89071Y-33387D02*
X89062Y-33400D01*
X89036Y-33413D01*
X89019Y-33413D01*
X88994Y-33400D01*
X88976Y-33373D01*
X88968Y-33347D01*
X88959Y-33293D01*
X88959Y-33253D01*
X88968Y-33200D01*
X88976Y-33173D01*
X88994Y-33147D01*
X89019Y-33133D01*
X89036Y-33133D01*
X89062Y-33147D01*
X89071Y-33160D01*
X89225Y-33227D02*
X89225Y-33413D01*
X89182Y-33120D02*
X89139Y-33320D01*
X89251Y-33320D01*
X85737Y-41779D02*
X85750Y-41788D01*
X85763Y-41814D01*
X85763Y-41831D01*
X85750Y-41856D01*
X85723Y-41874D01*
X85697Y-41882D01*
X85643Y-41891D01*
X85603Y-41891D01*
X85550Y-41882D01*
X85523Y-41874D01*
X85497Y-41856D01*
X85483Y-41831D01*
X85483Y-41814D01*
X85497Y-41788D01*
X85510Y-41779D01*
X85483Y-41616D02*
X85483Y-41702D01*
X85617Y-41711D01*
X85603Y-41702D01*
X85590Y-41685D01*
X85590Y-41642D01*
X85603Y-41625D01*
X85617Y-41616D01*
X85643Y-41608D01*
X85710Y-41608D01*
X85737Y-41616D01*
X85750Y-41625D01*
X85763Y-41642D01*
X85763Y-41685D01*
X85750Y-41702D01*
X85737Y-41711D01*
X92837Y-43779D02*
X92850Y-43788D01*
X92863Y-43814D01*
X92863Y-43831D01*
X92850Y-43856D01*
X92823Y-43874D01*
X92797Y-43882D01*
X92743Y-43891D01*
X92703Y-43891D01*
X92650Y-43882D01*
X92623Y-43874D01*
X92597Y-43856D01*
X92583Y-43831D01*
X92583Y-43814D01*
X92597Y-43788D01*
X92610Y-43779D01*
X92583Y-43625D02*
X92583Y-43659D01*
X92597Y-43676D01*
X92610Y-43685D01*
X92650Y-43702D01*
X92703Y-43711D01*
X92810Y-43711D01*
X92837Y-43702D01*
X92850Y-43694D01*
X92863Y-43676D01*
X92863Y-43642D01*
X92850Y-43625D01*
X92837Y-43616D01*
X92810Y-43608D01*
X92743Y-43608D01*
X92717Y-43616D01*
X92703Y-43625D01*
X92690Y-43642D01*
X92690Y-43676D01*
X92703Y-43694D01*
X92717Y-43702D01*
X92743Y-43711D01*
X93387Y-38554D02*
X93400Y-38563D01*
X93413Y-38589D01*
X93413Y-38606D01*
X93400Y-38631D01*
X93373Y-38649D01*
X93347Y-38657D01*
X93293Y-38666D01*
X93253Y-38666D01*
X93200Y-38657D01*
X93173Y-38649D01*
X93147Y-38631D01*
X93133Y-38606D01*
X93133Y-38589D01*
X93147Y-38563D01*
X93160Y-38554D01*
X93133Y-38494D02*
X93133Y-38374D01*
X93413Y-38451D01*
X91721Y-23387D02*
X91712Y-23400D01*
X91686Y-23413D01*
X91669Y-23413D01*
X91644Y-23400D01*
X91626Y-23373D01*
X91618Y-23347D01*
X91609Y-23293D01*
X91609Y-23253D01*
X91618Y-23200D01*
X91626Y-23173D01*
X91644Y-23147D01*
X91669Y-23133D01*
X91686Y-23133D01*
X91712Y-23147D01*
X91721Y-23160D01*
X91824Y-23253D02*
X91806Y-23240D01*
X91798Y-23227D01*
X91789Y-23200D01*
X91789Y-23187D01*
X91798Y-23160D01*
X91806Y-23147D01*
X91824Y-23133D01*
X91858Y-23133D01*
X91875Y-23147D01*
X91884Y-23160D01*
X91892Y-23187D01*
X91892Y-23200D01*
X91884Y-23227D01*
X91875Y-23240D01*
X91858Y-23253D01*
X91824Y-23253D01*
X91806Y-23267D01*
X91798Y-23280D01*
X91789Y-23307D01*
X91789Y-23360D01*
X91798Y-23387D01*
X91806Y-23400D01*
X91824Y-23413D01*
X91858Y-23413D01*
X91875Y-23400D01*
X91884Y-23387D01*
X91892Y-23360D01*
X91892Y-23307D01*
X91884Y-23280D01*
X91875Y-23267D01*
X91858Y-23253D01*
X85318Y-24413D02*
X85318Y-24133D01*
X85361Y-24133D01*
X85386Y-24147D01*
X85404Y-24173D01*
X85412Y-24200D01*
X85421Y-24253D01*
X85421Y-24293D01*
X85412Y-24347D01*
X85404Y-24373D01*
X85386Y-24400D01*
X85361Y-24413D01*
X85318Y-24413D01*
X85592Y-24413D02*
X85489Y-24413D01*
X85541Y-24413D02*
X85541Y-24133D01*
X85524Y-24173D01*
X85506Y-24200D01*
X85489Y-24213D01*
X85318Y-23463D02*
X85318Y-23183D01*
X85361Y-23183D01*
X85386Y-23197D01*
X85404Y-23223D01*
X85412Y-23250D01*
X85421Y-23303D01*
X85421Y-23343D01*
X85412Y-23397D01*
X85404Y-23423D01*
X85386Y-23450D01*
X85361Y-23463D01*
X85318Y-23463D01*
X85489Y-23210D02*
X85498Y-23197D01*
X85515Y-23183D01*
X85558Y-23183D01*
X85575Y-23197D01*
X85584Y-23210D01*
X85592Y-23237D01*
X85592Y-23263D01*
X85584Y-23303D01*
X85481Y-23463D01*
X85592Y-23463D01*
X99071Y-25963D02*
X99011Y-25830D01*
X98968Y-25963D02*
X98968Y-25683D01*
X99036Y-25683D01*
X99054Y-25697D01*
X99062Y-25710D01*
X99071Y-25737D01*
X99071Y-25777D01*
X99062Y-25803D01*
X99054Y-25817D01*
X99036Y-25830D01*
X98968Y-25830D01*
X99242Y-25963D02*
X99139Y-25963D01*
X99191Y-25963D02*
X99191Y-25683D01*
X99174Y-25723D01*
X99156Y-25750D01*
X99139Y-25763D01*
X99071Y-24963D02*
X99011Y-24830D01*
X98968Y-24963D02*
X98968Y-24683D01*
X99036Y-24683D01*
X99054Y-24697D01*
X99062Y-24710D01*
X99071Y-24737D01*
X99071Y-24777D01*
X99062Y-24803D01*
X99054Y-24817D01*
X99036Y-24830D01*
X98968Y-24830D01*
X99139Y-24710D02*
X99148Y-24697D01*
X99165Y-24683D01*
X99208Y-24683D01*
X99225Y-24697D01*
X99234Y-24710D01*
X99242Y-24737D01*
X99242Y-24763D01*
X99234Y-24803D01*
X99131Y-24963D01*
X99242Y-24963D01*
X99071Y-23963D02*
X99011Y-23830D01*
X98968Y-23963D02*
X98968Y-23683D01*
X99036Y-23683D01*
X99054Y-23697D01*
X99062Y-23710D01*
X99071Y-23737D01*
X99071Y-23777D01*
X99062Y-23803D01*
X99054Y-23817D01*
X99036Y-23830D01*
X98968Y-23830D01*
X99131Y-23683D02*
X99242Y-23683D01*
X99182Y-23790D01*
X99208Y-23790D01*
X99225Y-23803D01*
X99234Y-23817D01*
X99242Y-23843D01*
X99242Y-23910D01*
X99234Y-23937D01*
X99225Y-23950D01*
X99208Y-23963D01*
X99156Y-23963D01*
X99139Y-23950D01*
X99131Y-23937D01*
X99071Y-22963D02*
X99011Y-22830D01*
X98968Y-22963D02*
X98968Y-22683D01*
X99036Y-22683D01*
X99054Y-22697D01*
X99062Y-22710D01*
X99071Y-22737D01*
X99071Y-22777D01*
X99062Y-22803D01*
X99054Y-22817D01*
X99036Y-22830D01*
X98968Y-22830D01*
X99225Y-22777D02*
X99225Y-22963D01*
X99182Y-22670D02*
X99139Y-22870D01*
X99251Y-22870D01*
X99071Y-26963D02*
X99011Y-26830D01*
X98968Y-26963D02*
X98968Y-26683D01*
X99036Y-26683D01*
X99054Y-26697D01*
X99062Y-26710D01*
X99071Y-26737D01*
X99071Y-26777D01*
X99062Y-26803D01*
X99054Y-26817D01*
X99036Y-26830D01*
X98968Y-26830D01*
X99234Y-26683D02*
X99148Y-26683D01*
X99139Y-26817D01*
X99148Y-26803D01*
X99165Y-26790D01*
X99208Y-26790D01*
X99225Y-26803D01*
X99234Y-26817D01*
X99242Y-26843D01*
X99242Y-26910D01*
X99234Y-26937D01*
X99225Y-26950D01*
X99208Y-26963D01*
X99165Y-26963D01*
X99148Y-26950D01*
X99139Y-26937D01*
X99071Y-27963D02*
X99011Y-27830D01*
X98968Y-27963D02*
X98968Y-27683D01*
X99036Y-27683D01*
X99054Y-27697D01*
X99062Y-27710D01*
X99071Y-27737D01*
X99071Y-27777D01*
X99062Y-27803D01*
X99054Y-27817D01*
X99036Y-27830D01*
X98968Y-27830D01*
X99225Y-27683D02*
X99191Y-27683D01*
X99174Y-27697D01*
X99165Y-27710D01*
X99148Y-27750D01*
X99139Y-27803D01*
X99139Y-27910D01*
X99148Y-27937D01*
X99156Y-27950D01*
X99174Y-27963D01*
X99208Y-27963D01*
X99225Y-27950D01*
X99234Y-27937D01*
X99242Y-27910D01*
X99242Y-27843D01*
X99234Y-27817D01*
X99225Y-27803D01*
X99208Y-27790D01*
X99174Y-27790D01*
X99156Y-27803D01*
X99148Y-27817D01*
X99139Y-27843D01*
X99071Y-28963D02*
X99011Y-28830D01*
X98968Y-28963D02*
X98968Y-28683D01*
X99036Y-28683D01*
X99054Y-28697D01*
X99062Y-28710D01*
X99071Y-28737D01*
X99071Y-28777D01*
X99062Y-28803D01*
X99054Y-28817D01*
X99036Y-28830D01*
X98968Y-28830D01*
X99131Y-28683D02*
X99251Y-28683D01*
X99174Y-28963D01*
X99071Y-29963D02*
X99011Y-29830D01*
X98968Y-29963D02*
X98968Y-29683D01*
X99036Y-29683D01*
X99054Y-29697D01*
X99062Y-29710D01*
X99071Y-29737D01*
X99071Y-29777D01*
X99062Y-29803D01*
X99054Y-29817D01*
X99036Y-29830D01*
X98968Y-29830D01*
X99174Y-29803D02*
X99156Y-29790D01*
X99148Y-29777D01*
X99139Y-29750D01*
X99139Y-29737D01*
X99148Y-29710D01*
X99156Y-29697D01*
X99174Y-29683D01*
X99208Y-29683D01*
X99225Y-29697D01*
X99234Y-29710D01*
X99242Y-29737D01*
X99242Y-29750D01*
X99234Y-29777D01*
X99225Y-29790D01*
X99208Y-29803D01*
X99174Y-29803D01*
X99156Y-29817D01*
X99148Y-29830D01*
X99139Y-29857D01*
X99139Y-29910D01*
X99148Y-29937D01*
X99156Y-29950D01*
X99174Y-29963D01*
X99208Y-29963D01*
X99225Y-29950D01*
X99234Y-29937D01*
X99242Y-29910D01*
X99242Y-29857D01*
X99234Y-29830D01*
X99225Y-29817D01*
X99208Y-29803D01*
X86671Y-24413D02*
X86611Y-24280D01*
X86568Y-24413D02*
X86568Y-24133D01*
X86636Y-24133D01*
X86654Y-24147D01*
X86662Y-24160D01*
X86671Y-24187D01*
X86671Y-24227D01*
X86662Y-24253D01*
X86654Y-24267D01*
X86636Y-24280D01*
X86568Y-24280D01*
X86756Y-24413D02*
X86791Y-24413D01*
X86808Y-24400D01*
X86816Y-24387D01*
X86834Y-24347D01*
X86842Y-24293D01*
X86842Y-24187D01*
X86834Y-24160D01*
X86825Y-24147D01*
X86808Y-24133D01*
X86774Y-24133D01*
X86756Y-24147D01*
X86748Y-24160D01*
X86739Y-24187D01*
X86739Y-24253D01*
X86748Y-24280D01*
X86756Y-24293D01*
X86774Y-24307D01*
X86808Y-24307D01*
X86825Y-24293D01*
X86834Y-24280D01*
X86842Y-24253D01*
X86585Y-23463D02*
X86525Y-23330D01*
X86482Y-23463D02*
X86482Y-23183D01*
X86550Y-23183D01*
X86568Y-23197D01*
X86576Y-23210D01*
X86585Y-23237D01*
X86585Y-23277D01*
X86576Y-23303D01*
X86568Y-23317D01*
X86550Y-23330D01*
X86482Y-23330D01*
X86756Y-23463D02*
X86653Y-23463D01*
X86705Y-23463D02*
X86705Y-23183D01*
X86688Y-23223D01*
X86670Y-23250D01*
X86653Y-23263D01*
X86867Y-23183D02*
X86884Y-23183D01*
X86901Y-23197D01*
X86910Y-23210D01*
X86919Y-23237D01*
X86927Y-23290D01*
X86927Y-23357D01*
X86919Y-23410D01*
X86910Y-23437D01*
X86901Y-23450D01*
X86884Y-23463D01*
X86867Y-23463D01*
X86850Y-23450D01*
X86841Y-23437D01*
X86833Y-23410D01*
X86824Y-23357D01*
X86824Y-23290D01*
X86833Y-23237D01*
X86841Y-23210D01*
X86850Y-23197D01*
X86867Y-23183D01*
X98985Y-35163D02*
X98925Y-35030D01*
X98882Y-35163D02*
X98882Y-34883D01*
X98950Y-34883D01*
X98968Y-34897D01*
X98976Y-34910D01*
X98985Y-34937D01*
X98985Y-34977D01*
X98976Y-35003D01*
X98968Y-35017D01*
X98950Y-35030D01*
X98882Y-35030D01*
X99156Y-35163D02*
X99053Y-35163D01*
X99105Y-35163D02*
X99105Y-34883D01*
X99088Y-34923D01*
X99070Y-34950D01*
X99053Y-34963D01*
X99327Y-35163D02*
X99224Y-35163D01*
X99276Y-35163D02*
X99276Y-34883D01*
X99259Y-34923D01*
X99241Y-34950D01*
X99224Y-34963D01*
X98985Y-34163D02*
X98925Y-34030D01*
X98882Y-34163D02*
X98882Y-33883D01*
X98950Y-33883D01*
X98968Y-33897D01*
X98976Y-33910D01*
X98985Y-33937D01*
X98985Y-33977D01*
X98976Y-34003D01*
X98968Y-34017D01*
X98950Y-34030D01*
X98882Y-34030D01*
X99156Y-34163D02*
X99053Y-34163D01*
X99105Y-34163D02*
X99105Y-33883D01*
X99088Y-33923D01*
X99070Y-33950D01*
X99053Y-33963D01*
X99224Y-33910D02*
X99233Y-33897D01*
X99250Y-33883D01*
X99293Y-33883D01*
X99310Y-33897D01*
X99319Y-33910D01*
X99327Y-33937D01*
X99327Y-33963D01*
X99319Y-34003D01*
X99216Y-34163D01*
X99327Y-34163D01*
X98985Y-33163D02*
X98925Y-33030D01*
X98882Y-33163D02*
X98882Y-32883D01*
X98950Y-32883D01*
X98968Y-32897D01*
X98976Y-32910D01*
X98985Y-32937D01*
X98985Y-32977D01*
X98976Y-33003D01*
X98968Y-33017D01*
X98950Y-33030D01*
X98882Y-33030D01*
X99156Y-33163D02*
X99053Y-33163D01*
X99105Y-33163D02*
X99105Y-32883D01*
X99088Y-32923D01*
X99070Y-32950D01*
X99053Y-32963D01*
X99216Y-32883D02*
X99327Y-32883D01*
X99267Y-32990D01*
X99293Y-32990D01*
X99310Y-33003D01*
X99319Y-33017D01*
X99327Y-33043D01*
X99327Y-33110D01*
X99319Y-33137D01*
X99310Y-33150D01*
X99293Y-33163D01*
X99241Y-33163D01*
X99224Y-33150D01*
X99216Y-33137D01*
X98985Y-32163D02*
X98925Y-32030D01*
X98882Y-32163D02*
X98882Y-31883D01*
X98950Y-31883D01*
X98968Y-31897D01*
X98976Y-31910D01*
X98985Y-31937D01*
X98985Y-31977D01*
X98976Y-32003D01*
X98968Y-32017D01*
X98950Y-32030D01*
X98882Y-32030D01*
X99156Y-32163D02*
X99053Y-32163D01*
X99105Y-32163D02*
X99105Y-31883D01*
X99088Y-31923D01*
X99070Y-31950D01*
X99053Y-31963D01*
X99310Y-31977D02*
X99310Y-32163D01*
X99267Y-31870D02*
X99224Y-32070D01*
X99336Y-32070D01*
X98985Y-36163D02*
X98925Y-36030D01*
X98882Y-36163D02*
X98882Y-35883D01*
X98950Y-35883D01*
X98968Y-35897D01*
X98976Y-35910D01*
X98985Y-35937D01*
X98985Y-35977D01*
X98976Y-36003D01*
X98968Y-36017D01*
X98950Y-36030D01*
X98882Y-36030D01*
X99156Y-36163D02*
X99053Y-36163D01*
X99105Y-36163D02*
X99105Y-35883D01*
X99088Y-35923D01*
X99070Y-35950D01*
X99053Y-35963D01*
X99319Y-35883D02*
X99233Y-35883D01*
X99224Y-36017D01*
X99233Y-36003D01*
X99250Y-35990D01*
X99293Y-35990D01*
X99310Y-36003D01*
X99319Y-36017D01*
X99327Y-36043D01*
X99327Y-36110D01*
X99319Y-36137D01*
X99310Y-36150D01*
X99293Y-36163D01*
X99250Y-36163D01*
X99233Y-36150D01*
X99224Y-36137D01*
X98985Y-37163D02*
X98925Y-37030D01*
X98882Y-37163D02*
X98882Y-36883D01*
X98950Y-36883D01*
X98968Y-36897D01*
X98976Y-36910D01*
X98985Y-36937D01*
X98985Y-36977D01*
X98976Y-37003D01*
X98968Y-37017D01*
X98950Y-37030D01*
X98882Y-37030D01*
X99156Y-37163D02*
X99053Y-37163D01*
X99105Y-37163D02*
X99105Y-36883D01*
X99088Y-36923D01*
X99070Y-36950D01*
X99053Y-36963D01*
X99310Y-36883D02*
X99276Y-36883D01*
X99259Y-36897D01*
X99250Y-36910D01*
X99233Y-36950D01*
X99224Y-37003D01*
X99224Y-37110D01*
X99233Y-37137D01*
X99241Y-37150D01*
X99259Y-37163D01*
X99293Y-37163D01*
X99310Y-37150D01*
X99319Y-37137D01*
X99327Y-37110D01*
X99327Y-37043D01*
X99319Y-37017D01*
X99310Y-37003D01*
X99293Y-36990D01*
X99259Y-36990D01*
X99241Y-37003D01*
X99233Y-37017D01*
X99224Y-37043D01*
X98985Y-38163D02*
X98925Y-38030D01*
X98882Y-38163D02*
X98882Y-37883D01*
X98950Y-37883D01*
X98968Y-37897D01*
X98976Y-37910D01*
X98985Y-37937D01*
X98985Y-37977D01*
X98976Y-38003D01*
X98968Y-38017D01*
X98950Y-38030D01*
X98882Y-38030D01*
X99156Y-38163D02*
X99053Y-38163D01*
X99105Y-38163D02*
X99105Y-37883D01*
X99088Y-37923D01*
X99070Y-37950D01*
X99053Y-37963D01*
X99216Y-37883D02*
X99336Y-37883D01*
X99259Y-38163D01*
X98985Y-39263D02*
X98925Y-39130D01*
X98882Y-39263D02*
X98882Y-38983D01*
X98950Y-38983D01*
X98968Y-38997D01*
X98976Y-39010D01*
X98985Y-39037D01*
X98985Y-39077D01*
X98976Y-39103D01*
X98968Y-39117D01*
X98950Y-39130D01*
X98882Y-39130D01*
X99156Y-39263D02*
X99053Y-39263D01*
X99105Y-39263D02*
X99105Y-38983D01*
X99088Y-39023D01*
X99070Y-39050D01*
X99053Y-39063D01*
X99259Y-39103D02*
X99241Y-39090D01*
X99233Y-39077D01*
X99224Y-39050D01*
X99224Y-39037D01*
X99233Y-39010D01*
X99241Y-38997D01*
X99259Y-38983D01*
X99293Y-38983D01*
X99310Y-38997D01*
X99319Y-39010D01*
X99327Y-39037D01*
X99327Y-39050D01*
X99319Y-39077D01*
X99310Y-39090D01*
X99293Y-39103D01*
X99259Y-39103D01*
X99241Y-39117D01*
X99233Y-39130D01*
X99224Y-39157D01*
X99224Y-39210D01*
X99233Y-39237D01*
X99241Y-39250D01*
X99259Y-39263D01*
X99293Y-39263D01*
X99310Y-39250D01*
X99319Y-39237D01*
X99327Y-39210D01*
X99327Y-39157D01*
X99319Y-39130D01*
X99310Y-39117D01*
X99293Y-39103D01*
X98263Y-51915D02*
X98130Y-51975D01*
X98263Y-52018D02*
X97983Y-52018D01*
X97983Y-51950D01*
X97997Y-51932D01*
X98010Y-51924D01*
X98037Y-51915D01*
X98077Y-51915D01*
X98103Y-51924D01*
X98117Y-51932D01*
X98130Y-51950D01*
X98130Y-52018D01*
X98263Y-51744D02*
X98263Y-51847D01*
X98263Y-51795D02*
X97983Y-51795D01*
X98023Y-51812D01*
X98050Y-51830D01*
X98063Y-51847D01*
X98263Y-51659D02*
X98263Y-51624D01*
X98250Y-51607D01*
X98237Y-51599D01*
X98197Y-51581D01*
X98143Y-51573D01*
X98037Y-51573D01*
X98010Y-51581D01*
X97997Y-51590D01*
X97983Y-51607D01*
X97983Y-51641D01*
X97997Y-51659D01*
X98010Y-51667D01*
X98037Y-51676D01*
X98103Y-51676D01*
X98130Y-51667D01*
X98143Y-51659D01*
X98157Y-51641D01*
X98157Y-51607D01*
X98143Y-51590D01*
X98130Y-51581D01*
X98103Y-51573D01*
X100188Y-42040D02*
X100055Y-42100D01*
X100188Y-42143D02*
X99908Y-42143D01*
X99908Y-42075D01*
X99922Y-42057D01*
X99935Y-42049D01*
X99962Y-42040D01*
X100002Y-42040D01*
X100028Y-42049D01*
X100042Y-42057D01*
X100055Y-42075D01*
X100055Y-42143D01*
X99935Y-41972D02*
X99922Y-41963D01*
X99908Y-41946D01*
X99908Y-41903D01*
X99922Y-41886D01*
X99935Y-41877D01*
X99962Y-41869D01*
X99988Y-41869D01*
X100028Y-41877D01*
X100188Y-41980D01*
X100188Y-41869D01*
X99908Y-41758D02*
X99908Y-41741D01*
X99922Y-41724D01*
X99935Y-41715D01*
X99962Y-41706D01*
X100015Y-41698D01*
X100082Y-41698D01*
X100135Y-41706D01*
X100162Y-41715D01*
X100175Y-41724D01*
X100188Y-41741D01*
X100188Y-41758D01*
X100175Y-41775D01*
X100162Y-41784D01*
X100135Y-41792D01*
X100082Y-41801D01*
X100015Y-41801D01*
X99962Y-41792D01*
X99935Y-41784D01*
X99922Y-41775D01*
X99908Y-41758D01*
X98263Y-53115D02*
X98130Y-53175D01*
X98263Y-53218D02*
X97983Y-53218D01*
X97983Y-53150D01*
X97997Y-53132D01*
X98010Y-53124D01*
X98037Y-53115D01*
X98077Y-53115D01*
X98103Y-53124D01*
X98117Y-53132D01*
X98130Y-53150D01*
X98130Y-53218D01*
X98010Y-53047D02*
X97997Y-53038D01*
X97983Y-53021D01*
X97983Y-52978D01*
X97997Y-52961D01*
X98010Y-52952D01*
X98037Y-52944D01*
X98063Y-52944D01*
X98103Y-52952D01*
X98263Y-53055D01*
X98263Y-52944D01*
X98263Y-52773D02*
X98263Y-52876D01*
X98263Y-52824D02*
X97983Y-52824D01*
X98023Y-52841D01*
X98050Y-52859D01*
X98063Y-52876D01*
X91513Y-27465D02*
X91380Y-27525D01*
X91513Y-27568D02*
X91233Y-27568D01*
X91233Y-27500D01*
X91247Y-27482D01*
X91260Y-27474D01*
X91287Y-27465D01*
X91327Y-27465D01*
X91353Y-27474D01*
X91367Y-27482D01*
X91380Y-27500D01*
X91380Y-27568D01*
X91260Y-27397D02*
X91247Y-27388D01*
X91233Y-27371D01*
X91233Y-27328D01*
X91247Y-27311D01*
X91260Y-27302D01*
X91287Y-27294D01*
X91313Y-27294D01*
X91353Y-27302D01*
X91513Y-27405D01*
X91513Y-27294D01*
X91260Y-27226D02*
X91247Y-27217D01*
X91233Y-27200D01*
X91233Y-27157D01*
X91247Y-27140D01*
X91260Y-27131D01*
X91287Y-27123D01*
X91313Y-27123D01*
X91353Y-27131D01*
X91513Y-27234D01*
X91513Y-27123D01*
X90313Y-27465D02*
X90180Y-27525D01*
X90313Y-27568D02*
X90033Y-27568D01*
X90033Y-27500D01*
X90047Y-27482D01*
X90060Y-27474D01*
X90087Y-27465D01*
X90127Y-27465D01*
X90153Y-27474D01*
X90167Y-27482D01*
X90180Y-27500D01*
X90180Y-27568D01*
X90060Y-27397D02*
X90047Y-27388D01*
X90033Y-27371D01*
X90033Y-27328D01*
X90047Y-27311D01*
X90060Y-27302D01*
X90087Y-27294D01*
X90113Y-27294D01*
X90153Y-27302D01*
X90313Y-27405D01*
X90313Y-27294D01*
X90033Y-27234D02*
X90033Y-27123D01*
X90140Y-27183D01*
X90140Y-27157D01*
X90153Y-27140D01*
X90167Y-27131D01*
X90193Y-27123D01*
X90260Y-27123D01*
X90287Y-27131D01*
X90300Y-27140D01*
X90313Y-27157D01*
X90313Y-27209D01*
X90300Y-27226D01*
X90287Y-27234D01*
G54D16*
X47810Y-57738D02*
X47105Y-57738D01*
X47810Y-57496D02*
X47407Y-57677D01*
X47105Y-57496D02*
X47508Y-57738D01*
X47810Y-57294D02*
X47810Y-57213D01*
X47776Y-57173D01*
X47743Y-57153D01*
X47642Y-57112D01*
X47508Y-57092D01*
X47239Y-57092D01*
X47172Y-57112D01*
X47138Y-57132D01*
X47105Y-57173D01*
X47105Y-57253D01*
X47138Y-57294D01*
X47172Y-57314D01*
X47239Y-57334D01*
X47407Y-57334D01*
X47474Y-57314D01*
X47508Y-57294D01*
X47541Y-57253D01*
X47541Y-57173D01*
X47508Y-57132D01*
X47474Y-57112D01*
X47407Y-57092D01*
X49310Y-57738D02*
X48605Y-57738D01*
X49310Y-57496D02*
X48907Y-57677D01*
X48605Y-57496D02*
X49008Y-57738D01*
X48907Y-57253D02*
X48873Y-57294D01*
X48840Y-57314D01*
X48773Y-57334D01*
X48739Y-57334D01*
X48672Y-57314D01*
X48638Y-57294D01*
X48605Y-57253D01*
X48605Y-57173D01*
X48638Y-57132D01*
X48672Y-57112D01*
X48739Y-57092D01*
X48773Y-57092D01*
X48840Y-57112D01*
X48873Y-57132D01*
X48907Y-57173D01*
X48907Y-57253D01*
X48941Y-57294D01*
X48974Y-57314D01*
X49041Y-57334D01*
X49176Y-57334D01*
X49243Y-57314D01*
X49276Y-57294D01*
X49310Y-57253D01*
X49310Y-57173D01*
X49276Y-57132D01*
X49243Y-57112D01*
X49176Y-57092D01*
X49041Y-57092D01*
X48974Y-57112D01*
X48941Y-57132D01*
X48907Y-57173D01*
X50810Y-57738D02*
X50105Y-57738D01*
X50810Y-57496D02*
X50407Y-57677D01*
X50105Y-57496D02*
X50508Y-57738D01*
X50105Y-57354D02*
X50105Y-57072D01*
X50810Y-57253D01*
X52310Y-57738D02*
X51605Y-57738D01*
X52310Y-57496D02*
X51907Y-57677D01*
X51605Y-57496D02*
X52008Y-57738D01*
X51605Y-57132D02*
X51605Y-57213D01*
X51638Y-57253D01*
X51672Y-57274D01*
X51773Y-57314D01*
X51907Y-57334D01*
X52176Y-57334D01*
X52243Y-57314D01*
X52276Y-57294D01*
X52310Y-57253D01*
X52310Y-57173D01*
X52276Y-57132D01*
X52243Y-57112D01*
X52176Y-57092D01*
X52008Y-57092D01*
X51941Y-57112D01*
X51907Y-57132D01*
X51873Y-57173D01*
X51873Y-57253D01*
X51907Y-57294D01*
X51941Y-57314D01*
X52008Y-57334D01*
X53810Y-57738D02*
X53105Y-57738D01*
X53810Y-57496D02*
X53407Y-57677D01*
X53105Y-57496D02*
X53508Y-57738D01*
X53105Y-57112D02*
X53105Y-57314D01*
X53441Y-57334D01*
X53407Y-57314D01*
X53373Y-57274D01*
X53373Y-57173D01*
X53407Y-57132D01*
X53441Y-57112D01*
X53508Y-57092D01*
X53676Y-57092D01*
X53743Y-57112D01*
X53776Y-57132D01*
X53810Y-57173D01*
X53810Y-57274D01*
X53776Y-57314D01*
X53743Y-57334D01*
X55310Y-57738D02*
X54605Y-57738D01*
X55310Y-57496D02*
X54907Y-57677D01*
X54605Y-57496D02*
X55008Y-57738D01*
X54840Y-57132D02*
X55310Y-57132D01*
X54571Y-57233D02*
X55075Y-57334D01*
X55075Y-57072D01*
G54D12*
X43968Y-47375D02*
X44396Y-47375D01*
X44482Y-47403D01*
X44539Y-47460D01*
X44568Y-47546D01*
X44568Y-47603D01*
X44568Y-46775D02*
X44568Y-47118D01*
X44568Y-46946D02*
X43968Y-46946D01*
X44054Y-47003D01*
X44111Y-47061D01*
X44139Y-47118D01*
X45568Y-47788D02*
X45282Y-47988D01*
X45568Y-48131D02*
X44968Y-48131D01*
X44968Y-47903D01*
X44996Y-47845D01*
X45025Y-47817D01*
X45082Y-47788D01*
X45168Y-47788D01*
X45225Y-47817D01*
X45254Y-47845D01*
X45282Y-47903D01*
X45282Y-48131D01*
X44968Y-47360D02*
X45396Y-47360D01*
X45482Y-47388D01*
X45539Y-47445D01*
X45568Y-47531D01*
X45568Y-47588D01*
X45568Y-46760D02*
X45568Y-47103D01*
X45568Y-46931D02*
X44968Y-46931D01*
X45054Y-46988D01*
X45111Y-47046D01*
X45139Y-47103D01*
X45025Y-46532D02*
X44996Y-46503D01*
X44968Y-46446D01*
X44968Y-46303D01*
X44996Y-46246D01*
X45025Y-46217D01*
X45082Y-46189D01*
X45139Y-46189D01*
X45225Y-46217D01*
X45568Y-46560D01*
X45568Y-46189D01*
X57458Y-52191D02*
X56758Y-52191D01*
X56758Y-51925D01*
X56792Y-51858D01*
X56825Y-51825D01*
X56892Y-51791D01*
X56992Y-51791D01*
X57058Y-51825D01*
X57092Y-51858D01*
X57125Y-51925D01*
X57125Y-52191D01*
X56758Y-51558D02*
X56758Y-51091D01*
X57458Y-51391D01*
X62258Y-46758D02*
X61558Y-46758D01*
X61892Y-46758D02*
X61892Y-46358D01*
X62258Y-46358D02*
X61558Y-46358D01*
X61892Y-46025D02*
X61892Y-45792D01*
X62258Y-45692D02*
X62258Y-46025D01*
X61558Y-46025D01*
X61558Y-45692D01*
X62258Y-45026D02*
X62258Y-45426D01*
X62258Y-45226D02*
X61558Y-45226D01*
X61658Y-45292D01*
X61725Y-45359D01*
X61758Y-45426D01*
X61558Y-44592D02*
X61558Y-44525D01*
X61592Y-44459D01*
X61625Y-44425D01*
X61692Y-44392D01*
X61825Y-44359D01*
X61992Y-44359D01*
X62125Y-44392D01*
X62192Y-44425D01*
X62225Y-44459D01*
X62258Y-44525D01*
X62258Y-44592D01*
X62225Y-44659D01*
X62192Y-44692D01*
X62125Y-44725D01*
X61992Y-44759D01*
X61825Y-44759D01*
X61692Y-44725D01*
X61625Y-44692D01*
X61592Y-44659D01*
X61558Y-44592D01*
X61992Y-44058D02*
X61992Y-43525D01*
X62258Y-42825D02*
X62258Y-43225D01*
X62258Y-43025D02*
X61558Y-43025D01*
X61658Y-43091D01*
X61725Y-43158D01*
X61758Y-43225D01*
X61558Y-42224D02*
X61558Y-42358D01*
X61592Y-42424D01*
X61625Y-42458D01*
X61725Y-42524D01*
X61858Y-42558D01*
X62125Y-42558D01*
X62192Y-42524D01*
X62225Y-42491D01*
X62258Y-42424D01*
X62258Y-42291D01*
X62225Y-42224D01*
X62192Y-42191D01*
X62125Y-42158D01*
X61958Y-42158D01*
X61892Y-42191D01*
X61858Y-42224D01*
X61825Y-42291D01*
X61825Y-42424D01*
X61858Y-42491D01*
X61892Y-42524D01*
X61958Y-42558D01*
X45418Y-58367D02*
X44818Y-58367D01*
X44818Y-58139D01*
X44846Y-58081D01*
X44875Y-58053D01*
X44932Y-58024D01*
X45018Y-58024D01*
X45075Y-58053D01*
X45104Y-58081D01*
X45132Y-58139D01*
X45132Y-58367D01*
X45075Y-57681D02*
X45046Y-57739D01*
X45018Y-57767D01*
X44961Y-57796D01*
X44932Y-57796D01*
X44875Y-57767D01*
X44846Y-57739D01*
X44818Y-57681D01*
X44818Y-57567D01*
X44846Y-57510D01*
X44875Y-57481D01*
X44932Y-57453D01*
X44961Y-57453D01*
X45018Y-57481D01*
X45046Y-57510D01*
X45075Y-57567D01*
X45075Y-57681D01*
X45104Y-57739D01*
X45132Y-57767D01*
X45189Y-57796D01*
X45304Y-57796D01*
X45361Y-57767D01*
X45389Y-57739D01*
X45418Y-57681D01*
X45418Y-57567D01*
X45389Y-57510D01*
X45361Y-57481D01*
X45304Y-57453D01*
X45189Y-57453D01*
X45132Y-57481D01*
X45104Y-57510D01*
X45075Y-57567D01*
X47361Y-59467D02*
X47389Y-59496D01*
X47418Y-59582D01*
X47418Y-59639D01*
X47389Y-59724D01*
X47332Y-59782D01*
X47275Y-59810D01*
X47161Y-59839D01*
X47075Y-59839D01*
X46961Y-59810D01*
X46904Y-59782D01*
X46846Y-59724D01*
X46818Y-59639D01*
X46818Y-59582D01*
X46846Y-59496D01*
X46875Y-59467D01*
X47246Y-59239D02*
X47246Y-58953D01*
X47418Y-59296D02*
X46818Y-59096D01*
X47418Y-58896D01*
X46818Y-58782D02*
X47418Y-58582D01*
X46818Y-58382D01*
X47246Y-58211D02*
X47246Y-57925D01*
X47418Y-58268D02*
X46818Y-58068D01*
X47418Y-57868D01*
X47418Y-57382D02*
X47418Y-57668D01*
X46818Y-57668D01*
X47418Y-57182D02*
X46818Y-57182D01*
X47104Y-56896D02*
X47104Y-56696D01*
X47418Y-56610D02*
X47418Y-56896D01*
X46818Y-56896D01*
X46818Y-56610D01*
X47418Y-56010D02*
X47132Y-56210D01*
X47418Y-56353D02*
X46818Y-56353D01*
X46818Y-56125D01*
X46846Y-56067D01*
X46875Y-56039D01*
X46932Y-56010D01*
X47018Y-56010D01*
X47075Y-56039D01*
X47104Y-56067D01*
X47132Y-56125D01*
X47132Y-56353D01*
X52518Y-25767D02*
X51918Y-25767D01*
X51918Y-25539D01*
X51946Y-25481D01*
X51975Y-25453D01*
X52032Y-25424D01*
X52118Y-25424D01*
X52175Y-25453D01*
X52204Y-25481D01*
X52232Y-25539D01*
X52232Y-25767D01*
X51918Y-24910D02*
X51918Y-25024D01*
X51946Y-25081D01*
X51975Y-25110D01*
X52061Y-25167D01*
X52175Y-25196D01*
X52404Y-25196D01*
X52461Y-25167D01*
X52489Y-25139D01*
X52518Y-25081D01*
X52518Y-24967D01*
X52489Y-24910D01*
X52461Y-24881D01*
X52404Y-24853D01*
X52261Y-24853D01*
X52204Y-24881D01*
X52175Y-24910D01*
X52146Y-24967D01*
X52146Y-25081D01*
X52175Y-25139D01*
X52204Y-25167D01*
X52261Y-25196D01*
X51268Y-25767D02*
X50668Y-25767D01*
X50668Y-25539D01*
X50696Y-25481D01*
X50725Y-25453D01*
X50782Y-25424D01*
X50868Y-25424D01*
X50925Y-25453D01*
X50954Y-25481D01*
X50982Y-25539D01*
X50982Y-25767D01*
X50868Y-24910D02*
X51268Y-24910D01*
X50639Y-25053D02*
X51068Y-25196D01*
X51068Y-24824D01*
G54D14*
X54170Y-29652D02*
X54504Y-30152D01*
X54504Y-29652D02*
X54170Y-30152D01*
X54956Y-30152D02*
X54670Y-30152D01*
X54813Y-30152D02*
X54813Y-29652D01*
X54765Y-29724D01*
X54718Y-29771D01*
X54670Y-29795D01*
X53437Y-30352D02*
X53771Y-30352D01*
X53556Y-30852D01*
X53961Y-30805D02*
X53985Y-30829D01*
X53961Y-30852D01*
X53937Y-30829D01*
X53961Y-30805D01*
X53961Y-30852D01*
X54151Y-30352D02*
X54461Y-30352D01*
X54294Y-30543D01*
X54366Y-30543D01*
X54413Y-30567D01*
X54437Y-30590D01*
X54461Y-30638D01*
X54461Y-30757D01*
X54437Y-30805D01*
X54413Y-30829D01*
X54366Y-30852D01*
X54223Y-30852D01*
X54175Y-30829D01*
X54151Y-30805D01*
X54627Y-30352D02*
X54961Y-30352D01*
X54746Y-30852D01*
X55127Y-30400D02*
X55151Y-30376D01*
X55199Y-30352D01*
X55318Y-30352D01*
X55365Y-30376D01*
X55389Y-30400D01*
X55413Y-30448D01*
X55413Y-30495D01*
X55389Y-30567D01*
X55103Y-30852D01*
X55413Y-30852D01*
X55698Y-30567D02*
X55651Y-30543D01*
X55627Y-30519D01*
X55603Y-30471D01*
X55603Y-30448D01*
X55627Y-30400D01*
X55651Y-30376D01*
X55698Y-30352D01*
X55794Y-30352D01*
X55841Y-30376D01*
X55865Y-30400D01*
X55889Y-30448D01*
X55889Y-30471D01*
X55865Y-30519D01*
X55841Y-30543D01*
X55794Y-30567D01*
X55698Y-30567D01*
X55651Y-30590D01*
X55627Y-30614D01*
X55603Y-30662D01*
X55603Y-30757D01*
X55627Y-30805D01*
X55651Y-30829D01*
X55698Y-30852D01*
X55794Y-30852D01*
X55841Y-30829D01*
X55865Y-30805D01*
X55889Y-30757D01*
X55889Y-30662D01*
X55865Y-30614D01*
X55841Y-30590D01*
X55794Y-30567D01*
G54D16*
X43260Y-53638D02*
X42555Y-53638D01*
X42555Y-53477D01*
X42588Y-53436D01*
X42622Y-53416D01*
X42689Y-53396D01*
X42790Y-53396D01*
X42857Y-53416D01*
X42891Y-53436D01*
X42924Y-53477D01*
X42924Y-53638D01*
X42622Y-53234D02*
X42588Y-53214D01*
X42555Y-53174D01*
X42555Y-53073D01*
X42588Y-53032D01*
X42622Y-53012D01*
X42689Y-52992D01*
X42756Y-52992D01*
X42857Y-53012D01*
X43260Y-53254D01*
X43260Y-52992D01*
G54D17*
X43209Y-56851D02*
X43209Y-56168D01*
X43453Y-56851D02*
X43270Y-56461D01*
X43453Y-56168D02*
X43209Y-56558D01*
X43596Y-56168D02*
X43861Y-56168D01*
X43718Y-56428D01*
X43780Y-56428D01*
X43820Y-56461D01*
X43841Y-56493D01*
X43861Y-56558D01*
X43861Y-56721D01*
X43841Y-56786D01*
X43820Y-56818D01*
X43780Y-56851D01*
X43657Y-56851D01*
X43617Y-56818D01*
X43596Y-56786D01*
X40176Y-42341D02*
X39493Y-42341D01*
X40176Y-42097D02*
X39786Y-42280D01*
X39493Y-42097D02*
X39883Y-42341D01*
X39558Y-41933D02*
X39525Y-41913D01*
X39493Y-41872D01*
X39493Y-41770D01*
X39525Y-41730D01*
X39558Y-41709D01*
X39623Y-41689D01*
X39688Y-41689D01*
X39786Y-41709D01*
X40176Y-41954D01*
X40176Y-41689D01*
X59951Y-35691D02*
X59268Y-35691D01*
X59268Y-35528D01*
X59300Y-35487D01*
X59333Y-35467D01*
X59398Y-35447D01*
X59496Y-35447D01*
X59561Y-35467D01*
X59593Y-35487D01*
X59626Y-35528D01*
X59626Y-35691D01*
X59268Y-35059D02*
X59268Y-35263D01*
X59593Y-35283D01*
X59561Y-35263D01*
X59528Y-35222D01*
X59528Y-35120D01*
X59561Y-35080D01*
X59593Y-35059D01*
X59658Y-35039D01*
X59821Y-35039D01*
X59886Y-35059D01*
X59918Y-35080D01*
X59951Y-35120D01*
X59951Y-35222D01*
X59918Y-35263D01*
X59886Y-35283D01*
X59951Y-40441D02*
X59268Y-40441D01*
X59268Y-40278D01*
X59300Y-40237D01*
X59333Y-40217D01*
X59398Y-40197D01*
X59496Y-40197D01*
X59561Y-40217D01*
X59593Y-40237D01*
X59626Y-40278D01*
X59626Y-40441D01*
X59268Y-40054D02*
X59268Y-39789D01*
X59528Y-39932D01*
X59528Y-39870D01*
X59561Y-39830D01*
X59593Y-39809D01*
X59658Y-39789D01*
X59821Y-39789D01*
X59886Y-39809D01*
X59918Y-39830D01*
X59951Y-39870D01*
X59951Y-39993D01*
X59918Y-40033D01*
X59886Y-40054D01*
G54D15*
X53537Y-27604D02*
X53550Y-27613D01*
X53563Y-27639D01*
X53563Y-27656D01*
X53550Y-27681D01*
X53523Y-27699D01*
X53497Y-27707D01*
X53443Y-27716D01*
X53403Y-27716D01*
X53350Y-27707D01*
X53323Y-27699D01*
X53297Y-27681D01*
X53283Y-27656D01*
X53283Y-27639D01*
X53297Y-27613D01*
X53310Y-27604D01*
X53310Y-27536D02*
X53297Y-27527D01*
X53283Y-27510D01*
X53283Y-27467D01*
X53297Y-27450D01*
X53310Y-27441D01*
X53337Y-27433D01*
X53363Y-27433D01*
X53403Y-27441D01*
X53563Y-27544D01*
X53563Y-27433D01*
X55612Y-27629D02*
X55625Y-27638D01*
X55638Y-27664D01*
X55638Y-27681D01*
X55625Y-27706D01*
X55598Y-27724D01*
X55572Y-27732D01*
X55518Y-27741D01*
X55478Y-27741D01*
X55425Y-27732D01*
X55398Y-27724D01*
X55372Y-27706D01*
X55358Y-27681D01*
X55358Y-27664D01*
X55372Y-27638D01*
X55385Y-27629D01*
X55638Y-27458D02*
X55638Y-27561D01*
X55638Y-27509D02*
X55358Y-27509D01*
X55398Y-27526D01*
X55425Y-27544D01*
X55438Y-27561D01*
G54D14*
X40304Y-54041D02*
X40327Y-53969D01*
X40327Y-53850D01*
X40304Y-53803D01*
X40280Y-53779D01*
X40232Y-53755D01*
X40185Y-53755D01*
X40137Y-53779D01*
X40113Y-53803D01*
X40089Y-53850D01*
X40065Y-53946D01*
X40042Y-53993D01*
X40018Y-54017D01*
X39970Y-54041D01*
X39923Y-54041D01*
X39875Y-54017D01*
X39851Y-53993D01*
X39827Y-53946D01*
X39827Y-53826D01*
X39851Y-53755D01*
X39827Y-53589D02*
X40327Y-53470D01*
X39970Y-53374D01*
X40327Y-53279D01*
X39827Y-53160D01*
X39875Y-52994D02*
X39851Y-52970D01*
X39827Y-52922D01*
X39827Y-52803D01*
X39851Y-52756D01*
X39875Y-52732D01*
X39923Y-52708D01*
X39970Y-52708D01*
X40042Y-52732D01*
X40327Y-53018D01*
X40327Y-52708D01*
X37504Y-58489D02*
X37527Y-58417D01*
X37527Y-58298D01*
X37504Y-58251D01*
X37480Y-58227D01*
X37432Y-58203D01*
X37385Y-58203D01*
X37337Y-58227D01*
X37313Y-58251D01*
X37289Y-58298D01*
X37265Y-58394D01*
X37242Y-58441D01*
X37218Y-58465D01*
X37170Y-58489D01*
X37123Y-58489D01*
X37075Y-58465D01*
X37051Y-58441D01*
X37027Y-58394D01*
X37027Y-58274D01*
X37051Y-58203D01*
X37027Y-58037D02*
X37527Y-57918D01*
X37170Y-57822D01*
X37527Y-57727D01*
X37027Y-57608D01*
X37575Y-57537D02*
X37575Y-57156D01*
X37527Y-57037D02*
X37027Y-57037D01*
X37027Y-56846D01*
X37051Y-56799D01*
X37075Y-56775D01*
X37123Y-56751D01*
X37194Y-56751D01*
X37242Y-56775D01*
X37265Y-56799D01*
X37289Y-56846D01*
X37289Y-57037D01*
X37027Y-56537D02*
X37432Y-56537D01*
X37480Y-56513D01*
X37504Y-56489D01*
X37527Y-56442D01*
X37527Y-56346D01*
X37504Y-56299D01*
X37480Y-56275D01*
X37432Y-56251D01*
X37027Y-56251D01*
X37504Y-56037D02*
X37527Y-55965D01*
X37527Y-55846D01*
X37504Y-55799D01*
X37480Y-55775D01*
X37432Y-55751D01*
X37385Y-55751D01*
X37337Y-55775D01*
X37313Y-55799D01*
X37289Y-55846D01*
X37265Y-55942D01*
X37242Y-55989D01*
X37218Y-56013D01*
X37170Y-56037D01*
X37123Y-56037D01*
X37075Y-56013D01*
X37051Y-55989D01*
X37027Y-55942D01*
X37027Y-55822D01*
X37051Y-55751D01*
X37527Y-55537D02*
X37027Y-55537D01*
X37265Y-55537D02*
X37265Y-55251D01*
X37527Y-55251D02*
X37027Y-55251D01*
X37575Y-55132D02*
X37575Y-54751D01*
X37504Y-54656D02*
X37527Y-54584D01*
X37527Y-54465D01*
X37504Y-54418D01*
X37480Y-54394D01*
X37432Y-54370D01*
X37385Y-54370D01*
X37337Y-54394D01*
X37313Y-54418D01*
X37289Y-54465D01*
X37265Y-54561D01*
X37242Y-54608D01*
X37218Y-54632D01*
X37170Y-54656D01*
X37123Y-54656D01*
X37075Y-54632D01*
X37051Y-54608D01*
X37027Y-54561D01*
X37027Y-54441D01*
X37051Y-54370D01*
X37527Y-54156D02*
X37027Y-54156D01*
X37385Y-53989D01*
X37027Y-53823D01*
X37527Y-53823D01*
X37385Y-53609D02*
X37385Y-53371D01*
X37527Y-53656D02*
X37027Y-53490D01*
X37527Y-53323D01*
X37527Y-52918D02*
X37527Y-53156D01*
X37027Y-53156D01*
X37527Y-52513D02*
X37527Y-52751D01*
X37027Y-52751D01*
G54D18*
X40739Y-36525D02*
X40768Y-36461D01*
X40768Y-36354D01*
X40739Y-36311D01*
X40711Y-36290D01*
X40654Y-36268D01*
X40596Y-36268D01*
X40539Y-36290D01*
X40511Y-36311D01*
X40482Y-36354D01*
X40454Y-36440D01*
X40425Y-36482D01*
X40396Y-36504D01*
X40339Y-36525D01*
X40282Y-36525D01*
X40225Y-36504D01*
X40196Y-36482D01*
X40168Y-36440D01*
X40168Y-36332D01*
X40196Y-36268D01*
X40168Y-36118D02*
X40768Y-36011D01*
X40339Y-35925D01*
X40768Y-35839D01*
X40168Y-35732D01*
X40168Y-35604D02*
X40168Y-35325D01*
X40396Y-35475D01*
X40396Y-35411D01*
X40425Y-35368D01*
X40454Y-35347D01*
X40511Y-35325D01*
X40654Y-35325D01*
X40711Y-35347D01*
X40739Y-35368D01*
X40768Y-35411D01*
X40768Y-35539D01*
X40739Y-35582D01*
X40711Y-35604D01*
X41289Y-37121D02*
X41318Y-37057D01*
X41318Y-36950D01*
X41289Y-36907D01*
X41261Y-36886D01*
X41204Y-36864D01*
X41146Y-36864D01*
X41089Y-36886D01*
X41061Y-36907D01*
X41032Y-36950D01*
X41004Y-37036D01*
X40975Y-37078D01*
X40946Y-37100D01*
X40889Y-37121D01*
X40832Y-37121D01*
X40775Y-37100D01*
X40746Y-37078D01*
X40718Y-37036D01*
X40718Y-36928D01*
X40746Y-36864D01*
X40718Y-36714D02*
X41318Y-36607D01*
X40889Y-36521D01*
X41318Y-36435D01*
X40718Y-36328D01*
X41318Y-36157D02*
X40718Y-36157D01*
X40718Y-36007D02*
X40718Y-35750D01*
X41318Y-35879D02*
X40718Y-35879D01*
X41261Y-35343D02*
X41289Y-35364D01*
X41318Y-35428D01*
X41318Y-35471D01*
X41289Y-35536D01*
X41232Y-35578D01*
X41175Y-35600D01*
X41061Y-35621D01*
X40975Y-35621D01*
X40861Y-35600D01*
X40804Y-35578D01*
X40746Y-35536D01*
X40718Y-35471D01*
X40718Y-35428D01*
X40746Y-35364D01*
X40775Y-35343D01*
X41318Y-35150D02*
X40718Y-35150D01*
X41004Y-35150D02*
X41004Y-34893D01*
X41318Y-34893D02*
X40718Y-34893D01*
X41375Y-34786D02*
X41375Y-34443D01*
X40718Y-34379D02*
X41318Y-34079D01*
X40718Y-34079D02*
X41318Y-34379D01*
X41375Y-34014D02*
X41375Y-33671D01*
X40975Y-33500D02*
X40946Y-33542D01*
X40918Y-33564D01*
X40861Y-33585D01*
X40832Y-33585D01*
X40775Y-33564D01*
X40746Y-33542D01*
X40718Y-33500D01*
X40718Y-33414D01*
X40746Y-33371D01*
X40775Y-33350D01*
X40832Y-33328D01*
X40861Y-33328D01*
X40918Y-33350D01*
X40946Y-33371D01*
X40975Y-33414D01*
X40975Y-33500D01*
X41004Y-33542D01*
X41032Y-33564D01*
X41089Y-33585D01*
X41204Y-33585D01*
X41261Y-33564D01*
X41289Y-33542D01*
X41318Y-33500D01*
X41318Y-33414D01*
X41289Y-33371D01*
X41261Y-33350D01*
X41204Y-33328D01*
X41089Y-33328D01*
X41032Y-33350D01*
X41004Y-33371D01*
X40975Y-33414D01*
X52858Y-42768D02*
X53425Y-42768D01*
X53492Y-42746D01*
X53525Y-42725D01*
X53558Y-42682D01*
X53558Y-42596D01*
X53525Y-42554D01*
X53492Y-42532D01*
X53425Y-42511D01*
X52858Y-42511D01*
X52858Y-42340D02*
X52858Y-42061D01*
X53125Y-42211D01*
X53125Y-42147D01*
X53158Y-42104D01*
X53192Y-42083D01*
X53258Y-42061D01*
X53425Y-42061D01*
X53492Y-42083D01*
X53525Y-42104D01*
X53558Y-42147D01*
X53558Y-42275D01*
X53525Y-42318D01*
X53492Y-42340D01*
G54D12*
X54758Y-46659D02*
X54058Y-46659D01*
X54058Y-46493D01*
X54092Y-46393D01*
X54158Y-46326D01*
X54225Y-46293D01*
X54358Y-46259D01*
X54458Y-46259D01*
X54592Y-46293D01*
X54658Y-46326D01*
X54725Y-46393D01*
X54758Y-46493D01*
X54758Y-46659D01*
X54725Y-45993D02*
X54758Y-45893D01*
X54758Y-45726D01*
X54725Y-45659D01*
X54692Y-45626D01*
X54625Y-45593D01*
X54558Y-45593D01*
X54492Y-45626D01*
X54458Y-45659D01*
X54425Y-45726D01*
X54392Y-45859D01*
X54358Y-45926D01*
X54325Y-45959D01*
X54258Y-45993D01*
X54192Y-45993D01*
X54125Y-45959D01*
X54092Y-45926D01*
X54058Y-45859D01*
X54058Y-45693D01*
X54092Y-45593D01*
X54758Y-45292D02*
X54058Y-45292D01*
X54058Y-45026D01*
X54092Y-44959D01*
X54125Y-44926D01*
X54192Y-44892D01*
X54292Y-44892D01*
X54358Y-44926D01*
X54392Y-44959D01*
X54425Y-45026D01*
X54425Y-45292D01*
X54758Y-44592D02*
X54058Y-44592D01*
X54692Y-43859D02*
X54725Y-43893D01*
X54758Y-43993D01*
X54758Y-44059D01*
X54725Y-44159D01*
X54658Y-44226D01*
X54592Y-44259D01*
X54458Y-44293D01*
X54358Y-44293D01*
X54225Y-44259D01*
X54158Y-44226D01*
X54092Y-44159D01*
X54058Y-44059D01*
X54058Y-43993D01*
X54092Y-43893D01*
X54125Y-43859D01*
X54058Y-43626D02*
X54058Y-43193D01*
X54325Y-43426D01*
X54325Y-43326D01*
X54358Y-43259D01*
X54392Y-43226D01*
X54458Y-43193D01*
X54625Y-43193D01*
X54692Y-43226D01*
X54725Y-43259D01*
X54758Y-43326D01*
X54758Y-43526D01*
X54725Y-43593D01*
X54692Y-43626D01*
X54058Y-42759D02*
X54058Y-42692D01*
X54092Y-42626D01*
X54125Y-42592D01*
X54192Y-42559D01*
X54325Y-42526D01*
X54492Y-42526D01*
X54625Y-42559D01*
X54692Y-42592D01*
X54725Y-42626D01*
X54758Y-42692D01*
X54758Y-42759D01*
X54725Y-42826D01*
X54692Y-42859D01*
X54625Y-42892D01*
X54492Y-42926D01*
X54325Y-42926D01*
X54192Y-42892D01*
X54125Y-42859D01*
X54092Y-42826D01*
X54058Y-42759D01*
X54392Y-41992D02*
X54392Y-42225D01*
X54758Y-42225D02*
X54058Y-42225D01*
X54058Y-41892D01*
X54292Y-41325D02*
X54758Y-41325D01*
X54025Y-41492D02*
X54525Y-41659D01*
X54525Y-41225D01*
X54058Y-40825D02*
X54058Y-40758D01*
X54092Y-40692D01*
X54125Y-40658D01*
X54192Y-40625D01*
X54325Y-40592D01*
X54492Y-40592D01*
X54625Y-40625D01*
X54692Y-40658D01*
X54725Y-40692D01*
X54758Y-40758D01*
X54758Y-40825D01*
X54725Y-40892D01*
X54692Y-40925D01*
X54625Y-40958D01*
X54492Y-40992D01*
X54325Y-40992D01*
X54192Y-40958D01*
X54125Y-40925D01*
X54092Y-40892D01*
X54058Y-40825D01*
X54758Y-39925D02*
X54758Y-40325D01*
X54758Y-40125D02*
X54058Y-40125D01*
X54158Y-40191D01*
X54225Y-40258D01*
X54258Y-40325D01*
X54058Y-39691D02*
X54058Y-39258D01*
X54325Y-39491D01*
X54325Y-39391D01*
X54358Y-39324D01*
X54392Y-39291D01*
X54458Y-39258D01*
X54625Y-39258D01*
X54692Y-39291D01*
X54725Y-39324D01*
X54758Y-39391D01*
X54758Y-39591D01*
X54725Y-39658D01*
X54692Y-39691D01*
G54D18*
X40739Y-27525D02*
X40768Y-27461D01*
X40768Y-27354D01*
X40739Y-27311D01*
X40711Y-27290D01*
X40654Y-27268D01*
X40596Y-27268D01*
X40539Y-27290D01*
X40511Y-27311D01*
X40482Y-27354D01*
X40454Y-27440D01*
X40425Y-27482D01*
X40396Y-27504D01*
X40339Y-27525D01*
X40282Y-27525D01*
X40225Y-27504D01*
X40196Y-27482D01*
X40168Y-27440D01*
X40168Y-27332D01*
X40196Y-27268D01*
X40168Y-27118D02*
X40768Y-27011D01*
X40339Y-26925D01*
X40768Y-26839D01*
X40168Y-26732D01*
X40768Y-26325D02*
X40768Y-26582D01*
X40768Y-26454D02*
X40168Y-26454D01*
X40254Y-26497D01*
X40311Y-26539D01*
X40339Y-26582D01*
X41289Y-27921D02*
X41318Y-27857D01*
X41318Y-27750D01*
X41289Y-27707D01*
X41261Y-27686D01*
X41204Y-27664D01*
X41146Y-27664D01*
X41089Y-27686D01*
X41061Y-27707D01*
X41032Y-27750D01*
X41004Y-27836D01*
X40975Y-27878D01*
X40946Y-27900D01*
X40889Y-27921D01*
X40832Y-27921D01*
X40775Y-27900D01*
X40746Y-27878D01*
X40718Y-27836D01*
X40718Y-27728D01*
X40746Y-27664D01*
X40718Y-27514D02*
X41318Y-27407D01*
X40889Y-27321D01*
X41318Y-27235D01*
X40718Y-27128D01*
X41318Y-26957D02*
X40718Y-26957D01*
X40718Y-26807D02*
X40718Y-26550D01*
X41318Y-26679D02*
X40718Y-26679D01*
X41261Y-26143D02*
X41289Y-26164D01*
X41318Y-26228D01*
X41318Y-26271D01*
X41289Y-26336D01*
X41232Y-26378D01*
X41175Y-26400D01*
X41061Y-26421D01*
X40975Y-26421D01*
X40861Y-26400D01*
X40804Y-26378D01*
X40746Y-26336D01*
X40718Y-26271D01*
X40718Y-26228D01*
X40746Y-26164D01*
X40775Y-26143D01*
X41318Y-25950D02*
X40718Y-25950D01*
X41004Y-25950D02*
X41004Y-25693D01*
X41318Y-25693D02*
X40718Y-25693D01*
X41375Y-25586D02*
X41375Y-25243D01*
X40718Y-25179D02*
X41318Y-24879D01*
X40718Y-24879D02*
X41318Y-25179D01*
X41375Y-24814D02*
X41375Y-24471D01*
X40975Y-24300D02*
X40946Y-24342D01*
X40918Y-24364D01*
X40861Y-24385D01*
X40832Y-24385D01*
X40775Y-24364D01*
X40746Y-24342D01*
X40718Y-24300D01*
X40718Y-24214D01*
X40746Y-24171D01*
X40775Y-24150D01*
X40832Y-24128D01*
X40861Y-24128D01*
X40918Y-24150D01*
X40946Y-24171D01*
X40975Y-24214D01*
X40975Y-24300D01*
X41004Y-24342D01*
X41032Y-24364D01*
X41089Y-24385D01*
X41204Y-24385D01*
X41261Y-24364D01*
X41289Y-24342D01*
X41318Y-24300D01*
X41318Y-24214D01*
X41289Y-24171D01*
X41261Y-24150D01*
X41204Y-24128D01*
X41089Y-24128D01*
X41032Y-24150D01*
X41004Y-24171D01*
X40975Y-24214D01*
X46918Y-36018D02*
X47404Y-36018D01*
X47461Y-35996D01*
X47489Y-35975D01*
X47518Y-35932D01*
X47518Y-35846D01*
X47489Y-35804D01*
X47461Y-35782D01*
X47404Y-35761D01*
X46918Y-35761D01*
X46975Y-35568D02*
X46946Y-35547D01*
X46918Y-35504D01*
X46918Y-35397D01*
X46946Y-35354D01*
X46975Y-35333D01*
X47032Y-35311D01*
X47089Y-35311D01*
X47175Y-35333D01*
X47518Y-35590D01*
X47518Y-35311D01*
X48018Y-36790D02*
X47418Y-36790D01*
X47418Y-36618D01*
X47446Y-36576D01*
X47475Y-36554D01*
X47532Y-36533D01*
X47618Y-36533D01*
X47675Y-36554D01*
X47704Y-36576D01*
X47732Y-36618D01*
X47732Y-36790D01*
X47961Y-36083D02*
X47989Y-36104D01*
X48018Y-36168D01*
X48018Y-36211D01*
X47989Y-36276D01*
X47932Y-36318D01*
X47875Y-36340D01*
X47761Y-36361D01*
X47675Y-36361D01*
X47561Y-36340D01*
X47504Y-36318D01*
X47446Y-36276D01*
X47418Y-36211D01*
X47418Y-36168D01*
X47446Y-36104D01*
X47475Y-36083D01*
X47704Y-35740D02*
X47704Y-35890D01*
X48018Y-35890D02*
X47418Y-35890D01*
X47418Y-35676D01*
X47675Y-35440D02*
X47646Y-35482D01*
X47618Y-35504D01*
X47561Y-35525D01*
X47532Y-35525D01*
X47475Y-35504D01*
X47446Y-35482D01*
X47418Y-35440D01*
X47418Y-35354D01*
X47446Y-35311D01*
X47475Y-35290D01*
X47532Y-35268D01*
X47561Y-35268D01*
X47618Y-35290D01*
X47646Y-35311D01*
X47675Y-35354D01*
X47675Y-35440D01*
X47704Y-35482D01*
X47732Y-35504D01*
X47789Y-35525D01*
X47904Y-35525D01*
X47961Y-35504D01*
X47989Y-35482D01*
X48018Y-35440D01*
X48018Y-35354D01*
X47989Y-35311D01*
X47961Y-35290D01*
X47904Y-35268D01*
X47789Y-35268D01*
X47732Y-35290D01*
X47704Y-35311D01*
X47675Y-35354D01*
X47418Y-34861D02*
X47418Y-35075D01*
X47704Y-35096D01*
X47675Y-35075D01*
X47646Y-35032D01*
X47646Y-34925D01*
X47675Y-34882D01*
X47704Y-34861D01*
X47761Y-34839D01*
X47904Y-34839D01*
X47961Y-34861D01*
X47989Y-34882D01*
X48018Y-34925D01*
X48018Y-35032D01*
X47989Y-35075D01*
X47961Y-35096D01*
X47418Y-34689D02*
X47418Y-34389D01*
X48018Y-34582D01*
X47618Y-34024D02*
X48018Y-34024D01*
X47389Y-34131D02*
X47818Y-34238D01*
X47818Y-33960D01*
X47418Y-33852D02*
X47418Y-33595D01*
X48018Y-33724D02*
X47418Y-33724D01*
X46918Y-27018D02*
X47404Y-27018D01*
X47461Y-26996D01*
X47489Y-26975D01*
X47518Y-26932D01*
X47518Y-26846D01*
X47489Y-26804D01*
X47461Y-26782D01*
X47404Y-26761D01*
X46918Y-26761D01*
X47518Y-26311D02*
X47518Y-26568D01*
X47518Y-26440D02*
X46918Y-26440D01*
X47004Y-26483D01*
X47061Y-26525D01*
X47089Y-26568D01*
X48018Y-27590D02*
X47418Y-27590D01*
X47418Y-27418D01*
X47446Y-27376D01*
X47475Y-27354D01*
X47532Y-27333D01*
X47618Y-27333D01*
X47675Y-27354D01*
X47704Y-27376D01*
X47732Y-27418D01*
X47732Y-27590D01*
X47961Y-26883D02*
X47989Y-26904D01*
X48018Y-26968D01*
X48018Y-27011D01*
X47989Y-27076D01*
X47932Y-27118D01*
X47875Y-27140D01*
X47761Y-27161D01*
X47675Y-27161D01*
X47561Y-27140D01*
X47504Y-27118D01*
X47446Y-27076D01*
X47418Y-27011D01*
X47418Y-26968D01*
X47446Y-26904D01*
X47475Y-26883D01*
X47704Y-26540D02*
X47704Y-26690D01*
X48018Y-26690D02*
X47418Y-26690D01*
X47418Y-26476D01*
X47675Y-26240D02*
X47646Y-26282D01*
X47618Y-26304D01*
X47561Y-26325D01*
X47532Y-26325D01*
X47475Y-26304D01*
X47446Y-26282D01*
X47418Y-26240D01*
X47418Y-26154D01*
X47446Y-26111D01*
X47475Y-26090D01*
X47532Y-26068D01*
X47561Y-26068D01*
X47618Y-26090D01*
X47646Y-26111D01*
X47675Y-26154D01*
X47675Y-26240D01*
X47704Y-26282D01*
X47732Y-26304D01*
X47789Y-26325D01*
X47904Y-26325D01*
X47961Y-26304D01*
X47989Y-26282D01*
X48018Y-26240D01*
X48018Y-26154D01*
X47989Y-26111D01*
X47961Y-26090D01*
X47904Y-26068D01*
X47789Y-26068D01*
X47732Y-26090D01*
X47704Y-26111D01*
X47675Y-26154D01*
X47418Y-25661D02*
X47418Y-25875D01*
X47704Y-25896D01*
X47675Y-25875D01*
X47646Y-25832D01*
X47646Y-25725D01*
X47675Y-25682D01*
X47704Y-25661D01*
X47761Y-25639D01*
X47904Y-25639D01*
X47961Y-25661D01*
X47989Y-25682D01*
X48018Y-25725D01*
X48018Y-25832D01*
X47989Y-25875D01*
X47961Y-25896D01*
X47418Y-25489D02*
X47418Y-25189D01*
X48018Y-25382D01*
X47618Y-24824D02*
X48018Y-24824D01*
X47389Y-24931D02*
X47818Y-25038D01*
X47818Y-24760D01*
X47418Y-24652D02*
X47418Y-24395D01*
X48018Y-24524D02*
X47418Y-24524D01*
G54D14*
X58604Y-57474D02*
X58437Y-57212D01*
X58318Y-57474D02*
X58318Y-56924D01*
X58509Y-56924D01*
X58556Y-56950D01*
X58580Y-56976D01*
X58604Y-57028D01*
X58604Y-57107D01*
X58580Y-57159D01*
X58556Y-57186D01*
X58509Y-57212D01*
X58318Y-57212D01*
X58747Y-56924D02*
X58913Y-57474D01*
X59080Y-56924D01*
X59223Y-57316D02*
X59461Y-57316D01*
X59176Y-57474D02*
X59342Y-56924D01*
X59509Y-57474D01*
X59962Y-57474D02*
X59795Y-57212D01*
X59676Y-57474D02*
X59676Y-56924D01*
X59867Y-56924D01*
X59914Y-56950D01*
X59938Y-56976D01*
X59962Y-57028D01*
X59962Y-57107D01*
X59938Y-57159D01*
X59914Y-57186D01*
X59867Y-57212D01*
X59676Y-57212D01*
X60438Y-57474D02*
X60152Y-57474D01*
X60295Y-57474D02*
X60295Y-56924D01*
X60247Y-57002D01*
X60200Y-57055D01*
X60152Y-57081D01*
X58919Y-59324D02*
X58633Y-59324D01*
X58776Y-59324D02*
X58776Y-58774D01*
X58728Y-58852D01*
X58681Y-58905D01*
X58633Y-58931D01*
X59228Y-58774D02*
X59276Y-58774D01*
X59324Y-58800D01*
X59347Y-58826D01*
X59371Y-58878D01*
X59395Y-58983D01*
X59395Y-59114D01*
X59371Y-59219D01*
X59347Y-59271D01*
X59324Y-59297D01*
X59276Y-59324D01*
X59228Y-59324D01*
X59181Y-59297D01*
X59157Y-59271D01*
X59133Y-59219D01*
X59109Y-59114D01*
X59109Y-58983D01*
X59133Y-58878D01*
X59157Y-58826D01*
X59181Y-58800D01*
X59228Y-58774D01*
X59609Y-59324D02*
X59609Y-58774D01*
X59657Y-59114D02*
X59800Y-59324D01*
X59800Y-58957D02*
X59609Y-59166D01*
G54D19*
X59687Y-60765D02*
X59687Y-60994D01*
X59687Y-60880D02*
X59287Y-60880D01*
X59344Y-60918D01*
X59382Y-60956D01*
X59401Y-60994D01*
X59687Y-60594D02*
X59287Y-60594D01*
X59287Y-60441D01*
X59306Y-60403D01*
X59325Y-60384D01*
X59363Y-60365D01*
X59420Y-60365D01*
X59458Y-60384D01*
X59477Y-60403D01*
X59496Y-60441D01*
X59496Y-60594D01*
X59687Y-60194D02*
X59287Y-60194D01*
X59687Y-60004D02*
X59287Y-60004D01*
X59687Y-59775D01*
X59287Y-59775D01*
X59737Y-23665D02*
X59737Y-23894D01*
X59737Y-23780D02*
X59337Y-23780D01*
X59394Y-23818D01*
X59432Y-23856D01*
X59451Y-23894D01*
X59737Y-23494D02*
X59337Y-23494D01*
X59337Y-23341D01*
X59356Y-23303D01*
X59375Y-23284D01*
X59413Y-23265D01*
X59470Y-23265D01*
X59508Y-23284D01*
X59527Y-23303D01*
X59546Y-23341D01*
X59546Y-23494D01*
X59737Y-23094D02*
X59337Y-23094D01*
X59737Y-22904D02*
X59337Y-22904D01*
X59737Y-22675D01*
X59337Y-22675D01*
G54D12*
X60986Y-25814D02*
X61014Y-25843D01*
X61043Y-25929D01*
X61043Y-25986D01*
X61014Y-26071D01*
X60957Y-26129D01*
X60900Y-26157D01*
X60786Y-26186D01*
X60700Y-26186D01*
X60586Y-26157D01*
X60529Y-26129D01*
X60471Y-26071D01*
X60443Y-25986D01*
X60443Y-25929D01*
X60471Y-25843D01*
X60500Y-25814D01*
X60443Y-25443D02*
X60443Y-25329D01*
X60471Y-25271D01*
X60529Y-25214D01*
X60643Y-25186D01*
X60843Y-25186D01*
X60957Y-25214D01*
X61014Y-25271D01*
X61043Y-25329D01*
X61043Y-25443D01*
X61014Y-25500D01*
X60957Y-25557D01*
X60843Y-25586D01*
X60643Y-25586D01*
X60529Y-25557D01*
X60471Y-25500D01*
X60443Y-25443D01*
X61043Y-24642D02*
X61043Y-24928D01*
X60443Y-24928D01*
X60443Y-24328D02*
X60443Y-24214D01*
X60471Y-24156D01*
X60529Y-24099D01*
X60643Y-24071D01*
X60843Y-24071D01*
X60957Y-24099D01*
X61014Y-24156D01*
X61043Y-24214D01*
X61043Y-24328D01*
X61014Y-24385D01*
X60957Y-24442D01*
X60843Y-24471D01*
X60643Y-24471D01*
X60529Y-24442D01*
X60471Y-24385D01*
X60443Y-24328D01*
X61043Y-23813D02*
X60443Y-23813D01*
X61043Y-23470D01*
X60443Y-23470D01*
X60729Y-23184D02*
X60729Y-22984D01*
X61043Y-22898D02*
X61043Y-23184D01*
X60443Y-23184D01*
X60443Y-22898D01*
X60443Y-22727D02*
X60443Y-22384D01*
X61043Y-22555D02*
X60443Y-22555D01*
X60443Y-22270D02*
X60443Y-21927D01*
X61043Y-22098D02*
X60443Y-22098D01*
X60729Y-21727D02*
X60729Y-21527D01*
X61043Y-21441D02*
X61043Y-21727D01*
X60443Y-21727D01*
X60443Y-21441D01*
X61043Y-20699D02*
X61043Y-20584D01*
X61014Y-20527D01*
X60986Y-20499D01*
X60900Y-20441D01*
X60786Y-20413D01*
X60557Y-20413D01*
X60500Y-20441D01*
X60471Y-20470D01*
X60443Y-20527D01*
X60443Y-20641D01*
X60471Y-20699D01*
X60500Y-20727D01*
X60557Y-20756D01*
X60700Y-20756D01*
X60757Y-20727D01*
X60786Y-20699D01*
X60814Y-20641D01*
X60814Y-20527D01*
X60786Y-20470D01*
X60757Y-20441D01*
X60700Y-20413D01*
X57693Y-24457D02*
X58293Y-24257D01*
X57693Y-24057D01*
X58121Y-23886D02*
X58121Y-23600D01*
X58293Y-23943D02*
X57693Y-23743D01*
X58293Y-23543D01*
X58293Y-23057D02*
X58293Y-23343D01*
X57693Y-23343D01*
X57693Y-22771D02*
X57836Y-22771D01*
X57779Y-22914D02*
X57836Y-22771D01*
X57779Y-22629D01*
X57950Y-22857D02*
X57836Y-22771D01*
X57950Y-22686D01*
X57693Y-22314D02*
X57836Y-22314D01*
X57779Y-22457D02*
X57836Y-22314D01*
X57779Y-22172D01*
X57950Y-22400D02*
X57836Y-22314D01*
X57950Y-22229D01*
X60936Y-62914D02*
X60964Y-62943D01*
X60993Y-63029D01*
X60993Y-63086D01*
X60964Y-63171D01*
X60907Y-63229D01*
X60850Y-63257D01*
X60736Y-63286D01*
X60650Y-63286D01*
X60536Y-63257D01*
X60479Y-63229D01*
X60421Y-63171D01*
X60393Y-63086D01*
X60393Y-63029D01*
X60421Y-62943D01*
X60450Y-62914D01*
X60393Y-62543D02*
X60393Y-62429D01*
X60421Y-62371D01*
X60479Y-62314D01*
X60593Y-62286D01*
X60793Y-62286D01*
X60907Y-62314D01*
X60964Y-62371D01*
X60993Y-62429D01*
X60993Y-62543D01*
X60964Y-62600D01*
X60907Y-62657D01*
X60793Y-62686D01*
X60593Y-62686D01*
X60479Y-62657D01*
X60421Y-62600D01*
X60393Y-62543D01*
X60993Y-61742D02*
X60993Y-62028D01*
X60393Y-62028D01*
X60393Y-61428D02*
X60393Y-61314D01*
X60421Y-61256D01*
X60479Y-61199D01*
X60593Y-61171D01*
X60793Y-61171D01*
X60907Y-61199D01*
X60964Y-61256D01*
X60993Y-61314D01*
X60993Y-61428D01*
X60964Y-61485D01*
X60907Y-61542D01*
X60793Y-61571D01*
X60593Y-61571D01*
X60479Y-61542D01*
X60421Y-61485D01*
X60393Y-61428D01*
X60993Y-60913D02*
X60393Y-60913D01*
X60993Y-60570D01*
X60393Y-60570D01*
X60679Y-60284D02*
X60679Y-60084D01*
X60993Y-59998D02*
X60993Y-60284D01*
X60393Y-60284D01*
X60393Y-59998D01*
X60393Y-59827D02*
X60393Y-59484D01*
X60993Y-59655D02*
X60393Y-59655D01*
X60393Y-59370D02*
X60393Y-59027D01*
X60993Y-59198D02*
X60393Y-59198D01*
X60679Y-58827D02*
X60679Y-58627D01*
X60993Y-58541D02*
X60993Y-58827D01*
X60393Y-58827D01*
X60393Y-58541D01*
X60993Y-57799D02*
X60993Y-57684D01*
X60964Y-57627D01*
X60936Y-57599D01*
X60850Y-57541D01*
X60736Y-57513D01*
X60507Y-57513D01*
X60450Y-57541D01*
X60421Y-57570D01*
X60393Y-57627D01*
X60393Y-57741D01*
X60421Y-57799D01*
X60450Y-57827D01*
X60507Y-57856D01*
X60650Y-57856D01*
X60707Y-57827D01*
X60736Y-57799D01*
X60764Y-57741D01*
X60764Y-57627D01*
X60736Y-57570D01*
X60707Y-57541D01*
X60650Y-57513D01*
X57643Y-61557D02*
X58243Y-61357D01*
X57643Y-61157D01*
X58071Y-60986D02*
X58071Y-60700D01*
X58243Y-61043D02*
X57643Y-60843D01*
X58243Y-60643D01*
X58243Y-60157D02*
X58243Y-60443D01*
X57643Y-60443D01*
X57643Y-59871D02*
X57786Y-59871D01*
X57729Y-60014D02*
X57786Y-59871D01*
X57729Y-59729D01*
X57900Y-59957D02*
X57786Y-59871D01*
X57900Y-59786D01*
X57643Y-59414D02*
X57786Y-59414D01*
X57729Y-59557D02*
X57786Y-59414D01*
X57729Y-59272D01*
X57900Y-59500D02*
X57786Y-59414D01*
X57900Y-59329D01*
G54D17*
X56851Y-33441D02*
X56168Y-33441D01*
X56168Y-33278D01*
X56200Y-33237D01*
X56233Y-33217D01*
X56298Y-33197D01*
X56396Y-33197D01*
X56461Y-33217D01*
X56493Y-33237D01*
X56526Y-33278D01*
X56526Y-33441D01*
X56851Y-32993D02*
X56851Y-32911D01*
X56818Y-32870D01*
X56786Y-32850D01*
X56688Y-32809D01*
X56558Y-32789D01*
X56298Y-32789D01*
X56233Y-32809D01*
X56200Y-32830D01*
X56168Y-32870D01*
X56168Y-32952D01*
X56200Y-32993D01*
X56233Y-33013D01*
X56298Y-33033D01*
X56461Y-33033D01*
X56526Y-33013D01*
X56558Y-32993D01*
X56591Y-32952D01*
X56591Y-32870D01*
X56558Y-32830D01*
X56526Y-32809D01*
X56461Y-32789D01*
G54D12*
X63518Y-27467D02*
X62918Y-27467D01*
X63518Y-27124D02*
X63175Y-27381D01*
X62918Y-27124D02*
X63261Y-27467D01*
X63518Y-26553D02*
X63518Y-26896D01*
X63518Y-26724D02*
X62918Y-26724D01*
X63004Y-26781D01*
X63061Y-26839D01*
X63089Y-26896D01*
X62561Y-28946D02*
X62589Y-28975D01*
X62618Y-29061D01*
X62618Y-29118D01*
X62589Y-29203D01*
X62532Y-29261D01*
X62475Y-29289D01*
X62361Y-29318D01*
X62275Y-29318D01*
X62161Y-29289D01*
X62104Y-29261D01*
X62046Y-29203D01*
X62018Y-29118D01*
X62018Y-29061D01*
X62046Y-28975D01*
X62075Y-28946D01*
X62018Y-28575D02*
X62018Y-28461D01*
X62046Y-28403D01*
X62104Y-28346D01*
X62218Y-28318D01*
X62418Y-28318D01*
X62532Y-28346D01*
X62589Y-28403D01*
X62618Y-28461D01*
X62618Y-28575D01*
X62589Y-28632D01*
X62532Y-28689D01*
X62418Y-28718D01*
X62218Y-28718D01*
X62104Y-28689D01*
X62046Y-28632D01*
X62018Y-28575D01*
X62618Y-28060D02*
X62018Y-28060D01*
X62618Y-27717D01*
X62018Y-27717D01*
X62618Y-27431D02*
X62018Y-27431D01*
X62618Y-27088D01*
X62018Y-27088D01*
X62675Y-26945D02*
X62675Y-26488D01*
X62075Y-26374D02*
X62046Y-26345D01*
X62018Y-26288D01*
X62018Y-26145D01*
X62046Y-26088D01*
X62075Y-26059D01*
X62132Y-26031D01*
X62189Y-26031D01*
X62275Y-26059D01*
X62618Y-26402D01*
X62618Y-26031D01*
X42911Y-62939D02*
X42939Y-62968D01*
X42968Y-63054D01*
X42968Y-63111D01*
X42939Y-63196D01*
X42882Y-63254D01*
X42825Y-63282D01*
X42711Y-63311D01*
X42625Y-63311D01*
X42511Y-63282D01*
X42454Y-63254D01*
X42396Y-63196D01*
X42368Y-63111D01*
X42368Y-63054D01*
X42396Y-62968D01*
X42425Y-62939D01*
X42368Y-62568D02*
X42368Y-62454D01*
X42396Y-62396D01*
X42454Y-62339D01*
X42568Y-62311D01*
X42768Y-62311D01*
X42882Y-62339D01*
X42939Y-62396D01*
X42968Y-62454D01*
X42968Y-62568D01*
X42939Y-62625D01*
X42882Y-62682D01*
X42768Y-62711D01*
X42568Y-62711D01*
X42454Y-62682D01*
X42396Y-62625D01*
X42368Y-62568D01*
X42968Y-61767D02*
X42968Y-62053D01*
X42368Y-62053D01*
X42368Y-61453D02*
X42368Y-61339D01*
X42396Y-61281D01*
X42454Y-61224D01*
X42568Y-61196D01*
X42768Y-61196D01*
X42882Y-61224D01*
X42939Y-61281D01*
X42968Y-61339D01*
X42968Y-61453D01*
X42939Y-61510D01*
X42882Y-61567D01*
X42768Y-61596D01*
X42568Y-61596D01*
X42454Y-61567D01*
X42396Y-61510D01*
X42368Y-61453D01*
X42968Y-60938D02*
X42368Y-60938D01*
X42968Y-60595D01*
X42368Y-60595D01*
X42654Y-60309D02*
X42654Y-60109D01*
X42968Y-60023D02*
X42968Y-60309D01*
X42368Y-60309D01*
X42368Y-60023D01*
X42368Y-59852D02*
X42368Y-59509D01*
X42968Y-59680D02*
X42368Y-59680D01*
X42368Y-59395D02*
X42368Y-59052D01*
X42968Y-59223D02*
X42368Y-59223D01*
X42654Y-58852D02*
X42654Y-58652D01*
X42968Y-58566D02*
X42968Y-58852D01*
X42368Y-58852D01*
X42368Y-58566D01*
X42968Y-57824D02*
X42968Y-57709D01*
X42939Y-57652D01*
X42911Y-57624D01*
X42825Y-57566D01*
X42711Y-57538D01*
X42482Y-57538D01*
X42425Y-57566D01*
X42396Y-57595D01*
X42368Y-57652D01*
X42368Y-57766D01*
X42396Y-57824D01*
X42425Y-57852D01*
X42482Y-57881D01*
X42625Y-57881D01*
X42682Y-57852D01*
X42711Y-57824D01*
X42739Y-57766D01*
X42739Y-57652D01*
X42711Y-57595D01*
X42682Y-57566D01*
X42625Y-57538D01*
X39618Y-61582D02*
X40218Y-61382D01*
X39618Y-61182D01*
X40046Y-61011D02*
X40046Y-60725D01*
X40218Y-61068D02*
X39618Y-60868D01*
X40218Y-60668D01*
X40218Y-60182D02*
X40218Y-60468D01*
X39618Y-60468D01*
X39618Y-59896D02*
X39761Y-59896D01*
X39704Y-60039D02*
X39761Y-59896D01*
X39704Y-59754D01*
X39875Y-59982D02*
X39761Y-59896D01*
X39875Y-59811D01*
X39618Y-59439D02*
X39761Y-59439D01*
X39704Y-59582D02*
X39761Y-59439D01*
X39704Y-59297D01*
X39875Y-59525D02*
X39761Y-59439D01*
X39875Y-59354D01*
M02*
