G04 (created by PCBNEW-RS274X (2010-05-05 BZR 2356)-stable) date dim. 08 mai 2011 22:27:38 CEST*
G01*
G70*
G90*
%MOIN*%
G04 Gerber Fmt 3.4, Leading zero omitted, Abs format*
%FSLAX34Y34*%
G04 APERTURE LIST*
%ADD10C,0.000500*%
%ADD11C,0.012000*%
%ADD12C,0.015000*%
%ADD13R,0.098700X0.098700*%
%ADD14C,0.098700*%
%ADD15R,0.100000X0.080000*%
%ADD16R,0.065000X0.045000*%
%ADD17C,0.079100*%
%ADD18R,0.102700X0.090900*%
%ADD19C,0.102700*%
%ADD20R,0.102700X0.094800*%
%ADD21C,0.163700*%
%ADD22R,0.079100X0.079100*%
%ADD23R,0.045000X0.065000*%
%ADD24R,0.110000X0.082000*%
%ADD25O,0.110000X0.082000*%
%ADD26C,0.083900*%
%ADD27C,0.148000*%
%ADD28R,0.094800X0.102700*%
%ADD29R,0.126300X0.126300*%
%ADD30C,0.126300*%
%ADD31R,0.120000X0.120000*%
G04 APERTURE END LIST*
G54D10*
G54D11*
X09037Y-50712D02*
X09037Y-51112D01*
X08237Y-50855D01*
X09037Y-51454D02*
X09037Y-51511D01*
X08999Y-51568D01*
X08961Y-51597D01*
X08885Y-51626D01*
X08732Y-51654D01*
X08542Y-51654D01*
X08390Y-51626D01*
X08313Y-51597D01*
X08275Y-51568D01*
X08237Y-51511D01*
X08237Y-51454D01*
X08275Y-51397D01*
X08313Y-51368D01*
X08390Y-51340D01*
X08542Y-51311D01*
X08732Y-51311D01*
X08885Y-51340D01*
X08961Y-51368D01*
X08999Y-51397D01*
X09037Y-51454D01*
X08275Y-51939D02*
X08237Y-51939D01*
X08161Y-51911D01*
X08123Y-51882D01*
X08771Y-52454D02*
X08237Y-52454D01*
X09075Y-52311D02*
X08504Y-52168D01*
X08504Y-52540D01*
X08694Y-52854D02*
X08732Y-52796D01*
X08771Y-52768D01*
X08847Y-52739D01*
X08885Y-52739D01*
X08961Y-52768D01*
X08999Y-52796D01*
X09037Y-52854D01*
X09037Y-52968D01*
X08999Y-53025D01*
X08961Y-53054D01*
X08885Y-53082D01*
X08847Y-53082D01*
X08771Y-53054D01*
X08732Y-53025D01*
X08694Y-52968D01*
X08694Y-52854D01*
X08656Y-52796D01*
X08618Y-52768D01*
X08542Y-52739D01*
X08390Y-52739D01*
X08313Y-52768D01*
X08275Y-52796D01*
X08237Y-52854D01*
X08237Y-52968D01*
X08275Y-53025D01*
X08313Y-53054D01*
X08390Y-53082D01*
X08542Y-53082D01*
X08618Y-53054D01*
X08656Y-53025D01*
X08694Y-52968D01*
X09037Y-53625D02*
X09037Y-53339D01*
X08656Y-53310D01*
X08694Y-53339D01*
X08732Y-53396D01*
X08732Y-53539D01*
X08694Y-53596D01*
X08656Y-53625D01*
X08580Y-53653D01*
X08390Y-53653D01*
X08313Y-53625D01*
X08275Y-53596D01*
X08237Y-53539D01*
X08237Y-53396D01*
X08275Y-53339D01*
X08313Y-53310D01*
X08237Y-54367D02*
X08771Y-54367D01*
X08694Y-54367D02*
X08732Y-54395D01*
X08771Y-54453D01*
X08771Y-54538D01*
X08732Y-54595D01*
X08656Y-54624D01*
X08237Y-54624D01*
X08656Y-54624D02*
X08732Y-54653D01*
X08771Y-54710D01*
X08771Y-54795D01*
X08732Y-54853D01*
X08656Y-54881D01*
X08237Y-54881D01*
X08237Y-55167D02*
X08771Y-55167D01*
X08694Y-55167D02*
X08732Y-55195D01*
X08771Y-55253D01*
X08771Y-55338D01*
X08732Y-55395D01*
X08656Y-55424D01*
X08237Y-55424D01*
X08656Y-55424D02*
X08732Y-55453D01*
X08771Y-55510D01*
X08771Y-55595D01*
X08732Y-55653D01*
X08656Y-55681D01*
X08237Y-55681D01*
X09201Y-39350D02*
X09201Y-67100D01*
X41650Y-39350D02*
X07921Y-39350D01*
X41650Y-67100D02*
X07921Y-67100D01*
X09201Y-67100D02*
X09431Y-66657D01*
X09201Y-67100D02*
X08971Y-66657D01*
X09201Y-39350D02*
X09431Y-39793D01*
X09201Y-39350D02*
X08971Y-39793D01*
X22727Y-75150D02*
X23127Y-75152D01*
X22867Y-75951D01*
X23469Y-75153D02*
X23526Y-75153D01*
X23583Y-75191D01*
X23611Y-75229D01*
X23640Y-75305D01*
X23668Y-75459D01*
X23667Y-75649D01*
X23638Y-75800D01*
X23609Y-75877D01*
X23580Y-75915D01*
X23523Y-75953D01*
X23466Y-75953D01*
X23409Y-75915D01*
X23380Y-75877D01*
X23352Y-75799D01*
X23324Y-75647D01*
X23325Y-75457D01*
X23354Y-75304D01*
X23382Y-75229D01*
X23412Y-75191D01*
X23469Y-75153D01*
X23951Y-75917D02*
X23951Y-75955D01*
X23923Y-76030D01*
X23893Y-76068D01*
X24155Y-75155D02*
X24555Y-75157D01*
X24295Y-75956D01*
X24726Y-75157D02*
X25097Y-75159D01*
X24896Y-75463D01*
X24982Y-75463D01*
X25038Y-75501D01*
X25067Y-75539D01*
X25095Y-75616D01*
X25094Y-75805D01*
X25066Y-75882D01*
X25037Y-75920D01*
X24980Y-75958D01*
X24808Y-75958D01*
X24751Y-75919D01*
X24723Y-75881D01*
X25379Y-75959D02*
X25494Y-75960D01*
X25551Y-75922D01*
X25579Y-75884D01*
X25638Y-75769D01*
X25666Y-75617D01*
X25667Y-75312D01*
X25639Y-75236D01*
X25611Y-75198D01*
X25554Y-75160D01*
X25440Y-75160D01*
X25382Y-75197D01*
X25353Y-75235D01*
X25324Y-75311D01*
X25323Y-75502D01*
X25352Y-75578D01*
X25380Y-75616D01*
X25438Y-75655D01*
X25552Y-75655D01*
X25609Y-75617D01*
X25638Y-75579D01*
X25666Y-75503D01*
X26379Y-75963D02*
X26381Y-75429D01*
X26380Y-75506D02*
X26409Y-75468D01*
X26467Y-75429D01*
X26552Y-75430D01*
X26609Y-75469D01*
X26637Y-75545D01*
X26636Y-75964D01*
X26637Y-75545D02*
X26667Y-75469D01*
X26724Y-75430D01*
X26809Y-75430D01*
X26867Y-75470D01*
X26894Y-75546D01*
X26893Y-75965D01*
X27179Y-75966D02*
X27181Y-75432D01*
X27180Y-75509D02*
X27209Y-75471D01*
X27267Y-75432D01*
X27352Y-75432D01*
X27409Y-75472D01*
X27437Y-75548D01*
X27436Y-75967D01*
X27437Y-75548D02*
X27467Y-75472D01*
X27524Y-75433D01*
X27609Y-75433D01*
X27667Y-75472D01*
X27694Y-75549D01*
X27693Y-75968D01*
X39165Y-75045D02*
X11315Y-74945D01*
X39300Y-37250D02*
X39161Y-76325D01*
X11450Y-37150D02*
X11311Y-76225D01*
X11315Y-74945D02*
X11757Y-75177D01*
X11315Y-74945D02*
X11759Y-74716D01*
X39165Y-75045D02*
X38721Y-75274D01*
X39165Y-75045D02*
X38723Y-74813D01*
X08237Y-51051D02*
X08237Y-50937D01*
X08199Y-50880D01*
X08161Y-50851D01*
X08047Y-50794D01*
X07894Y-50765D01*
X07590Y-50765D01*
X07513Y-50794D01*
X07475Y-50822D01*
X07437Y-50880D01*
X07437Y-50994D01*
X07475Y-51051D01*
X07513Y-51080D01*
X07590Y-51108D01*
X07780Y-51108D01*
X07856Y-51080D01*
X07894Y-51051D01*
X07932Y-50994D01*
X07932Y-50880D01*
X07894Y-50822D01*
X07856Y-50794D01*
X07780Y-50765D01*
X08237Y-51308D02*
X08237Y-51708D01*
X07437Y-51451D01*
X07475Y-51964D02*
X07437Y-51964D01*
X07361Y-51936D01*
X07323Y-51907D01*
X08237Y-52165D02*
X08237Y-52536D01*
X07932Y-52336D01*
X07932Y-52422D01*
X07894Y-52479D01*
X07856Y-52508D01*
X07780Y-52536D01*
X07590Y-52536D01*
X07513Y-52508D01*
X07475Y-52479D01*
X07437Y-52422D01*
X07437Y-52250D01*
X07475Y-52193D01*
X07513Y-52165D01*
X07437Y-53107D02*
X07437Y-52764D01*
X07437Y-52936D02*
X08237Y-52936D01*
X08123Y-52879D01*
X08047Y-52821D01*
X08009Y-52764D01*
X08237Y-53478D02*
X08237Y-53535D01*
X08199Y-53592D01*
X08161Y-53621D01*
X08085Y-53650D01*
X07932Y-53678D01*
X07742Y-53678D01*
X07590Y-53650D01*
X07513Y-53621D01*
X07475Y-53592D01*
X07437Y-53535D01*
X07437Y-53478D01*
X07475Y-53421D01*
X07513Y-53392D01*
X07590Y-53364D01*
X07742Y-53335D01*
X07932Y-53335D01*
X08085Y-53364D01*
X08161Y-53392D01*
X08199Y-53421D01*
X08237Y-53478D01*
X07437Y-54392D02*
X07971Y-54392D01*
X07894Y-54392D02*
X07932Y-54420D01*
X07971Y-54478D01*
X07971Y-54563D01*
X07932Y-54620D01*
X07856Y-54649D01*
X07437Y-54649D01*
X07856Y-54649D02*
X07932Y-54678D01*
X07971Y-54735D01*
X07971Y-54820D01*
X07932Y-54878D01*
X07856Y-54906D01*
X07437Y-54906D01*
X07437Y-55192D02*
X07971Y-55192D01*
X07894Y-55192D02*
X07932Y-55220D01*
X07971Y-55278D01*
X07971Y-55363D01*
X07932Y-55420D01*
X07856Y-55449D01*
X07437Y-55449D01*
X07856Y-55449D02*
X07932Y-55478D01*
X07971Y-55535D01*
X07971Y-55620D01*
X07932Y-55678D01*
X07856Y-55706D01*
X07437Y-55706D01*
X08401Y-40000D02*
X08401Y-66500D01*
X40650Y-40000D02*
X07121Y-40000D01*
X40650Y-66500D02*
X07121Y-66500D01*
X08401Y-66500D02*
X08631Y-66057D01*
X08401Y-66500D02*
X08171Y-66057D01*
X08401Y-40000D02*
X08631Y-40443D01*
X08401Y-40000D02*
X08171Y-40443D01*
X08937Y-20330D02*
X08937Y-20044D01*
X08556Y-20015D01*
X08594Y-20044D01*
X08632Y-20101D01*
X08632Y-20244D01*
X08594Y-20301D01*
X08556Y-20330D01*
X08480Y-20358D01*
X08290Y-20358D01*
X08213Y-20330D01*
X08175Y-20301D01*
X08137Y-20244D01*
X08137Y-20101D01*
X08175Y-20044D01*
X08213Y-20015D01*
X08937Y-20558D02*
X08937Y-20958D01*
X08137Y-20701D01*
X08175Y-21214D02*
X08137Y-21214D01*
X08061Y-21186D01*
X08023Y-21157D01*
X08137Y-21786D02*
X08137Y-21443D01*
X08137Y-21615D02*
X08937Y-21615D01*
X08823Y-21558D01*
X08747Y-21500D01*
X08709Y-21443D01*
X08937Y-22329D02*
X08937Y-22043D01*
X08556Y-22014D01*
X08594Y-22043D01*
X08632Y-22100D01*
X08632Y-22243D01*
X08594Y-22300D01*
X08556Y-22329D01*
X08480Y-22357D01*
X08290Y-22357D01*
X08213Y-22329D01*
X08175Y-22300D01*
X08137Y-22243D01*
X08137Y-22100D01*
X08175Y-22043D01*
X08213Y-22014D01*
X08937Y-22728D02*
X08937Y-22785D01*
X08899Y-22842D01*
X08861Y-22871D01*
X08785Y-22900D01*
X08632Y-22928D01*
X08442Y-22928D01*
X08290Y-22900D01*
X08213Y-22871D01*
X08175Y-22842D01*
X08137Y-22785D01*
X08137Y-22728D01*
X08175Y-22671D01*
X08213Y-22642D01*
X08290Y-22614D01*
X08442Y-22585D01*
X08632Y-22585D01*
X08785Y-22614D01*
X08861Y-22642D01*
X08899Y-22671D01*
X08937Y-22728D01*
X08137Y-23642D02*
X08671Y-23642D01*
X08594Y-23642D02*
X08632Y-23670D01*
X08671Y-23728D01*
X08671Y-23813D01*
X08632Y-23870D01*
X08556Y-23899D01*
X08137Y-23899D01*
X08556Y-23899D02*
X08632Y-23928D01*
X08671Y-23985D01*
X08671Y-24070D01*
X08632Y-24128D01*
X08556Y-24156D01*
X08137Y-24156D01*
X08137Y-24442D02*
X08671Y-24442D01*
X08594Y-24442D02*
X08632Y-24470D01*
X08671Y-24528D01*
X08671Y-24613D01*
X08632Y-24670D01*
X08556Y-24699D01*
X08137Y-24699D01*
X08556Y-24699D02*
X08632Y-24728D01*
X08671Y-24785D01*
X08671Y-24870D01*
X08632Y-24928D01*
X08556Y-24956D01*
X08137Y-24956D01*
X09101Y-11250D02*
X09101Y-33750D01*
X42100Y-11250D02*
X07821Y-11250D01*
X42100Y-33750D02*
X07821Y-33750D01*
X09101Y-33750D02*
X09331Y-33307D01*
X09101Y-33750D02*
X08871Y-33307D01*
X09101Y-11250D02*
X09331Y-11693D01*
X09101Y-11250D02*
X08871Y-11693D01*
X22882Y-08806D02*
X23282Y-08806D01*
X23023Y-09606D01*
X23822Y-09607D02*
X23479Y-09607D01*
X23651Y-09607D02*
X23653Y-08807D01*
X23596Y-08921D01*
X23538Y-08997D01*
X23480Y-09035D01*
X24108Y-09570D02*
X24107Y-09608D01*
X24079Y-09684D01*
X24050Y-09722D01*
X24624Y-08809D02*
X24510Y-08808D01*
X24453Y-08846D01*
X24424Y-08884D01*
X24367Y-08998D01*
X24337Y-09151D01*
X24337Y-09455D01*
X24366Y-09532D01*
X24394Y-09570D01*
X24451Y-09608D01*
X24565Y-09609D01*
X24623Y-09571D01*
X24652Y-09533D01*
X24680Y-09456D01*
X24680Y-09266D01*
X24652Y-09190D01*
X24623Y-09152D01*
X24566Y-09114D01*
X24452Y-09113D01*
X24394Y-09151D01*
X24366Y-09189D01*
X24337Y-09265D01*
X24909Y-08885D02*
X24938Y-08847D01*
X24995Y-08809D01*
X25138Y-08810D01*
X25195Y-08848D01*
X25224Y-08886D01*
X25252Y-08962D01*
X25251Y-09038D01*
X25223Y-09153D01*
X24879Y-09609D01*
X25250Y-09610D01*
X25594Y-09153D02*
X25536Y-09115D01*
X25508Y-09076D01*
X25479Y-09000D01*
X25480Y-08962D01*
X25509Y-08886D01*
X25537Y-08848D01*
X25595Y-08810D01*
X25709Y-08811D01*
X25766Y-08849D01*
X25795Y-08887D01*
X25823Y-08963D01*
X25822Y-09001D01*
X25794Y-09077D01*
X25765Y-09116D01*
X25708Y-09154D01*
X25594Y-09153D01*
X25536Y-09191D01*
X25508Y-09229D01*
X25479Y-09305D01*
X25479Y-09457D01*
X25508Y-09534D01*
X25536Y-09572D01*
X25593Y-09610D01*
X25707Y-09611D01*
X25765Y-09573D01*
X25794Y-09535D01*
X25822Y-09458D01*
X25822Y-09306D01*
X25794Y-09230D01*
X25765Y-09192D01*
X25708Y-09154D01*
X26535Y-09612D02*
X26536Y-09078D01*
X26536Y-09155D02*
X26564Y-09117D01*
X26622Y-09078D01*
X26707Y-09078D01*
X26764Y-09117D01*
X26793Y-09193D01*
X26792Y-09612D01*
X26793Y-09193D02*
X26822Y-09117D01*
X26879Y-09079D01*
X26964Y-09079D01*
X27022Y-09118D01*
X27050Y-09194D01*
X27049Y-09613D01*
X27335Y-09613D02*
X27336Y-09079D01*
X27336Y-09156D02*
X27364Y-09118D01*
X27422Y-09080D01*
X27507Y-09080D01*
X27564Y-09119D01*
X27593Y-09195D01*
X27592Y-09614D01*
X27593Y-09195D02*
X27622Y-09119D01*
X27679Y-09080D01*
X27764Y-09080D01*
X27822Y-09119D01*
X27850Y-09195D01*
X27849Y-09614D01*
X39493Y-09951D02*
X11293Y-09901D01*
X39450Y-34750D02*
X39495Y-08671D01*
X11250Y-34700D02*
X11295Y-08621D01*
X11293Y-09901D02*
X11736Y-10132D01*
X11293Y-09901D02*
X11736Y-09671D01*
X39493Y-09951D02*
X39050Y-10181D01*
X39493Y-09951D02*
X39050Y-09720D01*
G54D12*
X38900Y-15425D02*
X39450Y-15425D01*
X39450Y-15425D02*
X39450Y-15450D01*
X39125Y-29425D02*
X39450Y-29425D01*
X53675Y-29375D02*
X53350Y-29375D01*
X53350Y-15375D02*
X53350Y-15400D01*
X53900Y-15375D02*
X53350Y-15375D01*
G54D11*
X64892Y-08764D02*
X65292Y-08764D01*
X65037Y-09564D01*
X65836Y-09563D02*
X65493Y-09563D01*
X65665Y-09563D02*
X65663Y-08763D01*
X65606Y-08877D01*
X65549Y-08953D01*
X65492Y-08991D01*
X66121Y-09524D02*
X66121Y-09562D01*
X66093Y-09638D01*
X66064Y-09676D01*
X66634Y-08761D02*
X66520Y-08762D01*
X66463Y-08800D01*
X66434Y-08838D01*
X66378Y-08952D01*
X66349Y-09105D01*
X66349Y-09409D01*
X66378Y-09486D01*
X66407Y-09524D01*
X66465Y-09562D01*
X66579Y-09561D01*
X66636Y-09523D01*
X66664Y-09485D01*
X66692Y-09408D01*
X66692Y-09218D01*
X66664Y-09142D01*
X66635Y-09104D01*
X66578Y-09066D01*
X66464Y-09067D01*
X66406Y-09105D01*
X66378Y-09143D01*
X66349Y-09219D01*
X66919Y-08837D02*
X66948Y-08799D01*
X67005Y-08761D01*
X67148Y-08760D01*
X67205Y-08798D01*
X67234Y-08836D01*
X67262Y-08912D01*
X67263Y-08988D01*
X67235Y-09103D01*
X66893Y-09561D01*
X67264Y-09560D01*
X67606Y-09103D02*
X67548Y-09065D01*
X67520Y-09026D01*
X67491Y-08950D01*
X67490Y-08912D01*
X67519Y-08836D01*
X67547Y-08798D01*
X67605Y-08760D01*
X67719Y-08759D01*
X67776Y-08797D01*
X67805Y-08835D01*
X67833Y-08911D01*
X67834Y-08949D01*
X67806Y-09025D01*
X67777Y-09064D01*
X67720Y-09102D01*
X67606Y-09103D01*
X67548Y-09141D01*
X67520Y-09179D01*
X67491Y-09255D01*
X67491Y-09407D01*
X67520Y-09484D01*
X67548Y-09522D01*
X67607Y-09560D01*
X67721Y-09559D01*
X67777Y-09521D01*
X67806Y-09483D01*
X67834Y-09406D01*
X67834Y-09254D01*
X67806Y-09178D01*
X67777Y-09140D01*
X67720Y-09102D01*
X68549Y-09558D02*
X68548Y-09024D01*
X68548Y-09101D02*
X68576Y-09063D01*
X68634Y-09024D01*
X68719Y-09024D01*
X68776Y-09063D01*
X68805Y-09139D01*
X68806Y-09558D01*
X68805Y-09139D02*
X68834Y-09063D01*
X68891Y-09023D01*
X68976Y-09023D01*
X69034Y-09062D01*
X69062Y-09138D01*
X69063Y-09557D01*
X69349Y-09557D02*
X69348Y-09023D01*
X69348Y-09100D02*
X69376Y-09062D01*
X69434Y-09022D01*
X69519Y-09022D01*
X69576Y-09061D01*
X69605Y-09137D01*
X69606Y-09556D01*
X69605Y-09137D02*
X69634Y-09061D01*
X69691Y-09022D01*
X69776Y-09022D01*
X69834Y-09061D01*
X69862Y-09137D01*
X69863Y-09556D01*
X53307Y-09901D02*
X81507Y-09851D01*
X53350Y-34700D02*
X53305Y-08621D01*
X81550Y-34650D02*
X81505Y-08571D01*
X81507Y-09851D02*
X81064Y-10082D01*
X81507Y-09851D02*
X81064Y-09621D01*
X53307Y-09901D02*
X53750Y-10131D01*
X53307Y-09901D02*
X53750Y-09670D01*
X84815Y-20280D02*
X84815Y-19994D01*
X84434Y-19965D01*
X84472Y-19994D01*
X84510Y-20051D01*
X84510Y-20194D01*
X84472Y-20251D01*
X84434Y-20280D01*
X84358Y-20308D01*
X84168Y-20308D01*
X84091Y-20280D01*
X84053Y-20251D01*
X84015Y-20194D01*
X84015Y-20051D01*
X84053Y-19994D01*
X84091Y-19965D01*
X84815Y-20508D02*
X84815Y-20908D01*
X84015Y-20651D01*
X84053Y-21164D02*
X84015Y-21164D01*
X83939Y-21136D01*
X83901Y-21107D01*
X84015Y-21736D02*
X84015Y-21393D01*
X84015Y-21565D02*
X84815Y-21565D01*
X84701Y-21508D01*
X84625Y-21450D01*
X84587Y-21393D01*
X84815Y-22279D02*
X84815Y-21993D01*
X84434Y-21964D01*
X84472Y-21993D01*
X84510Y-22050D01*
X84510Y-22193D01*
X84472Y-22250D01*
X84434Y-22279D01*
X84358Y-22307D01*
X84168Y-22307D01*
X84091Y-22279D01*
X84053Y-22250D01*
X84015Y-22193D01*
X84015Y-22050D01*
X84053Y-21993D01*
X84091Y-21964D01*
X84815Y-22678D02*
X84815Y-22735D01*
X84777Y-22792D01*
X84739Y-22821D01*
X84663Y-22850D01*
X84510Y-22878D01*
X84320Y-22878D01*
X84168Y-22850D01*
X84091Y-22821D01*
X84053Y-22792D01*
X84015Y-22735D01*
X84015Y-22678D01*
X84053Y-22621D01*
X84091Y-22592D01*
X84168Y-22564D01*
X84320Y-22535D01*
X84510Y-22535D01*
X84663Y-22564D01*
X84739Y-22592D01*
X84777Y-22621D01*
X84815Y-22678D01*
X84015Y-23592D02*
X84549Y-23592D01*
X84472Y-23592D02*
X84510Y-23620D01*
X84549Y-23678D01*
X84549Y-23763D01*
X84510Y-23820D01*
X84434Y-23849D01*
X84015Y-23849D01*
X84434Y-23849D02*
X84510Y-23878D01*
X84549Y-23935D01*
X84549Y-24020D01*
X84510Y-24078D01*
X84434Y-24106D01*
X84015Y-24106D01*
X84015Y-24392D02*
X84549Y-24392D01*
X84472Y-24392D02*
X84510Y-24420D01*
X84549Y-24478D01*
X84549Y-24563D01*
X84510Y-24620D01*
X84434Y-24649D01*
X84015Y-24649D01*
X84434Y-24649D02*
X84510Y-24678D01*
X84549Y-24735D01*
X84549Y-24820D01*
X84510Y-24878D01*
X84434Y-24906D01*
X84015Y-24906D01*
X83699Y-11200D02*
X83699Y-33700D01*
X50700Y-11200D02*
X84979Y-11200D01*
X50700Y-33700D02*
X84979Y-33700D01*
X83699Y-33700D02*
X83469Y-33257D01*
X83699Y-33700D02*
X83929Y-33257D01*
X83699Y-11200D02*
X83469Y-11643D01*
X83699Y-11200D02*
X83929Y-11643D01*
X85515Y-51001D02*
X85515Y-50887D01*
X85477Y-50830D01*
X85439Y-50801D01*
X85325Y-50744D01*
X85172Y-50715D01*
X84868Y-50715D01*
X84791Y-50744D01*
X84753Y-50772D01*
X84715Y-50830D01*
X84715Y-50944D01*
X84753Y-51001D01*
X84791Y-51030D01*
X84868Y-51058D01*
X85058Y-51058D01*
X85134Y-51030D01*
X85172Y-51001D01*
X85210Y-50944D01*
X85210Y-50830D01*
X85172Y-50772D01*
X85134Y-50744D01*
X85058Y-50715D01*
X85515Y-51258D02*
X85515Y-51658D01*
X84715Y-51401D01*
X84753Y-51914D02*
X84715Y-51914D01*
X84639Y-51886D01*
X84601Y-51857D01*
X85515Y-52115D02*
X85515Y-52486D01*
X85210Y-52286D01*
X85210Y-52372D01*
X85172Y-52429D01*
X85134Y-52458D01*
X85058Y-52486D01*
X84868Y-52486D01*
X84791Y-52458D01*
X84753Y-52429D01*
X84715Y-52372D01*
X84715Y-52200D01*
X84753Y-52143D01*
X84791Y-52115D01*
X84715Y-53057D02*
X84715Y-52714D01*
X84715Y-52886D02*
X85515Y-52886D01*
X85401Y-52829D01*
X85325Y-52771D01*
X85287Y-52714D01*
X85515Y-53428D02*
X85515Y-53485D01*
X85477Y-53542D01*
X85439Y-53571D01*
X85363Y-53600D01*
X85210Y-53628D01*
X85020Y-53628D01*
X84868Y-53600D01*
X84791Y-53571D01*
X84753Y-53542D01*
X84715Y-53485D01*
X84715Y-53428D01*
X84753Y-53371D01*
X84791Y-53342D01*
X84868Y-53314D01*
X85020Y-53285D01*
X85210Y-53285D01*
X85363Y-53314D01*
X85439Y-53342D01*
X85477Y-53371D01*
X85515Y-53428D01*
X84715Y-54342D02*
X85249Y-54342D01*
X85172Y-54342D02*
X85210Y-54370D01*
X85249Y-54428D01*
X85249Y-54513D01*
X85210Y-54570D01*
X85134Y-54599D01*
X84715Y-54599D01*
X85134Y-54599D02*
X85210Y-54628D01*
X85249Y-54685D01*
X85249Y-54770D01*
X85210Y-54828D01*
X85134Y-54856D01*
X84715Y-54856D01*
X84715Y-55142D02*
X85249Y-55142D01*
X85172Y-55142D02*
X85210Y-55170D01*
X85249Y-55228D01*
X85249Y-55313D01*
X85210Y-55370D01*
X85134Y-55399D01*
X84715Y-55399D01*
X85134Y-55399D02*
X85210Y-55428D01*
X85249Y-55485D01*
X85249Y-55570D01*
X85210Y-55628D01*
X85134Y-55656D01*
X84715Y-55656D01*
X84399Y-39950D02*
X84399Y-66450D01*
X52150Y-39950D02*
X85679Y-39950D01*
X52150Y-66450D02*
X85679Y-66450D01*
X84399Y-66450D02*
X84169Y-66007D01*
X84399Y-66450D02*
X84629Y-66007D01*
X84399Y-39950D02*
X84169Y-40393D01*
X84399Y-39950D02*
X84629Y-40393D01*
X65047Y-75118D02*
X65447Y-75116D01*
X65193Y-75917D01*
X65789Y-75115D02*
X65846Y-75115D01*
X65903Y-75153D01*
X65933Y-75191D01*
X65962Y-75267D01*
X65990Y-75419D01*
X65991Y-75609D01*
X65964Y-75762D01*
X65935Y-75839D01*
X65906Y-75877D01*
X65849Y-75915D01*
X65792Y-75915D01*
X65735Y-75877D01*
X65706Y-75839D01*
X65678Y-75763D01*
X65648Y-75611D01*
X65647Y-75421D01*
X65676Y-75268D01*
X65704Y-75191D01*
X65732Y-75153D01*
X65789Y-75115D01*
X66277Y-75875D02*
X66277Y-75913D01*
X66249Y-75990D01*
X66221Y-76028D01*
X66475Y-75113D02*
X66875Y-75111D01*
X66621Y-75912D01*
X67046Y-75111D02*
X67417Y-75110D01*
X67218Y-75415D01*
X67304Y-75415D01*
X67362Y-75453D01*
X67391Y-75491D01*
X67419Y-75566D01*
X67420Y-75756D01*
X67392Y-75834D01*
X67363Y-75872D01*
X67306Y-75910D01*
X67134Y-75910D01*
X67077Y-75873D01*
X67049Y-75835D01*
X67705Y-75909D02*
X67820Y-75908D01*
X67877Y-75870D01*
X67905Y-75832D01*
X67962Y-75717D01*
X67990Y-75565D01*
X67989Y-75260D01*
X67961Y-75184D01*
X67931Y-75146D01*
X67874Y-75108D01*
X67760Y-75108D01*
X67702Y-75147D01*
X67675Y-75185D01*
X67646Y-75261D01*
X67647Y-75452D01*
X67676Y-75528D01*
X67704Y-75566D01*
X67762Y-75603D01*
X67876Y-75603D01*
X67933Y-75565D01*
X67962Y-75527D01*
X67990Y-75451D01*
X68705Y-75905D02*
X68703Y-75371D01*
X68704Y-75448D02*
X68731Y-75410D01*
X68789Y-75371D01*
X68874Y-75370D01*
X68931Y-75409D01*
X68961Y-75485D01*
X68962Y-75904D01*
X68961Y-75485D02*
X68989Y-75409D01*
X69046Y-75370D01*
X69131Y-75370D01*
X69189Y-75408D01*
X69218Y-75484D01*
X69219Y-75903D01*
X69505Y-75902D02*
X69503Y-75368D01*
X69504Y-75445D02*
X69531Y-75407D01*
X69589Y-75368D01*
X69674Y-75368D01*
X69731Y-75406D01*
X69761Y-75482D01*
X69762Y-75901D01*
X69761Y-75482D02*
X69789Y-75406D01*
X69846Y-75367D01*
X69931Y-75367D01*
X69989Y-75406D01*
X70018Y-75481D01*
X70019Y-75900D01*
X53635Y-74995D02*
X81485Y-74895D01*
X53500Y-37200D02*
X53639Y-76275D01*
X81350Y-37100D02*
X81489Y-76175D01*
X81485Y-74895D02*
X81043Y-75127D01*
X81485Y-74895D02*
X81041Y-74666D01*
X53635Y-74995D02*
X54079Y-75224D01*
X53635Y-74995D02*
X54077Y-74763D01*
X84715Y-50662D02*
X84715Y-51062D01*
X83915Y-50805D01*
X84715Y-51404D02*
X84715Y-51461D01*
X84677Y-51518D01*
X84639Y-51547D01*
X84563Y-51576D01*
X84410Y-51604D01*
X84220Y-51604D01*
X84068Y-51576D01*
X83991Y-51547D01*
X83953Y-51518D01*
X83915Y-51461D01*
X83915Y-51404D01*
X83953Y-51347D01*
X83991Y-51318D01*
X84068Y-51290D01*
X84220Y-51261D01*
X84410Y-51261D01*
X84563Y-51290D01*
X84639Y-51318D01*
X84677Y-51347D01*
X84715Y-51404D01*
X83953Y-51889D02*
X83915Y-51889D01*
X83839Y-51861D01*
X83801Y-51832D01*
X84449Y-52404D02*
X83915Y-52404D01*
X84753Y-52261D02*
X84182Y-52118D01*
X84182Y-52490D01*
X84372Y-52804D02*
X84410Y-52746D01*
X84449Y-52718D01*
X84525Y-52689D01*
X84563Y-52689D01*
X84639Y-52718D01*
X84677Y-52746D01*
X84715Y-52804D01*
X84715Y-52918D01*
X84677Y-52975D01*
X84639Y-53004D01*
X84563Y-53032D01*
X84525Y-53032D01*
X84449Y-53004D01*
X84410Y-52975D01*
X84372Y-52918D01*
X84372Y-52804D01*
X84334Y-52746D01*
X84296Y-52718D01*
X84220Y-52689D01*
X84068Y-52689D01*
X83991Y-52718D01*
X83953Y-52746D01*
X83915Y-52804D01*
X83915Y-52918D01*
X83953Y-52975D01*
X83991Y-53004D01*
X84068Y-53032D01*
X84220Y-53032D01*
X84296Y-53004D01*
X84334Y-52975D01*
X84372Y-52918D01*
X84715Y-53575D02*
X84715Y-53289D01*
X84334Y-53260D01*
X84372Y-53289D01*
X84410Y-53346D01*
X84410Y-53489D01*
X84372Y-53546D01*
X84334Y-53575D01*
X84258Y-53603D01*
X84068Y-53603D01*
X83991Y-53575D01*
X83953Y-53546D01*
X83915Y-53489D01*
X83915Y-53346D01*
X83953Y-53289D01*
X83991Y-53260D01*
X83915Y-54317D02*
X84449Y-54317D01*
X84372Y-54317D02*
X84410Y-54345D01*
X84449Y-54403D01*
X84449Y-54488D01*
X84410Y-54545D01*
X84334Y-54574D01*
X83915Y-54574D01*
X84334Y-54574D02*
X84410Y-54603D01*
X84449Y-54660D01*
X84449Y-54745D01*
X84410Y-54803D01*
X84334Y-54831D01*
X83915Y-54831D01*
X83915Y-55117D02*
X84449Y-55117D01*
X84372Y-55117D02*
X84410Y-55145D01*
X84449Y-55203D01*
X84449Y-55288D01*
X84410Y-55345D01*
X84334Y-55374D01*
X83915Y-55374D01*
X84334Y-55374D02*
X84410Y-55403D01*
X84449Y-55460D01*
X84449Y-55545D01*
X84410Y-55603D01*
X84334Y-55631D01*
X83915Y-55631D01*
X83599Y-39300D02*
X83599Y-67050D01*
X51150Y-39300D02*
X84879Y-39300D01*
X51150Y-67050D02*
X84879Y-67050D01*
X83599Y-67050D02*
X83369Y-66607D01*
X83599Y-67050D02*
X83829Y-66607D01*
X83599Y-39300D02*
X83369Y-39743D01*
X83599Y-39300D02*
X83829Y-39743D01*
G54D13*
X28350Y-64550D03*
G54D14*
X27350Y-64550D03*
X26350Y-64550D03*
X25350Y-64550D03*
G54D13*
X30824Y-39501D03*
G54D14*
X31824Y-39501D03*
X32824Y-39501D03*
X33824Y-39501D03*
G54D15*
X17600Y-43050D03*
X17600Y-44350D03*
G54D16*
X17825Y-53875D03*
X17825Y-54475D03*
X22750Y-55925D03*
X22750Y-56525D03*
X23275Y-65625D03*
X23275Y-65025D03*
X17875Y-45925D03*
X17875Y-46525D03*
G54D17*
X37650Y-46800D03*
X37650Y-45300D03*
G54D14*
X36650Y-47550D03*
X36650Y-44550D03*
G54D13*
X26550Y-17100D03*
G54D14*
X25550Y-17100D03*
X24550Y-17100D03*
X23550Y-17100D03*
G54D13*
X20675Y-43725D03*
G54D14*
X20675Y-42725D03*
X20675Y-41725D03*
X20675Y-40725D03*
G54D18*
X37950Y-48650D03*
G54D19*
X37950Y-49650D03*
G54D13*
X28375Y-61900D03*
G54D14*
X27375Y-61900D03*
X26375Y-61900D03*
X25375Y-61900D03*
G54D13*
X28375Y-59200D03*
G54D14*
X27375Y-59200D03*
X26375Y-59200D03*
X25375Y-59200D03*
G54D16*
X23800Y-43850D03*
X23800Y-44450D03*
X26500Y-43850D03*
X26500Y-44450D03*
X31800Y-43850D03*
X31800Y-44450D03*
X29150Y-43850D03*
X29150Y-44450D03*
X29850Y-44450D03*
X29850Y-43850D03*
X30550Y-43850D03*
X30550Y-44450D03*
X33250Y-43850D03*
X33250Y-44450D03*
X32550Y-44450D03*
X32550Y-43850D03*
X27200Y-44450D03*
X27200Y-43850D03*
X27900Y-43850D03*
X27900Y-44450D03*
X25200Y-43850D03*
X25200Y-44450D03*
X24500Y-44450D03*
X24500Y-43850D03*
G54D20*
X27350Y-41000D03*
G54D19*
X27350Y-42000D03*
X27350Y-43000D03*
G54D20*
X32650Y-41000D03*
G54D19*
X32650Y-42000D03*
X32650Y-43000D03*
G54D20*
X30000Y-41000D03*
G54D19*
X30000Y-42000D03*
X30000Y-43000D03*
G54D20*
X24700Y-41000D03*
G54D19*
X24700Y-42000D03*
X24700Y-43000D03*
G54D21*
X36100Y-61538D03*
X36100Y-56865D03*
G54D22*
X33600Y-57450D03*
G54D17*
X32600Y-57950D03*
X33600Y-58450D03*
X32600Y-58950D03*
X33600Y-59450D03*
X32600Y-59950D03*
X33600Y-60450D03*
X32600Y-60950D03*
G54D23*
X36100Y-49600D03*
X35500Y-49600D03*
X36100Y-48900D03*
X35500Y-48900D03*
G54D16*
X34800Y-49500D03*
X34800Y-48900D03*
X16525Y-43925D03*
X16525Y-44525D03*
X18575Y-43925D03*
X18575Y-44525D03*
X16525Y-42825D03*
X16525Y-43425D03*
X18575Y-42825D03*
X18575Y-43425D03*
G54D24*
X23250Y-45700D03*
G54D25*
X23250Y-46700D03*
X23250Y-47700D03*
X23250Y-48700D03*
X23250Y-49700D03*
X23250Y-50700D03*
X23250Y-51700D03*
X23250Y-52700D03*
X23250Y-53700D03*
X23250Y-54700D03*
X23250Y-55700D03*
X23250Y-56700D03*
X23250Y-57700D03*
X23250Y-58700D03*
X23250Y-59700D03*
X23250Y-60700D03*
X23250Y-61700D03*
X23250Y-62700D03*
X23250Y-63700D03*
X23250Y-64700D03*
X17250Y-64700D03*
X17250Y-63700D03*
X17250Y-62700D03*
X17250Y-61700D03*
X17250Y-60700D03*
X17250Y-59700D03*
X17250Y-58700D03*
X17250Y-57700D03*
X17250Y-56700D03*
X17250Y-55700D03*
X17250Y-54700D03*
X17250Y-53700D03*
X17250Y-52700D03*
X17250Y-51700D03*
X17250Y-50700D03*
X17250Y-49700D03*
X17250Y-48700D03*
X17250Y-47700D03*
X17250Y-46700D03*
X17250Y-45700D03*
G54D26*
X34150Y-53500D03*
X34150Y-52500D03*
X34150Y-54500D03*
X33150Y-52000D03*
X33150Y-53000D03*
X33150Y-54000D03*
G54D27*
X36650Y-55250D03*
X36650Y-51250D03*
G54D23*
X35100Y-45300D03*
X35700Y-45300D03*
X30100Y-18700D03*
X30700Y-18700D03*
X30100Y-17850D03*
X30700Y-17850D03*
X28850Y-18700D03*
X29450Y-18700D03*
X28850Y-17850D03*
X29450Y-17850D03*
G54D28*
X12500Y-46600D03*
G54D19*
X13500Y-46600D03*
X14500Y-46600D03*
G54D28*
X12500Y-49100D03*
G54D19*
X13500Y-49100D03*
X14500Y-49100D03*
G54D28*
X12500Y-51600D03*
G54D19*
X13500Y-51600D03*
X14500Y-51600D03*
G54D28*
X12500Y-54100D03*
G54D19*
X13500Y-54100D03*
X14500Y-54100D03*
G54D29*
X19400Y-16800D03*
G54D30*
X19400Y-18175D03*
G54D29*
X15000Y-18000D03*
G54D30*
X15000Y-16625D03*
G54D29*
X77800Y-17950D03*
G54D30*
X77800Y-16575D03*
G54D29*
X73400Y-16750D03*
G54D30*
X73400Y-18125D03*
G54D28*
X80300Y-54050D03*
G54D19*
X79300Y-54050D03*
X78300Y-54050D03*
G54D31*
X77950Y-59900D03*
X77950Y-57900D03*
X79950Y-57900D03*
X79950Y-59900D03*
G54D28*
X80300Y-51550D03*
G54D19*
X79300Y-51550D03*
X78300Y-51550D03*
G54D28*
X80300Y-49050D03*
G54D19*
X79300Y-49050D03*
X78300Y-49050D03*
G54D28*
X80300Y-46550D03*
G54D19*
X79300Y-46550D03*
X78300Y-46550D03*
G54D26*
X58650Y-53450D03*
X58650Y-52450D03*
X58650Y-54450D03*
X59650Y-51950D03*
X59650Y-52950D03*
X59650Y-53950D03*
G54D27*
X56150Y-55200D03*
X56150Y-51200D03*
G54D24*
X69550Y-45650D03*
G54D25*
X69550Y-46650D03*
X69550Y-47650D03*
X69550Y-48650D03*
X69550Y-49650D03*
X69550Y-50650D03*
X69550Y-51650D03*
X69550Y-52650D03*
X69550Y-53650D03*
X69550Y-54650D03*
X69550Y-55650D03*
X69550Y-56650D03*
X69550Y-57650D03*
X69550Y-58650D03*
X69550Y-59650D03*
X69550Y-60650D03*
X69550Y-61650D03*
X69550Y-62650D03*
X69550Y-63650D03*
X69550Y-64650D03*
X75550Y-64650D03*
X75550Y-63650D03*
X75550Y-62650D03*
X75550Y-61650D03*
X75550Y-60650D03*
X75550Y-59650D03*
X75550Y-58650D03*
X75550Y-57650D03*
X75550Y-56650D03*
X75550Y-55650D03*
X75550Y-54650D03*
X75550Y-53650D03*
X75550Y-52650D03*
X75550Y-51650D03*
X75550Y-50650D03*
X75550Y-49650D03*
X75550Y-48650D03*
X75550Y-47650D03*
X75550Y-46650D03*
X75550Y-45650D03*
G54D21*
X56700Y-61488D03*
X56700Y-56815D03*
G54D22*
X59200Y-57400D03*
G54D17*
X60200Y-57900D03*
X59200Y-58400D03*
X60200Y-58900D03*
X59200Y-59400D03*
X60200Y-59900D03*
X59200Y-60400D03*
X60200Y-60900D03*
G54D20*
X68100Y-40950D03*
G54D19*
X68100Y-41950D03*
X68100Y-42950D03*
G54D20*
X62800Y-40950D03*
G54D19*
X62800Y-41950D03*
X62800Y-42950D03*
G54D20*
X60150Y-40950D03*
G54D19*
X60150Y-41950D03*
X60150Y-42950D03*
G54D20*
X65450Y-40950D03*
G54D19*
X65450Y-41950D03*
X65450Y-42950D03*
G54D23*
X78350Y-62000D03*
X78950Y-62000D03*
X78300Y-55900D03*
X78900Y-55900D03*
G54D13*
X64425Y-59150D03*
G54D14*
X65425Y-59150D03*
X66425Y-59150D03*
X67425Y-59150D03*
G54D13*
X64425Y-61850D03*
G54D14*
X65425Y-61850D03*
X66425Y-61850D03*
X67425Y-61850D03*
G54D18*
X54850Y-48600D03*
G54D19*
X54850Y-49600D03*
G54D13*
X72125Y-43675D03*
G54D14*
X72125Y-42675D03*
X72125Y-41675D03*
X72125Y-40675D03*
G54D13*
X66250Y-17050D03*
G54D14*
X67250Y-17050D03*
X68250Y-17050D03*
X69250Y-17050D03*
G54D17*
X55150Y-46750D03*
X55150Y-45250D03*
G54D14*
X56150Y-47500D03*
X56150Y-44500D03*
G54D13*
X61976Y-39451D03*
G54D14*
X60976Y-39451D03*
X59976Y-39451D03*
X58976Y-39451D03*
G54D13*
X64450Y-64500D03*
G54D14*
X65450Y-64500D03*
X66450Y-64500D03*
X67450Y-64500D03*
M02*
