G04 (created by PCBNEW-RS274X (2011-04-29 BZR 2986)-stable) date 29/01/2012 21:43:35*
G01*
G70*
G90*
%MOIN*%
G04 Gerber Fmt 3.4, Leading zero omitted, Abs format*
%FSLAX34Y34*%
G04 APERTURE LIST*
%ADD10C,0.006000*%
%ADD11C,0.015000*%
%ADD12C,0.083000*%
%ADD13R,0.082000X0.110000*%
%ADD14O,0.082000X0.110000*%
%ADD15R,0.102700X0.090900*%
%ADD16C,0.102700*%
%ADD17R,0.098700X0.090900*%
%ADD18C,0.098700*%
%ADD19R,0.045000X0.065000*%
%ADD20R,0.065000X0.045000*%
%ADD21R,0.170000X0.075000*%
%ADD22R,0.134200X0.134200*%
%ADD23C,0.134200*%
%ADD24R,0.040000X0.065000*%
%ADD25R,0.065000X0.040000*%
%ADD26R,0.075000X0.170000*%
%ADD27R,0.098700X0.098700*%
%ADD28C,0.090000*%
%ADD29R,0.090000X0.090000*%
%ADD30C,0.080000*%
%ADD31C,0.148000*%
%ADD32R,0.160000X0.160000*%
%ADD33C,0.160000*%
%ADD34R,0.080000X0.100000*%
%ADD35R,0.100000X0.080000*%
%ADD36C,0.177500*%
%ADD37R,0.056000X0.056000*%
%ADD38R,0.090900X0.090900*%
%ADD39C,0.090900*%
G04 APERTURE END LIST*
G54D10*
G54D11*
X07275Y-17550D02*
X30225Y-17550D01*
X30225Y-17550D02*
X30225Y-63850D01*
X30225Y-63850D02*
X07275Y-63850D01*
X07275Y-63850D02*
X07275Y-17550D01*
X07275Y-17550D02*
X07300Y-17550D01*
G54D12*
X27550Y-38875D03*
X27550Y-39875D03*
G54D13*
X11400Y-61825D03*
G54D14*
X12400Y-61825D03*
X13400Y-61825D03*
X14400Y-61825D03*
X15400Y-61825D03*
X16400Y-61825D03*
X17400Y-61825D03*
X18400Y-61825D03*
X19400Y-61825D03*
X20400Y-61825D03*
X21400Y-61825D03*
X22400Y-61825D03*
X23400Y-61825D03*
X24400Y-61825D03*
X25400Y-61825D03*
X26400Y-61825D03*
X26400Y-55825D03*
X25400Y-55825D03*
X24400Y-55825D03*
X23400Y-55825D03*
X22400Y-55825D03*
X21400Y-55825D03*
X20400Y-55825D03*
X19400Y-55825D03*
X18400Y-55825D03*
X17400Y-55825D03*
X16400Y-55825D03*
X15400Y-55825D03*
X14400Y-55825D03*
X13400Y-55825D03*
X12400Y-55825D03*
X11400Y-55825D03*
G54D13*
X28400Y-48025D03*
G54D14*
X27400Y-48025D03*
X26400Y-48025D03*
X25400Y-48025D03*
X24400Y-48025D03*
X23400Y-48025D03*
X22400Y-48025D03*
X21400Y-48025D03*
X20400Y-48025D03*
X19400Y-48025D03*
X18400Y-48025D03*
X17400Y-48025D03*
X16400Y-48025D03*
X15400Y-48025D03*
X14400Y-48025D03*
X13400Y-48025D03*
X12400Y-48025D03*
X11400Y-48025D03*
X10400Y-48025D03*
X09400Y-48025D03*
X09400Y-54025D03*
X10400Y-54025D03*
X11400Y-54025D03*
X12400Y-54025D03*
X13400Y-54025D03*
X14400Y-54025D03*
X15400Y-54025D03*
X16400Y-54025D03*
X17400Y-54025D03*
X18400Y-54025D03*
X19400Y-54025D03*
X20400Y-54025D03*
X21400Y-54025D03*
X22400Y-54025D03*
X23400Y-54025D03*
X24400Y-54025D03*
X25400Y-54025D03*
X26400Y-54025D03*
X27400Y-54025D03*
X28400Y-54025D03*
G54D15*
X28275Y-45750D03*
G54D16*
X28275Y-44750D03*
G54D17*
X08850Y-58425D03*
G54D18*
X08850Y-57425D03*
X08850Y-56425D03*
G54D17*
X28850Y-58375D03*
G54D18*
X28850Y-57375D03*
X28850Y-56375D03*
G54D19*
X26500Y-35825D03*
X25900Y-35825D03*
X23600Y-34975D03*
X24200Y-34975D03*
X19150Y-34975D03*
X19750Y-34975D03*
X21550Y-35825D03*
X20950Y-35825D03*
G54D20*
X23400Y-38125D03*
X23400Y-37525D03*
G54D19*
X17350Y-35825D03*
X16750Y-35825D03*
X14600Y-34925D03*
X15200Y-34925D03*
X09650Y-34925D03*
X10250Y-34925D03*
X12450Y-35875D03*
X11850Y-35875D03*
G54D20*
X14150Y-37675D03*
X14150Y-38275D03*
X08250Y-36325D03*
X08250Y-36925D03*
X27550Y-41475D03*
X27550Y-40875D03*
X28900Y-41475D03*
X28900Y-40875D03*
X29500Y-48025D03*
X29500Y-47425D03*
X29500Y-49525D03*
X29500Y-48925D03*
G54D19*
X24400Y-38975D03*
X25000Y-38975D03*
X19650Y-39075D03*
X20250Y-39075D03*
X24400Y-35825D03*
X25000Y-35825D03*
X19650Y-35825D03*
X20250Y-35825D03*
X15300Y-39075D03*
X15900Y-39075D03*
G54D20*
X09250Y-37725D03*
X09250Y-38325D03*
G54D19*
X15300Y-35825D03*
X15900Y-35825D03*
X10350Y-35825D03*
X10950Y-35825D03*
G54D21*
X08650Y-29375D03*
X08650Y-27575D03*
G54D22*
X14775Y-19650D03*
G54D23*
X16150Y-19650D03*
X17550Y-19650D03*
X18925Y-19650D03*
X20300Y-19650D03*
X21675Y-19650D03*
G54D24*
X11050Y-41925D03*
X10550Y-41925D03*
X10050Y-41925D03*
X09550Y-41925D03*
X09050Y-41925D03*
X08550Y-41925D03*
X08050Y-41925D03*
X08050Y-39825D03*
X08550Y-39825D03*
X09050Y-39825D03*
X09550Y-39825D03*
X10050Y-39825D03*
X10550Y-39825D03*
X11050Y-39825D03*
G54D25*
X12450Y-38175D03*
X10350Y-38175D03*
X12450Y-37675D03*
X12450Y-37175D03*
X12450Y-36675D03*
X10350Y-37675D03*
X10350Y-37175D03*
X10350Y-36675D03*
G54D24*
X22850Y-41275D03*
X23350Y-41275D03*
X23850Y-41275D03*
X24350Y-41275D03*
X24850Y-41275D03*
X25350Y-41275D03*
X25850Y-41275D03*
X25850Y-43375D03*
X25350Y-43375D03*
X24850Y-43375D03*
X24350Y-43375D03*
X23850Y-43375D03*
X23350Y-43375D03*
X22850Y-43375D03*
G54D25*
X21750Y-38125D03*
X19650Y-38125D03*
X21750Y-37625D03*
X21750Y-37125D03*
X21750Y-36625D03*
X19650Y-37625D03*
X19650Y-37125D03*
X19650Y-36625D03*
G54D20*
X18700Y-38175D03*
X18700Y-37575D03*
G54D25*
X26500Y-38125D03*
X24400Y-38125D03*
X26500Y-37625D03*
X26500Y-37125D03*
X26500Y-36625D03*
X24400Y-37625D03*
X24400Y-37125D03*
X24400Y-36625D03*
G54D26*
X27450Y-32325D03*
X29250Y-32325D03*
G54D25*
X17400Y-38175D03*
X15300Y-38175D03*
X17400Y-37675D03*
X17400Y-37175D03*
X17400Y-36675D03*
X15300Y-37675D03*
X15300Y-37175D03*
X15300Y-36675D03*
G54D27*
X28300Y-34175D03*
G54D18*
X28300Y-35175D03*
X28300Y-36175D03*
X28300Y-37175D03*
G54D12*
X28900Y-38825D03*
X28900Y-39825D03*
G54D19*
X11400Y-60625D03*
X10800Y-60625D03*
X08850Y-50875D03*
X08250Y-50875D03*
G54D20*
X26700Y-41275D03*
X26700Y-41875D03*
G54D19*
X18200Y-48025D03*
X17600Y-48025D03*
X20200Y-54025D03*
X19600Y-54025D03*
X28150Y-54025D03*
X27550Y-54025D03*
G54D28*
X25075Y-31500D03*
X24075Y-31500D03*
G54D29*
X23075Y-31500D03*
G54D28*
X25075Y-33700D03*
X24075Y-33700D03*
G54D29*
X23075Y-33700D03*
G54D28*
X11975Y-31500D03*
X10975Y-31500D03*
G54D29*
X09975Y-31500D03*
G54D28*
X16275Y-31500D03*
X15275Y-31500D03*
G54D29*
X14275Y-31500D03*
G54D28*
X11975Y-33700D03*
X10975Y-33700D03*
G54D29*
X09975Y-33700D03*
G54D28*
X16275Y-33700D03*
X15275Y-33700D03*
G54D29*
X14275Y-33700D03*
G54D28*
X20675Y-31500D03*
X19675Y-31500D03*
G54D29*
X18675Y-31500D03*
G54D28*
X20675Y-33700D03*
X19675Y-33700D03*
G54D29*
X18675Y-33700D03*
G54D30*
X18825Y-45150D03*
X17825Y-45150D03*
X19825Y-45150D03*
X17325Y-46150D03*
X18325Y-46150D03*
X19325Y-46150D03*
G54D31*
X20575Y-42650D03*
X16575Y-42650D03*
G54D19*
X08250Y-49475D03*
X08850Y-49475D03*
X08850Y-50175D03*
X08250Y-50175D03*
G54D26*
X10325Y-52150D03*
X08525Y-52150D03*
G54D32*
X28650Y-25775D03*
G54D33*
X08650Y-25775D03*
G54D19*
X08400Y-54725D03*
X07800Y-54725D03*
G54D20*
X09850Y-60875D03*
X09850Y-60275D03*
X09850Y-59225D03*
X09850Y-59825D03*
X09000Y-55525D03*
X09000Y-54925D03*
X09175Y-60250D03*
X09175Y-60850D03*
X09175Y-59825D03*
X09175Y-59225D03*
G54D19*
X29150Y-54725D03*
X29750Y-54725D03*
G54D20*
X27850Y-60825D03*
X27850Y-60225D03*
X27850Y-59175D03*
X27850Y-59775D03*
X28400Y-55525D03*
X28400Y-54925D03*
X28600Y-60225D03*
X28600Y-60825D03*
X28600Y-59775D03*
X28600Y-59175D03*
G54D19*
X07800Y-55425D03*
X08400Y-55425D03*
G54D20*
X08275Y-60875D03*
X08275Y-60275D03*
X08275Y-59225D03*
X08275Y-59825D03*
G54D19*
X29750Y-55425D03*
X29150Y-55425D03*
G54D20*
X29500Y-60825D03*
X29500Y-60225D03*
X29500Y-59175D03*
X29500Y-59775D03*
G54D34*
X23250Y-34975D03*
X24550Y-34975D03*
X18800Y-34975D03*
X20100Y-34975D03*
G54D35*
X23400Y-38425D03*
X23400Y-37125D03*
X18700Y-38525D03*
X18700Y-37225D03*
G54D34*
X14250Y-34925D03*
X15550Y-34925D03*
X09300Y-34925D03*
X10600Y-34925D03*
G54D35*
X14150Y-37325D03*
X14150Y-38625D03*
X08250Y-35975D03*
X08250Y-37275D03*
G54D36*
X08425Y-18750D03*
X28975Y-18750D03*
X28975Y-62700D03*
X08425Y-62700D03*
G54D19*
X10300Y-20875D03*
X09700Y-20875D03*
G54D37*
X10300Y-22825D03*
X10300Y-22125D03*
X09500Y-22475D03*
G54D20*
X13350Y-60325D03*
X13350Y-60925D03*
X12400Y-60325D03*
X12400Y-60925D03*
G54D27*
X08900Y-46525D03*
G54D18*
X08900Y-45525D03*
X08900Y-44525D03*
X08900Y-43525D03*
G54D38*
X13600Y-63075D03*
G54D39*
X14600Y-63075D03*
G54D38*
X12350Y-63075D03*
G54D39*
X11350Y-63075D03*
G54D20*
X11300Y-22125D03*
X11300Y-21525D03*
X11325Y-21025D03*
X11325Y-20425D03*
G54D27*
X11400Y-46525D03*
G54D18*
X11400Y-45525D03*
X11400Y-44525D03*
X11400Y-43525D03*
G54D39*
X22025Y-63075D03*
X21025Y-63075D03*
X20025Y-63075D03*
X18525Y-63075D03*
X17525Y-63075D03*
X16525Y-63075D03*
M02*
