G04 (created by PCBNEW-RS274X (2011-04-29 BZR 2986)-stable) date 29/01/2012 21:43:35*
G01*
G70*
G90*
%MOIN*%
G04 Gerber Fmt 3.4, Leading zero omitted, Abs format*
%FSLAX34Y34*%
G04 APERTURE LIST*
%ADD10C,0.006000*%
%ADD11C,0.015000*%
%ADD12C,0.083000*%
%ADD13R,0.082000X0.110000*%
%ADD14O,0.082000X0.110000*%
%ADD15R,0.102700X0.090900*%
%ADD16C,0.102700*%
%ADD17R,0.098700X0.090900*%
%ADD18C,0.098700*%
%ADD19R,0.045000X0.065000*%
%ADD20R,0.065000X0.045000*%
%ADD21R,0.134200X0.134200*%
%ADD22C,0.134200*%
%ADD23R,0.098700X0.098700*%
%ADD24C,0.090000*%
%ADD25R,0.090000X0.090000*%
%ADD26C,0.080000*%
%ADD27C,0.148000*%
%ADD28R,0.160000X0.160000*%
%ADD29C,0.160000*%
%ADD30C,0.177500*%
%ADD31R,0.110600X0.071200*%
%ADD32R,0.090900X0.090900*%
%ADD33C,0.090900*%
%ADD34R,0.120000X0.120000*%
G04 APERTURE END LIST*
G54D10*
G54D11*
X07275Y-17550D02*
X30225Y-17550D01*
X30225Y-17550D02*
X30225Y-63850D01*
X30225Y-63850D02*
X07275Y-63850D01*
X07275Y-63850D02*
X07275Y-17550D01*
X07275Y-17550D02*
X07300Y-17550D01*
G54D12*
X27550Y-38875D03*
X27550Y-39875D03*
G54D13*
X11400Y-61825D03*
G54D14*
X12400Y-61825D03*
X13400Y-61825D03*
X14400Y-61825D03*
X15400Y-61825D03*
X16400Y-61825D03*
X17400Y-61825D03*
X18400Y-61825D03*
X19400Y-61825D03*
X20400Y-61825D03*
X21400Y-61825D03*
X22400Y-61825D03*
X23400Y-61825D03*
X24400Y-61825D03*
X25400Y-61825D03*
X26400Y-61825D03*
X26400Y-55825D03*
X25400Y-55825D03*
X24400Y-55825D03*
X23400Y-55825D03*
X22400Y-55825D03*
X21400Y-55825D03*
X20400Y-55825D03*
X19400Y-55825D03*
X18400Y-55825D03*
X17400Y-55825D03*
X16400Y-55825D03*
X15400Y-55825D03*
X14400Y-55825D03*
X13400Y-55825D03*
X12400Y-55825D03*
X11400Y-55825D03*
G54D13*
X28400Y-48025D03*
G54D14*
X27400Y-48025D03*
X26400Y-48025D03*
X25400Y-48025D03*
X24400Y-48025D03*
X23400Y-48025D03*
X22400Y-48025D03*
X21400Y-48025D03*
X20400Y-48025D03*
X19400Y-48025D03*
X18400Y-48025D03*
X17400Y-48025D03*
X16400Y-48025D03*
X15400Y-48025D03*
X14400Y-48025D03*
X13400Y-48025D03*
X12400Y-48025D03*
X11400Y-48025D03*
X10400Y-48025D03*
X09400Y-48025D03*
X09400Y-54025D03*
X10400Y-54025D03*
X11400Y-54025D03*
X12400Y-54025D03*
X13400Y-54025D03*
X14400Y-54025D03*
X15400Y-54025D03*
X16400Y-54025D03*
X17400Y-54025D03*
X18400Y-54025D03*
X19400Y-54025D03*
X20400Y-54025D03*
X21400Y-54025D03*
X22400Y-54025D03*
X23400Y-54025D03*
X24400Y-54025D03*
X25400Y-54025D03*
X26400Y-54025D03*
X27400Y-54025D03*
X28400Y-54025D03*
G54D15*
X28275Y-45750D03*
G54D16*
X28275Y-44750D03*
G54D17*
X08850Y-58425D03*
G54D18*
X08850Y-57425D03*
X08850Y-56425D03*
G54D17*
X28850Y-58375D03*
G54D18*
X28850Y-57375D03*
X28850Y-56375D03*
G54D19*
X15675Y-46850D03*
X16275Y-46850D03*
G54D20*
X12675Y-42575D03*
X12675Y-41975D03*
G54D21*
X14775Y-19650D03*
G54D22*
X16150Y-19650D03*
X17550Y-19650D03*
X18925Y-19650D03*
X20300Y-19650D03*
X21675Y-19650D03*
G54D23*
X28300Y-34175D03*
G54D18*
X28300Y-35175D03*
X28300Y-36175D03*
X28300Y-37175D03*
G54D12*
X28900Y-38825D03*
X28900Y-39825D03*
G54D19*
X11950Y-40875D03*
X12550Y-40875D03*
G54D24*
X25075Y-31500D03*
X24075Y-31500D03*
G54D25*
X23075Y-31500D03*
G54D24*
X25075Y-33700D03*
X24075Y-33700D03*
G54D25*
X23075Y-33700D03*
G54D24*
X11975Y-31500D03*
X10975Y-31500D03*
G54D25*
X09975Y-31500D03*
G54D24*
X16275Y-31500D03*
X15275Y-31500D03*
G54D25*
X14275Y-31500D03*
G54D24*
X11975Y-33700D03*
X10975Y-33700D03*
G54D25*
X09975Y-33700D03*
G54D24*
X16275Y-33700D03*
X15275Y-33700D03*
G54D25*
X14275Y-33700D03*
G54D24*
X20675Y-31500D03*
X19675Y-31500D03*
G54D25*
X18675Y-31500D03*
G54D24*
X20675Y-33700D03*
X19675Y-33700D03*
G54D25*
X18675Y-33700D03*
G54D26*
X18825Y-45150D03*
X17825Y-45150D03*
X19825Y-45150D03*
X17325Y-46150D03*
X18325Y-46150D03*
X19325Y-46150D03*
G54D27*
X20575Y-42650D03*
X16575Y-42650D03*
G54D28*
X28650Y-25775D03*
G54D29*
X08650Y-25775D03*
G54D30*
X08425Y-18750D03*
X28975Y-18750D03*
X28975Y-62700D03*
X08425Y-62700D03*
G54D23*
X08900Y-46525D03*
G54D18*
X08900Y-45525D03*
X08900Y-44525D03*
X08900Y-43525D03*
G54D31*
X29600Y-42275D03*
X26600Y-42275D03*
G54D32*
X13600Y-63075D03*
G54D33*
X14600Y-63075D03*
G54D32*
X12350Y-63075D03*
G54D33*
X11350Y-63075D03*
G54D23*
X11400Y-46525D03*
G54D18*
X11400Y-45525D03*
X11400Y-44525D03*
X11400Y-43525D03*
G54D33*
X22025Y-63075D03*
X21025Y-63075D03*
X20025Y-63075D03*
X18525Y-63075D03*
X17525Y-63075D03*
X16525Y-63075D03*
G54D34*
X15225Y-43550D03*
X15225Y-45550D03*
X13225Y-45550D03*
X13225Y-43550D03*
M02*
