G04 (created by PCBNEW-RS274X (2011-04-29 BZR 2986)-stable) date 29/01/2012 21:43:35*
G01*
G70*
G90*
%MOIN*%
G04 Gerber Fmt 3.4, Leading zero omitted, Abs format*
%FSLAX34Y34*%
G04 APERTURE LIST*
%ADD10C,0.006000*%
%ADD11C,0.012000*%
%ADD12C,0.015000*%
%ADD13C,0.063000*%
%ADD14R,0.062000X0.090000*%
%ADD15O,0.062000X0.090000*%
%ADD16R,0.082700X0.070900*%
%ADD17C,0.082700*%
%ADD18R,0.078700X0.070900*%
%ADD19C,0.078700*%
%ADD20R,0.025000X0.045000*%
%ADD21R,0.045000X0.025000*%
%ADD22R,0.150000X0.055000*%
%ADD23R,0.114200X0.114200*%
%ADD24C,0.114200*%
%ADD25R,0.020000X0.045000*%
%ADD26R,0.045000X0.020000*%
%ADD27R,0.055000X0.150000*%
%ADD28R,0.078700X0.078700*%
%ADD29C,0.070000*%
%ADD30R,0.070000X0.070000*%
%ADD31C,0.060000*%
%ADD32C,0.128000*%
%ADD33R,0.140000X0.140000*%
%ADD34C,0.140000*%
%ADD35R,0.060000X0.080000*%
%ADD36R,0.080000X0.060000*%
%ADD37C,0.157500*%
%ADD38R,0.036000X0.036000*%
%ADD39R,0.070900X0.070900*%
%ADD40C,0.070900*%
%ADD41C,0.051200*%
%ADD42C,0.049200*%
%ADD43C,0.019700*%
%ADD44C,0.078700*%
%ADD45C,0.013800*%
%ADD46C,0.015700*%
%ADD47C,0.039400*%
%ADD48C,0.010000*%
G04 APERTURE END LIST*
G54D10*
G54D11*
X08369Y-47404D02*
X08369Y-47861D01*
X08674Y-47632D02*
X08064Y-47632D01*
X07874Y-48433D02*
X07874Y-48147D01*
X08255Y-48118D01*
X08217Y-48147D01*
X08179Y-48204D01*
X08179Y-48347D01*
X08217Y-48404D01*
X08255Y-48433D01*
X08331Y-48461D01*
X08521Y-48461D01*
X08598Y-48433D01*
X08636Y-48404D01*
X08674Y-48347D01*
X08674Y-48204D01*
X08636Y-48147D01*
X08598Y-48118D01*
X07874Y-48632D02*
X08674Y-48832D01*
X07874Y-49032D01*
X12319Y-20169D02*
X12319Y-20626D01*
X12624Y-20397D02*
X12014Y-20397D01*
X12624Y-21226D02*
X12624Y-20883D01*
X12624Y-21055D02*
X11824Y-21055D01*
X11938Y-20998D01*
X12014Y-20940D01*
X12052Y-20883D01*
X11900Y-21454D02*
X11862Y-21483D01*
X11824Y-21540D01*
X11824Y-21683D01*
X11862Y-21740D01*
X11900Y-21769D01*
X11976Y-21797D01*
X12052Y-21797D01*
X12167Y-21769D01*
X12624Y-21426D01*
X12624Y-21797D01*
X11824Y-21968D02*
X12624Y-22168D01*
X11824Y-22368D01*
X26874Y-44947D02*
X26493Y-44747D01*
X26874Y-44604D02*
X26074Y-44604D01*
X26074Y-44832D01*
X26112Y-44890D01*
X26150Y-44918D01*
X26226Y-44947D01*
X26340Y-44947D01*
X26417Y-44918D01*
X26455Y-44890D01*
X26493Y-44832D01*
X26493Y-44604D01*
X26836Y-45175D02*
X26874Y-45261D01*
X26874Y-45404D01*
X26836Y-45461D01*
X26798Y-45490D01*
X26721Y-45518D01*
X26645Y-45518D01*
X26569Y-45490D01*
X26531Y-45461D01*
X26493Y-45404D01*
X26455Y-45290D01*
X26417Y-45232D01*
X26379Y-45204D01*
X26302Y-45175D01*
X26226Y-45175D01*
X26150Y-45204D01*
X26112Y-45232D01*
X26074Y-45290D01*
X26074Y-45432D01*
X26112Y-45518D01*
X26074Y-45689D02*
X26074Y-46032D01*
X26874Y-45861D02*
X26074Y-45861D01*
G54D12*
X07275Y-17550D02*
X30225Y-17550D01*
X30225Y-17550D02*
X30225Y-63850D01*
X30225Y-63850D02*
X07275Y-63850D01*
X07275Y-63850D02*
X07275Y-17550D01*
X07275Y-17550D02*
X07300Y-17550D01*
G54D13*
X27550Y-38875D03*
X27550Y-39875D03*
G54D14*
X11400Y-61825D03*
G54D15*
X12400Y-61825D03*
X13400Y-61825D03*
X14400Y-61825D03*
X15400Y-61825D03*
X16400Y-61825D03*
X17400Y-61825D03*
X18400Y-61825D03*
X19400Y-61825D03*
X20400Y-61825D03*
X21400Y-61825D03*
X22400Y-61825D03*
X23400Y-61825D03*
X24400Y-61825D03*
X25400Y-61825D03*
X26400Y-61825D03*
X26400Y-55825D03*
X25400Y-55825D03*
X24400Y-55825D03*
X23400Y-55825D03*
X22400Y-55825D03*
X21400Y-55825D03*
X20400Y-55825D03*
X19400Y-55825D03*
X18400Y-55825D03*
X17400Y-55825D03*
X16400Y-55825D03*
X15400Y-55825D03*
X14400Y-55825D03*
X13400Y-55825D03*
X12400Y-55825D03*
X11400Y-55825D03*
G54D14*
X28400Y-48025D03*
G54D15*
X27400Y-48025D03*
X26400Y-48025D03*
X25400Y-48025D03*
X24400Y-48025D03*
X23400Y-48025D03*
X22400Y-48025D03*
X21400Y-48025D03*
X20400Y-48025D03*
X19400Y-48025D03*
X18400Y-48025D03*
X17400Y-48025D03*
X16400Y-48025D03*
X15400Y-48025D03*
X14400Y-48025D03*
X13400Y-48025D03*
X12400Y-48025D03*
X11400Y-48025D03*
X10400Y-48025D03*
X09400Y-48025D03*
X09400Y-54025D03*
X10400Y-54025D03*
X11400Y-54025D03*
X12400Y-54025D03*
X13400Y-54025D03*
X14400Y-54025D03*
X15400Y-54025D03*
X16400Y-54025D03*
X17400Y-54025D03*
X18400Y-54025D03*
X19400Y-54025D03*
X20400Y-54025D03*
X21400Y-54025D03*
X22400Y-54025D03*
X23400Y-54025D03*
X24400Y-54025D03*
X25400Y-54025D03*
X26400Y-54025D03*
X27400Y-54025D03*
X28400Y-54025D03*
G54D16*
X28275Y-45750D03*
G54D17*
X28275Y-44750D03*
G54D18*
X08850Y-58425D03*
G54D19*
X08850Y-57425D03*
X08850Y-56425D03*
G54D18*
X28850Y-58375D03*
G54D19*
X28850Y-57375D03*
X28850Y-56375D03*
G54D20*
X26500Y-35825D03*
X25900Y-35825D03*
X23600Y-34975D03*
X24200Y-34975D03*
X19150Y-34975D03*
X19750Y-34975D03*
X21550Y-35825D03*
X20950Y-35825D03*
G54D21*
X23400Y-38125D03*
X23400Y-37525D03*
G54D20*
X17350Y-35825D03*
X16750Y-35825D03*
X14600Y-34925D03*
X15200Y-34925D03*
X09650Y-34925D03*
X10250Y-34925D03*
X12450Y-35875D03*
X11850Y-35875D03*
G54D21*
X14150Y-37675D03*
X14150Y-38275D03*
X08250Y-36325D03*
X08250Y-36925D03*
X27550Y-41475D03*
X27550Y-40875D03*
X28900Y-41475D03*
X28900Y-40875D03*
X29500Y-48025D03*
X29500Y-47425D03*
X29500Y-49525D03*
X29500Y-48925D03*
G54D20*
X24400Y-38975D03*
X25000Y-38975D03*
X19650Y-39075D03*
X20250Y-39075D03*
X24400Y-35825D03*
X25000Y-35825D03*
X19650Y-35825D03*
X20250Y-35825D03*
X15300Y-39075D03*
X15900Y-39075D03*
G54D21*
X09250Y-37725D03*
X09250Y-38325D03*
G54D20*
X15300Y-35825D03*
X15900Y-35825D03*
X10350Y-35825D03*
X10950Y-35825D03*
G54D22*
X08650Y-29375D03*
X08650Y-27575D03*
G54D23*
X14775Y-19650D03*
G54D24*
X16150Y-19650D03*
X17550Y-19650D03*
X18925Y-19650D03*
X20300Y-19650D03*
X21675Y-19650D03*
G54D25*
X11050Y-41925D03*
X10550Y-41925D03*
X10050Y-41925D03*
X09550Y-41925D03*
X09050Y-41925D03*
X08550Y-41925D03*
X08050Y-41925D03*
X08050Y-39825D03*
X08550Y-39825D03*
X09050Y-39825D03*
X09550Y-39825D03*
X10050Y-39825D03*
X10550Y-39825D03*
X11050Y-39825D03*
G54D26*
X12450Y-38175D03*
X10350Y-38175D03*
X12450Y-37675D03*
X12450Y-37175D03*
X12450Y-36675D03*
X10350Y-37675D03*
X10350Y-37175D03*
X10350Y-36675D03*
G54D25*
X22850Y-41275D03*
X23350Y-41275D03*
X23850Y-41275D03*
X24350Y-41275D03*
X24850Y-41275D03*
X25350Y-41275D03*
X25850Y-41275D03*
X25850Y-43375D03*
X25350Y-43375D03*
X24850Y-43375D03*
X24350Y-43375D03*
X23850Y-43375D03*
X23350Y-43375D03*
X22850Y-43375D03*
G54D26*
X21750Y-38125D03*
X19650Y-38125D03*
X21750Y-37625D03*
X21750Y-37125D03*
X21750Y-36625D03*
X19650Y-37625D03*
X19650Y-37125D03*
X19650Y-36625D03*
G54D21*
X18700Y-38175D03*
X18700Y-37575D03*
G54D26*
X26500Y-38125D03*
X24400Y-38125D03*
X26500Y-37625D03*
X26500Y-37125D03*
X26500Y-36625D03*
X24400Y-37625D03*
X24400Y-37125D03*
X24400Y-36625D03*
G54D27*
X27450Y-32325D03*
X29250Y-32325D03*
G54D26*
X17400Y-38175D03*
X15300Y-38175D03*
X17400Y-37675D03*
X17400Y-37175D03*
X17400Y-36675D03*
X15300Y-37675D03*
X15300Y-37175D03*
X15300Y-36675D03*
G54D28*
X28300Y-34175D03*
G54D19*
X28300Y-35175D03*
X28300Y-36175D03*
X28300Y-37175D03*
G54D13*
X28900Y-38825D03*
X28900Y-39825D03*
G54D20*
X11400Y-60625D03*
X10800Y-60625D03*
X08850Y-50875D03*
X08250Y-50875D03*
G54D21*
X26700Y-41275D03*
X26700Y-41875D03*
G54D20*
X18200Y-48025D03*
X17600Y-48025D03*
X20200Y-54025D03*
X19600Y-54025D03*
X28150Y-54025D03*
X27550Y-54025D03*
G54D29*
X25075Y-31500D03*
X24075Y-31500D03*
G54D30*
X23075Y-31500D03*
G54D29*
X25075Y-33700D03*
X24075Y-33700D03*
G54D30*
X23075Y-33700D03*
G54D29*
X11975Y-31500D03*
X10975Y-31500D03*
G54D30*
X09975Y-31500D03*
G54D29*
X16275Y-31500D03*
X15275Y-31500D03*
G54D30*
X14275Y-31500D03*
G54D29*
X11975Y-33700D03*
X10975Y-33700D03*
G54D30*
X09975Y-33700D03*
G54D29*
X16275Y-33700D03*
X15275Y-33700D03*
G54D30*
X14275Y-33700D03*
G54D29*
X20675Y-31500D03*
X19675Y-31500D03*
G54D30*
X18675Y-31500D03*
G54D29*
X20675Y-33700D03*
X19675Y-33700D03*
G54D30*
X18675Y-33700D03*
G54D31*
X18825Y-45150D03*
X17825Y-45150D03*
X19825Y-45150D03*
X17325Y-46150D03*
X18325Y-46150D03*
X19325Y-46150D03*
G54D32*
X20575Y-42650D03*
X16575Y-42650D03*
G54D20*
X08250Y-49475D03*
X08850Y-49475D03*
X08850Y-50175D03*
X08250Y-50175D03*
G54D27*
X10325Y-52150D03*
X08525Y-52150D03*
G54D33*
X28650Y-25775D03*
G54D34*
X08650Y-25775D03*
G54D20*
X08400Y-54725D03*
X07800Y-54725D03*
G54D21*
X09850Y-60875D03*
X09850Y-60275D03*
X09850Y-59225D03*
X09850Y-59825D03*
X09000Y-55525D03*
X09000Y-54925D03*
X09175Y-60250D03*
X09175Y-60850D03*
X09175Y-59825D03*
X09175Y-59225D03*
G54D20*
X29150Y-54725D03*
X29750Y-54725D03*
G54D21*
X27850Y-60825D03*
X27850Y-60225D03*
X27850Y-59175D03*
X27850Y-59775D03*
X28400Y-55525D03*
X28400Y-54925D03*
X28600Y-60225D03*
X28600Y-60825D03*
X28600Y-59775D03*
X28600Y-59175D03*
G54D20*
X07800Y-55425D03*
X08400Y-55425D03*
G54D21*
X08275Y-60875D03*
X08275Y-60275D03*
X08275Y-59225D03*
X08275Y-59825D03*
G54D20*
X29750Y-55425D03*
X29150Y-55425D03*
G54D21*
X29500Y-60825D03*
X29500Y-60225D03*
X29500Y-59175D03*
X29500Y-59775D03*
G54D35*
X23250Y-34975D03*
X24550Y-34975D03*
X18800Y-34975D03*
X20100Y-34975D03*
G54D36*
X23400Y-38425D03*
X23400Y-37125D03*
X18700Y-38525D03*
X18700Y-37225D03*
G54D35*
X14250Y-34925D03*
X15550Y-34925D03*
X09300Y-34925D03*
X10600Y-34925D03*
G54D36*
X14150Y-37325D03*
X14150Y-38625D03*
X08250Y-35975D03*
X08250Y-37275D03*
G54D37*
X08425Y-18750D03*
X28975Y-18750D03*
X28975Y-62700D03*
X08425Y-62700D03*
G54D20*
X10300Y-20875D03*
X09700Y-20875D03*
G54D38*
X10300Y-22825D03*
X10300Y-22125D03*
X09500Y-22475D03*
G54D21*
X13350Y-60325D03*
X13350Y-60925D03*
X12400Y-60325D03*
X12400Y-60925D03*
G54D28*
X08900Y-46525D03*
G54D19*
X08900Y-45525D03*
X08900Y-44525D03*
X08900Y-43525D03*
G54D39*
X13600Y-63075D03*
G54D40*
X14600Y-63075D03*
G54D39*
X12350Y-63075D03*
G54D40*
X11350Y-63075D03*
G54D21*
X11300Y-22125D03*
X11300Y-21525D03*
X11325Y-21025D03*
X11325Y-20425D03*
G54D28*
X11400Y-46525D03*
G54D19*
X11400Y-45525D03*
X11400Y-44525D03*
X11400Y-43525D03*
G54D40*
X22025Y-63075D03*
X21025Y-63075D03*
X20025Y-63075D03*
X18525Y-63075D03*
X17525Y-63075D03*
X16525Y-63075D03*
G54D41*
X23750Y-39175D03*
X19650Y-39725D03*
G54D42*
X08450Y-38075D03*
G54D41*
X10300Y-21475D03*
G54D42*
X14850Y-39275D03*
G54D41*
X28650Y-27375D03*
X19650Y-26675D03*
X11000Y-22975D03*
X24100Y-26675D03*
X15300Y-26675D03*
X11000Y-26675D03*
G54D42*
X17775Y-58850D03*
G54D41*
X11250Y-51125D03*
X18400Y-50725D03*
X28400Y-50825D03*
X25900Y-50725D03*
X25900Y-47075D03*
X23450Y-47075D03*
X17800Y-46975D03*
G54D42*
X11500Y-39725D03*
X19300Y-58850D03*
G54D41*
X10650Y-58375D03*
X13200Y-28725D03*
X17500Y-28725D03*
X09950Y-28725D03*
X22000Y-40675D03*
G54D42*
X15200Y-40175D03*
G54D41*
X27450Y-28725D03*
X21850Y-28725D03*
X10400Y-47350D03*
G54D42*
X08300Y-38975D03*
G54D41*
X11600Y-41975D03*
X14400Y-56825D03*
X26900Y-56825D03*
X12425Y-57325D03*
X25900Y-57325D03*
X13400Y-57875D03*
G54D42*
X24950Y-57875D03*
X24400Y-51775D03*
G54D41*
X13900Y-51825D03*
X26900Y-50325D03*
G54D42*
X22900Y-50175D03*
G54D41*
X25400Y-52925D03*
X23900Y-52825D03*
G54D42*
X20400Y-58375D03*
G54D41*
X23900Y-58375D03*
X21400Y-52275D03*
X23400Y-52275D03*
X22450Y-60700D03*
X21300Y-47025D03*
X20400Y-46925D03*
X11325Y-52800D03*
X07600Y-47525D03*
G54D42*
X22400Y-51325D03*
G54D41*
X24900Y-51325D03*
G54D42*
X16900Y-49775D03*
G54D41*
X28400Y-49725D03*
G54D42*
X16900Y-46975D03*
G54D41*
X12900Y-59525D03*
X21100Y-59275D03*
X17200Y-58375D03*
X18900Y-58375D03*
X25575Y-34575D03*
G54D42*
X14900Y-59275D03*
G54D41*
X11850Y-35025D03*
X25650Y-45975D03*
X21000Y-39125D03*
G54D42*
X19950Y-59225D03*
G54D41*
X28750Y-30525D03*
X16750Y-35025D03*
X27900Y-49125D03*
X09850Y-50025D03*
X08250Y-53925D03*
X17400Y-49025D03*
G54D42*
X12450Y-39725D03*
G54D41*
X25400Y-58475D03*
X14150Y-41275D03*
X07750Y-38475D03*
G54D42*
X08050Y-42625D03*
G54D41*
X27750Y-52675D03*
X29450Y-52675D03*
G54D42*
X13725Y-49725D03*
G54D41*
X17575Y-52525D03*
X11475Y-51850D03*
X10650Y-59675D03*
X21925Y-54900D03*
X24350Y-58925D03*
X21900Y-58875D03*
X09700Y-55475D03*
G54D42*
X14900Y-49275D03*
G54D41*
X09900Y-49275D03*
X28850Y-43425D03*
X14300Y-50225D03*
G54D42*
X21900Y-50175D03*
G54D41*
X26500Y-40275D03*
X21900Y-45625D03*
X26500Y-59275D03*
X14925Y-41475D03*
X28250Y-40775D03*
G54D42*
X21550Y-51325D03*
G54D41*
X13400Y-51325D03*
X22900Y-46475D03*
X10800Y-57075D03*
X16550Y-58400D03*
X10000Y-61200D03*
X16050Y-34925D03*
X17350Y-38775D03*
X26650Y-35075D03*
X23000Y-44175D03*
G54D42*
X17300Y-39725D03*
X13000Y-40325D03*
G54D41*
X11375Y-32600D03*
X09750Y-36075D03*
X11150Y-34925D03*
X12450Y-38725D03*
X21850Y-38875D03*
G54D42*
X21850Y-34975D03*
G54D41*
X18700Y-39225D03*
X18000Y-36025D03*
X15650Y-32675D03*
X14650Y-36175D03*
X24850Y-39925D03*
X22850Y-40425D03*
X23850Y-44175D03*
X24850Y-44175D03*
X20100Y-32675D03*
X18950Y-36075D03*
X23750Y-36125D03*
X26225Y-31500D03*
G54D43*
X10300Y-21475D02*
X10300Y-20875D01*
X14850Y-39275D02*
X15050Y-39075D01*
X09450Y-37725D02*
X09900Y-38175D01*
X09900Y-38175D02*
X10350Y-38175D01*
X09250Y-37725D02*
X09450Y-37725D01*
X23950Y-38975D02*
X23750Y-39175D01*
X24400Y-38975D02*
X23950Y-38975D01*
X15300Y-38175D02*
X15300Y-39075D01*
X15300Y-39075D02*
X15050Y-39075D01*
X09250Y-37725D02*
X08950Y-37725D01*
X10300Y-22125D02*
X10300Y-20875D01*
X10300Y-22125D02*
X11300Y-22125D01*
X24400Y-38125D02*
X24400Y-38975D01*
X19650Y-39075D02*
X19650Y-38125D01*
X08950Y-37725D02*
X08600Y-38075D01*
X08600Y-38075D02*
X08450Y-38075D01*
X15050Y-39075D02*
X14850Y-39275D01*
X19650Y-39725D02*
X19650Y-39075D01*
X10975Y-26700D02*
X11000Y-26675D01*
G54D44*
X24075Y-31500D02*
X24075Y-26700D01*
X19675Y-26700D02*
X19650Y-26675D01*
X19675Y-31500D02*
X19675Y-26700D01*
X15275Y-31500D02*
X15275Y-26700D01*
X23975Y-19650D02*
X21675Y-19650D01*
X28650Y-24325D02*
X23975Y-19650D01*
X28650Y-25775D02*
X28650Y-24325D01*
X28650Y-25775D02*
X28650Y-27375D01*
X15275Y-26700D02*
X15300Y-26675D01*
X24075Y-26700D02*
X24100Y-26675D01*
X10975Y-31500D02*
X10975Y-26700D01*
G54D43*
X28650Y-24325D02*
X23975Y-19650D01*
X23975Y-19650D02*
X21675Y-19650D01*
X19675Y-26700D02*
X19650Y-26675D01*
X10850Y-22825D02*
X11000Y-22975D01*
X10300Y-22825D02*
X10850Y-22825D01*
G54D44*
X10975Y-26700D02*
X11000Y-26675D01*
G54D43*
X15300Y-26675D02*
X15275Y-26700D01*
G54D45*
X20200Y-62525D02*
X19900Y-62225D01*
X19900Y-62225D02*
X19900Y-61275D01*
X17900Y-62700D02*
X17525Y-63075D01*
X17900Y-58975D02*
X17900Y-62700D01*
X17775Y-58850D02*
X17900Y-58975D01*
G54D43*
X09000Y-50725D02*
X08850Y-50875D01*
X09700Y-50725D02*
X09000Y-50725D01*
X11250Y-51125D02*
X10850Y-50725D01*
X10850Y-50725D02*
X10550Y-50725D01*
X11050Y-39825D02*
X11400Y-39825D01*
X11400Y-39825D02*
X11500Y-39725D01*
X09400Y-54025D02*
X09400Y-54425D01*
X09400Y-54425D02*
X10200Y-55225D01*
X10200Y-55225D02*
X10200Y-57925D01*
X10200Y-57925D02*
X10650Y-58375D01*
X11400Y-59125D02*
X11400Y-60625D01*
X10650Y-58375D02*
X11400Y-59125D01*
X10550Y-50725D02*
X10550Y-49525D01*
G54D46*
X10900Y-49175D02*
X10900Y-47500D01*
G54D43*
X10550Y-49525D02*
X10900Y-49175D01*
X08850Y-50175D02*
X08850Y-50875D01*
X10550Y-50725D02*
X10450Y-50725D01*
X10450Y-50725D02*
X09700Y-50725D01*
X09700Y-50725D02*
X09750Y-50725D01*
X09750Y-50725D02*
X09700Y-50725D01*
X18400Y-50725D02*
X18400Y-48025D01*
X22850Y-43375D02*
X22450Y-43775D01*
X28400Y-50825D02*
X29500Y-50825D01*
G54D46*
X25900Y-47075D02*
X25900Y-50725D01*
G54D43*
X23450Y-45475D02*
X23450Y-47075D01*
X22450Y-44475D02*
X23450Y-45475D01*
X22450Y-44275D02*
X22450Y-44475D01*
X22450Y-43775D02*
X22450Y-44275D01*
X12400Y-60325D02*
X13350Y-60325D01*
X11400Y-60625D02*
X11450Y-60625D01*
X11450Y-60625D02*
X11750Y-60325D01*
X11750Y-60325D02*
X12400Y-60325D01*
G54D45*
X21025Y-63075D02*
X21025Y-62975D01*
G54D43*
X28900Y-41475D02*
X29250Y-41475D01*
G54D45*
X20575Y-62525D02*
X20200Y-62525D01*
G54D43*
X29950Y-49475D02*
X29900Y-49525D01*
X29950Y-42175D02*
X29950Y-49475D01*
X29250Y-41475D02*
X29950Y-42175D01*
X26700Y-41275D02*
X27000Y-41275D01*
X27200Y-41475D02*
X27550Y-41475D01*
X27000Y-41275D02*
X27200Y-41475D01*
X28400Y-54025D02*
X28400Y-52425D01*
X29500Y-50825D02*
X29500Y-49525D01*
X28400Y-52425D02*
X29500Y-51325D01*
X29500Y-51325D02*
X29500Y-50825D01*
X18400Y-48025D02*
X18400Y-47575D01*
X18400Y-47575D02*
X17800Y-46975D01*
X28900Y-41475D02*
X29300Y-41475D01*
X29150Y-35175D02*
X28300Y-35175D01*
X29750Y-35775D02*
X29150Y-35175D01*
X29750Y-41025D02*
X29750Y-35775D01*
X29300Y-41475D02*
X29750Y-41025D01*
X28900Y-41475D02*
X27550Y-41475D01*
X11400Y-39825D02*
X11500Y-39725D01*
X20400Y-52725D02*
X18400Y-50725D01*
X20400Y-54025D02*
X20400Y-52725D01*
G54D46*
X10425Y-44525D02*
X11400Y-44525D01*
X08900Y-44525D02*
X10425Y-44525D01*
X10900Y-47125D02*
X10425Y-46650D01*
X10425Y-46650D02*
X10425Y-44525D01*
G54D45*
X19900Y-60550D02*
X19900Y-61275D01*
X19300Y-58850D02*
X19300Y-59950D01*
G54D46*
X10900Y-47500D02*
X10900Y-47125D01*
G54D43*
X09400Y-53700D02*
X10325Y-52775D01*
X10325Y-52775D02*
X10325Y-52150D01*
X09400Y-54025D02*
X09400Y-53700D01*
X10325Y-50725D02*
X10450Y-50725D01*
X10325Y-52150D02*
X10325Y-50725D01*
G54D45*
X19300Y-59950D02*
X19900Y-60550D01*
G54D43*
X11400Y-61825D02*
X11400Y-60625D01*
G54D45*
X21025Y-62975D02*
X20575Y-62525D01*
G54D43*
X29900Y-49525D02*
X29500Y-49525D01*
G54D44*
X11975Y-33550D02*
X13200Y-32325D01*
X08650Y-29375D02*
X08650Y-28875D01*
G54D43*
X08650Y-29375D02*
X08650Y-28875D01*
G54D44*
X09950Y-28725D02*
X09300Y-29375D01*
X09300Y-29375D02*
X08650Y-29375D01*
X11975Y-33700D02*
X11975Y-33550D01*
X16275Y-33700D02*
X17500Y-32475D01*
G54D43*
X11975Y-33550D02*
X13200Y-32325D01*
X17500Y-32475D02*
X17500Y-28725D01*
X13200Y-32325D02*
X13200Y-28725D01*
X22000Y-44775D02*
X22400Y-45175D01*
G54D45*
X13400Y-37225D02*
X13400Y-39225D01*
X13100Y-36925D02*
X13400Y-37225D01*
X13100Y-35575D02*
X13100Y-36925D01*
X14350Y-40175D02*
X15200Y-40175D01*
X13400Y-39225D02*
X14350Y-40175D01*
G54D43*
X11975Y-33700D02*
X11975Y-34000D01*
X13400Y-38575D02*
X13400Y-38775D01*
X11975Y-34000D02*
X13100Y-35125D01*
X13100Y-35125D02*
X13100Y-35575D01*
X13100Y-36925D02*
X13400Y-37225D01*
X13400Y-37225D02*
X13400Y-38575D01*
X13400Y-39225D02*
X13400Y-38775D01*
X22000Y-44075D02*
X22000Y-40675D01*
X22000Y-44075D02*
X22000Y-44775D01*
X22400Y-45175D02*
X22400Y-48025D01*
G54D44*
X17500Y-32475D02*
X17500Y-28725D01*
X13200Y-32325D02*
X13200Y-28725D01*
G54D43*
X09300Y-29375D02*
X08650Y-29375D01*
G54D44*
X26075Y-33700D02*
X27450Y-32325D01*
X27450Y-32325D02*
X27450Y-28725D01*
G54D43*
X27450Y-32325D02*
X27900Y-32325D01*
G54D44*
X27450Y-32325D02*
X28050Y-32325D01*
G54D43*
X21850Y-32575D02*
X21850Y-28725D01*
G54D44*
X20675Y-33700D02*
X20725Y-33700D01*
X20725Y-33700D02*
X21850Y-32575D01*
X21850Y-32575D02*
X21850Y-28725D01*
G54D43*
X20725Y-33700D02*
X21850Y-32575D01*
G54D44*
X25075Y-33700D02*
X26075Y-33700D01*
G54D43*
X10550Y-41925D02*
X10050Y-41925D01*
X09550Y-39425D02*
X09100Y-38975D01*
G54D46*
X10400Y-48025D02*
X10400Y-47350D01*
G54D43*
X09550Y-39825D02*
X09550Y-39425D01*
X11600Y-41625D02*
X11350Y-41375D01*
X11600Y-41975D02*
X11600Y-41625D01*
X10700Y-41375D02*
X10550Y-41525D01*
X11350Y-41375D02*
X10700Y-41375D01*
X09100Y-38975D02*
X08300Y-38975D01*
X10550Y-41525D02*
X10550Y-41925D01*
G54D45*
X14400Y-60275D02*
X14075Y-59950D01*
X14075Y-57150D02*
X14400Y-56825D01*
G54D46*
X26900Y-52625D02*
X26900Y-56825D01*
G54D43*
X27400Y-48025D02*
X27400Y-52125D01*
X27400Y-52125D02*
X26900Y-52625D01*
G54D45*
X14400Y-61825D02*
X14400Y-60275D01*
X14075Y-59950D02*
X14075Y-57150D01*
X25900Y-52050D02*
X26400Y-51550D01*
X26400Y-51550D02*
X26400Y-48025D01*
X12400Y-57300D02*
X12425Y-57325D01*
G54D46*
X25900Y-53725D02*
X25900Y-57325D01*
G54D45*
X25900Y-53725D02*
X25900Y-52050D01*
X12400Y-55825D02*
X12400Y-57300D01*
G54D46*
X24900Y-57825D02*
X24900Y-54125D01*
G54D43*
X24950Y-57875D02*
X24900Y-57825D01*
G54D46*
X24900Y-53925D02*
X24900Y-52125D01*
G54D43*
X13400Y-55825D02*
X13400Y-57875D01*
G54D46*
X24900Y-53925D02*
X24900Y-54125D01*
G54D43*
X25400Y-51625D02*
X25400Y-48025D01*
X24900Y-52125D02*
X25400Y-51625D01*
X14400Y-55825D02*
X14400Y-55025D01*
X13900Y-53125D02*
X13900Y-51825D01*
X24400Y-51775D02*
X24400Y-48025D01*
X14400Y-55025D02*
X13900Y-54525D01*
G54D46*
X13900Y-54525D02*
X13900Y-53125D01*
G54D45*
X20900Y-51225D02*
X20425Y-50750D01*
G54D43*
X20900Y-51225D02*
X20425Y-50750D01*
G54D46*
X20900Y-53400D02*
X20900Y-54675D01*
G54D43*
X20425Y-50750D02*
X19400Y-49725D01*
G54D45*
X20900Y-53400D02*
X20900Y-51225D01*
G54D43*
X19400Y-49725D02*
X19400Y-48025D01*
X21400Y-55175D02*
X21400Y-55825D01*
X20900Y-54675D02*
X21400Y-55175D01*
X22900Y-50175D02*
X22900Y-53725D01*
X22400Y-55075D02*
X22900Y-54575D01*
G54D45*
X26400Y-54025D02*
X26400Y-52350D01*
G54D46*
X22900Y-54575D02*
X22900Y-53725D01*
G54D43*
X22400Y-55825D02*
X22400Y-55075D01*
G54D45*
X26900Y-51850D02*
X26900Y-50325D01*
X26400Y-52350D02*
X26900Y-51850D01*
G54D43*
X25400Y-54025D02*
X25400Y-52925D01*
G54D46*
X23900Y-52825D02*
X23900Y-54575D01*
G54D43*
X23900Y-54575D02*
X23750Y-54725D01*
X23400Y-55825D02*
X23400Y-55075D01*
X23400Y-55075D02*
X23750Y-54725D01*
X24400Y-54725D02*
X23900Y-55225D01*
X20400Y-58375D02*
X20400Y-61825D01*
X24400Y-54025D02*
X24400Y-54725D01*
G54D46*
X23900Y-55225D02*
X23900Y-58375D01*
G54D43*
X23850Y-42075D02*
X23850Y-41275D01*
X23850Y-41275D02*
X23350Y-41275D01*
X24350Y-42575D02*
X23850Y-42075D01*
G54D45*
X23900Y-50850D02*
X23900Y-49600D01*
G54D43*
X24350Y-44925D02*
X23900Y-45375D01*
G54D45*
X23400Y-52275D02*
X23400Y-51350D01*
X23400Y-51350D02*
X23900Y-50850D01*
G54D46*
X23900Y-45375D02*
X23900Y-49600D01*
G54D43*
X24350Y-43375D02*
X24350Y-42575D01*
G54D45*
X21400Y-52275D02*
X21400Y-54025D01*
G54D43*
X24350Y-43375D02*
X24350Y-44925D01*
X12350Y-61875D02*
X12400Y-61825D01*
X12350Y-63075D02*
X12350Y-61875D01*
X12400Y-60925D02*
X12400Y-61825D01*
X13350Y-61775D02*
X13400Y-61825D01*
X13350Y-60925D02*
X13350Y-61775D01*
X13400Y-62875D02*
X13600Y-63075D01*
X13400Y-61825D02*
X13400Y-62875D01*
X22900Y-55075D02*
X23400Y-54575D01*
G54D46*
X22900Y-59475D02*
X22900Y-56725D01*
G54D45*
X22900Y-59475D02*
X22900Y-60250D01*
G54D46*
X22900Y-56725D02*
X22900Y-55075D01*
G54D45*
X22900Y-60250D02*
X22450Y-60700D01*
G54D43*
X23400Y-54575D02*
X23400Y-54025D01*
X15400Y-49375D02*
X15400Y-48025D01*
X15400Y-60525D02*
X15400Y-61825D01*
X15900Y-51825D02*
X15900Y-49875D01*
X15900Y-58025D02*
X15900Y-60025D01*
X15900Y-49875D02*
X15400Y-49375D01*
G54D46*
X15900Y-51825D02*
X15900Y-58025D01*
G54D43*
X15900Y-60025D02*
X15400Y-60525D01*
X21400Y-47125D02*
X21300Y-47025D01*
X21400Y-48025D02*
X21400Y-47125D01*
X20400Y-48025D02*
X20400Y-46925D01*
X08050Y-40525D02*
X07600Y-40975D01*
X08050Y-39825D02*
X08050Y-40525D01*
X07600Y-40975D02*
X07600Y-46575D01*
X10400Y-54025D02*
X10400Y-53725D01*
X10400Y-53725D02*
X11325Y-52800D01*
X07600Y-46575D02*
X07600Y-47525D01*
X08550Y-39825D02*
X08050Y-39825D01*
X25350Y-43375D02*
X25350Y-45025D01*
G54D46*
X24900Y-45475D02*
X24900Y-48675D01*
G54D43*
X25350Y-43375D02*
X25850Y-43375D01*
X24900Y-51325D02*
X24900Y-48675D01*
X25350Y-45025D02*
X24900Y-45475D01*
X22400Y-54025D02*
X22400Y-51325D01*
G54D46*
X16900Y-47875D02*
X16900Y-49775D01*
G54D43*
X28400Y-48025D02*
X29500Y-48025D01*
X28400Y-49725D02*
X28400Y-48025D01*
X29500Y-48025D02*
X29500Y-48925D01*
G54D46*
X16900Y-46975D02*
X16900Y-47875D01*
G54D43*
X21400Y-59575D02*
X21100Y-59275D01*
G54D45*
X12900Y-55125D02*
X12900Y-59525D01*
G54D43*
X12400Y-54025D02*
X12400Y-54625D01*
X12400Y-54625D02*
X12900Y-55125D01*
X21400Y-61825D02*
X22400Y-61825D01*
X21400Y-61825D02*
X21400Y-59575D01*
X18400Y-54325D02*
X18900Y-54825D01*
G54D45*
X16400Y-61125D02*
X17200Y-60325D01*
X17200Y-60325D02*
X17200Y-58375D01*
X16400Y-61825D02*
X16400Y-61125D01*
G54D43*
X18400Y-54025D02*
X18400Y-54325D01*
G54D46*
X18900Y-54825D02*
X18900Y-58375D01*
G54D43*
X17400Y-55825D02*
X17400Y-54025D01*
G54D46*
X11900Y-52225D02*
X11900Y-54725D01*
G54D43*
X11400Y-55225D02*
X11400Y-55825D01*
X11900Y-54725D02*
X11400Y-55225D01*
X12400Y-51725D02*
X11900Y-52225D01*
X12400Y-48025D02*
X12400Y-51725D01*
X27850Y-59775D02*
X25950Y-59775D01*
X25400Y-59225D02*
X25400Y-58475D01*
X25950Y-59775D02*
X25400Y-59225D01*
X27850Y-60225D02*
X27850Y-59775D01*
X09850Y-59825D02*
X09850Y-60275D01*
X10200Y-60275D02*
X10550Y-60625D01*
X14775Y-19650D02*
X14775Y-20950D01*
X25900Y-34900D02*
X25900Y-35525D01*
X15900Y-39075D02*
X15900Y-38275D01*
G54D45*
X18525Y-63075D02*
X18525Y-63625D01*
G54D43*
X14775Y-20950D02*
X11300Y-24425D01*
X09850Y-60275D02*
X10200Y-60275D01*
X25575Y-34575D02*
X25900Y-34900D01*
X25575Y-34575D02*
X26350Y-34575D01*
X28600Y-34175D02*
X29250Y-33525D01*
X29250Y-33525D02*
X29250Y-32325D01*
X28300Y-34175D02*
X28600Y-34175D01*
X08950Y-24425D02*
X08650Y-24725D01*
X20950Y-37325D02*
X21250Y-37625D01*
G54D46*
X14900Y-61725D02*
X14900Y-59275D01*
G54D43*
X20950Y-35825D02*
X20950Y-38625D01*
X08950Y-23025D02*
X09500Y-22475D01*
X17400Y-51025D02*
X17400Y-49025D01*
X08950Y-24425D02*
X08950Y-23025D01*
X26100Y-46425D02*
X27900Y-46425D01*
X19950Y-59225D02*
X19950Y-58025D01*
X20400Y-57575D02*
X20400Y-55825D01*
X19950Y-58025D02*
X20400Y-57575D01*
X20950Y-39075D02*
X21000Y-39125D01*
X26750Y-34175D02*
X28300Y-34175D01*
X20950Y-38625D02*
X20950Y-39075D01*
X20950Y-39075D02*
X21000Y-39125D01*
X20250Y-39075D02*
X20950Y-39075D01*
X11850Y-35025D02*
X11850Y-35875D01*
X11300Y-38625D02*
X11350Y-38625D01*
X11300Y-37975D02*
X11300Y-38625D01*
X11500Y-37775D02*
X11300Y-37975D01*
X11550Y-37775D02*
X11500Y-37775D01*
X11850Y-37475D02*
X11550Y-37775D01*
X11850Y-35875D02*
X11850Y-37475D01*
G54D44*
X14775Y-20950D02*
X14775Y-19650D01*
X11300Y-24425D02*
X14775Y-20950D01*
X08950Y-24425D02*
X11300Y-24425D01*
X08650Y-24725D02*
X08950Y-24425D01*
X08650Y-25775D02*
X08650Y-24725D01*
X08650Y-25775D02*
X08650Y-27575D01*
X29250Y-31025D02*
X28750Y-30525D01*
X29250Y-32325D02*
X29250Y-31025D01*
G54D43*
X16750Y-37475D02*
X16950Y-37675D01*
X25650Y-45975D02*
X26100Y-46425D01*
X11300Y-24425D02*
X10750Y-24425D01*
X26350Y-34575D02*
X26750Y-34175D01*
X08850Y-49475D02*
X08850Y-48025D01*
X08850Y-48025D02*
X08800Y-47975D01*
X10750Y-24425D02*
X08950Y-24425D01*
X08800Y-48025D02*
X08000Y-48025D01*
X08000Y-48025D02*
X07650Y-48375D01*
X07650Y-48375D02*
X07650Y-49850D01*
X19400Y-53025D02*
X17400Y-51025D01*
X25850Y-40575D02*
X25850Y-38975D01*
X26500Y-37625D02*
X27000Y-37625D01*
X27000Y-37625D02*
X27150Y-37775D01*
X27150Y-37775D02*
X27150Y-38225D01*
X27150Y-38225D02*
X26400Y-38975D01*
X26400Y-38975D02*
X25850Y-38975D01*
X25850Y-38975D02*
X25000Y-38975D01*
X14600Y-63075D02*
X14600Y-63525D01*
X11350Y-63475D02*
X11350Y-63075D01*
X11500Y-63625D02*
X11350Y-63475D01*
G54D46*
X14500Y-63625D02*
X14475Y-63625D01*
X14475Y-63625D02*
X11500Y-63625D01*
G54D43*
X14600Y-63525D02*
X14500Y-63625D01*
X09500Y-21075D02*
X09700Y-20875D01*
X09850Y-50025D02*
X09300Y-49475D01*
X09300Y-49475D02*
X08850Y-49475D01*
X11350Y-63075D02*
X10950Y-63075D01*
X10950Y-63075D02*
X10550Y-62675D01*
X10550Y-62675D02*
X10550Y-60625D01*
G54D46*
X14900Y-62525D02*
X14900Y-61725D01*
G54D43*
X10800Y-60625D02*
X10550Y-60625D01*
X09350Y-38325D02*
X09650Y-38625D01*
X09650Y-38625D02*
X11200Y-38625D01*
X11850Y-37475D02*
X11850Y-37425D01*
X09400Y-48025D02*
X09400Y-47025D01*
X09400Y-47025D02*
X08900Y-46525D01*
X08050Y-41925D02*
X08050Y-42625D01*
X08050Y-42625D02*
X08050Y-46125D01*
X08050Y-46125D02*
X08450Y-46525D01*
X08450Y-46525D02*
X08900Y-46525D01*
X11325Y-20425D02*
X11325Y-20150D01*
X09700Y-20325D02*
X09700Y-20875D01*
X10100Y-19925D02*
X09700Y-20325D01*
X11100Y-19925D02*
X10100Y-19925D01*
X11325Y-20150D02*
X11100Y-19925D01*
X09500Y-22475D02*
X09500Y-21075D01*
X25850Y-40575D02*
X25850Y-41275D01*
X08250Y-50875D02*
X08050Y-50875D01*
X07650Y-50475D02*
X07650Y-49850D01*
X08050Y-50875D02*
X07650Y-50475D01*
X07800Y-54725D02*
X07800Y-54375D01*
X07800Y-54375D02*
X08250Y-53925D01*
X08250Y-52425D02*
X08525Y-52150D01*
X26100Y-37625D02*
X26500Y-37625D01*
X21250Y-37625D02*
X21750Y-37625D01*
X20950Y-35825D02*
X20950Y-37325D01*
X25900Y-35525D02*
X25900Y-35825D01*
X19400Y-54025D02*
X19400Y-53025D01*
G54D46*
X13725Y-49725D02*
X13450Y-49725D01*
X12225Y-46525D02*
X11400Y-46525D01*
X12900Y-47200D02*
X12225Y-46525D01*
X12900Y-49175D02*
X12900Y-47200D01*
X13450Y-49725D02*
X12900Y-49175D01*
G54D43*
X09250Y-38325D02*
X09350Y-38325D01*
X11850Y-37475D02*
X11550Y-37775D01*
X08250Y-50875D02*
X08250Y-51875D01*
X08250Y-51875D02*
X08525Y-52150D01*
X08250Y-53925D02*
X08250Y-52425D01*
X14600Y-62825D02*
X14900Y-62525D01*
X14600Y-63075D02*
X14600Y-62825D01*
X11350Y-38625D02*
X11200Y-38625D01*
X11350Y-38625D02*
X11350Y-38625D01*
X12450Y-39725D02*
X11350Y-38625D01*
X25900Y-35825D02*
X25900Y-37425D01*
X08750Y-38525D02*
X07800Y-38525D01*
X12450Y-37675D02*
X12100Y-37675D01*
X07800Y-38525D02*
X07750Y-38475D01*
X11850Y-37425D02*
X11850Y-35875D01*
X12100Y-37675D02*
X11850Y-37425D01*
X16750Y-35825D02*
X16750Y-35025D01*
G54D45*
X15900Y-40575D02*
X15900Y-39075D01*
X15650Y-40825D02*
X15900Y-40575D01*
X14600Y-40825D02*
X15650Y-40825D01*
X14150Y-41275D02*
X14600Y-40825D01*
G54D43*
X17400Y-49025D02*
X17400Y-48025D01*
X20400Y-55325D02*
X20400Y-55825D01*
X19400Y-54325D02*
X20400Y-55325D01*
X19400Y-54025D02*
X19400Y-54325D01*
X08950Y-38325D02*
X08750Y-38525D01*
X25900Y-37425D02*
X26100Y-37625D01*
X15900Y-38275D02*
X16750Y-37425D01*
X09250Y-38325D02*
X08950Y-38325D01*
X25400Y-55825D02*
X25400Y-58475D01*
X27750Y-52675D02*
X27400Y-53025D01*
X27400Y-53025D02*
X27400Y-54025D01*
X29750Y-52975D02*
X29450Y-52675D01*
X29750Y-54725D02*
X29750Y-52975D01*
X27900Y-49125D02*
X27900Y-52525D01*
X27900Y-52525D02*
X27750Y-52675D01*
G54D46*
X27900Y-46425D02*
X27900Y-49125D01*
G54D43*
X28275Y-45900D02*
X27900Y-46275D01*
X27900Y-46275D02*
X27900Y-46425D01*
X28275Y-45750D02*
X28275Y-45900D01*
X26050Y-41875D02*
X26700Y-41875D01*
X25850Y-41675D02*
X26050Y-41875D01*
X25850Y-41275D02*
X25850Y-41675D01*
G54D45*
X21475Y-63625D02*
X22025Y-63075D01*
X18525Y-63625D02*
X21475Y-63625D01*
X14475Y-63625D02*
X18525Y-63625D01*
G54D43*
X16950Y-37675D02*
X17400Y-37675D01*
X09400Y-48025D02*
X08800Y-48025D01*
X16750Y-35825D02*
X16750Y-37425D01*
X08800Y-47975D02*
X08800Y-48025D01*
X16750Y-37425D02*
X16750Y-37475D01*
G54D46*
X14100Y-46625D02*
X14400Y-46925D01*
X13150Y-46625D02*
X14100Y-46625D01*
X11400Y-45525D02*
X12050Y-45525D01*
X12050Y-45525D02*
X13150Y-46625D01*
X14400Y-46925D02*
X14400Y-48025D01*
G54D45*
X12000Y-51325D02*
X11475Y-51850D01*
X12000Y-50450D02*
X12000Y-51325D01*
X11400Y-49850D02*
X12000Y-50450D01*
X20025Y-63075D02*
X20025Y-62875D01*
X17575Y-52525D02*
X17900Y-52850D01*
X18900Y-62325D02*
X18900Y-61175D01*
X19250Y-62675D02*
X18900Y-62325D01*
X19825Y-62675D02*
X19250Y-62675D01*
X20025Y-62875D02*
X19825Y-62675D01*
X18900Y-60625D02*
X18900Y-61175D01*
X17900Y-56550D02*
X17900Y-56800D01*
X17900Y-57525D02*
X18375Y-58000D01*
X18375Y-60100D02*
X18900Y-60625D01*
X17900Y-56800D02*
X17900Y-57525D01*
X18375Y-58000D02*
X18375Y-60100D01*
X11400Y-48025D02*
X11400Y-49850D01*
X17900Y-52850D02*
X17900Y-56175D01*
X17900Y-56550D02*
X17900Y-56175D01*
G54D43*
X28600Y-60225D02*
X29500Y-60225D01*
X27850Y-60825D02*
X27850Y-60950D01*
X26450Y-62975D02*
X25100Y-62975D01*
X27125Y-62300D02*
X26450Y-62975D01*
X27125Y-61675D02*
X27125Y-62300D01*
X27850Y-60950D02*
X27125Y-61675D01*
X25100Y-62975D02*
X24750Y-62975D01*
X24400Y-62625D02*
X24400Y-61825D01*
X24750Y-62975D02*
X24400Y-62625D01*
X27850Y-60825D02*
X28600Y-60825D01*
X29500Y-58775D02*
X29500Y-59175D01*
X29100Y-58375D02*
X29500Y-58775D01*
X28850Y-58375D02*
X29100Y-58375D01*
X29750Y-56175D02*
X29550Y-56375D01*
X29550Y-56375D02*
X28850Y-56375D01*
X29750Y-55425D02*
X29750Y-56175D01*
X07875Y-60875D02*
X07700Y-60700D01*
X08275Y-60875D02*
X07875Y-60875D01*
X07700Y-57875D02*
X07700Y-60400D01*
X08850Y-57425D02*
X08150Y-57425D01*
X08150Y-57425D02*
X07700Y-57875D01*
X07700Y-60700D02*
X07700Y-60400D01*
X09850Y-59375D02*
X09150Y-59375D01*
X09850Y-59375D02*
X10350Y-59375D01*
X10350Y-59375D02*
X10650Y-59675D01*
X08800Y-54725D02*
X09000Y-54925D01*
X09150Y-54925D02*
X09700Y-55475D01*
X08400Y-54725D02*
X08800Y-54725D01*
X24350Y-58925D02*
X24400Y-58875D01*
X24400Y-58875D02*
X24400Y-55825D01*
X09000Y-54925D02*
X09150Y-54925D01*
G54D46*
X21900Y-54900D02*
X21900Y-58875D01*
G54D45*
X21925Y-54900D02*
X21900Y-54900D01*
G54D43*
X09150Y-60275D02*
X09175Y-60250D01*
X08275Y-60275D02*
X09150Y-60275D01*
X08900Y-45525D02*
X09400Y-45525D01*
X15450Y-53975D02*
X15400Y-54025D01*
X15450Y-52275D02*
X15450Y-50125D01*
G54D46*
X09900Y-46025D02*
X09900Y-49275D01*
G54D43*
X09400Y-45525D02*
X09900Y-46025D01*
X15450Y-52275D02*
X15450Y-53975D01*
X14900Y-49575D02*
X14900Y-49275D01*
X15450Y-50125D02*
X14900Y-49575D01*
X16400Y-49375D02*
X15900Y-48875D01*
X16400Y-54025D02*
X16400Y-49375D01*
G54D46*
X15900Y-45050D02*
X13750Y-42900D01*
X10175Y-43525D02*
X10800Y-42900D01*
X10800Y-42900D02*
X11775Y-42900D01*
X08900Y-43525D02*
X10175Y-43525D01*
X15900Y-48875D02*
X15900Y-47375D01*
X15900Y-47225D02*
X15900Y-45050D01*
X13750Y-42900D02*
X11775Y-42900D01*
G54D43*
X15900Y-47375D02*
X15900Y-47225D01*
X08500Y-55525D02*
X08400Y-55425D01*
X09000Y-55525D02*
X08500Y-55525D01*
X08275Y-59825D02*
X09175Y-59825D01*
X29225Y-44750D02*
X28275Y-44750D01*
X29500Y-45025D02*
X29225Y-44750D01*
X28850Y-43425D02*
X28275Y-44000D01*
X28275Y-44000D02*
X28275Y-44750D01*
X29500Y-47425D02*
X29500Y-45025D01*
X28900Y-40875D02*
X28900Y-39825D01*
X27250Y-38875D02*
X26500Y-39625D01*
G54D46*
X21900Y-47325D02*
X21900Y-50175D01*
G54D43*
X21900Y-47325D02*
X21900Y-45625D01*
X14300Y-50225D02*
X14400Y-50325D01*
X27550Y-38875D02*
X27250Y-38875D01*
X26500Y-39625D02*
X26500Y-40275D01*
X28300Y-37175D02*
X27550Y-37925D01*
X27550Y-37925D02*
X27550Y-38875D01*
X14400Y-50325D02*
X14400Y-54025D01*
X29925Y-57700D02*
X29600Y-57375D01*
X29925Y-60600D02*
X29925Y-57700D01*
X29500Y-60825D02*
X29700Y-60825D01*
X29700Y-60825D02*
X29925Y-60600D01*
X29600Y-57375D02*
X28850Y-57375D01*
X27850Y-59175D02*
X26600Y-59175D01*
X26600Y-59175D02*
X26500Y-59275D01*
X28600Y-59175D02*
X27850Y-59175D01*
X27450Y-57375D02*
X27600Y-57225D01*
X26550Y-57375D02*
X27450Y-57375D01*
X26400Y-57225D02*
X26550Y-57375D01*
X28950Y-54925D02*
X29150Y-54725D01*
X26400Y-55825D02*
X26400Y-57225D01*
X27900Y-54925D02*
X28400Y-54925D01*
X28400Y-54925D02*
X28950Y-54925D01*
X27600Y-57225D02*
X27600Y-55225D01*
X27600Y-55225D02*
X27900Y-54925D01*
X28400Y-55525D02*
X29050Y-55525D01*
X29050Y-55525D02*
X29150Y-55425D01*
X28600Y-59775D02*
X29500Y-59775D01*
X08250Y-50175D02*
X08250Y-49475D01*
X14950Y-43050D02*
X16400Y-44500D01*
X16400Y-44500D02*
X16400Y-48025D01*
X14925Y-41475D02*
X14950Y-41500D01*
X14950Y-41500D02*
X14950Y-43050D01*
X28300Y-36175D02*
X28950Y-36175D01*
X29200Y-38525D02*
X28900Y-38825D01*
X29200Y-36425D02*
X29200Y-38525D01*
X28950Y-36175D02*
X29200Y-36425D01*
X22350Y-50225D02*
X22350Y-50525D01*
G54D46*
X22900Y-46475D02*
X22900Y-48875D01*
G54D43*
X22900Y-48875D02*
X22350Y-49425D01*
X22350Y-50525D02*
X21550Y-51325D01*
X28900Y-38825D02*
X28850Y-38825D01*
X28850Y-38825D02*
X28250Y-39425D01*
X13400Y-51325D02*
X13400Y-54025D01*
X28250Y-39425D02*
X28250Y-40775D01*
X22350Y-49425D02*
X22350Y-50225D01*
X27550Y-40875D02*
X27550Y-39875D01*
G54D45*
X15900Y-62450D02*
X16525Y-63075D01*
X15900Y-60950D02*
X15900Y-62450D01*
X16550Y-60300D02*
X15900Y-60950D01*
X16550Y-58400D02*
X16550Y-60300D01*
X10675Y-56950D02*
X10675Y-55275D01*
X10675Y-55275D02*
X11400Y-54550D01*
G54D43*
X11400Y-54025D02*
X11400Y-54425D01*
G54D45*
X11400Y-54550D02*
X11400Y-54025D01*
X10800Y-57075D02*
X10675Y-56950D01*
G54D43*
X11400Y-54425D02*
X11400Y-54025D01*
X11400Y-43525D02*
X12525Y-43525D01*
X14900Y-45900D02*
X14900Y-47400D01*
G54D45*
X14900Y-47400D02*
X14900Y-48550D01*
X14900Y-48550D02*
X14625Y-48825D01*
X14625Y-48825D02*
X13575Y-48825D01*
X13575Y-48825D02*
X13400Y-48650D01*
X13400Y-48650D02*
X13400Y-48025D01*
G54D43*
X12525Y-43525D02*
X14900Y-45900D01*
X08850Y-58425D02*
X08700Y-58425D01*
X08700Y-58425D02*
X08450Y-58675D01*
X08450Y-58675D02*
X08450Y-59375D01*
X08000Y-56425D02*
X08850Y-56425D01*
X07800Y-56225D02*
X08000Y-56425D01*
X07800Y-55425D02*
X07800Y-56225D01*
X09850Y-60875D02*
X09850Y-61050D01*
X09850Y-61050D02*
X10000Y-61200D01*
X09850Y-61050D02*
X10000Y-61200D01*
X09175Y-60850D02*
X09825Y-60850D01*
X09825Y-60850D02*
X09850Y-60875D01*
X14800Y-38375D02*
X14550Y-38625D01*
X14550Y-38625D02*
X14150Y-38625D01*
X15300Y-37175D02*
X15050Y-37175D01*
X14800Y-37425D02*
X14800Y-38375D01*
X15050Y-37175D02*
X14800Y-37425D01*
X14150Y-38625D02*
X14150Y-38275D01*
X17400Y-35875D02*
X17350Y-35825D01*
X17400Y-36675D02*
X17400Y-35875D01*
X15700Y-37675D02*
X15300Y-37675D01*
X15900Y-37475D02*
X15700Y-37675D01*
X15900Y-35825D02*
X15900Y-37475D01*
X17400Y-38725D02*
X17350Y-38775D01*
X15550Y-34925D02*
X16050Y-34925D01*
X17400Y-38175D02*
X17400Y-38725D01*
X15550Y-34925D02*
X15200Y-34925D01*
X26950Y-37125D02*
X26500Y-37125D01*
X27150Y-35075D02*
X27350Y-35275D01*
X26650Y-35075D02*
X27150Y-35075D01*
X27350Y-35275D02*
X27350Y-36725D01*
X23350Y-43375D02*
X23350Y-43825D01*
X23350Y-43825D02*
X23000Y-44175D01*
X27350Y-36725D02*
X26950Y-37125D01*
X17750Y-37175D02*
X18000Y-37425D01*
X17750Y-37175D02*
X18000Y-37425D01*
X18000Y-37425D02*
X18000Y-38875D01*
X17400Y-37175D02*
X17750Y-37175D01*
X18000Y-39025D02*
X17300Y-39725D01*
X18000Y-38875D02*
X18000Y-39025D01*
X11350Y-40325D02*
X10700Y-40325D01*
X13000Y-40325D02*
X11350Y-40325D01*
X10700Y-40325D02*
X10550Y-40175D01*
X10550Y-40175D02*
X10550Y-39825D01*
X16150Y-19650D02*
X16150Y-22375D01*
X11975Y-32050D02*
X11975Y-31500D01*
X10975Y-33000D02*
X11375Y-32600D01*
X10975Y-33050D02*
X11200Y-32825D01*
X11975Y-32050D02*
X11975Y-31500D01*
X10000Y-35825D02*
X09750Y-36075D01*
X10350Y-35825D02*
X10000Y-35825D01*
X10350Y-36675D02*
X10350Y-35825D01*
G54D44*
X11975Y-32050D02*
X11975Y-31500D01*
X10975Y-33050D02*
X11975Y-32050D01*
X10975Y-33700D02*
X10975Y-33050D01*
G54D43*
X10975Y-33050D02*
X11975Y-32050D01*
X10975Y-33050D02*
X10975Y-33000D01*
X09750Y-36075D02*
X10000Y-35825D01*
G54D44*
X16150Y-19650D02*
X16150Y-24050D01*
X11975Y-28225D02*
X11975Y-31500D01*
X16150Y-24050D02*
X11975Y-28225D01*
G54D43*
X11200Y-32825D02*
X11975Y-32050D01*
G54D44*
X16150Y-22375D02*
X16150Y-19650D01*
G54D43*
X12450Y-38725D02*
X12450Y-38175D01*
X10600Y-34925D02*
X10250Y-34925D01*
X10600Y-34925D02*
X11150Y-34925D01*
X10950Y-35825D02*
X10950Y-37475D01*
X10750Y-37675D02*
X10350Y-37675D01*
X10950Y-37475D02*
X10750Y-37675D01*
X10950Y-37475D02*
X10750Y-37675D01*
X10750Y-37675D02*
X10350Y-37675D01*
X09800Y-40525D02*
X09150Y-40525D01*
X09050Y-40425D02*
X09150Y-40525D01*
X09050Y-39825D02*
X09050Y-40425D01*
X10050Y-39825D02*
X10050Y-40275D01*
X08550Y-41125D02*
X08550Y-41925D01*
X10050Y-40275D02*
X09800Y-40525D01*
X09150Y-40525D02*
X08550Y-41125D01*
G54D46*
X09250Y-42625D02*
X10850Y-42625D01*
X09050Y-41925D02*
X09050Y-42425D01*
X09050Y-42425D02*
X09250Y-42625D01*
X10850Y-42625D02*
X11050Y-42425D01*
X11050Y-42425D02*
X11050Y-41925D01*
G54D43*
X12450Y-36675D02*
X12450Y-35875D01*
X13500Y-33075D02*
X13500Y-35275D01*
X14150Y-37675D02*
X14150Y-37325D01*
X14150Y-36675D02*
X13500Y-36025D01*
G54D47*
X14275Y-31500D02*
X14275Y-32300D01*
X14275Y-32300D02*
X13500Y-33075D01*
G54D43*
X14275Y-32300D02*
X13500Y-33075D01*
X14150Y-37325D02*
X14150Y-36675D01*
X13500Y-36025D02*
X13500Y-35275D01*
G54D47*
X14275Y-33700D02*
X14275Y-34900D01*
X14275Y-34900D02*
X14250Y-34925D01*
G54D43*
X14275Y-34900D02*
X14250Y-34925D01*
X14250Y-34925D02*
X14600Y-34925D01*
X23400Y-37525D02*
X23400Y-37125D01*
X23400Y-37125D02*
X24400Y-37125D01*
G54D47*
X23075Y-33700D02*
X23075Y-34800D01*
X23075Y-34800D02*
X23250Y-34975D01*
G54D43*
X23250Y-34975D02*
X23600Y-34975D01*
X21750Y-38775D02*
X21750Y-38125D01*
X20100Y-34975D02*
X21850Y-34975D01*
X20100Y-34975D02*
X19750Y-34975D01*
X21850Y-38875D02*
X21750Y-38775D01*
G54D47*
X18675Y-32350D02*
X18425Y-32600D01*
G54D43*
X18675Y-32350D02*
X18425Y-32600D01*
X18700Y-38525D02*
X18700Y-38175D01*
X18700Y-38525D02*
X18700Y-39225D01*
X18425Y-32600D02*
X18000Y-33025D01*
X18000Y-33025D02*
X18000Y-36025D01*
G54D47*
X18675Y-31500D02*
X18675Y-32350D01*
G54D44*
X16275Y-27550D02*
X17550Y-26275D01*
X16275Y-32050D02*
X16275Y-31500D01*
X15275Y-33700D02*
X15275Y-33050D01*
X15275Y-33050D02*
X16275Y-32050D01*
X16275Y-32050D02*
X16275Y-31500D01*
G54D43*
X16275Y-32050D02*
X16275Y-31500D01*
X15275Y-33050D02*
X15650Y-32675D01*
X15550Y-32675D02*
X15650Y-32675D01*
X15650Y-32675D02*
X15550Y-32675D01*
X15650Y-32675D02*
X16275Y-32050D01*
X15300Y-35825D02*
X15300Y-36675D01*
X15650Y-32675D02*
X16275Y-32050D01*
X15275Y-33050D02*
X15650Y-32675D01*
X14650Y-36175D02*
X15000Y-35825D01*
X15000Y-35825D02*
X15300Y-35825D01*
X17550Y-26275D02*
X16275Y-27550D01*
X17550Y-19650D02*
X17550Y-26275D01*
X16275Y-32050D02*
X16275Y-31500D01*
G54D44*
X15275Y-33050D02*
X16275Y-32050D01*
X17550Y-26275D02*
X17550Y-19650D01*
X16275Y-31500D02*
X16275Y-27550D01*
G54D45*
X12450Y-37175D02*
X12850Y-37175D01*
G54D43*
X11650Y-40975D02*
X09850Y-40975D01*
X09850Y-40975D02*
X09550Y-41275D01*
X09550Y-41275D02*
X09550Y-41925D01*
X12075Y-40975D02*
X11650Y-40975D01*
G54D45*
X13000Y-39425D02*
X13500Y-39925D01*
X13000Y-37325D02*
X13000Y-38925D01*
X12850Y-37175D02*
X13000Y-37325D01*
X13500Y-40675D02*
X13200Y-40975D01*
X13500Y-39925D02*
X13500Y-40675D01*
X13000Y-39425D02*
X13500Y-39925D01*
X13000Y-38925D02*
X13000Y-39425D01*
X13200Y-40975D02*
X12075Y-40975D01*
G54D43*
X23500Y-39575D02*
X23350Y-39575D01*
X24350Y-40425D02*
X23500Y-39575D01*
X24350Y-41275D02*
X24350Y-40425D01*
X22150Y-37125D02*
X21750Y-37125D01*
X22350Y-37325D02*
X22150Y-37125D01*
X22350Y-38575D02*
X22350Y-37325D01*
X23350Y-39575D02*
X22350Y-38575D01*
X10350Y-37175D02*
X08350Y-37175D01*
X08350Y-37175D02*
X08250Y-37275D01*
X08250Y-36925D02*
X08250Y-37275D01*
X24850Y-41275D02*
X24850Y-39925D01*
X22850Y-40425D02*
X22850Y-41275D01*
X24850Y-42575D02*
X25350Y-42075D01*
X24850Y-43375D02*
X24850Y-44175D01*
X25350Y-42075D02*
X25350Y-41275D01*
X23850Y-44175D02*
X23850Y-43375D01*
X24850Y-43375D02*
X24850Y-42575D01*
X11300Y-21525D02*
X11300Y-21050D01*
X11300Y-21050D02*
X11325Y-21025D01*
X18800Y-37125D02*
X18700Y-37225D01*
X18700Y-37575D02*
X18700Y-37225D01*
X19650Y-37125D02*
X18800Y-37125D01*
G54D47*
X18675Y-33700D02*
X18675Y-34850D01*
X18800Y-34975D02*
X18800Y-33825D01*
X18675Y-34850D02*
X18800Y-34975D01*
X18800Y-33825D02*
X18675Y-33700D01*
G54D43*
X18800Y-34975D02*
X19150Y-34975D01*
X18800Y-33825D02*
X18675Y-33700D01*
X26500Y-38125D02*
X25950Y-38125D01*
X24550Y-34975D02*
X25150Y-34975D01*
X25950Y-38125D02*
X25400Y-37575D01*
X25150Y-34975D02*
X24550Y-34975D01*
X24550Y-34975D02*
X24200Y-34975D01*
X25400Y-37575D02*
X25400Y-35225D01*
X25400Y-35225D02*
X25150Y-34975D01*
G54D47*
X23075Y-31500D02*
X23075Y-32400D01*
G54D43*
X22650Y-38275D02*
X22650Y-36375D01*
X22800Y-38425D02*
X22650Y-38275D01*
X23400Y-38425D02*
X23400Y-38125D01*
X22300Y-36025D02*
X22650Y-36375D01*
X23400Y-38425D02*
X22800Y-38425D01*
G54D47*
X23075Y-32400D02*
X22950Y-32525D01*
G54D43*
X22950Y-32525D02*
X22300Y-33175D01*
X23075Y-32400D02*
X22950Y-32525D01*
X22300Y-33175D02*
X22300Y-36025D01*
X09300Y-34925D02*
X09650Y-34925D01*
G54D47*
X09300Y-34925D02*
X09300Y-34375D01*
X09300Y-34375D02*
X09975Y-33700D01*
X08975Y-31500D02*
X08250Y-32225D01*
X08250Y-32225D02*
X08250Y-35975D01*
G54D43*
X08250Y-35975D02*
X08250Y-36325D01*
G54D47*
X09975Y-31500D02*
X08975Y-31500D01*
G54D43*
X26500Y-36625D02*
X26500Y-35825D01*
G54D44*
X20675Y-32100D02*
X20675Y-31500D01*
X20100Y-32675D02*
X20675Y-32100D01*
X19675Y-33100D02*
X20100Y-32675D01*
G54D43*
X19200Y-35825D02*
X19650Y-35825D01*
G54D44*
X19675Y-33700D02*
X19675Y-33100D01*
G54D43*
X18950Y-36075D02*
X19200Y-35825D01*
X18925Y-23700D02*
X20675Y-25450D01*
X19675Y-33700D02*
X19675Y-33250D01*
X19675Y-33250D02*
X20675Y-32250D01*
X20675Y-32250D02*
X20675Y-31500D01*
X20675Y-32250D02*
X20675Y-31500D01*
X19675Y-33250D02*
X20675Y-32250D01*
X19650Y-36625D02*
X19650Y-35825D01*
X18925Y-19650D02*
X18925Y-23700D01*
G54D44*
X18925Y-23700D02*
X18925Y-19650D01*
X20675Y-25450D02*
X18925Y-23700D01*
X20675Y-31500D02*
X20675Y-25450D01*
G54D43*
X21750Y-36025D02*
X21550Y-35825D01*
X21750Y-36625D02*
X21750Y-36025D01*
X20050Y-37625D02*
X19650Y-37625D01*
X20250Y-37425D02*
X20050Y-37625D01*
X20250Y-35825D02*
X20250Y-37425D01*
G54D44*
X25075Y-31500D02*
X25075Y-32200D01*
X25075Y-32200D02*
X24075Y-33200D01*
X24075Y-33200D02*
X24075Y-33700D01*
X24075Y-33700D02*
X24075Y-33200D01*
X25075Y-31500D02*
X25125Y-31500D01*
X25125Y-31500D02*
X25900Y-30725D01*
X25900Y-30725D02*
X25900Y-28275D01*
X20300Y-21925D02*
X20300Y-19650D01*
G54D43*
X20300Y-21925D02*
X20300Y-19650D01*
X23750Y-36125D02*
X24050Y-35825D01*
X24050Y-35825D02*
X24400Y-35825D01*
X24075Y-33200D02*
X25075Y-32200D01*
X25075Y-32200D02*
X25075Y-31500D01*
X24075Y-33200D02*
X25075Y-32200D01*
X25075Y-31500D02*
X26225Y-31500D01*
G54D44*
X25900Y-28275D02*
X25900Y-26100D01*
G54D43*
X25125Y-31500D02*
X25900Y-30725D01*
G54D44*
X20300Y-23200D02*
X20300Y-19650D01*
X24950Y-25150D02*
X22250Y-25150D01*
X22250Y-25150D02*
X20300Y-23200D01*
X25900Y-26100D02*
X24950Y-25150D01*
G54D43*
X24400Y-35825D02*
X24400Y-36625D01*
X25000Y-35825D02*
X25000Y-37425D01*
X25000Y-37425D02*
X24800Y-37625D01*
X24800Y-37625D02*
X24400Y-37625D01*
G54D10*
G36*
X09977Y-51160D02*
X09909Y-51189D01*
X09839Y-51259D01*
X09801Y-51350D01*
X09801Y-51449D01*
X09801Y-52807D01*
X09280Y-53327D01*
X09089Y-53407D01*
X08935Y-53561D01*
X08851Y-53763D01*
X08851Y-53981D01*
X08851Y-54287D01*
X08896Y-54395D01*
X08800Y-54377D01*
X08743Y-54377D01*
X08736Y-54359D01*
X08666Y-54289D01*
X08575Y-54251D01*
X08476Y-54251D01*
X08226Y-54251D01*
X08134Y-54289D01*
X08064Y-54359D01*
X08026Y-54450D01*
X08026Y-54549D01*
X08026Y-54972D01*
X07975Y-54951D01*
X07876Y-54951D01*
X07626Y-54951D01*
X07600Y-54961D01*
X07600Y-49519D01*
X07876Y-49519D01*
X07876Y-49749D01*
X07902Y-49811D01*
X07902Y-49837D01*
X07876Y-49900D01*
X07876Y-49999D01*
X07876Y-50449D01*
X07914Y-50541D01*
X07984Y-50611D01*
X08075Y-50649D01*
X08174Y-50649D01*
X08424Y-50649D01*
X08476Y-50627D01*
X08476Y-50699D01*
X08476Y-51149D01*
X08514Y-51241D01*
X08584Y-51311D01*
X08675Y-51349D01*
X08774Y-51349D01*
X09024Y-51349D01*
X09116Y-51311D01*
X09186Y-51241D01*
X09224Y-51150D01*
X09224Y-51073D01*
X09700Y-51073D01*
X09750Y-51073D01*
X09977Y-51073D01*
X09977Y-51160D01*
X09977Y-51160D01*
G37*
G54D48*
X09977Y-51160D02*
X09909Y-51189D01*
X09839Y-51259D01*
X09801Y-51350D01*
X09801Y-51449D01*
X09801Y-52807D01*
X09280Y-53327D01*
X09089Y-53407D01*
X08935Y-53561D01*
X08851Y-53763D01*
X08851Y-53981D01*
X08851Y-54287D01*
X08896Y-54395D01*
X08800Y-54377D01*
X08743Y-54377D01*
X08736Y-54359D01*
X08666Y-54289D01*
X08575Y-54251D01*
X08476Y-54251D01*
X08226Y-54251D01*
X08134Y-54289D01*
X08064Y-54359D01*
X08026Y-54450D01*
X08026Y-54549D01*
X08026Y-54972D01*
X07975Y-54951D01*
X07876Y-54951D01*
X07626Y-54951D01*
X07600Y-54961D01*
X07600Y-49519D01*
X07876Y-49519D01*
X07876Y-49749D01*
X07902Y-49811D01*
X07902Y-49837D01*
X07876Y-49900D01*
X07876Y-49999D01*
X07876Y-50449D01*
X07914Y-50541D01*
X07984Y-50611D01*
X08075Y-50649D01*
X08174Y-50649D01*
X08424Y-50649D01*
X08476Y-50627D01*
X08476Y-50699D01*
X08476Y-51149D01*
X08514Y-51241D01*
X08584Y-51311D01*
X08675Y-51349D01*
X08774Y-51349D01*
X09024Y-51349D01*
X09116Y-51311D01*
X09186Y-51241D01*
X09224Y-51150D01*
X09224Y-51073D01*
X09700Y-51073D01*
X09750Y-51073D01*
X09977Y-51073D01*
X09977Y-51160D01*
G54D10*
G36*
X10202Y-50377D02*
X09750Y-50377D01*
X09700Y-50377D01*
X09224Y-50377D01*
X09224Y-50351D01*
X09224Y-49901D01*
X09186Y-49809D01*
X09116Y-49739D01*
X09025Y-49701D01*
X08926Y-49701D01*
X08676Y-49701D01*
X08624Y-49722D01*
X08624Y-49651D01*
X08624Y-49519D01*
X09220Y-49519D01*
X09220Y-46951D01*
X07948Y-46951D01*
X07948Y-46575D01*
X07948Y-41119D01*
X08296Y-40771D01*
X08371Y-40659D01*
X08372Y-40658D01*
X08398Y-40525D01*
X08398Y-40298D01*
X08400Y-40299D01*
X08499Y-40299D01*
X08699Y-40299D01*
X08702Y-40297D01*
X08702Y-40425D01*
X08711Y-40471D01*
X08304Y-40879D01*
X08228Y-40991D01*
X08202Y-41125D01*
X08202Y-41647D01*
X08201Y-41650D01*
X08201Y-41749D01*
X08201Y-42199D01*
X08239Y-42291D01*
X08309Y-42361D01*
X08400Y-42399D01*
X08499Y-42399D01*
X08699Y-42399D01*
X08722Y-42389D01*
X08722Y-42425D01*
X08747Y-42551D01*
X08818Y-42657D01*
X09017Y-42856D01*
X09018Y-42857D01*
X09099Y-42911D01*
X09029Y-42882D01*
X08773Y-42882D01*
X08537Y-42980D01*
X08356Y-43160D01*
X08257Y-43396D01*
X08257Y-43652D01*
X08355Y-43888D01*
X08491Y-44025D01*
X08356Y-44160D01*
X08257Y-44396D01*
X08257Y-44652D01*
X08355Y-44888D01*
X08491Y-45025D01*
X08356Y-45160D01*
X08257Y-45396D01*
X08257Y-45652D01*
X08355Y-45888D01*
X08535Y-46069D01*
X08771Y-46168D01*
X09027Y-46168D01*
X09263Y-46070D01*
X09358Y-45975D01*
X09572Y-46189D01*
X09572Y-48889D01*
X09472Y-48989D01*
X09395Y-49174D01*
X09395Y-49375D01*
X09472Y-49561D01*
X09614Y-49703D01*
X09799Y-49780D01*
X10000Y-49780D01*
X10186Y-49703D01*
X10202Y-49687D01*
X10202Y-50377D01*
X10202Y-50377D01*
G37*
G54D48*
X10202Y-50377D02*
X09750Y-50377D01*
X09700Y-50377D01*
X09224Y-50377D01*
X09224Y-50351D01*
X09224Y-49901D01*
X09186Y-49809D01*
X09116Y-49739D01*
X09025Y-49701D01*
X08926Y-49701D01*
X08676Y-49701D01*
X08624Y-49722D01*
X08624Y-49651D01*
X08624Y-49519D01*
X09220Y-49519D01*
X09220Y-46951D01*
X07948Y-46951D01*
X07948Y-46575D01*
X07948Y-41119D01*
X08296Y-40771D01*
X08371Y-40659D01*
X08372Y-40658D01*
X08398Y-40525D01*
X08398Y-40298D01*
X08400Y-40299D01*
X08499Y-40299D01*
X08699Y-40299D01*
X08702Y-40297D01*
X08702Y-40425D01*
X08711Y-40471D01*
X08304Y-40879D01*
X08228Y-40991D01*
X08202Y-41125D01*
X08202Y-41647D01*
X08201Y-41650D01*
X08201Y-41749D01*
X08201Y-42199D01*
X08239Y-42291D01*
X08309Y-42361D01*
X08400Y-42399D01*
X08499Y-42399D01*
X08699Y-42399D01*
X08722Y-42389D01*
X08722Y-42425D01*
X08747Y-42551D01*
X08818Y-42657D01*
X09017Y-42856D01*
X09018Y-42857D01*
X09099Y-42911D01*
X09029Y-42882D01*
X08773Y-42882D01*
X08537Y-42980D01*
X08356Y-43160D01*
X08257Y-43396D01*
X08257Y-43652D01*
X08355Y-43888D01*
X08491Y-44025D01*
X08356Y-44160D01*
X08257Y-44396D01*
X08257Y-44652D01*
X08355Y-44888D01*
X08491Y-45025D01*
X08356Y-45160D01*
X08257Y-45396D01*
X08257Y-45652D01*
X08355Y-45888D01*
X08535Y-46069D01*
X08771Y-46168D01*
X09027Y-46168D01*
X09263Y-46070D01*
X09358Y-45975D01*
X09572Y-46189D01*
X09572Y-48889D01*
X09472Y-48989D01*
X09395Y-49174D01*
X09395Y-49375D01*
X09472Y-49561D01*
X09614Y-49703D01*
X09799Y-49780D01*
X10000Y-49780D01*
X10186Y-49703D01*
X10202Y-49687D01*
X10202Y-50377D01*
G54D10*
G36*
X12002Y-62472D02*
X11947Y-62472D01*
X11855Y-62510D01*
X11785Y-62580D01*
X11747Y-62671D01*
X11747Y-62770D01*
X11747Y-63478D01*
X11766Y-63525D01*
X10058Y-63525D01*
X10249Y-63065D01*
X10250Y-62339D01*
X09988Y-61705D01*
X10100Y-61705D01*
X10286Y-61628D01*
X10428Y-61486D01*
X10505Y-61301D01*
X10505Y-61100D01*
X10428Y-60914D01*
X10324Y-60810D01*
X10324Y-60701D01*
X10286Y-60609D01*
X10216Y-60539D01*
X10125Y-60501D01*
X10026Y-60501D01*
X09617Y-60501D01*
X09649Y-60425D01*
X09649Y-60326D01*
X09649Y-60076D01*
X09633Y-60037D01*
X09649Y-60000D01*
X09649Y-59901D01*
X09649Y-59723D01*
X09850Y-59723D01*
X10145Y-59723D01*
X10145Y-59775D01*
X10222Y-59961D01*
X10364Y-60103D01*
X10549Y-60180D01*
X10750Y-60180D01*
X10936Y-60103D01*
X11052Y-59987D01*
X11052Y-60287D01*
X11026Y-60350D01*
X11026Y-60449D01*
X11026Y-60899D01*
X11052Y-60961D01*
X11052Y-61126D01*
X11041Y-61126D01*
X10949Y-61164D01*
X10879Y-61234D01*
X10841Y-61325D01*
X10841Y-61424D01*
X10841Y-62324D01*
X10879Y-62416D01*
X10949Y-62486D01*
X11040Y-62524D01*
X11139Y-62524D01*
X11759Y-62524D01*
X11851Y-62486D01*
X11921Y-62416D01*
X11959Y-62325D01*
X11959Y-62313D01*
X12002Y-62356D01*
X12002Y-62472D01*
X12002Y-62472D01*
G37*
G54D48*
X12002Y-62472D02*
X11947Y-62472D01*
X11855Y-62510D01*
X11785Y-62580D01*
X11747Y-62671D01*
X11747Y-62770D01*
X11747Y-63478D01*
X11766Y-63525D01*
X10058Y-63525D01*
X10249Y-63065D01*
X10250Y-62339D01*
X09988Y-61705D01*
X10100Y-61705D01*
X10286Y-61628D01*
X10428Y-61486D01*
X10505Y-61301D01*
X10505Y-61100D01*
X10428Y-60914D01*
X10324Y-60810D01*
X10324Y-60701D01*
X10286Y-60609D01*
X10216Y-60539D01*
X10125Y-60501D01*
X10026Y-60501D01*
X09617Y-60501D01*
X09649Y-60425D01*
X09649Y-60326D01*
X09649Y-60076D01*
X09633Y-60037D01*
X09649Y-60000D01*
X09649Y-59901D01*
X09649Y-59723D01*
X09850Y-59723D01*
X10145Y-59723D01*
X10145Y-59775D01*
X10222Y-59961D01*
X10364Y-60103D01*
X10549Y-60180D01*
X10750Y-60180D01*
X10936Y-60103D01*
X11052Y-59987D01*
X11052Y-60287D01*
X11026Y-60350D01*
X11026Y-60449D01*
X11026Y-60899D01*
X11052Y-60961D01*
X11052Y-61126D01*
X11041Y-61126D01*
X10949Y-61164D01*
X10879Y-61234D01*
X10841Y-61325D01*
X10841Y-61424D01*
X10841Y-62324D01*
X10879Y-62416D01*
X10949Y-62486D01*
X11040Y-62524D01*
X11139Y-62524D01*
X11759Y-62524D01*
X11851Y-62486D01*
X11921Y-62416D01*
X11959Y-62325D01*
X11959Y-62313D01*
X12002Y-62356D01*
X12002Y-62472D01*
G54D10*
G36*
X12953Y-39830D02*
X12902Y-39830D01*
X12720Y-39905D01*
X12648Y-39977D01*
X11931Y-39977D01*
X11995Y-39824D01*
X11995Y-39627D01*
X11920Y-39445D01*
X11781Y-39306D01*
X11599Y-39230D01*
X11402Y-39230D01*
X11220Y-39305D01*
X11174Y-39351D01*
X11101Y-39351D01*
X10901Y-39351D01*
X10809Y-39389D01*
X10800Y-39398D01*
X10791Y-39389D01*
X10700Y-39351D01*
X10601Y-39351D01*
X10401Y-39351D01*
X10309Y-39389D01*
X10300Y-39398D01*
X10291Y-39389D01*
X10200Y-39351D01*
X10101Y-39351D01*
X09901Y-39351D01*
X09884Y-39357D01*
X09872Y-39292D01*
X09871Y-39291D01*
X09796Y-39179D01*
X09346Y-38729D01*
X09234Y-38653D01*
X09100Y-38627D01*
X08652Y-38627D01*
X08581Y-38556D01*
X08730Y-38495D01*
X08869Y-38356D01*
X08910Y-38256D01*
X09068Y-38099D01*
X09074Y-38099D01*
X09332Y-38099D01*
X09654Y-38421D01*
X09766Y-38496D01*
X09767Y-38497D01*
X09900Y-38523D01*
X10072Y-38523D01*
X10075Y-38524D01*
X10174Y-38524D01*
X10624Y-38524D01*
X10716Y-38486D01*
X10786Y-38416D01*
X10824Y-38325D01*
X10824Y-38226D01*
X10824Y-38026D01*
X10817Y-38009D01*
X10883Y-37997D01*
X10884Y-37997D01*
X10996Y-37921D01*
X11195Y-37722D01*
X11195Y-37721D01*
X11196Y-37721D01*
X11271Y-37609D01*
X11272Y-37608D01*
X11297Y-37476D01*
X11298Y-37475D01*
X11298Y-36162D01*
X11324Y-36100D01*
X11324Y-36001D01*
X11324Y-35551D01*
X11286Y-35459D01*
X11254Y-35427D01*
X11436Y-35353D01*
X11578Y-35211D01*
X11655Y-35026D01*
X11655Y-34825D01*
X11578Y-34639D01*
X11436Y-34497D01*
X11251Y-34420D01*
X11125Y-34420D01*
X11111Y-34384D01*
X11054Y-34327D01*
X11221Y-34294D01*
X11430Y-34155D01*
X11475Y-34087D01*
X11520Y-34155D01*
X11729Y-34294D01*
X11788Y-34305D01*
X12752Y-35269D01*
X12752Y-35475D01*
X12716Y-35439D01*
X12625Y-35401D01*
X12526Y-35401D01*
X12276Y-35401D01*
X12184Y-35439D01*
X12114Y-35509D01*
X12076Y-35600D01*
X12076Y-35699D01*
X12076Y-36149D01*
X12102Y-36211D01*
X12102Y-36356D01*
X12084Y-36364D01*
X12014Y-36434D01*
X11976Y-36525D01*
X11976Y-36624D01*
X11976Y-36824D01*
X12014Y-36916D01*
X12023Y-36925D01*
X12014Y-36934D01*
X11976Y-37025D01*
X11976Y-37124D01*
X11976Y-37324D01*
X12014Y-37416D01*
X12084Y-37486D01*
X12175Y-37524D01*
X12274Y-37524D01*
X12681Y-37524D01*
X12681Y-37826D01*
X12626Y-37826D01*
X12176Y-37826D01*
X12084Y-37864D01*
X12014Y-37934D01*
X11976Y-38025D01*
X11976Y-38124D01*
X11976Y-38324D01*
X12014Y-38416D01*
X12029Y-38431D01*
X12022Y-38439D01*
X11945Y-38624D01*
X11945Y-38825D01*
X12022Y-39011D01*
X12164Y-39153D01*
X12349Y-39230D01*
X12550Y-39230D01*
X12681Y-39175D01*
X12681Y-39420D01*
X12680Y-39425D01*
X12705Y-39547D01*
X12774Y-39651D01*
X12953Y-39830D01*
X12953Y-39830D01*
G37*
G54D48*
X12953Y-39830D02*
X12902Y-39830D01*
X12720Y-39905D01*
X12648Y-39977D01*
X11931Y-39977D01*
X11995Y-39824D01*
X11995Y-39627D01*
X11920Y-39445D01*
X11781Y-39306D01*
X11599Y-39230D01*
X11402Y-39230D01*
X11220Y-39305D01*
X11174Y-39351D01*
X11101Y-39351D01*
X10901Y-39351D01*
X10809Y-39389D01*
X10800Y-39398D01*
X10791Y-39389D01*
X10700Y-39351D01*
X10601Y-39351D01*
X10401Y-39351D01*
X10309Y-39389D01*
X10300Y-39398D01*
X10291Y-39389D01*
X10200Y-39351D01*
X10101Y-39351D01*
X09901Y-39351D01*
X09884Y-39357D01*
X09872Y-39292D01*
X09871Y-39291D01*
X09796Y-39179D01*
X09346Y-38729D01*
X09234Y-38653D01*
X09100Y-38627D01*
X08652Y-38627D01*
X08581Y-38556D01*
X08730Y-38495D01*
X08869Y-38356D01*
X08910Y-38256D01*
X09068Y-38099D01*
X09074Y-38099D01*
X09332Y-38099D01*
X09654Y-38421D01*
X09766Y-38496D01*
X09767Y-38497D01*
X09900Y-38523D01*
X10072Y-38523D01*
X10075Y-38524D01*
X10174Y-38524D01*
X10624Y-38524D01*
X10716Y-38486D01*
X10786Y-38416D01*
X10824Y-38325D01*
X10824Y-38226D01*
X10824Y-38026D01*
X10817Y-38009D01*
X10883Y-37997D01*
X10884Y-37997D01*
X10996Y-37921D01*
X11195Y-37722D01*
X11195Y-37721D01*
X11196Y-37721D01*
X11271Y-37609D01*
X11272Y-37608D01*
X11297Y-37476D01*
X11298Y-37475D01*
X11298Y-36162D01*
X11324Y-36100D01*
X11324Y-36001D01*
X11324Y-35551D01*
X11286Y-35459D01*
X11254Y-35427D01*
X11436Y-35353D01*
X11578Y-35211D01*
X11655Y-35026D01*
X11655Y-34825D01*
X11578Y-34639D01*
X11436Y-34497D01*
X11251Y-34420D01*
X11125Y-34420D01*
X11111Y-34384D01*
X11054Y-34327D01*
X11221Y-34294D01*
X11430Y-34155D01*
X11475Y-34087D01*
X11520Y-34155D01*
X11729Y-34294D01*
X11788Y-34305D01*
X12752Y-35269D01*
X12752Y-35475D01*
X12716Y-35439D01*
X12625Y-35401D01*
X12526Y-35401D01*
X12276Y-35401D01*
X12184Y-35439D01*
X12114Y-35509D01*
X12076Y-35600D01*
X12076Y-35699D01*
X12076Y-36149D01*
X12102Y-36211D01*
X12102Y-36356D01*
X12084Y-36364D01*
X12014Y-36434D01*
X11976Y-36525D01*
X11976Y-36624D01*
X11976Y-36824D01*
X12014Y-36916D01*
X12023Y-36925D01*
X12014Y-36934D01*
X11976Y-37025D01*
X11976Y-37124D01*
X11976Y-37324D01*
X12014Y-37416D01*
X12084Y-37486D01*
X12175Y-37524D01*
X12274Y-37524D01*
X12681Y-37524D01*
X12681Y-37826D01*
X12626Y-37826D01*
X12176Y-37826D01*
X12084Y-37864D01*
X12014Y-37934D01*
X11976Y-38025D01*
X11976Y-38124D01*
X11976Y-38324D01*
X12014Y-38416D01*
X12029Y-38431D01*
X12022Y-38439D01*
X11945Y-38624D01*
X11945Y-38825D01*
X12022Y-39011D01*
X12164Y-39153D01*
X12349Y-39230D01*
X12550Y-39230D01*
X12681Y-39175D01*
X12681Y-39420D01*
X12680Y-39425D01*
X12705Y-39547D01*
X12774Y-39651D01*
X12953Y-39830D01*
G54D10*
G36*
X14072Y-47424D02*
X13935Y-47561D01*
X13900Y-47645D01*
X13865Y-47561D01*
X13711Y-47407D01*
X13509Y-47323D01*
X13291Y-47323D01*
X13089Y-47407D01*
X12935Y-47561D01*
X12900Y-47645D01*
X12865Y-47561D01*
X12711Y-47407D01*
X12509Y-47323D01*
X12291Y-47323D01*
X12089Y-47407D01*
X11935Y-47561D01*
X11900Y-47645D01*
X11865Y-47561D01*
X11711Y-47407D01*
X11509Y-47323D01*
X11291Y-47323D01*
X11228Y-47349D01*
X11228Y-47125D01*
X11227Y-47124D01*
X11228Y-47124D01*
X11203Y-46999D01*
X11132Y-46893D01*
X11128Y-46890D01*
X10753Y-46514D01*
X10753Y-44853D01*
X10840Y-44853D01*
X10855Y-44888D01*
X10991Y-45025D01*
X10856Y-45160D01*
X10757Y-45396D01*
X10757Y-45652D01*
X10855Y-45888D01*
X11035Y-46069D01*
X11271Y-46168D01*
X11527Y-46168D01*
X11763Y-46070D01*
X11944Y-45890D01*
X11946Y-45884D01*
X12915Y-46853D01*
X12918Y-46857D01*
X13024Y-46928D01*
X13150Y-46953D01*
X13964Y-46953D01*
X14072Y-47061D01*
X14072Y-47424D01*
X14072Y-47424D01*
G37*
G54D48*
X14072Y-47424D02*
X13935Y-47561D01*
X13900Y-47645D01*
X13865Y-47561D01*
X13711Y-47407D01*
X13509Y-47323D01*
X13291Y-47323D01*
X13089Y-47407D01*
X12935Y-47561D01*
X12900Y-47645D01*
X12865Y-47561D01*
X12711Y-47407D01*
X12509Y-47323D01*
X12291Y-47323D01*
X12089Y-47407D01*
X11935Y-47561D01*
X11900Y-47645D01*
X11865Y-47561D01*
X11711Y-47407D01*
X11509Y-47323D01*
X11291Y-47323D01*
X11228Y-47349D01*
X11228Y-47125D01*
X11227Y-47124D01*
X11228Y-47124D01*
X11203Y-46999D01*
X11132Y-46893D01*
X11128Y-46890D01*
X10753Y-46514D01*
X10753Y-44853D01*
X10840Y-44853D01*
X10855Y-44888D01*
X10991Y-45025D01*
X10856Y-45160D01*
X10757Y-45396D01*
X10757Y-45652D01*
X10855Y-45888D01*
X11035Y-46069D01*
X11271Y-46168D01*
X11527Y-46168D01*
X11763Y-46070D01*
X11944Y-45890D01*
X11946Y-45884D01*
X12915Y-46853D01*
X12918Y-46857D01*
X13024Y-46928D01*
X13150Y-46953D01*
X13964Y-46953D01*
X14072Y-47061D01*
X14072Y-47424D01*
G54D10*
G36*
X15102Y-53401D02*
X15089Y-53407D01*
X14935Y-53561D01*
X14900Y-53645D01*
X14865Y-53561D01*
X14748Y-53444D01*
X14748Y-50462D01*
X14805Y-50326D01*
X14805Y-50125D01*
X14728Y-49939D01*
X14586Y-49797D01*
X14401Y-49720D01*
X14200Y-49720D01*
X14014Y-49797D01*
X13872Y-49939D01*
X13795Y-50124D01*
X13795Y-50325D01*
X13872Y-50511D01*
X14014Y-50653D01*
X14052Y-50668D01*
X14052Y-51341D01*
X14001Y-51320D01*
X13905Y-51320D01*
X13905Y-51225D01*
X13828Y-51039D01*
X13686Y-50897D01*
X13501Y-50820D01*
X13300Y-50820D01*
X13114Y-50897D01*
X12972Y-51039D01*
X12895Y-51224D01*
X12895Y-51425D01*
X12972Y-51611D01*
X13052Y-51691D01*
X13052Y-53444D01*
X12935Y-53561D01*
X12900Y-53645D01*
X12865Y-53561D01*
X12711Y-53407D01*
X12509Y-53323D01*
X12291Y-53323D01*
X12228Y-53349D01*
X12228Y-52389D01*
X12646Y-51971D01*
X12722Y-51859D01*
X12722Y-51858D01*
X12748Y-51725D01*
X12748Y-48606D01*
X12865Y-48489D01*
X12900Y-48404D01*
X12935Y-48489D01*
X13081Y-48635D01*
X13081Y-48645D01*
X13080Y-48650D01*
X13105Y-48772D01*
X13174Y-48876D01*
X13347Y-49048D01*
X13349Y-49051D01*
X13410Y-49092D01*
X13452Y-49120D01*
X13453Y-49120D01*
X13575Y-49144D01*
X14418Y-49144D01*
X14405Y-49176D01*
X14405Y-49373D01*
X14480Y-49555D01*
X14564Y-49639D01*
X14578Y-49709D01*
X14654Y-49821D01*
X15102Y-50269D01*
X15102Y-52275D01*
X15102Y-53401D01*
X15102Y-53401D01*
G37*
G54D48*
X15102Y-53401D02*
X15089Y-53407D01*
X14935Y-53561D01*
X14900Y-53645D01*
X14865Y-53561D01*
X14748Y-53444D01*
X14748Y-50462D01*
X14805Y-50326D01*
X14805Y-50125D01*
X14728Y-49939D01*
X14586Y-49797D01*
X14401Y-49720D01*
X14200Y-49720D01*
X14014Y-49797D01*
X13872Y-49939D01*
X13795Y-50124D01*
X13795Y-50325D01*
X13872Y-50511D01*
X14014Y-50653D01*
X14052Y-50668D01*
X14052Y-51341D01*
X14001Y-51320D01*
X13905Y-51320D01*
X13905Y-51225D01*
X13828Y-51039D01*
X13686Y-50897D01*
X13501Y-50820D01*
X13300Y-50820D01*
X13114Y-50897D01*
X12972Y-51039D01*
X12895Y-51224D01*
X12895Y-51425D01*
X12972Y-51611D01*
X13052Y-51691D01*
X13052Y-53444D01*
X12935Y-53561D01*
X12900Y-53645D01*
X12865Y-53561D01*
X12711Y-53407D01*
X12509Y-53323D01*
X12291Y-53323D01*
X12228Y-53349D01*
X12228Y-52389D01*
X12646Y-51971D01*
X12722Y-51859D01*
X12722Y-51858D01*
X12748Y-51725D01*
X12748Y-48606D01*
X12865Y-48489D01*
X12900Y-48404D01*
X12935Y-48489D01*
X13081Y-48635D01*
X13081Y-48645D01*
X13080Y-48650D01*
X13105Y-48772D01*
X13174Y-48876D01*
X13347Y-49048D01*
X13349Y-49051D01*
X13410Y-49092D01*
X13452Y-49120D01*
X13453Y-49120D01*
X13575Y-49144D01*
X14418Y-49144D01*
X14405Y-49176D01*
X14405Y-49373D01*
X14480Y-49555D01*
X14564Y-49639D01*
X14578Y-49709D01*
X14654Y-49821D01*
X15102Y-50269D01*
X15102Y-52275D01*
X15102Y-53401D01*
G54D10*
G36*
X15572Y-57922D02*
X15552Y-58025D01*
X15552Y-59881D01*
X15154Y-60279D01*
X15078Y-60391D01*
X15052Y-60525D01*
X15052Y-61244D01*
X14935Y-61361D01*
X14900Y-61445D01*
X14865Y-61361D01*
X14719Y-61215D01*
X14719Y-60275D01*
X14695Y-60153D01*
X14694Y-60152D01*
X14626Y-60049D01*
X14623Y-60047D01*
X14394Y-59817D01*
X14394Y-57330D01*
X14500Y-57330D01*
X14686Y-57253D01*
X14828Y-57111D01*
X14905Y-56926D01*
X14905Y-56725D01*
X14828Y-56539D01*
X14721Y-56432D01*
X14865Y-56289D01*
X14900Y-56204D01*
X14935Y-56289D01*
X15089Y-56443D01*
X15291Y-56527D01*
X15509Y-56527D01*
X15572Y-56500D01*
X15572Y-57922D01*
X15572Y-57922D01*
G37*
G54D48*
X15572Y-57922D02*
X15552Y-58025D01*
X15552Y-59881D01*
X15154Y-60279D01*
X15078Y-60391D01*
X15052Y-60525D01*
X15052Y-61244D01*
X14935Y-61361D01*
X14900Y-61445D01*
X14865Y-61361D01*
X14719Y-61215D01*
X14719Y-60275D01*
X14695Y-60153D01*
X14694Y-60152D01*
X14626Y-60049D01*
X14623Y-60047D01*
X14394Y-59817D01*
X14394Y-57330D01*
X14500Y-57330D01*
X14686Y-57253D01*
X14828Y-57111D01*
X14905Y-56926D01*
X14905Y-56725D01*
X14828Y-56539D01*
X14721Y-56432D01*
X14865Y-56289D01*
X14900Y-56204D01*
X14935Y-56289D01*
X15089Y-56443D01*
X15291Y-56527D01*
X15509Y-56527D01*
X15572Y-56500D01*
X15572Y-57922D01*
G54D10*
G36*
X16122Y-63525D02*
X14183Y-63525D01*
X14203Y-63479D01*
X14203Y-63380D01*
X14203Y-62672D01*
X14165Y-62580D01*
X14095Y-62510D01*
X14004Y-62472D01*
X13905Y-62472D01*
X13748Y-62472D01*
X13748Y-62406D01*
X13865Y-62289D01*
X13900Y-62204D01*
X13935Y-62289D01*
X14089Y-62443D01*
X14291Y-62527D01*
X14509Y-62527D01*
X14711Y-62443D01*
X14865Y-62289D01*
X14900Y-62204D01*
X14935Y-62289D01*
X15089Y-62443D01*
X15291Y-62527D01*
X15509Y-62527D01*
X15588Y-62493D01*
X15589Y-62493D01*
X15605Y-62572D01*
X15674Y-62676D01*
X15930Y-62932D01*
X15922Y-62954D01*
X15922Y-63194D01*
X16013Y-63416D01*
X16122Y-63525D01*
X16122Y-63525D01*
G37*
G54D48*
X16122Y-63525D02*
X14183Y-63525D01*
X14203Y-63479D01*
X14203Y-63380D01*
X14203Y-62672D01*
X14165Y-62580D01*
X14095Y-62510D01*
X14004Y-62472D01*
X13905Y-62472D01*
X13748Y-62472D01*
X13748Y-62406D01*
X13865Y-62289D01*
X13900Y-62204D01*
X13935Y-62289D01*
X14089Y-62443D01*
X14291Y-62527D01*
X14509Y-62527D01*
X14711Y-62443D01*
X14865Y-62289D01*
X14900Y-62204D01*
X14935Y-62289D01*
X15089Y-62443D01*
X15291Y-62527D01*
X15509Y-62527D01*
X15588Y-62493D01*
X15589Y-62493D01*
X15605Y-62572D01*
X15674Y-62676D01*
X15930Y-62932D01*
X15922Y-62954D01*
X15922Y-63194D01*
X16013Y-63416D01*
X16122Y-63525D01*
G54D10*
G36*
X19622Y-63525D02*
X17928Y-63525D01*
X18036Y-63417D01*
X18128Y-63196D01*
X18128Y-62956D01*
X18118Y-62932D01*
X18123Y-62927D01*
X18125Y-62926D01*
X18126Y-62926D01*
X18167Y-62864D01*
X18195Y-62823D01*
X18195Y-62822D01*
X18219Y-62700D01*
X18219Y-62497D01*
X18291Y-62527D01*
X18509Y-62527D01*
X18625Y-62478D01*
X18674Y-62551D01*
X19022Y-62898D01*
X19024Y-62901D01*
X19127Y-62969D01*
X19128Y-62970D01*
X19225Y-62989D01*
X19249Y-62994D01*
X19249Y-62993D01*
X19250Y-62994D01*
X19422Y-62994D01*
X19422Y-63194D01*
X19513Y-63416D01*
X19622Y-63525D01*
X19622Y-63525D01*
G37*
G54D48*
X19622Y-63525D02*
X17928Y-63525D01*
X18036Y-63417D01*
X18128Y-63196D01*
X18128Y-62956D01*
X18118Y-62932D01*
X18123Y-62927D01*
X18125Y-62926D01*
X18126Y-62926D01*
X18167Y-62864D01*
X18195Y-62823D01*
X18195Y-62822D01*
X18219Y-62700D01*
X18219Y-62497D01*
X18291Y-62527D01*
X18509Y-62527D01*
X18625Y-62478D01*
X18674Y-62551D01*
X19022Y-62898D01*
X19024Y-62901D01*
X19127Y-62969D01*
X19128Y-62970D01*
X19225Y-62989D01*
X19249Y-62994D01*
X19249Y-62993D01*
X19250Y-62994D01*
X19422Y-62994D01*
X19422Y-63194D01*
X19513Y-63416D01*
X19622Y-63525D01*
G54D10*
G36*
X21572Y-58489D02*
X21472Y-58589D01*
X21395Y-58774D01*
X21395Y-58856D01*
X21386Y-58847D01*
X21201Y-58770D01*
X21000Y-58770D01*
X20814Y-58847D01*
X20748Y-58913D01*
X20748Y-58727D01*
X20819Y-58656D01*
X20895Y-58474D01*
X20895Y-58277D01*
X20820Y-58095D01*
X20681Y-57956D01*
X20499Y-57880D01*
X20302Y-57880D01*
X20120Y-57955D01*
X19981Y-58094D01*
X19905Y-58276D01*
X19905Y-58473D01*
X19980Y-58655D01*
X20052Y-58727D01*
X20052Y-60250D01*
X19619Y-59817D01*
X19619Y-59231D01*
X19719Y-59131D01*
X19795Y-58949D01*
X19795Y-58752D01*
X19720Y-58570D01*
X19581Y-58431D01*
X19405Y-58357D01*
X19405Y-58275D01*
X19328Y-58089D01*
X19228Y-57989D01*
X19228Y-56500D01*
X19291Y-56527D01*
X19509Y-56527D01*
X19711Y-56443D01*
X19865Y-56289D01*
X19949Y-56087D01*
X19949Y-55869D01*
X19949Y-55563D01*
X19865Y-55361D01*
X19711Y-55207D01*
X19509Y-55123D01*
X19291Y-55123D01*
X19228Y-55149D01*
X19228Y-54928D01*
X19248Y-54825D01*
X19222Y-54691D01*
X19146Y-54579D01*
X18921Y-54354D01*
X18949Y-54287D01*
X18949Y-54069D01*
X18949Y-53763D01*
X18865Y-53561D01*
X18711Y-53407D01*
X18509Y-53323D01*
X18291Y-53323D01*
X18219Y-53352D01*
X18219Y-52850D01*
X18195Y-52728D01*
X18194Y-52727D01*
X18126Y-52624D01*
X18123Y-52622D01*
X18080Y-52578D01*
X18080Y-52425D01*
X18003Y-52239D01*
X17861Y-52097D01*
X17676Y-52020D01*
X17475Y-52020D01*
X17289Y-52097D01*
X17147Y-52239D01*
X17070Y-52424D01*
X17070Y-52625D01*
X17147Y-52811D01*
X17289Y-52953D01*
X17474Y-53030D01*
X17581Y-53030D01*
X17581Y-53352D01*
X17509Y-53323D01*
X17291Y-53323D01*
X17089Y-53407D01*
X16935Y-53561D01*
X16900Y-53645D01*
X16865Y-53561D01*
X16748Y-53444D01*
X16748Y-50247D01*
X16801Y-50270D01*
X16998Y-50270D01*
X17180Y-50195D01*
X17319Y-50056D01*
X17395Y-49874D01*
X17395Y-49677D01*
X17320Y-49495D01*
X17228Y-49403D01*
X17228Y-47875D01*
X17228Y-47347D01*
X17319Y-47256D01*
X17344Y-47194D01*
X17372Y-47261D01*
X17514Y-47403D01*
X17699Y-47480D01*
X17813Y-47480D01*
X17922Y-47589D01*
X17915Y-47607D01*
X17864Y-47659D01*
X17826Y-47750D01*
X17826Y-47849D01*
X17826Y-48299D01*
X17864Y-48391D01*
X17915Y-48442D01*
X17935Y-48489D01*
X18052Y-48606D01*
X18052Y-50359D01*
X17972Y-50439D01*
X17895Y-50624D01*
X17895Y-50825D01*
X17972Y-51011D01*
X18114Y-51153D01*
X18299Y-51230D01*
X18413Y-51230D01*
X20052Y-52869D01*
X20052Y-53444D01*
X19935Y-53561D01*
X19915Y-53607D01*
X19864Y-53659D01*
X19826Y-53750D01*
X19826Y-53849D01*
X19826Y-54299D01*
X19864Y-54391D01*
X19915Y-54442D01*
X19935Y-54489D01*
X20089Y-54643D01*
X20291Y-54727D01*
X20509Y-54727D01*
X20558Y-54706D01*
X20578Y-54809D01*
X20654Y-54921D01*
X21014Y-55281D01*
X20935Y-55361D01*
X20851Y-55563D01*
X20851Y-55781D01*
X20851Y-56087D01*
X20935Y-56289D01*
X21089Y-56443D01*
X21291Y-56527D01*
X21509Y-56527D01*
X21572Y-56500D01*
X21572Y-58489D01*
X21572Y-58489D01*
G37*
G54D48*
X21572Y-58489D02*
X21472Y-58589D01*
X21395Y-58774D01*
X21395Y-58856D01*
X21386Y-58847D01*
X21201Y-58770D01*
X21000Y-58770D01*
X20814Y-58847D01*
X20748Y-58913D01*
X20748Y-58727D01*
X20819Y-58656D01*
X20895Y-58474D01*
X20895Y-58277D01*
X20820Y-58095D01*
X20681Y-57956D01*
X20499Y-57880D01*
X20302Y-57880D01*
X20120Y-57955D01*
X19981Y-58094D01*
X19905Y-58276D01*
X19905Y-58473D01*
X19980Y-58655D01*
X20052Y-58727D01*
X20052Y-60250D01*
X19619Y-59817D01*
X19619Y-59231D01*
X19719Y-59131D01*
X19795Y-58949D01*
X19795Y-58752D01*
X19720Y-58570D01*
X19581Y-58431D01*
X19405Y-58357D01*
X19405Y-58275D01*
X19328Y-58089D01*
X19228Y-57989D01*
X19228Y-56500D01*
X19291Y-56527D01*
X19509Y-56527D01*
X19711Y-56443D01*
X19865Y-56289D01*
X19949Y-56087D01*
X19949Y-55869D01*
X19949Y-55563D01*
X19865Y-55361D01*
X19711Y-55207D01*
X19509Y-55123D01*
X19291Y-55123D01*
X19228Y-55149D01*
X19228Y-54928D01*
X19248Y-54825D01*
X19222Y-54691D01*
X19146Y-54579D01*
X18921Y-54354D01*
X18949Y-54287D01*
X18949Y-54069D01*
X18949Y-53763D01*
X18865Y-53561D01*
X18711Y-53407D01*
X18509Y-53323D01*
X18291Y-53323D01*
X18219Y-53352D01*
X18219Y-52850D01*
X18195Y-52728D01*
X18194Y-52727D01*
X18126Y-52624D01*
X18123Y-52622D01*
X18080Y-52578D01*
X18080Y-52425D01*
X18003Y-52239D01*
X17861Y-52097D01*
X17676Y-52020D01*
X17475Y-52020D01*
X17289Y-52097D01*
X17147Y-52239D01*
X17070Y-52424D01*
X17070Y-52625D01*
X17147Y-52811D01*
X17289Y-52953D01*
X17474Y-53030D01*
X17581Y-53030D01*
X17581Y-53352D01*
X17509Y-53323D01*
X17291Y-53323D01*
X17089Y-53407D01*
X16935Y-53561D01*
X16900Y-53645D01*
X16865Y-53561D01*
X16748Y-53444D01*
X16748Y-50247D01*
X16801Y-50270D01*
X16998Y-50270D01*
X17180Y-50195D01*
X17319Y-50056D01*
X17395Y-49874D01*
X17395Y-49677D01*
X17320Y-49495D01*
X17228Y-49403D01*
X17228Y-47875D01*
X17228Y-47347D01*
X17319Y-47256D01*
X17344Y-47194D01*
X17372Y-47261D01*
X17514Y-47403D01*
X17699Y-47480D01*
X17813Y-47480D01*
X17922Y-47589D01*
X17915Y-47607D01*
X17864Y-47659D01*
X17826Y-47750D01*
X17826Y-47849D01*
X17826Y-48299D01*
X17864Y-48391D01*
X17915Y-48442D01*
X17935Y-48489D01*
X18052Y-48606D01*
X18052Y-50359D01*
X17972Y-50439D01*
X17895Y-50624D01*
X17895Y-50825D01*
X17972Y-51011D01*
X18114Y-51153D01*
X18299Y-51230D01*
X18413Y-51230D01*
X20052Y-52869D01*
X20052Y-53444D01*
X19935Y-53561D01*
X19915Y-53607D01*
X19864Y-53659D01*
X19826Y-53750D01*
X19826Y-53849D01*
X19826Y-54299D01*
X19864Y-54391D01*
X19915Y-54442D01*
X19935Y-54489D01*
X20089Y-54643D01*
X20291Y-54727D01*
X20509Y-54727D01*
X20558Y-54706D01*
X20578Y-54809D01*
X20654Y-54921D01*
X21014Y-55281D01*
X20935Y-55361D01*
X20851Y-55563D01*
X20851Y-55781D01*
X20851Y-56087D01*
X20935Y-56289D01*
X21089Y-56443D01*
X21291Y-56527D01*
X21509Y-56527D01*
X21572Y-56500D01*
X21572Y-58489D01*
G54D10*
G36*
X24002Y-40801D02*
X24000Y-40801D01*
X23901Y-40801D01*
X23701Y-40801D01*
X23609Y-40839D01*
X23600Y-40848D01*
X23591Y-40839D01*
X23500Y-40801D01*
X23401Y-40801D01*
X23201Y-40801D01*
X23198Y-40802D01*
X23198Y-40791D01*
X23278Y-40711D01*
X23355Y-40526D01*
X23355Y-40325D01*
X23278Y-40139D01*
X23136Y-39997D01*
X22951Y-39920D01*
X22750Y-39920D01*
X22564Y-39997D01*
X22422Y-40139D01*
X22350Y-40311D01*
X22286Y-40247D01*
X22101Y-40170D01*
X21900Y-40170D01*
X21714Y-40247D01*
X21572Y-40389D01*
X21495Y-40574D01*
X21495Y-40775D01*
X21572Y-40961D01*
X21652Y-41041D01*
X21652Y-44075D01*
X21652Y-44775D01*
X21678Y-44909D01*
X21754Y-45021D01*
X21852Y-45120D01*
X21800Y-45120D01*
X21614Y-45197D01*
X21472Y-45339D01*
X21465Y-45355D01*
X21465Y-42828D01*
X21465Y-42474D01*
X21330Y-42147D01*
X21080Y-41896D01*
X20753Y-41760D01*
X20399Y-41760D01*
X20072Y-41895D01*
X19821Y-42145D01*
X19685Y-42472D01*
X19685Y-42826D01*
X19820Y-43153D01*
X20070Y-43404D01*
X20397Y-43540D01*
X20751Y-43540D01*
X21078Y-43405D01*
X21329Y-43155D01*
X21465Y-42828D01*
X21465Y-45355D01*
X21395Y-45524D01*
X21395Y-45725D01*
X21472Y-45911D01*
X21552Y-45991D01*
X21552Y-46582D01*
X21401Y-46520D01*
X21200Y-46520D01*
X21014Y-46597D01*
X20872Y-46739D01*
X20870Y-46742D01*
X20828Y-46639D01*
X20686Y-46497D01*
X20501Y-46420D01*
X20374Y-46420D01*
X20374Y-45259D01*
X20374Y-45041D01*
X20290Y-44839D01*
X20136Y-44685D01*
X19934Y-44601D01*
X19716Y-44601D01*
X19514Y-44685D01*
X19360Y-44839D01*
X19325Y-44923D01*
X19290Y-44839D01*
X19136Y-44685D01*
X18934Y-44601D01*
X18716Y-44601D01*
X18514Y-44685D01*
X18360Y-44839D01*
X18325Y-44923D01*
X18290Y-44839D01*
X18136Y-44685D01*
X17934Y-44601D01*
X17716Y-44601D01*
X17514Y-44685D01*
X17465Y-44734D01*
X17465Y-42828D01*
X17465Y-42474D01*
X17330Y-42147D01*
X17080Y-41896D01*
X16753Y-41760D01*
X16399Y-41760D01*
X16072Y-41895D01*
X15821Y-42145D01*
X15685Y-42472D01*
X15685Y-42826D01*
X15820Y-43153D01*
X16070Y-43404D01*
X16397Y-43540D01*
X16751Y-43540D01*
X17078Y-43405D01*
X17329Y-43155D01*
X17465Y-42828D01*
X17465Y-44734D01*
X17360Y-44839D01*
X17276Y-45041D01*
X17276Y-45259D01*
X17360Y-45461D01*
X17514Y-45615D01*
X17716Y-45699D01*
X17934Y-45699D01*
X18136Y-45615D01*
X18290Y-45461D01*
X18325Y-45376D01*
X18360Y-45461D01*
X18514Y-45615D01*
X18716Y-45699D01*
X18934Y-45699D01*
X19136Y-45615D01*
X19290Y-45461D01*
X19325Y-45376D01*
X19360Y-45461D01*
X19514Y-45615D01*
X19716Y-45699D01*
X19934Y-45699D01*
X20136Y-45615D01*
X20290Y-45461D01*
X20374Y-45259D01*
X20374Y-46420D01*
X20300Y-46420D01*
X20114Y-46497D01*
X19972Y-46639D01*
X19895Y-46824D01*
X19895Y-47025D01*
X19972Y-47211D01*
X20052Y-47291D01*
X20052Y-47444D01*
X19935Y-47561D01*
X19900Y-47645D01*
X19874Y-47582D01*
X19874Y-46259D01*
X19874Y-46041D01*
X19790Y-45839D01*
X19636Y-45685D01*
X19434Y-45601D01*
X19216Y-45601D01*
X19014Y-45685D01*
X18860Y-45839D01*
X18776Y-46041D01*
X18776Y-46259D01*
X18860Y-46461D01*
X19014Y-46615D01*
X19216Y-46699D01*
X19434Y-46699D01*
X19636Y-46615D01*
X19790Y-46461D01*
X19874Y-46259D01*
X19874Y-47582D01*
X19865Y-47561D01*
X19711Y-47407D01*
X19509Y-47323D01*
X19291Y-47323D01*
X19089Y-47407D01*
X18935Y-47561D01*
X18900Y-47645D01*
X18865Y-47561D01*
X18711Y-47407D01*
X18693Y-47399D01*
X18646Y-47329D01*
X18305Y-46988D01*
X18305Y-46875D01*
X18228Y-46689D01*
X18086Y-46547D01*
X17901Y-46470D01*
X17781Y-46470D01*
X17790Y-46461D01*
X17874Y-46259D01*
X17874Y-46041D01*
X17790Y-45839D01*
X17636Y-45685D01*
X17434Y-45601D01*
X17216Y-45601D01*
X17014Y-45685D01*
X16860Y-45839D01*
X16776Y-46041D01*
X16776Y-46259D01*
X16860Y-46461D01*
X16879Y-46480D01*
X16802Y-46480D01*
X16748Y-46502D01*
X16748Y-44500D01*
X16722Y-44367D01*
X16721Y-44366D01*
X16696Y-44329D01*
X16646Y-44254D01*
X16646Y-44253D01*
X15298Y-42905D01*
X15298Y-41816D01*
X15353Y-41761D01*
X15430Y-41576D01*
X15430Y-41375D01*
X15353Y-41189D01*
X15211Y-41047D01*
X15026Y-40970D01*
X14825Y-40970D01*
X14639Y-41047D01*
X14497Y-41189D01*
X14420Y-41374D01*
X14420Y-41575D01*
X14497Y-41761D01*
X14602Y-41866D01*
X14602Y-43050D01*
X14628Y-43184D01*
X14704Y-43296D01*
X16052Y-44644D01*
X16052Y-44738D01*
X13982Y-42668D01*
X13876Y-42597D01*
X13750Y-42572D01*
X11775Y-42572D01*
X11338Y-42572D01*
X11353Y-42551D01*
X11377Y-42429D01*
X11499Y-42480D01*
X11700Y-42480D01*
X11886Y-42403D01*
X12028Y-42261D01*
X12105Y-42076D01*
X12105Y-41875D01*
X12028Y-41689D01*
X11944Y-41605D01*
X11943Y-41604D01*
X11922Y-41492D01*
X11921Y-41491D01*
X11846Y-41379D01*
X11790Y-41323D01*
X12075Y-41323D01*
X12208Y-41297D01*
X12212Y-41294D01*
X13195Y-41294D01*
X13200Y-41295D01*
X13200Y-41294D01*
X13322Y-41270D01*
X13426Y-41201D01*
X13723Y-40902D01*
X13725Y-40901D01*
X13726Y-40901D01*
X13767Y-40839D01*
X13795Y-40798D01*
X13795Y-40797D01*
X13819Y-40675D01*
X13819Y-40095D01*
X14122Y-40398D01*
X14124Y-40401D01*
X14185Y-40442D01*
X14227Y-40470D01*
X14228Y-40470D01*
X14350Y-40494D01*
X14819Y-40494D01*
X14919Y-40594D01*
X15101Y-40670D01*
X15298Y-40670D01*
X15480Y-40595D01*
X15619Y-40456D01*
X15695Y-40274D01*
X15695Y-40077D01*
X15620Y-39895D01*
X15481Y-39756D01*
X15299Y-39680D01*
X15145Y-39680D01*
X15269Y-39556D01*
X15271Y-39549D01*
X15474Y-39549D01*
X15566Y-39511D01*
X15636Y-39441D01*
X15674Y-39350D01*
X15674Y-39251D01*
X15674Y-38801D01*
X15648Y-38738D01*
X15648Y-38493D01*
X15666Y-38486D01*
X15736Y-38416D01*
X15774Y-38325D01*
X15774Y-38226D01*
X15774Y-38026D01*
X15767Y-38009D01*
X15833Y-37997D01*
X15834Y-37997D01*
X15946Y-37921D01*
X16145Y-37722D01*
X16145Y-37721D01*
X16146Y-37721D01*
X16221Y-37609D01*
X16222Y-37608D01*
X16247Y-37476D01*
X16248Y-37475D01*
X16248Y-36162D01*
X16274Y-36100D01*
X16274Y-36001D01*
X16274Y-35551D01*
X16236Y-35459D01*
X16190Y-35413D01*
X16336Y-35353D01*
X16478Y-35211D01*
X16555Y-35026D01*
X16555Y-34825D01*
X16478Y-34639D01*
X16336Y-34497D01*
X16151Y-34420D01*
X16075Y-34420D01*
X16061Y-34384D01*
X15991Y-34314D01*
X15900Y-34276D01*
X15801Y-34276D01*
X15548Y-34276D01*
X15730Y-34155D01*
X15775Y-34087D01*
X15820Y-34155D01*
X16029Y-34294D01*
X16275Y-34343D01*
X16521Y-34294D01*
X16730Y-34155D01*
X17652Y-33232D01*
X17652Y-35425D01*
X17616Y-35389D01*
X17525Y-35351D01*
X17426Y-35351D01*
X17176Y-35351D01*
X17084Y-35389D01*
X17014Y-35459D01*
X16976Y-35550D01*
X16976Y-35649D01*
X16976Y-36099D01*
X17014Y-36191D01*
X17052Y-36229D01*
X17052Y-36356D01*
X17034Y-36364D01*
X16964Y-36434D01*
X16926Y-36525D01*
X16926Y-36624D01*
X16926Y-36824D01*
X16964Y-36916D01*
X16973Y-36925D01*
X16964Y-36934D01*
X16926Y-37025D01*
X16926Y-37124D01*
X16926Y-37324D01*
X16964Y-37416D01*
X17034Y-37486D01*
X17125Y-37524D01*
X17224Y-37524D01*
X17607Y-37524D01*
X17652Y-37569D01*
X17652Y-37826D01*
X17576Y-37826D01*
X17126Y-37826D01*
X17034Y-37864D01*
X16964Y-37934D01*
X16926Y-38025D01*
X16926Y-38124D01*
X16926Y-38324D01*
X16964Y-38416D01*
X16979Y-38431D01*
X16922Y-38489D01*
X16845Y-38674D01*
X16845Y-38875D01*
X16922Y-39061D01*
X17064Y-39203D01*
X17165Y-39245D01*
X17020Y-39305D01*
X16881Y-39444D01*
X16805Y-39626D01*
X16805Y-39823D01*
X16880Y-40005D01*
X17019Y-40144D01*
X17201Y-40220D01*
X17398Y-40220D01*
X17580Y-40145D01*
X17719Y-40006D01*
X17795Y-39824D01*
X17795Y-39722D01*
X18195Y-39322D01*
X18195Y-39325D01*
X18272Y-39511D01*
X18414Y-39653D01*
X18599Y-39730D01*
X18800Y-39730D01*
X18986Y-39653D01*
X19128Y-39511D01*
X19205Y-39326D01*
X19205Y-39125D01*
X19178Y-39061D01*
X19241Y-39036D01*
X19276Y-39001D01*
X19276Y-39349D01*
X19286Y-39374D01*
X19222Y-39439D01*
X19145Y-39624D01*
X19145Y-39825D01*
X19222Y-40011D01*
X19364Y-40153D01*
X19549Y-40230D01*
X19750Y-40230D01*
X19936Y-40153D01*
X20078Y-40011D01*
X20155Y-39826D01*
X20155Y-39625D01*
X20078Y-39439D01*
X20013Y-39374D01*
X20024Y-39350D01*
X20024Y-39251D01*
X20024Y-38801D01*
X19998Y-38738D01*
X19998Y-38443D01*
X20016Y-38436D01*
X20086Y-38366D01*
X20124Y-38275D01*
X20124Y-38176D01*
X20124Y-37976D01*
X20117Y-37959D01*
X20183Y-37947D01*
X20184Y-37947D01*
X20296Y-37871D01*
X20495Y-37672D01*
X20495Y-37671D01*
X20496Y-37671D01*
X20571Y-37559D01*
X20572Y-37558D01*
X20597Y-37426D01*
X20598Y-37425D01*
X20598Y-36162D01*
X20624Y-36100D01*
X20624Y-36001D01*
X20624Y-35551D01*
X20609Y-35517D01*
X20611Y-35516D01*
X20649Y-35425D01*
X20649Y-35326D01*
X20649Y-35323D01*
X21498Y-35323D01*
X21526Y-35351D01*
X21376Y-35351D01*
X21284Y-35389D01*
X21214Y-35459D01*
X21176Y-35550D01*
X21176Y-35649D01*
X21176Y-36099D01*
X21214Y-36191D01*
X21284Y-36261D01*
X21375Y-36299D01*
X21402Y-36299D01*
X21402Y-36306D01*
X21384Y-36314D01*
X21314Y-36384D01*
X21276Y-36475D01*
X21276Y-36574D01*
X21276Y-36774D01*
X21314Y-36866D01*
X21323Y-36875D01*
X21314Y-36884D01*
X21276Y-36975D01*
X21276Y-37074D01*
X21276Y-37274D01*
X21314Y-37366D01*
X21384Y-37436D01*
X21475Y-37474D01*
X21574Y-37474D01*
X22002Y-37474D01*
X22002Y-37776D01*
X21926Y-37776D01*
X21476Y-37776D01*
X21384Y-37814D01*
X21314Y-37884D01*
X21276Y-37975D01*
X21276Y-38074D01*
X21276Y-38274D01*
X21314Y-38366D01*
X21384Y-38436D01*
X21402Y-38443D01*
X21402Y-38637D01*
X21345Y-38774D01*
X21345Y-38975D01*
X21422Y-39161D01*
X21564Y-39303D01*
X21749Y-39380D01*
X21950Y-39380D01*
X22136Y-39303D01*
X22278Y-39161D01*
X22326Y-39043D01*
X23104Y-39821D01*
X23216Y-39897D01*
X23217Y-39897D01*
X23350Y-39923D01*
X23356Y-39923D01*
X24002Y-40569D01*
X24002Y-40801D01*
X24002Y-40801D01*
G37*
G54D48*
X24002Y-40801D02*
X24000Y-40801D01*
X23901Y-40801D01*
X23701Y-40801D01*
X23609Y-40839D01*
X23600Y-40848D01*
X23591Y-40839D01*
X23500Y-40801D01*
X23401Y-40801D01*
X23201Y-40801D01*
X23198Y-40802D01*
X23198Y-40791D01*
X23278Y-40711D01*
X23355Y-40526D01*
X23355Y-40325D01*
X23278Y-40139D01*
X23136Y-39997D01*
X22951Y-39920D01*
X22750Y-39920D01*
X22564Y-39997D01*
X22422Y-40139D01*
X22350Y-40311D01*
X22286Y-40247D01*
X22101Y-40170D01*
X21900Y-40170D01*
X21714Y-40247D01*
X21572Y-40389D01*
X21495Y-40574D01*
X21495Y-40775D01*
X21572Y-40961D01*
X21652Y-41041D01*
X21652Y-44075D01*
X21652Y-44775D01*
X21678Y-44909D01*
X21754Y-45021D01*
X21852Y-45120D01*
X21800Y-45120D01*
X21614Y-45197D01*
X21472Y-45339D01*
X21465Y-45355D01*
X21465Y-42828D01*
X21465Y-42474D01*
X21330Y-42147D01*
X21080Y-41896D01*
X20753Y-41760D01*
X20399Y-41760D01*
X20072Y-41895D01*
X19821Y-42145D01*
X19685Y-42472D01*
X19685Y-42826D01*
X19820Y-43153D01*
X20070Y-43404D01*
X20397Y-43540D01*
X20751Y-43540D01*
X21078Y-43405D01*
X21329Y-43155D01*
X21465Y-42828D01*
X21465Y-45355D01*
X21395Y-45524D01*
X21395Y-45725D01*
X21472Y-45911D01*
X21552Y-45991D01*
X21552Y-46582D01*
X21401Y-46520D01*
X21200Y-46520D01*
X21014Y-46597D01*
X20872Y-46739D01*
X20870Y-46742D01*
X20828Y-46639D01*
X20686Y-46497D01*
X20501Y-46420D01*
X20374Y-46420D01*
X20374Y-45259D01*
X20374Y-45041D01*
X20290Y-44839D01*
X20136Y-44685D01*
X19934Y-44601D01*
X19716Y-44601D01*
X19514Y-44685D01*
X19360Y-44839D01*
X19325Y-44923D01*
X19290Y-44839D01*
X19136Y-44685D01*
X18934Y-44601D01*
X18716Y-44601D01*
X18514Y-44685D01*
X18360Y-44839D01*
X18325Y-44923D01*
X18290Y-44839D01*
X18136Y-44685D01*
X17934Y-44601D01*
X17716Y-44601D01*
X17514Y-44685D01*
X17465Y-44734D01*
X17465Y-42828D01*
X17465Y-42474D01*
X17330Y-42147D01*
X17080Y-41896D01*
X16753Y-41760D01*
X16399Y-41760D01*
X16072Y-41895D01*
X15821Y-42145D01*
X15685Y-42472D01*
X15685Y-42826D01*
X15820Y-43153D01*
X16070Y-43404D01*
X16397Y-43540D01*
X16751Y-43540D01*
X17078Y-43405D01*
X17329Y-43155D01*
X17465Y-42828D01*
X17465Y-44734D01*
X17360Y-44839D01*
X17276Y-45041D01*
X17276Y-45259D01*
X17360Y-45461D01*
X17514Y-45615D01*
X17716Y-45699D01*
X17934Y-45699D01*
X18136Y-45615D01*
X18290Y-45461D01*
X18325Y-45376D01*
X18360Y-45461D01*
X18514Y-45615D01*
X18716Y-45699D01*
X18934Y-45699D01*
X19136Y-45615D01*
X19290Y-45461D01*
X19325Y-45376D01*
X19360Y-45461D01*
X19514Y-45615D01*
X19716Y-45699D01*
X19934Y-45699D01*
X20136Y-45615D01*
X20290Y-45461D01*
X20374Y-45259D01*
X20374Y-46420D01*
X20300Y-46420D01*
X20114Y-46497D01*
X19972Y-46639D01*
X19895Y-46824D01*
X19895Y-47025D01*
X19972Y-47211D01*
X20052Y-47291D01*
X20052Y-47444D01*
X19935Y-47561D01*
X19900Y-47645D01*
X19874Y-47582D01*
X19874Y-46259D01*
X19874Y-46041D01*
X19790Y-45839D01*
X19636Y-45685D01*
X19434Y-45601D01*
X19216Y-45601D01*
X19014Y-45685D01*
X18860Y-45839D01*
X18776Y-46041D01*
X18776Y-46259D01*
X18860Y-46461D01*
X19014Y-46615D01*
X19216Y-46699D01*
X19434Y-46699D01*
X19636Y-46615D01*
X19790Y-46461D01*
X19874Y-46259D01*
X19874Y-47582D01*
X19865Y-47561D01*
X19711Y-47407D01*
X19509Y-47323D01*
X19291Y-47323D01*
X19089Y-47407D01*
X18935Y-47561D01*
X18900Y-47645D01*
X18865Y-47561D01*
X18711Y-47407D01*
X18693Y-47399D01*
X18646Y-47329D01*
X18305Y-46988D01*
X18305Y-46875D01*
X18228Y-46689D01*
X18086Y-46547D01*
X17901Y-46470D01*
X17781Y-46470D01*
X17790Y-46461D01*
X17874Y-46259D01*
X17874Y-46041D01*
X17790Y-45839D01*
X17636Y-45685D01*
X17434Y-45601D01*
X17216Y-45601D01*
X17014Y-45685D01*
X16860Y-45839D01*
X16776Y-46041D01*
X16776Y-46259D01*
X16860Y-46461D01*
X16879Y-46480D01*
X16802Y-46480D01*
X16748Y-46502D01*
X16748Y-44500D01*
X16722Y-44367D01*
X16721Y-44366D01*
X16696Y-44329D01*
X16646Y-44254D01*
X16646Y-44253D01*
X15298Y-42905D01*
X15298Y-41816D01*
X15353Y-41761D01*
X15430Y-41576D01*
X15430Y-41375D01*
X15353Y-41189D01*
X15211Y-41047D01*
X15026Y-40970D01*
X14825Y-40970D01*
X14639Y-41047D01*
X14497Y-41189D01*
X14420Y-41374D01*
X14420Y-41575D01*
X14497Y-41761D01*
X14602Y-41866D01*
X14602Y-43050D01*
X14628Y-43184D01*
X14704Y-43296D01*
X16052Y-44644D01*
X16052Y-44738D01*
X13982Y-42668D01*
X13876Y-42597D01*
X13750Y-42572D01*
X11775Y-42572D01*
X11338Y-42572D01*
X11353Y-42551D01*
X11377Y-42429D01*
X11499Y-42480D01*
X11700Y-42480D01*
X11886Y-42403D01*
X12028Y-42261D01*
X12105Y-42076D01*
X12105Y-41875D01*
X12028Y-41689D01*
X11944Y-41605D01*
X11943Y-41604D01*
X11922Y-41492D01*
X11921Y-41491D01*
X11846Y-41379D01*
X11790Y-41323D01*
X12075Y-41323D01*
X12208Y-41297D01*
X12212Y-41294D01*
X13195Y-41294D01*
X13200Y-41295D01*
X13200Y-41294D01*
X13322Y-41270D01*
X13426Y-41201D01*
X13723Y-40902D01*
X13725Y-40901D01*
X13726Y-40901D01*
X13767Y-40839D01*
X13795Y-40798D01*
X13795Y-40797D01*
X13819Y-40675D01*
X13819Y-40095D01*
X14122Y-40398D01*
X14124Y-40401D01*
X14185Y-40442D01*
X14227Y-40470D01*
X14228Y-40470D01*
X14350Y-40494D01*
X14819Y-40494D01*
X14919Y-40594D01*
X15101Y-40670D01*
X15298Y-40670D01*
X15480Y-40595D01*
X15619Y-40456D01*
X15695Y-40274D01*
X15695Y-40077D01*
X15620Y-39895D01*
X15481Y-39756D01*
X15299Y-39680D01*
X15145Y-39680D01*
X15269Y-39556D01*
X15271Y-39549D01*
X15474Y-39549D01*
X15566Y-39511D01*
X15636Y-39441D01*
X15674Y-39350D01*
X15674Y-39251D01*
X15674Y-38801D01*
X15648Y-38738D01*
X15648Y-38493D01*
X15666Y-38486D01*
X15736Y-38416D01*
X15774Y-38325D01*
X15774Y-38226D01*
X15774Y-38026D01*
X15767Y-38009D01*
X15833Y-37997D01*
X15834Y-37997D01*
X15946Y-37921D01*
X16145Y-37722D01*
X16145Y-37721D01*
X16146Y-37721D01*
X16221Y-37609D01*
X16222Y-37608D01*
X16247Y-37476D01*
X16248Y-37475D01*
X16248Y-36162D01*
X16274Y-36100D01*
X16274Y-36001D01*
X16274Y-35551D01*
X16236Y-35459D01*
X16190Y-35413D01*
X16336Y-35353D01*
X16478Y-35211D01*
X16555Y-35026D01*
X16555Y-34825D01*
X16478Y-34639D01*
X16336Y-34497D01*
X16151Y-34420D01*
X16075Y-34420D01*
X16061Y-34384D01*
X15991Y-34314D01*
X15900Y-34276D01*
X15801Y-34276D01*
X15548Y-34276D01*
X15730Y-34155D01*
X15775Y-34087D01*
X15820Y-34155D01*
X16029Y-34294D01*
X16275Y-34343D01*
X16521Y-34294D01*
X16730Y-34155D01*
X17652Y-33232D01*
X17652Y-35425D01*
X17616Y-35389D01*
X17525Y-35351D01*
X17426Y-35351D01*
X17176Y-35351D01*
X17084Y-35389D01*
X17014Y-35459D01*
X16976Y-35550D01*
X16976Y-35649D01*
X16976Y-36099D01*
X17014Y-36191D01*
X17052Y-36229D01*
X17052Y-36356D01*
X17034Y-36364D01*
X16964Y-36434D01*
X16926Y-36525D01*
X16926Y-36624D01*
X16926Y-36824D01*
X16964Y-36916D01*
X16973Y-36925D01*
X16964Y-36934D01*
X16926Y-37025D01*
X16926Y-37124D01*
X16926Y-37324D01*
X16964Y-37416D01*
X17034Y-37486D01*
X17125Y-37524D01*
X17224Y-37524D01*
X17607Y-37524D01*
X17652Y-37569D01*
X17652Y-37826D01*
X17576Y-37826D01*
X17126Y-37826D01*
X17034Y-37864D01*
X16964Y-37934D01*
X16926Y-38025D01*
X16926Y-38124D01*
X16926Y-38324D01*
X16964Y-38416D01*
X16979Y-38431D01*
X16922Y-38489D01*
X16845Y-38674D01*
X16845Y-38875D01*
X16922Y-39061D01*
X17064Y-39203D01*
X17165Y-39245D01*
X17020Y-39305D01*
X16881Y-39444D01*
X16805Y-39626D01*
X16805Y-39823D01*
X16880Y-40005D01*
X17019Y-40144D01*
X17201Y-40220D01*
X17398Y-40220D01*
X17580Y-40145D01*
X17719Y-40006D01*
X17795Y-39824D01*
X17795Y-39722D01*
X18195Y-39322D01*
X18195Y-39325D01*
X18272Y-39511D01*
X18414Y-39653D01*
X18599Y-39730D01*
X18800Y-39730D01*
X18986Y-39653D01*
X19128Y-39511D01*
X19205Y-39326D01*
X19205Y-39125D01*
X19178Y-39061D01*
X19241Y-39036D01*
X19276Y-39001D01*
X19276Y-39349D01*
X19286Y-39374D01*
X19222Y-39439D01*
X19145Y-39624D01*
X19145Y-39825D01*
X19222Y-40011D01*
X19364Y-40153D01*
X19549Y-40230D01*
X19750Y-40230D01*
X19936Y-40153D01*
X20078Y-40011D01*
X20155Y-39826D01*
X20155Y-39625D01*
X20078Y-39439D01*
X20013Y-39374D01*
X20024Y-39350D01*
X20024Y-39251D01*
X20024Y-38801D01*
X19998Y-38738D01*
X19998Y-38443D01*
X20016Y-38436D01*
X20086Y-38366D01*
X20124Y-38275D01*
X20124Y-38176D01*
X20124Y-37976D01*
X20117Y-37959D01*
X20183Y-37947D01*
X20184Y-37947D01*
X20296Y-37871D01*
X20495Y-37672D01*
X20495Y-37671D01*
X20496Y-37671D01*
X20571Y-37559D01*
X20572Y-37558D01*
X20597Y-37426D01*
X20598Y-37425D01*
X20598Y-36162D01*
X20624Y-36100D01*
X20624Y-36001D01*
X20624Y-35551D01*
X20609Y-35517D01*
X20611Y-35516D01*
X20649Y-35425D01*
X20649Y-35326D01*
X20649Y-35323D01*
X21498Y-35323D01*
X21526Y-35351D01*
X21376Y-35351D01*
X21284Y-35389D01*
X21214Y-35459D01*
X21176Y-35550D01*
X21176Y-35649D01*
X21176Y-36099D01*
X21214Y-36191D01*
X21284Y-36261D01*
X21375Y-36299D01*
X21402Y-36299D01*
X21402Y-36306D01*
X21384Y-36314D01*
X21314Y-36384D01*
X21276Y-36475D01*
X21276Y-36574D01*
X21276Y-36774D01*
X21314Y-36866D01*
X21323Y-36875D01*
X21314Y-36884D01*
X21276Y-36975D01*
X21276Y-37074D01*
X21276Y-37274D01*
X21314Y-37366D01*
X21384Y-37436D01*
X21475Y-37474D01*
X21574Y-37474D01*
X22002Y-37474D01*
X22002Y-37776D01*
X21926Y-37776D01*
X21476Y-37776D01*
X21384Y-37814D01*
X21314Y-37884D01*
X21276Y-37975D01*
X21276Y-38074D01*
X21276Y-38274D01*
X21314Y-38366D01*
X21384Y-38436D01*
X21402Y-38443D01*
X21402Y-38637D01*
X21345Y-38774D01*
X21345Y-38975D01*
X21422Y-39161D01*
X21564Y-39303D01*
X21749Y-39380D01*
X21950Y-39380D01*
X22136Y-39303D01*
X22278Y-39161D01*
X22326Y-39043D01*
X23104Y-39821D01*
X23216Y-39897D01*
X23217Y-39897D01*
X23350Y-39923D01*
X23356Y-39923D01*
X24002Y-40569D01*
X24002Y-40801D01*
G54D10*
G36*
X27341Y-63525D02*
X21428Y-63525D01*
X21536Y-63417D01*
X21628Y-63196D01*
X21628Y-62956D01*
X21537Y-62734D01*
X21367Y-62564D01*
X21146Y-62472D01*
X20973Y-62472D01*
X20827Y-62326D01*
X20865Y-62289D01*
X20900Y-62204D01*
X20935Y-62289D01*
X21089Y-62443D01*
X21291Y-62527D01*
X21509Y-62527D01*
X21711Y-62443D01*
X21865Y-62289D01*
X21900Y-62204D01*
X21935Y-62289D01*
X22089Y-62443D01*
X22291Y-62527D01*
X22509Y-62527D01*
X22711Y-62443D01*
X22865Y-62289D01*
X22900Y-62204D01*
X22935Y-62289D01*
X23089Y-62443D01*
X23291Y-62527D01*
X23509Y-62527D01*
X23711Y-62443D01*
X23865Y-62289D01*
X23900Y-62204D01*
X23935Y-62289D01*
X24052Y-62406D01*
X24052Y-62625D01*
X24078Y-62759D01*
X24154Y-62871D01*
X24503Y-63220D01*
X24504Y-63221D01*
X24616Y-63296D01*
X24617Y-63297D01*
X24749Y-63322D01*
X24750Y-63323D01*
X25100Y-63323D01*
X26450Y-63323D01*
X26583Y-63297D01*
X26584Y-63297D01*
X26696Y-63221D01*
X27150Y-62766D01*
X27150Y-63061D01*
X27341Y-63525D01*
X27341Y-63525D01*
G37*
G54D48*
X27341Y-63525D02*
X21428Y-63525D01*
X21536Y-63417D01*
X21628Y-63196D01*
X21628Y-62956D01*
X21537Y-62734D01*
X21367Y-62564D01*
X21146Y-62472D01*
X20973Y-62472D01*
X20827Y-62326D01*
X20865Y-62289D01*
X20900Y-62204D01*
X20935Y-62289D01*
X21089Y-62443D01*
X21291Y-62527D01*
X21509Y-62527D01*
X21711Y-62443D01*
X21865Y-62289D01*
X21900Y-62204D01*
X21935Y-62289D01*
X22089Y-62443D01*
X22291Y-62527D01*
X22509Y-62527D01*
X22711Y-62443D01*
X22865Y-62289D01*
X22900Y-62204D01*
X22935Y-62289D01*
X23089Y-62443D01*
X23291Y-62527D01*
X23509Y-62527D01*
X23711Y-62443D01*
X23865Y-62289D01*
X23900Y-62204D01*
X23935Y-62289D01*
X24052Y-62406D01*
X24052Y-62625D01*
X24078Y-62759D01*
X24154Y-62871D01*
X24503Y-63220D01*
X24504Y-63221D01*
X24616Y-63296D01*
X24617Y-63297D01*
X24749Y-63322D01*
X24750Y-63323D01*
X25100Y-63323D01*
X26450Y-63323D01*
X26583Y-63297D01*
X26584Y-63297D01*
X26696Y-63221D01*
X27150Y-62766D01*
X27150Y-63061D01*
X27341Y-63525D01*
G54D10*
G36*
X28441Y-56875D02*
X28306Y-57010D01*
X28207Y-57246D01*
X28207Y-57502D01*
X28305Y-57738D01*
X28358Y-57792D01*
X28316Y-57810D01*
X28246Y-57880D01*
X28208Y-57971D01*
X28208Y-58070D01*
X28208Y-58778D01*
X28228Y-58827D01*
X28187Y-58827D01*
X28125Y-58801D01*
X28026Y-58801D01*
X27576Y-58801D01*
X27513Y-58827D01*
X26737Y-58827D01*
X26601Y-58770D01*
X26400Y-58770D01*
X26214Y-58847D01*
X26072Y-58989D01*
X25995Y-59174D01*
X25995Y-59375D01*
X26072Y-59561D01*
X26214Y-59703D01*
X26399Y-59780D01*
X26600Y-59780D01*
X26786Y-59703D01*
X26928Y-59561D01*
X26943Y-59523D01*
X27512Y-59523D01*
X27575Y-59549D01*
X27674Y-59549D01*
X28124Y-59549D01*
X28152Y-59537D01*
X28126Y-59600D01*
X28126Y-59699D01*
X28126Y-59949D01*
X28146Y-59999D01*
X28126Y-60050D01*
X28126Y-60149D01*
X28126Y-60399D01*
X28152Y-60462D01*
X28125Y-60451D01*
X28026Y-60451D01*
X27576Y-60451D01*
X27484Y-60489D01*
X27414Y-60559D01*
X27376Y-60650D01*
X27376Y-60749D01*
X27376Y-60932D01*
X26889Y-61418D01*
X26865Y-61361D01*
X26711Y-61207D01*
X26509Y-61123D01*
X26291Y-61123D01*
X26089Y-61207D01*
X25935Y-61361D01*
X25900Y-61445D01*
X25865Y-61361D01*
X25711Y-61207D01*
X25509Y-61123D01*
X25291Y-61123D01*
X25089Y-61207D01*
X24935Y-61361D01*
X24900Y-61445D01*
X24865Y-61361D01*
X24711Y-61207D01*
X24509Y-61123D01*
X24291Y-61123D01*
X24089Y-61207D01*
X23935Y-61361D01*
X23900Y-61445D01*
X23865Y-61361D01*
X23711Y-61207D01*
X23509Y-61123D01*
X23291Y-61123D01*
X23089Y-61207D01*
X22935Y-61361D01*
X22900Y-61445D01*
X22865Y-61361D01*
X22711Y-61207D01*
X22628Y-61172D01*
X22736Y-61128D01*
X22878Y-60986D01*
X22955Y-60801D01*
X22955Y-60646D01*
X23123Y-60477D01*
X23125Y-60476D01*
X23126Y-60476D01*
X23167Y-60414D01*
X23195Y-60373D01*
X23195Y-60372D01*
X23219Y-60250D01*
X23219Y-59520D01*
X23228Y-59475D01*
X23228Y-56725D01*
X23228Y-56500D01*
X23291Y-56527D01*
X23509Y-56527D01*
X23572Y-56500D01*
X23572Y-57989D01*
X23472Y-58089D01*
X23395Y-58274D01*
X23395Y-58475D01*
X23472Y-58661D01*
X23614Y-58803D01*
X23799Y-58880D01*
X23845Y-58880D01*
X23845Y-59025D01*
X23922Y-59211D01*
X24064Y-59353D01*
X24249Y-59430D01*
X24450Y-59430D01*
X24636Y-59353D01*
X24778Y-59211D01*
X24855Y-59026D01*
X24855Y-58825D01*
X24778Y-58639D01*
X24748Y-58609D01*
X24748Y-58326D01*
X24851Y-58370D01*
X25048Y-58370D01*
X25230Y-58295D01*
X25369Y-58156D01*
X25445Y-57974D01*
X25445Y-57777D01*
X25370Y-57595D01*
X25231Y-57456D01*
X25228Y-57454D01*
X25228Y-54700D01*
X25291Y-54727D01*
X25509Y-54727D01*
X25572Y-54700D01*
X25572Y-56939D01*
X25472Y-57039D01*
X25395Y-57224D01*
X25395Y-57425D01*
X25472Y-57611D01*
X25614Y-57753D01*
X25799Y-57830D01*
X26000Y-57830D01*
X26186Y-57753D01*
X26312Y-57626D01*
X26416Y-57697D01*
X26417Y-57697D01*
X26550Y-57723D01*
X27450Y-57723D01*
X27583Y-57697D01*
X27584Y-57697D01*
X27696Y-57621D01*
X27846Y-57471D01*
X27922Y-57359D01*
X27922Y-57358D01*
X27948Y-57225D01*
X27948Y-55752D01*
X27964Y-55791D01*
X28034Y-55861D01*
X28125Y-55899D01*
X28224Y-55899D01*
X28417Y-55899D01*
X28306Y-56010D01*
X28207Y-56246D01*
X28207Y-56502D01*
X28305Y-56738D01*
X28441Y-56875D01*
X28441Y-56875D01*
G37*
G54D48*
X28441Y-56875D02*
X28306Y-57010D01*
X28207Y-57246D01*
X28207Y-57502D01*
X28305Y-57738D01*
X28358Y-57792D01*
X28316Y-57810D01*
X28246Y-57880D01*
X28208Y-57971D01*
X28208Y-58070D01*
X28208Y-58778D01*
X28228Y-58827D01*
X28187Y-58827D01*
X28125Y-58801D01*
X28026Y-58801D01*
X27576Y-58801D01*
X27513Y-58827D01*
X26737Y-58827D01*
X26601Y-58770D01*
X26400Y-58770D01*
X26214Y-58847D01*
X26072Y-58989D01*
X25995Y-59174D01*
X25995Y-59375D01*
X26072Y-59561D01*
X26214Y-59703D01*
X26399Y-59780D01*
X26600Y-59780D01*
X26786Y-59703D01*
X26928Y-59561D01*
X26943Y-59523D01*
X27512Y-59523D01*
X27575Y-59549D01*
X27674Y-59549D01*
X28124Y-59549D01*
X28152Y-59537D01*
X28126Y-59600D01*
X28126Y-59699D01*
X28126Y-59949D01*
X28146Y-59999D01*
X28126Y-60050D01*
X28126Y-60149D01*
X28126Y-60399D01*
X28152Y-60462D01*
X28125Y-60451D01*
X28026Y-60451D01*
X27576Y-60451D01*
X27484Y-60489D01*
X27414Y-60559D01*
X27376Y-60650D01*
X27376Y-60749D01*
X27376Y-60932D01*
X26889Y-61418D01*
X26865Y-61361D01*
X26711Y-61207D01*
X26509Y-61123D01*
X26291Y-61123D01*
X26089Y-61207D01*
X25935Y-61361D01*
X25900Y-61445D01*
X25865Y-61361D01*
X25711Y-61207D01*
X25509Y-61123D01*
X25291Y-61123D01*
X25089Y-61207D01*
X24935Y-61361D01*
X24900Y-61445D01*
X24865Y-61361D01*
X24711Y-61207D01*
X24509Y-61123D01*
X24291Y-61123D01*
X24089Y-61207D01*
X23935Y-61361D01*
X23900Y-61445D01*
X23865Y-61361D01*
X23711Y-61207D01*
X23509Y-61123D01*
X23291Y-61123D01*
X23089Y-61207D01*
X22935Y-61361D01*
X22900Y-61445D01*
X22865Y-61361D01*
X22711Y-61207D01*
X22628Y-61172D01*
X22736Y-61128D01*
X22878Y-60986D01*
X22955Y-60801D01*
X22955Y-60646D01*
X23123Y-60477D01*
X23125Y-60476D01*
X23126Y-60476D01*
X23167Y-60414D01*
X23195Y-60373D01*
X23195Y-60372D01*
X23219Y-60250D01*
X23219Y-59520D01*
X23228Y-59475D01*
X23228Y-56725D01*
X23228Y-56500D01*
X23291Y-56527D01*
X23509Y-56527D01*
X23572Y-56500D01*
X23572Y-57989D01*
X23472Y-58089D01*
X23395Y-58274D01*
X23395Y-58475D01*
X23472Y-58661D01*
X23614Y-58803D01*
X23799Y-58880D01*
X23845Y-58880D01*
X23845Y-59025D01*
X23922Y-59211D01*
X24064Y-59353D01*
X24249Y-59430D01*
X24450Y-59430D01*
X24636Y-59353D01*
X24778Y-59211D01*
X24855Y-59026D01*
X24855Y-58825D01*
X24778Y-58639D01*
X24748Y-58609D01*
X24748Y-58326D01*
X24851Y-58370D01*
X25048Y-58370D01*
X25230Y-58295D01*
X25369Y-58156D01*
X25445Y-57974D01*
X25445Y-57777D01*
X25370Y-57595D01*
X25231Y-57456D01*
X25228Y-57454D01*
X25228Y-54700D01*
X25291Y-54727D01*
X25509Y-54727D01*
X25572Y-54700D01*
X25572Y-56939D01*
X25472Y-57039D01*
X25395Y-57224D01*
X25395Y-57425D01*
X25472Y-57611D01*
X25614Y-57753D01*
X25799Y-57830D01*
X26000Y-57830D01*
X26186Y-57753D01*
X26312Y-57626D01*
X26416Y-57697D01*
X26417Y-57697D01*
X26550Y-57723D01*
X27450Y-57723D01*
X27583Y-57697D01*
X27584Y-57697D01*
X27696Y-57621D01*
X27846Y-57471D01*
X27922Y-57359D01*
X27922Y-57358D01*
X27948Y-57225D01*
X27948Y-55752D01*
X27964Y-55791D01*
X28034Y-55861D01*
X28125Y-55899D01*
X28224Y-55899D01*
X28417Y-55899D01*
X28306Y-56010D01*
X28207Y-56246D01*
X28207Y-56502D01*
X28305Y-56738D01*
X28441Y-56875D01*
G54D10*
G36*
X29152Y-51180D02*
X28154Y-52179D01*
X28078Y-52291D01*
X28052Y-52425D01*
X28052Y-53444D01*
X27935Y-53561D01*
X27931Y-53569D01*
X27884Y-53589D01*
X27814Y-53659D01*
X27776Y-53750D01*
X27776Y-53849D01*
X27776Y-54299D01*
X27814Y-54391D01*
X27884Y-54461D01*
X27931Y-54480D01*
X27935Y-54489D01*
X28023Y-54577D01*
X27900Y-54577D01*
X27766Y-54603D01*
X27654Y-54679D01*
X27354Y-54979D01*
X27278Y-55091D01*
X27252Y-55225D01*
X27252Y-56463D01*
X27228Y-56439D01*
X27228Y-52789D01*
X27646Y-52371D01*
X27722Y-52259D01*
X27722Y-52258D01*
X27748Y-52125D01*
X27748Y-48606D01*
X27841Y-48513D01*
X27841Y-48524D01*
X27879Y-48616D01*
X27949Y-48686D01*
X28040Y-48724D01*
X28052Y-48724D01*
X28052Y-49359D01*
X27972Y-49439D01*
X27895Y-49624D01*
X27895Y-49825D01*
X27972Y-50011D01*
X28114Y-50153D01*
X28299Y-50230D01*
X28500Y-50230D01*
X28686Y-50153D01*
X28828Y-50011D01*
X28905Y-49826D01*
X28905Y-49625D01*
X28828Y-49439D01*
X28748Y-49359D01*
X28748Y-48724D01*
X28759Y-48724D01*
X28851Y-48686D01*
X28921Y-48616D01*
X28959Y-48525D01*
X28959Y-48426D01*
X28959Y-48373D01*
X29152Y-48373D01*
X29152Y-48581D01*
X29134Y-48589D01*
X29064Y-48659D01*
X29026Y-48750D01*
X29026Y-48849D01*
X29026Y-49099D01*
X29064Y-49191D01*
X29098Y-49225D01*
X29064Y-49259D01*
X29026Y-49350D01*
X29026Y-49449D01*
X29026Y-49699D01*
X29064Y-49791D01*
X29134Y-49861D01*
X29152Y-49868D01*
X29152Y-50477D01*
X28766Y-50477D01*
X28686Y-50397D01*
X28501Y-50320D01*
X28300Y-50320D01*
X28114Y-50397D01*
X27972Y-50539D01*
X27895Y-50724D01*
X27895Y-50925D01*
X27972Y-51111D01*
X28114Y-51253D01*
X28299Y-51330D01*
X28500Y-51330D01*
X28686Y-51253D01*
X28766Y-51173D01*
X29152Y-51173D01*
X29152Y-51180D01*
X29152Y-51180D01*
G37*
G54D48*
X29152Y-51180D02*
X28154Y-52179D01*
X28078Y-52291D01*
X28052Y-52425D01*
X28052Y-53444D01*
X27935Y-53561D01*
X27931Y-53569D01*
X27884Y-53589D01*
X27814Y-53659D01*
X27776Y-53750D01*
X27776Y-53849D01*
X27776Y-54299D01*
X27814Y-54391D01*
X27884Y-54461D01*
X27931Y-54480D01*
X27935Y-54489D01*
X28023Y-54577D01*
X27900Y-54577D01*
X27766Y-54603D01*
X27654Y-54679D01*
X27354Y-54979D01*
X27278Y-55091D01*
X27252Y-55225D01*
X27252Y-56463D01*
X27228Y-56439D01*
X27228Y-52789D01*
X27646Y-52371D01*
X27722Y-52259D01*
X27722Y-52258D01*
X27748Y-52125D01*
X27748Y-48606D01*
X27841Y-48513D01*
X27841Y-48524D01*
X27879Y-48616D01*
X27949Y-48686D01*
X28040Y-48724D01*
X28052Y-48724D01*
X28052Y-49359D01*
X27972Y-49439D01*
X27895Y-49624D01*
X27895Y-49825D01*
X27972Y-50011D01*
X28114Y-50153D01*
X28299Y-50230D01*
X28500Y-50230D01*
X28686Y-50153D01*
X28828Y-50011D01*
X28905Y-49826D01*
X28905Y-49625D01*
X28828Y-49439D01*
X28748Y-49359D01*
X28748Y-48724D01*
X28759Y-48724D01*
X28851Y-48686D01*
X28921Y-48616D01*
X28959Y-48525D01*
X28959Y-48426D01*
X28959Y-48373D01*
X29152Y-48373D01*
X29152Y-48581D01*
X29134Y-48589D01*
X29064Y-48659D01*
X29026Y-48750D01*
X29026Y-48849D01*
X29026Y-49099D01*
X29064Y-49191D01*
X29098Y-49225D01*
X29064Y-49259D01*
X29026Y-49350D01*
X29026Y-49449D01*
X29026Y-49699D01*
X29064Y-49791D01*
X29134Y-49861D01*
X29152Y-49868D01*
X29152Y-50477D01*
X28766Y-50477D01*
X28686Y-50397D01*
X28501Y-50320D01*
X28300Y-50320D01*
X28114Y-50397D01*
X27972Y-50539D01*
X27895Y-50724D01*
X27895Y-50925D01*
X27972Y-51111D01*
X28114Y-51253D01*
X28299Y-51330D01*
X28500Y-51330D01*
X28686Y-51253D01*
X28766Y-51173D01*
X29152Y-51173D01*
X29152Y-51180D01*
G54D10*
G36*
X29900Y-35433D02*
X29396Y-34929D01*
X29284Y-34853D01*
X29150Y-34827D01*
X28851Y-34827D01*
X28845Y-34812D01*
X28665Y-34631D01*
X28429Y-34532D01*
X28173Y-34532D01*
X27937Y-34630D01*
X27756Y-34810D01*
X27657Y-35046D01*
X27657Y-35119D01*
X27596Y-35029D01*
X27595Y-35028D01*
X27396Y-34829D01*
X27284Y-34753D01*
X27150Y-34727D01*
X27016Y-34727D01*
X26936Y-34647D01*
X26751Y-34570D01*
X26550Y-34570D01*
X26364Y-34647D01*
X26222Y-34789D01*
X26145Y-34974D01*
X26145Y-35175D01*
X26222Y-35361D01*
X26245Y-35384D01*
X26234Y-35389D01*
X26164Y-35459D01*
X26126Y-35550D01*
X26126Y-35649D01*
X26126Y-36099D01*
X26152Y-36161D01*
X26152Y-36306D01*
X26134Y-36314D01*
X26064Y-36384D01*
X26026Y-36475D01*
X26026Y-36574D01*
X26026Y-36774D01*
X26064Y-36866D01*
X26073Y-36875D01*
X26064Y-36884D01*
X26026Y-36975D01*
X26026Y-37074D01*
X26026Y-37274D01*
X26064Y-37366D01*
X26134Y-37436D01*
X26225Y-37474D01*
X26324Y-37474D01*
X26774Y-37474D01*
X26776Y-37473D01*
X26950Y-37473D01*
X27083Y-37447D01*
X27084Y-37447D01*
X27196Y-37371D01*
X27596Y-36972D01*
X27596Y-36971D01*
X27646Y-36896D01*
X27671Y-36859D01*
X27672Y-36858D01*
X27697Y-36725D01*
X27698Y-36725D01*
X27698Y-36400D01*
X27755Y-36538D01*
X27891Y-36675D01*
X27756Y-36810D01*
X27657Y-37046D01*
X27657Y-37302D01*
X27663Y-37318D01*
X27304Y-37679D01*
X27228Y-37791D01*
X27202Y-37925D01*
X27202Y-38424D01*
X27071Y-38555D01*
X27054Y-38594D01*
X27054Y-38595D01*
X27003Y-38629D01*
X26254Y-39379D01*
X26178Y-39491D01*
X26152Y-39625D01*
X26152Y-39909D01*
X26072Y-39989D01*
X25995Y-40174D01*
X25995Y-40375D01*
X26072Y-40561D01*
X26214Y-40703D01*
X26399Y-40780D01*
X26600Y-40780D01*
X26786Y-40703D01*
X26928Y-40561D01*
X27005Y-40376D01*
X27005Y-40175D01*
X26928Y-39989D01*
X26848Y-39909D01*
X26848Y-39769D01*
X27253Y-39363D01*
X27280Y-39375D01*
X27230Y-39396D01*
X27071Y-39555D01*
X26985Y-39762D01*
X26985Y-39987D01*
X27071Y-40195D01*
X27202Y-40326D01*
X27202Y-40531D01*
X27184Y-40539D01*
X27114Y-40609D01*
X27076Y-40700D01*
X27076Y-40799D01*
X27076Y-40941D01*
X27067Y-40940D01*
X27066Y-40939D01*
X26975Y-40901D01*
X26876Y-40901D01*
X26426Y-40901D01*
X26334Y-40939D01*
X26264Y-41009D01*
X26226Y-41100D01*
X26226Y-41199D01*
X26226Y-41449D01*
X26264Y-41541D01*
X26334Y-41611D01*
X26425Y-41649D01*
X26524Y-41649D01*
X26882Y-41649D01*
X26953Y-41720D01*
X26954Y-41721D01*
X27066Y-41796D01*
X27067Y-41797D01*
X27199Y-41822D01*
X27200Y-41823D01*
X27212Y-41823D01*
X27275Y-41849D01*
X27374Y-41849D01*
X27824Y-41849D01*
X27886Y-41823D01*
X28562Y-41823D01*
X28625Y-41849D01*
X28724Y-41849D01*
X29132Y-41849D01*
X29602Y-42319D01*
X29602Y-44635D01*
X29471Y-44504D01*
X29359Y-44428D01*
X29225Y-44402D01*
X28846Y-44402D01*
X28836Y-44376D01*
X28650Y-44189D01*
X28623Y-44177D01*
X28623Y-44144D01*
X28837Y-43930D01*
X28950Y-43930D01*
X29136Y-43853D01*
X29278Y-43711D01*
X29355Y-43526D01*
X29355Y-43325D01*
X29278Y-43139D01*
X29136Y-42997D01*
X28951Y-42920D01*
X28750Y-42920D01*
X28564Y-42997D01*
X28422Y-43139D01*
X28345Y-43324D01*
X28345Y-43438D01*
X28029Y-43754D01*
X27953Y-43866D01*
X27927Y-44000D01*
X27927Y-44178D01*
X27901Y-44189D01*
X27714Y-44375D01*
X27613Y-44618D01*
X27613Y-44881D01*
X27714Y-45124D01*
X27900Y-45311D01*
X28143Y-45412D01*
X28406Y-45412D01*
X28649Y-45311D01*
X28836Y-45125D01*
X28847Y-45098D01*
X29081Y-45098D01*
X29152Y-45169D01*
X29152Y-47081D01*
X29134Y-47089D01*
X29064Y-47159D01*
X29026Y-47250D01*
X29026Y-47349D01*
X29026Y-47599D01*
X29058Y-47677D01*
X28959Y-47677D01*
X28959Y-47526D01*
X28921Y-47434D01*
X28851Y-47364D01*
X28760Y-47326D01*
X28661Y-47326D01*
X28041Y-47326D01*
X27949Y-47364D01*
X27879Y-47434D01*
X27841Y-47525D01*
X27841Y-47537D01*
X27711Y-47407D01*
X27509Y-47323D01*
X27291Y-47323D01*
X27089Y-47407D01*
X26935Y-47561D01*
X26900Y-47645D01*
X26865Y-47561D01*
X26711Y-47407D01*
X26509Y-47323D01*
X26343Y-47323D01*
X26405Y-47176D01*
X26405Y-46975D01*
X26328Y-46789D01*
X26186Y-46647D01*
X26001Y-46570D01*
X25800Y-46570D01*
X25614Y-46647D01*
X25472Y-46789D01*
X25395Y-46974D01*
X25395Y-47175D01*
X25456Y-47323D01*
X25291Y-47323D01*
X25228Y-47349D01*
X25228Y-45639D01*
X25560Y-45307D01*
X25560Y-46519D01*
X27420Y-46519D01*
X27420Y-44151D01*
X25698Y-44151D01*
X25698Y-43848D01*
X25700Y-43849D01*
X25799Y-43849D01*
X25999Y-43849D01*
X26091Y-43811D01*
X26161Y-43741D01*
X26199Y-43650D01*
X26199Y-43551D01*
X26199Y-43101D01*
X26161Y-43009D01*
X26091Y-42939D01*
X26000Y-42901D01*
X25901Y-42901D01*
X25701Y-42901D01*
X25609Y-42939D01*
X25600Y-42948D01*
X25591Y-42939D01*
X25500Y-42901D01*
X25401Y-42901D01*
X25201Y-42901D01*
X25198Y-42902D01*
X25198Y-42719D01*
X25596Y-42321D01*
X25672Y-42209D01*
X25672Y-42208D01*
X25698Y-42075D01*
X25698Y-41552D01*
X25699Y-41550D01*
X25699Y-41451D01*
X25699Y-41001D01*
X25661Y-40909D01*
X25591Y-40839D01*
X25500Y-40801D01*
X25401Y-40801D01*
X25201Y-40801D01*
X25198Y-40802D01*
X25198Y-40291D01*
X25278Y-40211D01*
X25355Y-40026D01*
X25355Y-39825D01*
X25278Y-39639D01*
X25136Y-39497D01*
X24951Y-39420D01*
X24750Y-39420D01*
X24564Y-39497D01*
X24422Y-39639D01*
X24345Y-39824D01*
X24345Y-39928D01*
X24024Y-39607D01*
X24036Y-39603D01*
X24178Y-39461D01*
X24189Y-39434D01*
X24225Y-39449D01*
X24324Y-39449D01*
X24574Y-39449D01*
X24666Y-39411D01*
X24736Y-39341D01*
X24774Y-39250D01*
X24774Y-39151D01*
X24774Y-38701D01*
X24748Y-38638D01*
X24748Y-38443D01*
X24766Y-38436D01*
X24836Y-38366D01*
X24874Y-38275D01*
X24874Y-38176D01*
X24874Y-37976D01*
X24867Y-37959D01*
X24933Y-37947D01*
X24934Y-37947D01*
X25046Y-37871D01*
X25130Y-37786D01*
X25154Y-37821D01*
X25703Y-38370D01*
X25704Y-38371D01*
X25816Y-38446D01*
X25817Y-38447D01*
X25949Y-38472D01*
X25950Y-38473D01*
X26222Y-38473D01*
X26225Y-38474D01*
X26324Y-38474D01*
X26774Y-38474D01*
X26866Y-38436D01*
X26936Y-38366D01*
X26974Y-38275D01*
X26974Y-38176D01*
X26974Y-37976D01*
X26936Y-37884D01*
X26866Y-37814D01*
X26775Y-37776D01*
X26676Y-37776D01*
X26226Y-37776D01*
X26223Y-37777D01*
X26094Y-37777D01*
X25748Y-37431D01*
X25748Y-35225D01*
X25722Y-35092D01*
X25721Y-35091D01*
X25646Y-34979D01*
X25396Y-34729D01*
X25284Y-34653D01*
X25150Y-34627D01*
X25099Y-34627D01*
X25099Y-34526D01*
X25061Y-34434D01*
X24991Y-34364D01*
X24900Y-34326D01*
X24801Y-34326D01*
X24201Y-34326D01*
X24109Y-34364D01*
X24039Y-34434D01*
X24007Y-34508D01*
X23934Y-34539D01*
X23900Y-34573D01*
X23866Y-34539D01*
X23791Y-34507D01*
X23761Y-34434D01*
X23691Y-34364D01*
X23600Y-34326D01*
X23522Y-34326D01*
X23522Y-34279D01*
X23566Y-34261D01*
X23636Y-34191D01*
X23644Y-34171D01*
X23829Y-34294D01*
X24075Y-34343D01*
X24321Y-34294D01*
X24530Y-34155D01*
X24575Y-34087D01*
X24620Y-34155D01*
X24829Y-34294D01*
X25075Y-34343D01*
X26075Y-34343D01*
X26321Y-34294D01*
X26530Y-34155D01*
X27360Y-33324D01*
X27774Y-33324D01*
X27866Y-33286D01*
X27936Y-33216D01*
X27974Y-33125D01*
X27974Y-33026D01*
X27974Y-32968D01*
X28050Y-32968D01*
X28296Y-32919D01*
X28505Y-32780D01*
X28644Y-32571D01*
X28693Y-32325D01*
X28644Y-32079D01*
X28505Y-31870D01*
X28296Y-31731D01*
X28093Y-31690D01*
X28093Y-28725D01*
X28044Y-28479D01*
X27905Y-28270D01*
X27696Y-28131D01*
X27450Y-28082D01*
X27204Y-28131D01*
X26995Y-28270D01*
X26856Y-28479D01*
X26807Y-28725D01*
X26807Y-32058D01*
X25808Y-33057D01*
X25128Y-33057D01*
X25530Y-32655D01*
X25669Y-32446D01*
X25718Y-32200D01*
X25718Y-31848D01*
X25859Y-31848D01*
X25939Y-31928D01*
X26124Y-32005D01*
X26325Y-32005D01*
X26511Y-31928D01*
X26653Y-31786D01*
X26730Y-31601D01*
X26730Y-31400D01*
X26653Y-31214D01*
X26511Y-31072D01*
X26445Y-31044D01*
X26494Y-30971D01*
X26543Y-30725D01*
X26543Y-28275D01*
X26543Y-26100D01*
X26494Y-25854D01*
X26355Y-25645D01*
X26352Y-25643D01*
X25405Y-24695D01*
X25196Y-24556D01*
X24950Y-24507D01*
X22516Y-24507D01*
X20943Y-22933D01*
X20943Y-21925D01*
X20943Y-20168D01*
X20987Y-20123D01*
X21210Y-20346D01*
X21511Y-20471D01*
X21838Y-20471D01*
X22140Y-20346D01*
X22193Y-20293D01*
X23708Y-20293D01*
X28007Y-24591D01*
X28007Y-24826D01*
X27901Y-24826D01*
X27809Y-24864D01*
X27739Y-24934D01*
X27701Y-25025D01*
X27701Y-25124D01*
X27701Y-26524D01*
X27739Y-26616D01*
X27809Y-26686D01*
X27900Y-26724D01*
X27999Y-26724D01*
X28007Y-26724D01*
X28007Y-27375D01*
X28056Y-27621D01*
X28195Y-27830D01*
X28404Y-27969D01*
X28650Y-28018D01*
X28896Y-27969D01*
X29105Y-27830D01*
X29244Y-27621D01*
X29293Y-27375D01*
X29293Y-26724D01*
X29399Y-26724D01*
X29491Y-26686D01*
X29561Y-26616D01*
X29599Y-26525D01*
X29599Y-26426D01*
X29599Y-25026D01*
X29561Y-24934D01*
X29491Y-24864D01*
X29400Y-24826D01*
X29301Y-24826D01*
X29293Y-24826D01*
X29293Y-24325D01*
X29244Y-24079D01*
X29105Y-23870D01*
X29102Y-23868D01*
X24430Y-19195D01*
X24221Y-19056D01*
X23975Y-19007D01*
X22193Y-19007D01*
X22140Y-18954D01*
X21839Y-18829D01*
X21512Y-18829D01*
X21210Y-18954D01*
X20987Y-19176D01*
X20765Y-18954D01*
X20464Y-18829D01*
X20137Y-18829D01*
X19835Y-18954D01*
X19612Y-19176D01*
X19390Y-18954D01*
X19089Y-18829D01*
X18762Y-18829D01*
X18460Y-18954D01*
X18237Y-19176D01*
X18015Y-18954D01*
X17714Y-18829D01*
X17387Y-18829D01*
X17085Y-18954D01*
X16854Y-19185D01*
X16849Y-19194D01*
X16846Y-19185D01*
X16615Y-18954D01*
X16314Y-18829D01*
X15987Y-18829D01*
X15685Y-18954D01*
X15454Y-19185D01*
X15329Y-19486D01*
X15329Y-19813D01*
X15454Y-20115D01*
X15507Y-20168D01*
X15507Y-22375D01*
X15507Y-23783D01*
X13170Y-26120D01*
X13170Y-22854D01*
X13170Y-19715D01*
X11310Y-19715D01*
X11310Y-20651D01*
X11051Y-20651D01*
X10959Y-20689D01*
X10889Y-20759D01*
X10851Y-20850D01*
X10851Y-20949D01*
X10851Y-21199D01*
X10872Y-21250D01*
X10864Y-21259D01*
X10826Y-21350D01*
X10826Y-21449D01*
X10826Y-21699D01*
X10858Y-21777D01*
X10712Y-21777D01*
X10728Y-21761D01*
X10805Y-21576D01*
X10805Y-21375D01*
X10728Y-21189D01*
X10674Y-21135D01*
X10674Y-21051D01*
X10674Y-20601D01*
X10636Y-20509D01*
X10566Y-20439D01*
X10475Y-20401D01*
X10376Y-20401D01*
X10126Y-20401D01*
X10034Y-20439D01*
X09964Y-20509D01*
X09926Y-20600D01*
X09926Y-20699D01*
X09926Y-21135D01*
X09872Y-21189D01*
X09795Y-21374D01*
X09795Y-21575D01*
X09872Y-21761D01*
X09912Y-21801D01*
X09909Y-21804D01*
X09871Y-21895D01*
X09871Y-21994D01*
X09871Y-22354D01*
X09909Y-22446D01*
X09938Y-22475D01*
X09909Y-22504D01*
X09871Y-22595D01*
X09871Y-22694D01*
X09871Y-23054D01*
X09909Y-23146D01*
X09979Y-23216D01*
X10070Y-23254D01*
X10169Y-23254D01*
X10529Y-23254D01*
X10563Y-23239D01*
X10572Y-23261D01*
X10714Y-23403D01*
X10899Y-23480D01*
X11100Y-23480D01*
X11286Y-23403D01*
X11428Y-23261D01*
X11505Y-23076D01*
X11505Y-22875D01*
X11496Y-22854D01*
X13170Y-22854D01*
X13170Y-26120D01*
X11618Y-27672D01*
X11618Y-26800D01*
X11643Y-26675D01*
X11594Y-26429D01*
X11454Y-26221D01*
X11246Y-26081D01*
X11000Y-26032D01*
X10754Y-26081D01*
X10545Y-26221D01*
X10520Y-26245D01*
X10381Y-26454D01*
X10332Y-26700D01*
X10332Y-28221D01*
X10196Y-28131D01*
X09950Y-28082D01*
X09704Y-28131D01*
X09495Y-28270D01*
X09200Y-28564D01*
X09105Y-28420D01*
X08896Y-28281D01*
X08650Y-28232D01*
X08404Y-28281D01*
X08195Y-28420D01*
X08056Y-28629D01*
X08011Y-28851D01*
X07851Y-28851D01*
X07759Y-28889D01*
X07689Y-28959D01*
X07651Y-29050D01*
X07651Y-29149D01*
X07651Y-29699D01*
X07689Y-29791D01*
X07759Y-29861D01*
X07850Y-29899D01*
X07949Y-29899D01*
X08298Y-29899D01*
X08404Y-29969D01*
X08650Y-30018D01*
X09300Y-30018D01*
X09546Y-29969D01*
X09755Y-29830D01*
X10332Y-29253D01*
X10332Y-30901D01*
X10276Y-30901D01*
X09576Y-30901D01*
X09484Y-30939D01*
X09414Y-31009D01*
X09395Y-31053D01*
X08975Y-31053D01*
X08804Y-31087D01*
X08659Y-31184D01*
X07934Y-31909D01*
X07837Y-32054D01*
X07803Y-32225D01*
X07803Y-35426D01*
X07801Y-35426D01*
X07709Y-35464D01*
X07639Y-35534D01*
X07601Y-35625D01*
X07601Y-35724D01*
X07601Y-36324D01*
X07639Y-36416D01*
X07709Y-36486D01*
X07783Y-36517D01*
X07814Y-36591D01*
X07848Y-36625D01*
X07814Y-36659D01*
X07782Y-36733D01*
X07709Y-36764D01*
X07639Y-36834D01*
X07601Y-36925D01*
X07601Y-37024D01*
X07601Y-37624D01*
X07639Y-37716D01*
X07709Y-37786D01*
X07800Y-37824D01*
X07899Y-37824D01*
X08018Y-37824D01*
X07955Y-37976D01*
X07955Y-38173D01*
X08030Y-38355D01*
X08168Y-38493D01*
X08020Y-38555D01*
X07881Y-38694D01*
X07805Y-38876D01*
X07805Y-39073D01*
X07880Y-39255D01*
X07976Y-39351D01*
X07901Y-39351D01*
X07809Y-39389D01*
X07739Y-39459D01*
X07701Y-39550D01*
X07701Y-39649D01*
X07701Y-40099D01*
X07702Y-40101D01*
X07702Y-40381D01*
X07600Y-40483D01*
X07600Y-20383D01*
X08060Y-20574D01*
X08786Y-20575D01*
X09457Y-20298D01*
X09971Y-19785D01*
X10249Y-19115D01*
X10250Y-18389D01*
X10037Y-17875D01*
X27362Y-17875D01*
X27151Y-18385D01*
X27150Y-19111D01*
X27427Y-19782D01*
X27940Y-20296D01*
X28610Y-20574D01*
X29336Y-20575D01*
X29900Y-20342D01*
X29900Y-35433D01*
X29900Y-35433D01*
G37*
G54D48*
X29900Y-35433D02*
X29396Y-34929D01*
X29284Y-34853D01*
X29150Y-34827D01*
X28851Y-34827D01*
X28845Y-34812D01*
X28665Y-34631D01*
X28429Y-34532D01*
X28173Y-34532D01*
X27937Y-34630D01*
X27756Y-34810D01*
X27657Y-35046D01*
X27657Y-35119D01*
X27596Y-35029D01*
X27595Y-35028D01*
X27396Y-34829D01*
X27284Y-34753D01*
X27150Y-34727D01*
X27016Y-34727D01*
X26936Y-34647D01*
X26751Y-34570D01*
X26550Y-34570D01*
X26364Y-34647D01*
X26222Y-34789D01*
X26145Y-34974D01*
X26145Y-35175D01*
X26222Y-35361D01*
X26245Y-35384D01*
X26234Y-35389D01*
X26164Y-35459D01*
X26126Y-35550D01*
X26126Y-35649D01*
X26126Y-36099D01*
X26152Y-36161D01*
X26152Y-36306D01*
X26134Y-36314D01*
X26064Y-36384D01*
X26026Y-36475D01*
X26026Y-36574D01*
X26026Y-36774D01*
X26064Y-36866D01*
X26073Y-36875D01*
X26064Y-36884D01*
X26026Y-36975D01*
X26026Y-37074D01*
X26026Y-37274D01*
X26064Y-37366D01*
X26134Y-37436D01*
X26225Y-37474D01*
X26324Y-37474D01*
X26774Y-37474D01*
X26776Y-37473D01*
X26950Y-37473D01*
X27083Y-37447D01*
X27084Y-37447D01*
X27196Y-37371D01*
X27596Y-36972D01*
X27596Y-36971D01*
X27646Y-36896D01*
X27671Y-36859D01*
X27672Y-36858D01*
X27697Y-36725D01*
X27698Y-36725D01*
X27698Y-36400D01*
X27755Y-36538D01*
X27891Y-36675D01*
X27756Y-36810D01*
X27657Y-37046D01*
X27657Y-37302D01*
X27663Y-37318D01*
X27304Y-37679D01*
X27228Y-37791D01*
X27202Y-37925D01*
X27202Y-38424D01*
X27071Y-38555D01*
X27054Y-38594D01*
X27054Y-38595D01*
X27003Y-38629D01*
X26254Y-39379D01*
X26178Y-39491D01*
X26152Y-39625D01*
X26152Y-39909D01*
X26072Y-39989D01*
X25995Y-40174D01*
X25995Y-40375D01*
X26072Y-40561D01*
X26214Y-40703D01*
X26399Y-40780D01*
X26600Y-40780D01*
X26786Y-40703D01*
X26928Y-40561D01*
X27005Y-40376D01*
X27005Y-40175D01*
X26928Y-39989D01*
X26848Y-39909D01*
X26848Y-39769D01*
X27253Y-39363D01*
X27280Y-39375D01*
X27230Y-39396D01*
X27071Y-39555D01*
X26985Y-39762D01*
X26985Y-39987D01*
X27071Y-40195D01*
X27202Y-40326D01*
X27202Y-40531D01*
X27184Y-40539D01*
X27114Y-40609D01*
X27076Y-40700D01*
X27076Y-40799D01*
X27076Y-40941D01*
X27067Y-40940D01*
X27066Y-40939D01*
X26975Y-40901D01*
X26876Y-40901D01*
X26426Y-40901D01*
X26334Y-40939D01*
X26264Y-41009D01*
X26226Y-41100D01*
X26226Y-41199D01*
X26226Y-41449D01*
X26264Y-41541D01*
X26334Y-41611D01*
X26425Y-41649D01*
X26524Y-41649D01*
X26882Y-41649D01*
X26953Y-41720D01*
X26954Y-41721D01*
X27066Y-41796D01*
X27067Y-41797D01*
X27199Y-41822D01*
X27200Y-41823D01*
X27212Y-41823D01*
X27275Y-41849D01*
X27374Y-41849D01*
X27824Y-41849D01*
X27886Y-41823D01*
X28562Y-41823D01*
X28625Y-41849D01*
X28724Y-41849D01*
X29132Y-41849D01*
X29602Y-42319D01*
X29602Y-44635D01*
X29471Y-44504D01*
X29359Y-44428D01*
X29225Y-44402D01*
X28846Y-44402D01*
X28836Y-44376D01*
X28650Y-44189D01*
X28623Y-44177D01*
X28623Y-44144D01*
X28837Y-43930D01*
X28950Y-43930D01*
X29136Y-43853D01*
X29278Y-43711D01*
X29355Y-43526D01*
X29355Y-43325D01*
X29278Y-43139D01*
X29136Y-42997D01*
X28951Y-42920D01*
X28750Y-42920D01*
X28564Y-42997D01*
X28422Y-43139D01*
X28345Y-43324D01*
X28345Y-43438D01*
X28029Y-43754D01*
X27953Y-43866D01*
X27927Y-44000D01*
X27927Y-44178D01*
X27901Y-44189D01*
X27714Y-44375D01*
X27613Y-44618D01*
X27613Y-44881D01*
X27714Y-45124D01*
X27900Y-45311D01*
X28143Y-45412D01*
X28406Y-45412D01*
X28649Y-45311D01*
X28836Y-45125D01*
X28847Y-45098D01*
X29081Y-45098D01*
X29152Y-45169D01*
X29152Y-47081D01*
X29134Y-47089D01*
X29064Y-47159D01*
X29026Y-47250D01*
X29026Y-47349D01*
X29026Y-47599D01*
X29058Y-47677D01*
X28959Y-47677D01*
X28959Y-47526D01*
X28921Y-47434D01*
X28851Y-47364D01*
X28760Y-47326D01*
X28661Y-47326D01*
X28041Y-47326D01*
X27949Y-47364D01*
X27879Y-47434D01*
X27841Y-47525D01*
X27841Y-47537D01*
X27711Y-47407D01*
X27509Y-47323D01*
X27291Y-47323D01*
X27089Y-47407D01*
X26935Y-47561D01*
X26900Y-47645D01*
X26865Y-47561D01*
X26711Y-47407D01*
X26509Y-47323D01*
X26343Y-47323D01*
X26405Y-47176D01*
X26405Y-46975D01*
X26328Y-46789D01*
X26186Y-46647D01*
X26001Y-46570D01*
X25800Y-46570D01*
X25614Y-46647D01*
X25472Y-46789D01*
X25395Y-46974D01*
X25395Y-47175D01*
X25456Y-47323D01*
X25291Y-47323D01*
X25228Y-47349D01*
X25228Y-45639D01*
X25560Y-45307D01*
X25560Y-46519D01*
X27420Y-46519D01*
X27420Y-44151D01*
X25698Y-44151D01*
X25698Y-43848D01*
X25700Y-43849D01*
X25799Y-43849D01*
X25999Y-43849D01*
X26091Y-43811D01*
X26161Y-43741D01*
X26199Y-43650D01*
X26199Y-43551D01*
X26199Y-43101D01*
X26161Y-43009D01*
X26091Y-42939D01*
X26000Y-42901D01*
X25901Y-42901D01*
X25701Y-42901D01*
X25609Y-42939D01*
X25600Y-42948D01*
X25591Y-42939D01*
X25500Y-42901D01*
X25401Y-42901D01*
X25201Y-42901D01*
X25198Y-42902D01*
X25198Y-42719D01*
X25596Y-42321D01*
X25672Y-42209D01*
X25672Y-42208D01*
X25698Y-42075D01*
X25698Y-41552D01*
X25699Y-41550D01*
X25699Y-41451D01*
X25699Y-41001D01*
X25661Y-40909D01*
X25591Y-40839D01*
X25500Y-40801D01*
X25401Y-40801D01*
X25201Y-40801D01*
X25198Y-40802D01*
X25198Y-40291D01*
X25278Y-40211D01*
X25355Y-40026D01*
X25355Y-39825D01*
X25278Y-39639D01*
X25136Y-39497D01*
X24951Y-39420D01*
X24750Y-39420D01*
X24564Y-39497D01*
X24422Y-39639D01*
X24345Y-39824D01*
X24345Y-39928D01*
X24024Y-39607D01*
X24036Y-39603D01*
X24178Y-39461D01*
X24189Y-39434D01*
X24225Y-39449D01*
X24324Y-39449D01*
X24574Y-39449D01*
X24666Y-39411D01*
X24736Y-39341D01*
X24774Y-39250D01*
X24774Y-39151D01*
X24774Y-38701D01*
X24748Y-38638D01*
X24748Y-38443D01*
X24766Y-38436D01*
X24836Y-38366D01*
X24874Y-38275D01*
X24874Y-38176D01*
X24874Y-37976D01*
X24867Y-37959D01*
X24933Y-37947D01*
X24934Y-37947D01*
X25046Y-37871D01*
X25130Y-37786D01*
X25154Y-37821D01*
X25703Y-38370D01*
X25704Y-38371D01*
X25816Y-38446D01*
X25817Y-38447D01*
X25949Y-38472D01*
X25950Y-38473D01*
X26222Y-38473D01*
X26225Y-38474D01*
X26324Y-38474D01*
X26774Y-38474D01*
X26866Y-38436D01*
X26936Y-38366D01*
X26974Y-38275D01*
X26974Y-38176D01*
X26974Y-37976D01*
X26936Y-37884D01*
X26866Y-37814D01*
X26775Y-37776D01*
X26676Y-37776D01*
X26226Y-37776D01*
X26223Y-37777D01*
X26094Y-37777D01*
X25748Y-37431D01*
X25748Y-35225D01*
X25722Y-35092D01*
X25721Y-35091D01*
X25646Y-34979D01*
X25396Y-34729D01*
X25284Y-34653D01*
X25150Y-34627D01*
X25099Y-34627D01*
X25099Y-34526D01*
X25061Y-34434D01*
X24991Y-34364D01*
X24900Y-34326D01*
X24801Y-34326D01*
X24201Y-34326D01*
X24109Y-34364D01*
X24039Y-34434D01*
X24007Y-34508D01*
X23934Y-34539D01*
X23900Y-34573D01*
X23866Y-34539D01*
X23791Y-34507D01*
X23761Y-34434D01*
X23691Y-34364D01*
X23600Y-34326D01*
X23522Y-34326D01*
X23522Y-34279D01*
X23566Y-34261D01*
X23636Y-34191D01*
X23644Y-34171D01*
X23829Y-34294D01*
X24075Y-34343D01*
X24321Y-34294D01*
X24530Y-34155D01*
X24575Y-34087D01*
X24620Y-34155D01*
X24829Y-34294D01*
X25075Y-34343D01*
X26075Y-34343D01*
X26321Y-34294D01*
X26530Y-34155D01*
X27360Y-33324D01*
X27774Y-33324D01*
X27866Y-33286D01*
X27936Y-33216D01*
X27974Y-33125D01*
X27974Y-33026D01*
X27974Y-32968D01*
X28050Y-32968D01*
X28296Y-32919D01*
X28505Y-32780D01*
X28644Y-32571D01*
X28693Y-32325D01*
X28644Y-32079D01*
X28505Y-31870D01*
X28296Y-31731D01*
X28093Y-31690D01*
X28093Y-28725D01*
X28044Y-28479D01*
X27905Y-28270D01*
X27696Y-28131D01*
X27450Y-28082D01*
X27204Y-28131D01*
X26995Y-28270D01*
X26856Y-28479D01*
X26807Y-28725D01*
X26807Y-32058D01*
X25808Y-33057D01*
X25128Y-33057D01*
X25530Y-32655D01*
X25669Y-32446D01*
X25718Y-32200D01*
X25718Y-31848D01*
X25859Y-31848D01*
X25939Y-31928D01*
X26124Y-32005D01*
X26325Y-32005D01*
X26511Y-31928D01*
X26653Y-31786D01*
X26730Y-31601D01*
X26730Y-31400D01*
X26653Y-31214D01*
X26511Y-31072D01*
X26445Y-31044D01*
X26494Y-30971D01*
X26543Y-30725D01*
X26543Y-28275D01*
X26543Y-26100D01*
X26494Y-25854D01*
X26355Y-25645D01*
X26352Y-25643D01*
X25405Y-24695D01*
X25196Y-24556D01*
X24950Y-24507D01*
X22516Y-24507D01*
X20943Y-22933D01*
X20943Y-21925D01*
X20943Y-20168D01*
X20987Y-20123D01*
X21210Y-20346D01*
X21511Y-20471D01*
X21838Y-20471D01*
X22140Y-20346D01*
X22193Y-20293D01*
X23708Y-20293D01*
X28007Y-24591D01*
X28007Y-24826D01*
X27901Y-24826D01*
X27809Y-24864D01*
X27739Y-24934D01*
X27701Y-25025D01*
X27701Y-25124D01*
X27701Y-26524D01*
X27739Y-26616D01*
X27809Y-26686D01*
X27900Y-26724D01*
X27999Y-26724D01*
X28007Y-26724D01*
X28007Y-27375D01*
X28056Y-27621D01*
X28195Y-27830D01*
X28404Y-27969D01*
X28650Y-28018D01*
X28896Y-27969D01*
X29105Y-27830D01*
X29244Y-27621D01*
X29293Y-27375D01*
X29293Y-26724D01*
X29399Y-26724D01*
X29491Y-26686D01*
X29561Y-26616D01*
X29599Y-26525D01*
X29599Y-26426D01*
X29599Y-25026D01*
X29561Y-24934D01*
X29491Y-24864D01*
X29400Y-24826D01*
X29301Y-24826D01*
X29293Y-24826D01*
X29293Y-24325D01*
X29244Y-24079D01*
X29105Y-23870D01*
X29102Y-23868D01*
X24430Y-19195D01*
X24221Y-19056D01*
X23975Y-19007D01*
X22193Y-19007D01*
X22140Y-18954D01*
X21839Y-18829D01*
X21512Y-18829D01*
X21210Y-18954D01*
X20987Y-19176D01*
X20765Y-18954D01*
X20464Y-18829D01*
X20137Y-18829D01*
X19835Y-18954D01*
X19612Y-19176D01*
X19390Y-18954D01*
X19089Y-18829D01*
X18762Y-18829D01*
X18460Y-18954D01*
X18237Y-19176D01*
X18015Y-18954D01*
X17714Y-18829D01*
X17387Y-18829D01*
X17085Y-18954D01*
X16854Y-19185D01*
X16849Y-19194D01*
X16846Y-19185D01*
X16615Y-18954D01*
X16314Y-18829D01*
X15987Y-18829D01*
X15685Y-18954D01*
X15454Y-19185D01*
X15329Y-19486D01*
X15329Y-19813D01*
X15454Y-20115D01*
X15507Y-20168D01*
X15507Y-22375D01*
X15507Y-23783D01*
X13170Y-26120D01*
X13170Y-22854D01*
X13170Y-19715D01*
X11310Y-19715D01*
X11310Y-20651D01*
X11051Y-20651D01*
X10959Y-20689D01*
X10889Y-20759D01*
X10851Y-20850D01*
X10851Y-20949D01*
X10851Y-21199D01*
X10872Y-21250D01*
X10864Y-21259D01*
X10826Y-21350D01*
X10826Y-21449D01*
X10826Y-21699D01*
X10858Y-21777D01*
X10712Y-21777D01*
X10728Y-21761D01*
X10805Y-21576D01*
X10805Y-21375D01*
X10728Y-21189D01*
X10674Y-21135D01*
X10674Y-21051D01*
X10674Y-20601D01*
X10636Y-20509D01*
X10566Y-20439D01*
X10475Y-20401D01*
X10376Y-20401D01*
X10126Y-20401D01*
X10034Y-20439D01*
X09964Y-20509D01*
X09926Y-20600D01*
X09926Y-20699D01*
X09926Y-21135D01*
X09872Y-21189D01*
X09795Y-21374D01*
X09795Y-21575D01*
X09872Y-21761D01*
X09912Y-21801D01*
X09909Y-21804D01*
X09871Y-21895D01*
X09871Y-21994D01*
X09871Y-22354D01*
X09909Y-22446D01*
X09938Y-22475D01*
X09909Y-22504D01*
X09871Y-22595D01*
X09871Y-22694D01*
X09871Y-23054D01*
X09909Y-23146D01*
X09979Y-23216D01*
X10070Y-23254D01*
X10169Y-23254D01*
X10529Y-23254D01*
X10563Y-23239D01*
X10572Y-23261D01*
X10714Y-23403D01*
X10899Y-23480D01*
X11100Y-23480D01*
X11286Y-23403D01*
X11428Y-23261D01*
X11505Y-23076D01*
X11505Y-22875D01*
X11496Y-22854D01*
X13170Y-22854D01*
X13170Y-26120D01*
X11618Y-27672D01*
X11618Y-26800D01*
X11643Y-26675D01*
X11594Y-26429D01*
X11454Y-26221D01*
X11246Y-26081D01*
X11000Y-26032D01*
X10754Y-26081D01*
X10545Y-26221D01*
X10520Y-26245D01*
X10381Y-26454D01*
X10332Y-26700D01*
X10332Y-28221D01*
X10196Y-28131D01*
X09950Y-28082D01*
X09704Y-28131D01*
X09495Y-28270D01*
X09200Y-28564D01*
X09105Y-28420D01*
X08896Y-28281D01*
X08650Y-28232D01*
X08404Y-28281D01*
X08195Y-28420D01*
X08056Y-28629D01*
X08011Y-28851D01*
X07851Y-28851D01*
X07759Y-28889D01*
X07689Y-28959D01*
X07651Y-29050D01*
X07651Y-29149D01*
X07651Y-29699D01*
X07689Y-29791D01*
X07759Y-29861D01*
X07850Y-29899D01*
X07949Y-29899D01*
X08298Y-29899D01*
X08404Y-29969D01*
X08650Y-30018D01*
X09300Y-30018D01*
X09546Y-29969D01*
X09755Y-29830D01*
X10332Y-29253D01*
X10332Y-30901D01*
X10276Y-30901D01*
X09576Y-30901D01*
X09484Y-30939D01*
X09414Y-31009D01*
X09395Y-31053D01*
X08975Y-31053D01*
X08804Y-31087D01*
X08659Y-31184D01*
X07934Y-31909D01*
X07837Y-32054D01*
X07803Y-32225D01*
X07803Y-35426D01*
X07801Y-35426D01*
X07709Y-35464D01*
X07639Y-35534D01*
X07601Y-35625D01*
X07601Y-35724D01*
X07601Y-36324D01*
X07639Y-36416D01*
X07709Y-36486D01*
X07783Y-36517D01*
X07814Y-36591D01*
X07848Y-36625D01*
X07814Y-36659D01*
X07782Y-36733D01*
X07709Y-36764D01*
X07639Y-36834D01*
X07601Y-36925D01*
X07601Y-37024D01*
X07601Y-37624D01*
X07639Y-37716D01*
X07709Y-37786D01*
X07800Y-37824D01*
X07899Y-37824D01*
X08018Y-37824D01*
X07955Y-37976D01*
X07955Y-38173D01*
X08030Y-38355D01*
X08168Y-38493D01*
X08020Y-38555D01*
X07881Y-38694D01*
X07805Y-38876D01*
X07805Y-39073D01*
X07880Y-39255D01*
X07976Y-39351D01*
X07901Y-39351D01*
X07809Y-39389D01*
X07739Y-39459D01*
X07701Y-39550D01*
X07701Y-39649D01*
X07701Y-40099D01*
X07702Y-40101D01*
X07702Y-40381D01*
X07600Y-40483D01*
X07600Y-20383D01*
X08060Y-20574D01*
X08786Y-20575D01*
X09457Y-20298D01*
X09971Y-19785D01*
X10249Y-19115D01*
X10250Y-18389D01*
X10037Y-17875D01*
X27362Y-17875D01*
X27151Y-18385D01*
X27150Y-19111D01*
X27427Y-19782D01*
X27940Y-20296D01*
X28610Y-20574D01*
X29336Y-20575D01*
X29900Y-20342D01*
X29900Y-35433D01*
G54D10*
G36*
X29900Y-54951D02*
X29826Y-54951D01*
X29576Y-54951D01*
X29524Y-54972D01*
X29524Y-54901D01*
X29524Y-54451D01*
X29486Y-54359D01*
X29416Y-54289D01*
X29325Y-54251D01*
X29226Y-54251D01*
X28976Y-54251D01*
X28949Y-54262D01*
X28949Y-54069D01*
X28949Y-53763D01*
X28865Y-53561D01*
X28748Y-53444D01*
X28748Y-52569D01*
X29746Y-51572D01*
X29746Y-51571D01*
X29796Y-51496D01*
X29821Y-51459D01*
X29822Y-51458D01*
X29847Y-51325D01*
X29848Y-51325D01*
X29848Y-50825D01*
X29848Y-49873D01*
X29900Y-49873D01*
X29900Y-54951D01*
X29900Y-54951D01*
G37*
G54D48*
X29900Y-54951D02*
X29826Y-54951D01*
X29576Y-54951D01*
X29524Y-54972D01*
X29524Y-54901D01*
X29524Y-54451D01*
X29486Y-54359D01*
X29416Y-54289D01*
X29325Y-54251D01*
X29226Y-54251D01*
X28976Y-54251D01*
X28949Y-54262D01*
X28949Y-54069D01*
X28949Y-53763D01*
X28865Y-53561D01*
X28748Y-53444D01*
X28748Y-52569D01*
X29746Y-51572D01*
X29746Y-51571D01*
X29796Y-51496D01*
X29821Y-51459D01*
X29822Y-51458D01*
X29847Y-51325D01*
X29848Y-51325D01*
X29848Y-50825D01*
X29848Y-49873D01*
X29900Y-49873D01*
X29900Y-54951D01*
M02*
