M48
;DRILL file {PCBnew (2011-04-29 BZR 2986)-stable} date 29/01/2012 21:45:10
;FORMAT={-:-/ absolute / inch / decimal}
FMAT,2
INCH,TZ
T1C0.024
T2C0.032
T3C0.032
T4C0.039
T5C0.040
T6C0.051
T7C0.060
T8C0.118
%
G90
G05
M72
T1
X0.760Y-4.753
X0.775Y-3.848
X0.805Y-4.263
X0.825Y-5.393
X0.830Y-3.898
X0.845Y-3.808
X0.970Y-5.548
X0.975Y-3.608
X0.985Y-5.003
X0.990Y-4.928
X0.995Y-2.873
X1.000Y-6.120
X1.030Y-2.148
X1.040Y-4.735
X1.065Y-5.838
X1.065Y-5.968
X1.080Y-5.708
X1.100Y-2.298
X1.100Y-2.668
X1.115Y-3.493
X1.125Y-5.112
X1.133Y-5.280
X1.138Y-3.260
X1.148Y-5.185
X1.150Y-3.973
X1.160Y-4.197
X1.185Y-3.502
X1.243Y-5.732
X1.245Y-3.873
X1.245Y-3.973
X1.290Y-5.953
X1.300Y-4.032
X1.320Y-2.873
X1.340Y-5.133
X1.340Y-5.788
X1.373Y-4.973
X1.390Y-5.183
X1.415Y-4.128
X1.430Y-5.023
X1.440Y-5.683
X1.465Y-3.618
X1.485Y-3.928
X1.490Y-4.928
X1.490Y-5.928
X1.493Y-4.148
X1.520Y-4.018
X1.530Y-2.668
X1.565Y-3.268
X1.605Y-3.493
X1.655Y-5.840
X1.675Y-3.502
X1.690Y-4.697
X1.690Y-4.978
X1.720Y-5.838
X1.730Y-3.973
X1.735Y-3.878
X1.740Y-4.902
X1.750Y-2.873
X1.758Y-5.253
X1.778Y-5.885
X1.780Y-4.697
X1.800Y-3.603
X1.840Y-5.073
X1.870Y-3.923
X1.890Y-5.838
X1.895Y-3.608
X1.930Y-5.885
X1.965Y-2.668
X1.965Y-3.973
X1.995Y-5.923
X2.010Y-3.268
X2.040Y-4.692
X2.040Y-5.838
X2.100Y-3.913
X2.110Y-5.928
X2.130Y-4.703
X2.140Y-5.228
X2.155Y-5.133
X2.185Y-2.873
X2.185Y-3.498
X2.185Y-3.888
X2.190Y-4.563
X2.190Y-5.018
X2.190Y-5.888
X2.192Y-5.490
X2.200Y-4.067
X2.240Y-5.133
X2.245Y-6.070
X2.285Y-4.043
X2.290Y-4.648
X2.290Y-5.018
X2.300Y-4.418
X2.340Y-5.228
X2.345Y-4.708
X2.375Y-3.613
X2.375Y-3.918
X2.385Y-4.418
X2.390Y-5.283
X2.390Y-5.838
X2.410Y-2.668
X2.435Y-5.893
X2.440Y-5.178
X2.485Y-3.993
X2.485Y-4.418
X2.490Y-5.133
X2.495Y-5.788
X2.540Y-5.293
X2.540Y-5.848
X2.558Y-3.458
X2.565Y-4.598
X2.590Y-4.708
X2.590Y-5.073
X2.590Y-5.732
X2.623Y-3.150
X2.650Y-4.027
X2.650Y-5.928
X2.665Y-3.508
X2.690Y-5.033
X2.690Y-5.683
X2.745Y-2.873
X2.775Y-5.268
X2.790Y-4.913
X2.825Y-4.078
X2.840Y-4.973
X2.840Y-5.083
X2.865Y-2.738
X2.875Y-3.053
X2.885Y-4.343
X2.945Y-5.268
T2
X2.755Y-3.888
X2.755Y-3.988
X2.828Y-4.475
X2.828Y-4.575
X2.890Y-3.883
X2.890Y-3.983
T3
X0.940Y-4.803
X0.940Y-5.402
X1.040Y-4.803
X1.040Y-5.402
X1.135Y-6.308
X1.140Y-4.803
X1.140Y-5.402
X1.140Y-5.583
X1.140Y-6.183
X1.235Y-6.308
X1.240Y-4.803
X1.240Y-5.402
X1.240Y-5.583
X1.240Y-6.183
X1.340Y-4.803
X1.340Y-5.402
X1.340Y-5.583
X1.340Y-6.183
X1.360Y-6.308
X1.440Y-4.803
X1.440Y-5.402
X1.440Y-5.583
X1.440Y-6.183
X1.460Y-6.308
X1.540Y-4.803
X1.540Y-5.402
X1.540Y-5.583
X1.540Y-6.183
X1.640Y-4.803
X1.640Y-5.402
X1.640Y-5.583
X1.640Y-6.183
X1.653Y-6.308
X1.658Y-4.265
X1.733Y-4.615
X1.740Y-4.803
X1.740Y-5.402
X1.740Y-5.583
X1.740Y-6.183
X1.753Y-6.308
X1.783Y-4.515
X1.833Y-4.615
X1.840Y-4.803
X1.840Y-5.402
X1.840Y-5.583
X1.840Y-6.183
X1.853Y-6.308
X1.883Y-4.515
X1.933Y-4.615
X1.940Y-4.803
X1.940Y-5.402
X1.940Y-5.583
X1.940Y-6.183
X1.983Y-4.515
X2.002Y-6.308
X2.040Y-4.803
X2.040Y-5.402
X2.040Y-5.583
X2.040Y-6.183
X2.058Y-4.265
X2.103Y-6.308
X2.140Y-4.803
X2.140Y-5.402
X2.140Y-5.583
X2.140Y-6.183
X2.203Y-6.308
X2.240Y-4.803
X2.240Y-5.402
X2.240Y-5.583
X2.240Y-6.183
X2.340Y-4.803
X2.340Y-5.402
X2.340Y-5.583
X2.340Y-6.183
X2.440Y-4.803
X2.440Y-5.402
X2.440Y-5.583
X2.440Y-6.183
X2.540Y-4.803
X2.540Y-5.402
X2.540Y-5.583
X2.540Y-6.183
X2.640Y-4.803
X2.640Y-5.402
X2.640Y-5.583
X2.640Y-6.183
X2.740Y-4.803
X2.740Y-5.402
X2.840Y-4.803
X2.840Y-5.402
T4
X0.885Y-5.643
X0.885Y-5.743
X0.885Y-5.843
X0.890Y-4.353
X0.890Y-4.453
X0.890Y-4.553
X0.890Y-4.652
X1.140Y-4.353
X1.140Y-4.453
X1.140Y-4.553
X1.140Y-4.652
X2.830Y-3.418
X2.830Y-3.518
X2.830Y-3.618
X2.830Y-3.718
X2.885Y-5.638
X2.885Y-5.738
X2.885Y-5.838
T5
X0.998Y-3.150
X0.998Y-3.370
X1.098Y-3.150
X1.098Y-3.370
X1.198Y-3.150
X1.198Y-3.370
X1.428Y-3.150
X1.428Y-3.370
X1.528Y-3.150
X1.528Y-3.370
X1.628Y-3.150
X1.628Y-3.370
X1.868Y-3.150
X1.868Y-3.370
X1.968Y-3.150
X1.968Y-3.370
X2.067Y-3.150
X2.067Y-3.370
X2.308Y-3.150
X2.308Y-3.370
X2.408Y-3.150
X2.408Y-3.370
X2.508Y-3.150
X2.508Y-3.370
T6
X1.478Y-1.965
X1.615Y-1.965
X1.755Y-1.965
X1.893Y-1.965
X2.030Y-1.965
X2.168Y-1.965
T7
X0.865Y-2.578
X2.865Y-2.578
T8
X0.843Y-1.875
X0.843Y-6.270
X2.898Y-1.875
X2.898Y-6.270
T0
M30
